<?xml version="1.0" encoding="UTF-8" standalone="no"?>
<svg width="101.6mm" height="50.8mm" viewBox="0 0 1440 720"
 xmlns="http://www.w3.org/2000/svg" xmlns:xlink="http://www.w3.org/1999/xlink" version="1.2" baseProfile="full">
<title>sfoh-ex-01-b</title>
<desc>Generated by MuseScore Studio 4.6.3</desc>
<polyline class="StaffLines" fill="none" stroke="#000000" stroke-width="2.26" stroke-linejoin="bevel" points="176.4,188 1353.6,188" />
<polyline class="StaffLines" fill="none" stroke="#000000" stroke-width="2.26" stroke-linejoin="bevel" points="176.4,212.8 1353.6,212.8" />
<polyline class="StaffLines" fill="none" stroke="#000000" stroke-width="2.26" stroke-linejoin="bevel" points="176.4,237.6 1353.6,237.6" />
<polyline class="StaffLines" fill="none" stroke="#000000" stroke-width="2.26" stroke-linejoin="bevel" points="176.4,262.4 1353.6,262.4" />
<polyline class="StaffLines" fill="none" stroke="#000000" stroke-width="2.26" stroke-linejoin="bevel" points="176.4,287.2 1353.6,287.2" />
<polyline class="StaffLines" fill="none" stroke="#000000" stroke-width="2.26" stroke-linejoin="bevel" points="176.4,432.8 1353.6,432.8" />
<polyline class="StaffLines" fill="none" stroke="#000000" stroke-width="2.26" stroke-linejoin="bevel" points="176.4,457.6 1353.6,457.6" />
<polyline class="StaffLines" fill="none" stroke="#000000" stroke-width="2.26" stroke-linejoin="bevel" points="176.4,482.4 1353.6,482.4" />
<polyline class="StaffLines" fill="none" stroke="#000000" stroke-width="2.26" stroke-linejoin="bevel" points="176.4,507.2 1353.6,507.2" />
<polyline class="StaffLines" fill="none" stroke="#000000" stroke-width="2.26" stroke-linejoin="bevel" points="176.4,532 1353.6,532" />
<polyline class="BarLine" fill="none" stroke="#000000" stroke-width="2.48" stroke-linejoin="bevel" points="177.64,186.872 177.64,432.8" />
<polyline class="BarLine" fill="none" stroke="#000000" stroke-width="2.48" stroke-linejoin="bevel" points="1337.48,186.872 1337.48,432.8" />
<polyline class="BarLine" fill="none" stroke="#000000" stroke-width="2.48" stroke-linejoin="bevel" points="1352.36,186.872 1352.36,432.8" />
<polyline class="BarLine" fill="none" stroke="#000000" stroke-width="2.48" stroke-linejoin="bevel" points="874.925,186.872 874.925,432.8" />
<polyline class="BarLine" fill="none" stroke="#000000" stroke-width="2.48" stroke-linejoin="bevel" points="177.64,431.671 177.64,533.128" />
<polyline class="BarLine" fill="none" stroke="#000000" stroke-width="2.48" stroke-linejoin="bevel" points="1337.48,431.671 1337.48,533.128" />
<polyline class="BarLine" fill="none" stroke="#000000" stroke-width="2.48" stroke-linejoin="bevel" points="1352.36,431.671 1352.36,533.128" />
<polyline class="BarLine" fill="none" stroke="#000000" stroke-width="2.48" stroke-linejoin="bevel" points="874.925,431.671 874.925,533.128" />
<path class="Accidental" transform="matrix(0.992001,0,0,0.992001,921.347,188)" d="M17,31.4 L19.9,31.4 L19.9,15 L23.8,13.8 L23.8,3.4 L19.9,4.6 L19.9,-10.2 L23.8,-11.5 L23.8,-21.9 L19.9,-20.6 L19.9,-34.4 L17,-34.4 L17,-19.7 L7.2,-16.5 L7.2,-31.9 L4.3,-31.9 L4.3,-15.6 L0,-14.2 L0,-3.8 L4.3,-5.2 L4.3,9.7 L0,11.1 L0,21.5 L4.3,20.1 L4.3,33.9 L7.2,33.9 L7.2,19.1 L17,16 L17,31.4 M7.2,-6.1 L17,-9.3 L17,5.6 L7.2,8.7 L7.2,-6.1 "/>
<path class="Accidental" transform="matrix(0.992001,0,0,0.992001,369.877,225.2)" d="M17,31.4 L19.9,31.4 L19.9,15 L23.8,13.8 L23.8,3.4 L19.9,4.6 L19.9,-10.2 L23.8,-11.5 L23.8,-21.9 L19.9,-20.6 L19.9,-34.4 L17,-34.4 L17,-19.7 L7.2,-16.5 L7.2,-31.9 L4.3,-31.9 L4.3,-15.6 L0,-14.2 L0,-3.8 L4.3,-5.2 L4.3,9.7 L0,11.1 L0,21.5 L4.3,20.1 L4.3,33.9 L7.2,33.9 L7.2,19.1 L17,16 L17,31.4 M7.2,-6.1 L17,-9.3 L17,5.6 L7.2,8.7 L7.2,-6.1 "/>
<path class="Accidental" transform="matrix(0.992001,0,0,0.992001,892.285,225.2)" d="M17,31.4 L19.9,31.4 L19.9,15 L23.8,13.8 L23.8,3.4 L19.9,4.6 L19.9,-10.2 L23.8,-11.5 L23.8,-21.9 L19.9,-20.6 L19.9,-34.4 L17,-34.4 L17,-19.7 L7.2,-16.5 L7.2,-31.9 L4.3,-31.9 L4.3,-15.6 L0,-14.2 L0,-3.8 L4.3,-5.2 L4.3,9.7 L0,11.1 L0,21.5 L4.3,20.1 L4.3,33.9 L7.2,33.9 L7.2,19.1 L17,16 L17,31.4 M7.2,-6.1 L17,-9.3 L17,5.6 L7.2,8.7 L7.2,-6.1 "/>
<polyline class="Stem" fill="none" stroke="#000000" stroke-width="2.26" stroke-linejoin="bevel" points="594.4,196.928 594.4,126.084" />
<polyline class="Stem" fill="none" stroke="#000000" stroke-width="2.26" stroke-linejoin="bevel" points="1196.85,196.928 1196.85,138.4" />
<polyline class="Stem" fill="none" stroke="#000000" stroke-width="2.26" stroke-linejoin="bevel" points="1124.39,221.728 1124.39,145.592" />
<polyline class="Stem" fill="none" stroke="#000000" stroke-width="2.26" stroke-linejoin="bevel" points="986.624,184.528 986.624,126" />
<polyline class="Stem" fill="none" stroke="#000000" stroke-width="2.26" stroke-linejoin="bevel" points="430.101,221.728 430.101,138.316" />
<polyline class="Stem" fill="none" stroke="#000000" stroke-width="2.26" stroke-linejoin="bevel" points="823.833,196.928 823.833,120.792" />
<polyline class="Stem" fill="none" stroke="#000000" stroke-width="2.26" stroke-linejoin="bevel" points="502.553,221.728 502.553,132.922" />
<polyline class="Stem" fill="none" stroke="#000000" stroke-width="2.26" stroke-linejoin="bevel" points="642.702,196.928 642.702,138.4" />
<path class="Hook" transform="matrix(0.992001,0,0,0.992001,822.705,119.8)" d="M0,-3.1 L0,23.1 L2,23.1 C18.5,24.7 24.8,43.9 24.8,58.2 C24.8,63.8 24,70.6 22.1,75.3 L23.3,75.5 C25.3,69.9 26.4,63.7 26.4,57 C26.4,47.3 24.4,37.4 18.9,28 C11.5,15.4 2.4,7.7 2,-3.1 L0,-3.1 "/>
<path class="Hook" transform="matrix(0.992001,0,0,0.992001,1123.26,144.6)" d="M0,-3.1 L0,23.1 L2,23.1 C18.5,24.7 24.8,43.9 24.8,58.2 C24.8,63.8 24,70.6 22.1,75.3 L23.3,75.5 C25.3,69.9 26.4,63.7 26.4,57 C26.4,47.3 24.4,37.4 18.9,28 C11.5,15.4 2.4,7.7 2,-3.1 L0,-3.1 "/>
<path class="Note" transform="matrix(0.992001,0,0,0.992001,563.982,200.4)" d="M0,4 C0,9.3 4.3,13.2 11.1,13.2 C20.6,13.2 31.8,5.6 31.8,-3.5 C31.8,-8.8 27.5,-12.6 20.6,-12.6 C11.4,-12.6 0,-5.5 0,4"/>
<path class="Note" transform="matrix(0.992001,0,0,0.992001,472.136,225.2)" d="M0,4 C0,9.3 4.3,13.2 11.1,13.2 C20.6,13.2 31.8,5.6 31.8,-3.5 C31.8,-8.8 27.5,-12.6 20.6,-12.6 C11.4,-12.6 0,-5.5 0,4"/>
<path class="Note" transform="matrix(0.992001,0,0,0.992001,612.284,200.4)" d="M0,4 C0,9.3 4.3,13.2 11.1,13.2 C20.6,13.2 31.8,5.6 31.8,-3.5 C31.8,-8.8 27.5,-12.6 20.6,-12.6 C11.4,-12.6 0,-5.5 0,4"/>
<path class="Note" transform="matrix(0.992001,0,0,0.992001,1166.43,200.4)" d="M0,4 C0,9.3 4.3,13.2 11.1,13.2 C20.6,13.2 31.8,5.6 31.8,-3.5 C31.8,-8.8 27.5,-12.6 20.6,-12.6 C11.4,-12.6 0,-5.5 0,4"/>
<path class="Note" transform="matrix(0.992001,0,0,0.992001,399.683,225.2)" d="M0,4 C0,9.3 4.3,13.2 11.1,13.2 C20.6,13.2 31.8,5.6 31.8,-3.5 C31.8,-8.8 27.5,-12.6 20.6,-12.6 C11.4,-12.6 0,-5.5 0,4"/>
<path class="Note" transform="matrix(0.992001,0,0,0.992001,793.416,200.4)" d="M0,4 C0,9.3 4.3,13.2 11.1,13.2 C20.6,13.2 31.8,5.6 31.8,-3.5 C31.8,-8.8 27.5,-12.6 20.6,-12.6 C11.4,-12.6 0,-5.5 0,4"/>
<path class="Note" transform="matrix(0.992001,0,0,0.992001,1093.98,225.2)" d="M0,4 C0,9.3 4.3,13.2 11.1,13.2 C20.6,13.2 31.8,5.6 31.8,-3.5 C31.8,-8.8 27.5,-12.6 20.6,-12.6 C11.4,-12.6 0,-5.5 0,4"/>
<path class="Note" transform="matrix(0.992001,0,0,0.992001,956.207,188)" d="M0,4 C0,9.3 4.3,13.2 11.1,13.2 C20.6,13.2 31.8,5.6 31.8,-3.5 C31.8,-8.8 27.5,-12.6 20.6,-12.6 C11.4,-12.6 0,-5.5 0,4"/>
<path class="Note" transform="matrix(0.992001,0,0,0.992001,951.154,225.2)" d="M0,-0.3 C0,9 11.4,13.2 22.5,13.2 C33.4,13.2 42,7.4 42,0.8 C42,-8.9 30.6,-13.4 19.6,-13.4 C11.3,-13.4 0,-9.2 0,-0.3 M12.4,-3.1 C12.4,-6.6 15.1,-10.6 19.5,-10.6 C21.9,-10.6 23.8,-9.9 25.5,-8.2 C27.5,-6.2 29.7,0.2 29.7,3.4 C29.7,6.9 26.7,10.9 22.3,10.9 C19.6,10.9 17.8,10.1 15.9,8 C14.4,6.4 12.4,0.7 12.4,-3.1"/>
<path class="Note" transform="matrix(0.992001,0,0,0.992001,951.154,250)" d="M0,-0.3 C0,9 11.4,13.2 22.5,13.2 C33.4,13.2 42,7.4 42,0.8 C42,-8.9 30.6,-13.4 19.6,-13.4 C11.3,-13.4 0,-9.2 0,-0.3 M12.4,-3.1 C12.4,-6.6 15.1,-10.6 19.5,-10.6 C21.9,-10.6 23.8,-9.9 25.5,-8.2 C27.5,-6.2 29.7,0.2 29.7,3.4 C29.7,6.9 26.7,10.9 22.3,10.9 C19.6,10.9 17.8,10.1 15.9,8 C14.4,6.4 12.4,0.7 12.4,-3.1"/>
<path class="Clef" transform="matrix(0.992001,0,0,0.992001,197.48,262.4)" d="M48.8,-101.5 C52.4,-101.5 54.8,-97.4 54.8,-91.9 C54.8,-81.9 43,-69.7 35,-63.4 C34.6,-65.9 34.5,-68.4 34.5,-71 C34.5,-85.8 40,-101.5 48.8,-101.5 M42.9,-14.5 C54.6,-14.3 60.2,-7.2 60.2,3.6 C60.2,11.1 56.1,18.9 48.6,21.1 L42.9,-14.5 M46.2,21.9 C43.5,22.6 40.8,22.9 38.2,22.9 C20.7,22.9 6.8,9.4 6.8,-5.9 C6.8,-21.4 23.1,-36.5 35.3,-45.5 L38.3,-27.1 C26.4,-24.6 20.5,-13.8 20.5,-6 C20.5,3.1 25.9,10.6 33.8,13.4 L34.8,12.3 C30.3,10.1 26.9,3.2 26.9,-1.2 C26.9,-5.4 30.1,-12.9 40.2,-14.3 L46.2,21.9 M46.7,25.2 C48.1,32.1 49.9,46.8 49.9,49.4 C49.9,59.5 42.4,66.4 33.8,66.4 C28.2,66.4 24.3,64.3 23,62.5 C30.8,60.3 34.1,55.7 34.1,51 C34.1,45.1 28.7,40.9 23.7,40.9 C15.9,40.9 12.8,47.7 12.8,53.7 C12.8,65.1 25.5,69 33.2,69 C46.7,69 52.5,58.7 52.5,50.2 C52.5,47.3 50.4,30.6 49.2,24.5 C60.4,20.7 68.3,9.4 68.3,-2.4 C68.3,-16.4 59.1,-27.7 43.6,-27.7 C42.7,-27.7 41.8,-27.7 40.9,-27.6 L37.6,-47 C44,-52.1 48.3,-56.8 51.8,-62.7 C56.1,-70 58.9,-77 58.9,-89.2 C58.9,-100.3 51.7,-117 47.3,-117 C41.4,-117 33.7,-102.6 32.2,-95.8 C31.1,-91 30.6,-85.2 30.6,-81.4 C30.6,-74.2 31.5,-68 32.5,-61.3 C16.9,-49.8 0,-33.7 0,-13.5 C0,11 18.3,26.1 38.7,26.1 C41.6,26.1 44.2,25.7 46.7,25.2"/>
<path class="Clef" transform="matrix(0.992001,0,0,0.992001,197.48,507.2)" d="M48.8,-101.5 C52.4,-101.5 54.8,-97.4 54.8,-91.9 C54.8,-81.9 43,-69.7 35,-63.4 C34.6,-65.9 34.5,-68.4 34.5,-71 C34.5,-85.8 40,-101.5 48.8,-101.5 M42.9,-14.5 C54.6,-14.3 60.2,-7.2 60.2,3.6 C60.2,11.1 56.1,18.9 48.6,21.1 L42.9,-14.5 M46.2,21.9 C43.5,22.6 40.8,22.9 38.2,22.9 C20.7,22.9 6.8,9.4 6.8,-5.9 C6.8,-21.4 23.1,-36.5 35.3,-45.5 L38.3,-27.1 C26.4,-24.6 20.5,-13.8 20.5,-6 C20.5,3.1 25.9,10.6 33.8,13.4 L34.8,12.3 C30.3,10.1 26.9,3.2 26.9,-1.2 C26.9,-5.4 30.1,-12.9 40.2,-14.3 L46.2,21.9 M46.7,25.2 C48.1,32.1 49.9,46.8 49.9,49.4 C49.9,59.5 42.4,66.4 33.8,66.4 C28.2,66.4 24.3,64.3 23,62.5 C30.8,60.3 34.1,55.7 34.1,51 C34.1,45.1 28.7,40.9 23.7,40.9 C15.9,40.9 12.8,47.7 12.8,53.7 C12.8,65.1 25.5,69 33.2,69 C46.7,69 52.5,58.7 52.5,50.2 C52.5,47.3 50.4,30.6 49.2,24.5 C60.4,20.7 68.3,9.4 68.3,-2.4 C68.3,-16.4 59.1,-27.7 43.6,-27.7 C42.7,-27.7 41.8,-27.7 40.9,-27.6 L37.6,-47 C44,-52.1 48.3,-56.8 51.8,-62.7 C56.1,-70 58.9,-77 58.9,-89.2 C58.9,-100.3 51.7,-117 47.3,-117 C41.4,-117 33.7,-102.6 32.2,-95.8 C31.1,-91 30.6,-85.2 30.6,-81.4 C30.6,-74.2 31.5,-68 32.5,-61.3 C16.9,-49.8 0,-33.7 0,-13.5 C0,11 18.3,26.1 38.7,26.1 C41.6,26.1 44.2,25.7 46.7,25.2"/>
<path class="Rest" transform="matrix(0.992001,0,0,0.992001,327.231,237.6)" d="M0,-12.6 C0,-8.2 3.2,-3.9 8.6,-3.9 C13.2,-3.9 17.8,-7.1 22.3,-10.3 C20.6,-1.2 16,10.4 13.5,18.3 L11.4,24.8 L15.4,24.8 L26.5,-17.1 L25.1,-17.9 C22.5,-15.2 21,-11 15.3,-10.6 C15.5,-11.3 15.7,-12.3 15.7,-13.2 C15.7,-17.9 13,-21.6 9,-21.6 C3.2,-21.6 0,-16.6 0,-12.6"/>
<path class="Rest" transform="matrix(0.992001,0,0,0.992001,720.963,237.6)" d="M0,-12.6 C0,-8.2 3.2,-3.9 8.6,-3.9 C13.2,-3.9 17.8,-7.1 22.3,-10.3 C20.6,-1.2 16,10.4 13.5,18.3 L11.4,24.8 L15.4,24.8 L26.5,-17.1 L25.1,-17.9 C22.5,-15.2 21,-11 15.3,-10.6 C15.5,-11.3 15.7,-12.3 15.7,-13.2 C15.7,-17.9 13,-21.6 9,-21.6 C3.2,-21.6 0,-16.6 0,-12.6"/>
<path class="Beam" fill-rule="evenodd" d="M428.972,132.183 L595.528,119.783 L595.528,132.217 L428.972,144.617 L428.972,132.183 "/>
<path class="Beam" fill-rule="evenodd" d="M595.528,138.383 L568.248,140.414 L568.248,152.848 L595.528,150.817 L595.528,138.383 "/>
<path class="SystemText" d="M251.97,70.0411 L256.828,70.0411 L256.828,101.633 L274.992,101.633 L274.992,105.905 L251.97,105.905 L251.97,70.0411 M289.557,103.073 C292.47,103.073 294.468,101.971 295.55,99.7652 C296.633,97.5598 297.174,95.1062 297.174,92.4044 C297.174,89.963 296.783,87.9773 296.002,86.4473 C294.765,84.0385 292.633,82.8341 289.605,82.8341 C286.92,82.8341 284.967,83.8594 283.746,85.9102 C282.525,87.961 281.915,90.435 281.915,93.3321 C281.915,96.1153 282.525,98.4346 283.746,100.29 C284.967,102.146 286.904,103.073 289.557,103.073 M289.727,79.001 C293.097,79.001 295.945,80.1241 298.272,82.3702 C300.6,84.6163 301.764,87.9203 301.764,92.2823 C301.764,96.4978 300.738,99.9809 298.687,102.732 C296.637,105.482 293.455,106.857 289.141,106.857 C285.544,106.857 282.688,105.641 280.572,103.208 C278.456,100.774 277.398,97.5069 277.398,93.4053 C277.398,89.0108 278.513,85.5115 280.743,82.9073 C282.973,80.3031 285.968,79.001 289.727,79.001 M306.977,69.919 L311.372,69.919 L311.372,83.2979 C312.414,81.9796 313.349,81.0518 314.18,80.5147 C315.596,79.587 317.362,79.1231 319.477,79.1231 C323.27,79.1231 325.841,80.4496 327.192,83.1026 C327.925,84.5512 328.291,86.5613 328.291,89.1329 L328.291,105.905 L323.774,105.905 L323.774,89.4258 C323.774,87.5053 323.53,86.0974 323.042,85.2022 C322.244,83.7699 320.747,83.0538 318.55,83.0538 C316.727,83.0538 315.075,83.6804 313.594,84.9337 C312.113,86.1869 311.372,88.5551 311.372,92.0382 L311.372,105.905 L306.977,105.905 L306.977,69.919 M345.663,79.1719 C347.518,79.1719 349.317,79.6073 351.058,80.4781 C352.8,81.3489 354.127,82.476 355.038,83.8594 C355.917,85.1778 356.503,86.7159 356.796,88.4737 C357.056,89.6781 357.186,91.5987 357.186,94.2354 L338.021,94.2354 C338.103,96.8884 338.729,99.0165 339.901,100.62 C341.073,102.223 342.888,103.024 345.346,103.024 C347.641,103.024 349.472,102.268 350.839,100.754 C351.62,99.8751 352.173,98.8578 352.499,97.7022 L356.82,97.7022 C356.706,98.6625 356.328,99.7327 355.685,100.913 C355.042,102.093 354.322,103.057 353.524,103.806 C352.19,105.108 350.538,105.987 348.568,106.442 C347.51,106.703 346.314,106.833 344.979,106.833 C341.724,106.833 338.965,105.649 336.703,103.281 C334.441,100.913 333.309,97.5964 333.309,93.3321 C333.309,89.1329 334.449,85.723 336.727,83.1026 C339.006,80.4822 341.985,79.1719 345.663,79.1719 M352.67,90.7442 C352.491,88.8399 352.076,87.3181 351.425,86.1788 C350.22,84.0629 348.21,83.0049 345.394,83.0049 C343.376,83.0049 341.683,83.7333 340.316,85.19 C338.949,86.6467 338.225,88.4981 338.143,90.7442 L352.67,90.7442 M362.571,79.7579 L366.746,79.7579 L366.746,83.4688 C367.983,81.9389 369.293,80.8402 370.677,80.1729 C372.06,79.5056 373.598,79.1719 375.291,79.1719 C379.002,79.1719 381.508,80.4659 382.81,83.0538 C383.527,84.4698 383.885,86.4962 383.885,89.1329 L383.885,105.905 L379.417,105.905 L379.417,89.4258 C379.417,87.8308 379.181,86.545 378.709,85.5684 C377.928,83.9408 376.512,83.127 374.461,83.127 C373.419,83.127 372.565,83.2328 371.897,83.4444 C370.693,83.8025 369.635,84.5186 368.724,85.5928 C367.991,86.4555 367.515,87.3466 367.295,88.2662 C367.076,89.1858 366.966,90.5001 366.966,92.2091 L366.966,105.905 L362.571,105.905 L362.571,79.7579 M399.597,79.294 C401.647,79.294 403.438,79.7986 404.968,80.8077 C405.798,81.3773 406.644,82.2074 407.507,83.2979 L407.507,80.002 L411.559,80.002 L411.559,103.781 C411.559,107.102 411.071,109.722 410.095,111.643 C408.272,115.191 404.829,116.965 399.767,116.965 C396.952,116.965 394.584,116.334 392.663,115.073 C390.742,113.811 389.668,111.838 389.44,109.152 L393.908,109.152 C394.12,110.324 394.543,111.228 395.178,111.862 C396.17,112.839 397.733,113.327 399.865,113.327 C403.234,113.327 405.44,112.139 406.481,109.763 C407.1,108.363 407.385,105.865 407.336,102.268 C406.457,103.602 405.399,104.595 404.162,105.246 C402.925,105.897 401.289,106.223 399.255,106.223 C396.423,106.223 393.945,105.218 391.821,103.208 C389.697,101.197 388.635,97.8731 388.635,93.2344 C388.635,88.8562 389.705,85.4382 391.845,82.9805 C393.985,80.5229 396.569,79.294 399.597,79.294 M407.507,92.7217 C407.507,89.4828 406.839,87.0821 405.505,85.5196 C404.17,83.9571 402.469,83.1758 400.402,83.1758 C397.31,83.1758 395.194,84.6244 394.055,87.5216 C393.452,89.0678 393.151,91.0941 393.151,93.6007 C393.151,96.5466 393.749,98.7886 394.946,100.327 C396.142,101.865 397.749,102.634 399.767,102.634 C402.925,102.634 405.147,101.21 406.432,98.3614 C407.149,96.7501 407.507,94.8702 407.507,92.7217 M418.287,79.7579 L422.462,79.7579 L422.462,84.2745 C422.804,83.3956 423.642,82.3254 424.976,81.064 C426.311,79.8026 427.849,79.1719 429.591,79.1719 C429.672,79.1719 429.81,79.1801 430.006,79.1964 C430.201,79.2126 430.535,79.2452 431.007,79.294 L431.007,83.9327 C430.746,83.8839 430.506,83.8513 430.286,83.835 C430.067,83.8188 429.827,83.8106 429.566,83.8106 C427.353,83.8106 425.652,84.5227 424.464,85.9468 C423.276,87.371 422.682,89.0108 422.682,90.8663 L422.682,105.905 L418.287,105.905 L418.287,79.7579 M434.806,79.8799 L439.273,79.8799 L439.273,105.905 L434.806,105.905 L434.806,79.8799 M434.806,70.0411 L439.273,70.0411 L439.273,75.0216 L434.806,75.0216 L434.806,70.0411 M445.899,79.7579 L450.074,79.7579 L450.074,83.4688 C451.311,81.9389 452.621,80.8402 454.005,80.1729 C455.388,79.5056 456.926,79.1719 458.619,79.1719 C462.33,79.1719 464.836,80.4659 466.139,83.0538 C466.855,84.4698 467.213,86.4962 467.213,89.1329 L467.213,105.905 L462.745,105.905 L462.745,89.4258 C462.745,87.8308 462.509,86.545 462.037,85.5684 C461.256,83.9408 459.84,83.127 457.789,83.127 C456.747,83.127 455.893,83.2328 455.225,83.4444 C454.021,83.8025 452.963,84.5186 452.052,85.5928 C451.319,86.4555 450.843,87.3466 450.623,88.2662 C450.404,89.1858 450.294,90.5001 450.294,92.2091 L450.294,105.905 L445.899,105.905 L445.899,79.7579 "/>
<path class="SystemText" d="M150.509,118.749 L154.782,118.749 L154.782,131.761 C155.742,130.508 156.89,129.552 158.224,128.893 C159.559,128.233 161.007,127.904 162.57,127.904 C165.825,127.904 168.466,129.023 170.492,131.261 C172.519,133.499 173.532,136.799 173.532,141.161 C173.532,145.295 172.531,148.729 170.529,151.463 C168.527,154.198 165.752,155.565 162.204,155.565 C160.218,155.565 158.542,155.085 157.174,154.125 C156.361,153.555 155.49,152.643 154.562,151.39 L154.562,154.735 L150.509,154.735 L150.509,118.749 M161.935,151.683 C164.311,151.683 166.09,150.739 167.27,148.851 C168.45,146.963 169.04,144.473 169.04,141.38 C169.04,138.63 168.45,136.351 167.27,134.545 C166.09,132.738 164.352,131.835 162.057,131.835 C160.055,131.835 158.301,132.575 156.796,134.056 C155.29,135.537 154.538,137.979 154.538,141.38 C154.538,143.838 154.847,145.832 155.465,147.362 C156.621,150.243 158.778,151.683 161.935,151.683 M177.159,164.94 C179.747,159.894 181.415,156.216 182.164,153.905 C183.303,150.406 183.873,146.304 183.873,141.6 C183.873,136.896 183.213,132.591 181.895,128.685 C181.081,126.276 179.478,122.809 177.085,118.285 L180.04,118.285 C182.546,122.289 184.064,124.759 184.593,125.694 C185.122,126.63 185.695,127.92 186.314,129.564 C187.095,131.599 187.653,133.609 187.986,135.594 C188.32,137.58 188.487,139.492 188.487,141.332 C188.487,146.149 187.722,150.446 186.192,154.222 C185.232,156.647 183.238,160.22 180.21,164.94 L177.159,164.94 "/>
<path class="RehearsalMark" fill="none" stroke="#000000" stroke-width="3.97" stroke-linecap="square" stroke-linejoin="miter" stroke-miterlimit="2" fill-rule="evenodd" d="M99.1484,370.432 C99.1484,388.214 84.7335,402.629 66.9519,402.629 C49.1702,402.629 34.7554,388.214 34.7554,370.432 C34.7554,352.651 49.1702,338.236 66.9519,338.236 C84.7335,338.236 99.1484,352.651 99.1484,370.432"/>
<path class="RehearsalMark" d="M60.3933,362.677 L60.3933,359.307 C63.5671,358.998 65.7807,358.481 67.0339,357.757 C68.2872,357.033 69.223,355.32 69.8415,352.618 L73.3083,352.618 L73.3083,387.432 L68.6208,387.432 L68.6208,362.677 L60.3933,362.677 "/>
<path class="Harmony" d="M1011.51,612.855 L1011.51,611.801 L999.289,611.801 L999.289,612.855 C1000.01,612.973 1000.6,613.104 1001.06,613.251 C1001.52,613.397 1001.89,613.549 1002.17,613.705 C1002.46,613.861 1002.68,614.017 1002.83,614.174 C1002.99,614.33 1003.12,614.496 1003.21,614.672 C1003.53,615.199 1003.57,615.912 1003.33,616.81 C1003.1,617.709 1002.7,618.891 1002.13,620.355 L992.756,643.441 L982.59,620.121 C981.926,618.598 981.511,617.372 981.345,616.444 C981.179,615.517 981.272,614.799 981.623,614.291 C981.877,613.881 982.321,613.563 982.956,613.339 C983.591,613.114 984.494,612.953 985.666,612.855 L985.666,611.801 L969.406,611.801 L969.406,612.855 C970.344,612.934 971.096,613.065 971.662,613.251 C972.229,613.436 972.736,613.705 973.186,614.057 C973.361,614.193 973.527,614.325 973.684,614.452 C973.84,614.579 974.016,614.774 974.211,615.038 C974.406,615.302 974.631,615.673 974.885,616.151 C975.139,616.63 975.441,617.299 975.793,618.158 L990.617,652.465 L991.73,652.465 L1005.56,618.568 C1006.4,616.576 1007.33,615.111 1008.34,614.174 C1008.67,613.822 1009.11,613.539 1009.66,613.324 C1010.21,613.109 1010.82,612.953 1011.51,612.855 M1013.76,651.527 L1030.78,651.527 L1030.78,650.414 L1029.35,650.414 C1029,650.414 1028.63,650.37 1028.26,650.282 C1027.89,650.194 1027.54,650.087 1027.19,649.96 C1026.85,649.833 1026.55,649.686 1026.3,649.52 C1026.05,649.354 1025.87,649.193 1025.77,649.037 C1025.56,648.685 1025.39,648.158 1025.28,647.455 C1025.16,646.752 1025.1,645.756 1025.1,644.467 L1025.1,618.803 C1025.1,617.611 1025.17,616.644 1025.3,615.902 C1025.44,615.16 1025.62,614.623 1025.83,614.291 C1026.61,613.334 1027.79,612.855 1029.35,612.855 L1030.78,612.855 L1030.78,611.801 L1013.76,611.801 L1013.76,612.855 L1015.2,612.855 C1015.88,612.855 1016.55,612.987 1017.22,613.251 C1017.88,613.515 1018.4,613.881 1018.77,614.35 C1018.93,614.525 1019.05,614.73 1019.14,614.965 C1019.23,615.199 1019.29,615.487 1019.33,615.829 C1019.37,616.171 1019.39,616.581 1019.4,617.059 C1019.41,617.538 1019.42,618.119 1019.42,618.803 L1019.42,644.467 C1019.42,646.928 1019.18,648.432 1018.71,648.978 C1018.32,649.486 1017.84,649.852 1017.28,650.077 C1016.71,650.302 1016.02,650.414 1015.2,650.414 L1013.76,650.414 L1013.76,651.527 "/>
<path class="Harmony" d="M334.246,651.527 L351.268,651.527 L351.268,650.414 L349.832,650.414 C349.48,650.414 349.119,650.37 348.748,650.282 C348.377,650.194 348.021,650.087 347.679,649.96 C347.337,649.833 347.039,649.686 346.785,649.52 C346.531,649.354 346.355,649.193 346.258,649.037 C346.043,648.685 345.877,648.158 345.76,647.455 C345.643,646.752 345.584,645.756 345.584,644.467 L345.584,618.803 C345.584,617.611 345.652,616.644 345.789,615.902 C345.926,615.16 346.102,614.623 346.316,614.291 C347.098,613.334 348.27,612.855 349.832,612.855 L351.268,612.855 L351.268,611.801 L334.246,611.801 L334.246,612.855 L335.682,612.855 C336.365,612.855 337.039,612.987 337.703,613.251 C338.367,613.515 338.885,613.881 339.256,614.35 C339.412,614.525 339.534,614.73 339.622,614.965 C339.71,615.199 339.773,615.487 339.813,615.829 C339.852,616.171 339.876,616.581 339.886,617.059 C339.896,617.538 339.9,618.119 339.9,618.803 L339.9,644.467 C339.9,646.928 339.666,648.432 339.197,648.978 C338.807,649.486 338.328,649.852 337.762,650.077 C337.195,650.302 336.502,650.414 335.682,650.414 L334.246,650.414 L334.246,651.527 "/>
<path class="Harmony" d="M1123.98,651.527 L1141.01,651.527 L1141.01,650.414 L1139.57,650.414 C1139.22,650.414 1138.86,650.37 1138.49,650.282 C1138.11,650.194 1137.76,650.087 1137.42,649.96 C1137.07,649.833 1136.78,649.686 1136.52,649.52 C1136.27,649.354 1136.09,649.193 1136,649.037 C1135.78,648.685 1135.61,648.158 1135.5,647.455 C1135.38,646.752 1135.32,645.756 1135.32,644.467 L1135.32,618.803 C1135.32,617.611 1135.39,616.644 1135.53,615.902 C1135.66,615.16 1135.84,614.623 1136.05,614.291 C1136.84,613.334 1138.01,612.855 1139.57,612.855 L1141.01,612.855 L1141.01,611.801 L1123.98,611.801 L1123.98,612.855 L1125.42,612.855 C1126.1,612.855 1126.78,612.987 1127.44,613.251 C1128.1,613.515 1128.62,613.881 1128.99,614.35 C1129.15,614.525 1129.27,614.73 1129.36,614.965 C1129.45,615.199 1129.51,615.487 1129.55,615.829 C1129.59,616.171 1129.61,616.581 1129.62,617.059 C1129.63,617.538 1129.64,618.119 1129.64,618.803 L1129.64,644.467 C1129.64,646.928 1129.4,648.432 1128.93,648.978 C1128.54,649.486 1128.07,649.852 1127.5,650.077 C1126.93,650.302 1126.24,650.414 1125.42,650.414 L1123.98,650.414 L1123.98,651.527 "/>
<path class="NoteDot" transform="matrix(0.992001,0,0,0.992001,516.079,225.2)" d="M0,-0.1 C0,2.7 2.3,5 5.2,5 C8.1,5 10.4,2.7 10.4,-0.1 C10.4,-2.9 8.1,-5.1 5.2,-5.1 C2.3,-5.1 0,-2.9 0,-0.1"/>
<path class="NoteDot" transform="matrix(0.992001,0,0,0.992001,1000.15,175.6)" d="M0,-0.1 C0,2.7 2.3,5 5.2,5 C8.1,5 10.4,2.7 10.4,-0.1 C10.4,-2.9 8.1,-5.1 5.2,-5.1 C2.3,-5.1 0,-2.9 0,-0.1"/>
<path class="Bracket" transform="matrix(3.596,0,0,3.44,123.5,532)" d="M0,-50 C4.7,-46.9 6.6,-44.6 6.6,-39.6 C6.6,-36.5 3.3,-24 3.3,-19.5 C3.3,-10.5 6.9,-4.5 12,0 L12.3,-1.2 C8.2,-5.6 6.9,-11.4 6.9,-16.8 C6.9,-22.6 9.4,-32.7 9.4,-37.3 C9.4,-43.4 6.8,-46.8 1.8,-50 C6.8,-53.2 9.4,-56.6 9.4,-62.7 C9.4,-67.3 6.9,-77.4 6.9,-83.2 C6.9,-88.6 8.2,-94.3 12.3,-98.7 L12,-99.9 C6.9,-95.4 3.3,-89.5 3.3,-80.5 C3.3,-76 6.6,-63.5 6.6,-60.4 C6.6,-55.4 4.7,-53.1 0,-50"/>
</svg>
