<?xml version="1.0" encoding="UTF-8" standalone="no"?>
<svg width="101.6mm" height="50.8mm" viewBox="0 0 1440 720"
 xmlns="http://www.w3.org/2000/svg" xmlns:xlink="http://www.w3.org/1999/xlink" version="1.2" baseProfile="full">
<title>sfoh-ex-01-d</title>
<desc>Generated by MuseScore Studio 4.6.3</desc>
<polyline class="StaffLines" fill="none" stroke="#000000" stroke-width="2.26" stroke-linejoin="bevel" points="176.4,188 1353.6,188" />
<polyline class="StaffLines" fill="none" stroke="#000000" stroke-width="2.26" stroke-linejoin="bevel" points="176.4,212.8 1353.6,212.8" />
<polyline class="StaffLines" fill="none" stroke="#000000" stroke-width="2.26" stroke-linejoin="bevel" points="176.4,237.6 1353.6,237.6" />
<polyline class="StaffLines" fill="none" stroke="#000000" stroke-width="2.26" stroke-linejoin="bevel" points="176.4,262.4 1353.6,262.4" />
<polyline class="StaffLines" fill="none" stroke="#000000" stroke-width="2.26" stroke-linejoin="bevel" points="176.4,287.2 1353.6,287.2" />
<polyline class="StaffLines" fill="none" stroke="#000000" stroke-width="2.26" stroke-linejoin="bevel" points="176.4,432.8 1353.6,432.8" />
<polyline class="StaffLines" fill="none" stroke="#000000" stroke-width="2.26" stroke-linejoin="bevel" points="176.4,457.6 1353.6,457.6" />
<polyline class="StaffLines" fill="none" stroke="#000000" stroke-width="2.26" stroke-linejoin="bevel" points="176.4,482.4 1353.6,482.4" />
<polyline class="StaffLines" fill="none" stroke="#000000" stroke-width="2.26" stroke-linejoin="bevel" points="176.4,507.2 1353.6,507.2" />
<polyline class="StaffLines" fill="none" stroke="#000000" stroke-width="2.26" stroke-linejoin="bevel" points="176.4,532 1353.6,532" />
<polyline class="BarLine" fill="none" stroke="#000000" stroke-width="2.48" stroke-linejoin="bevel" points="177.64,186.872 177.64,432.8" />
<polyline class="BarLine" fill="none" stroke="#000000" stroke-width="2.48" stroke-linejoin="bevel" points="1337.48,186.872 1337.48,432.8" />
<polyline class="BarLine" fill="none" stroke="#000000" stroke-width="2.48" stroke-linejoin="bevel" points="1352.36,186.872 1352.36,432.8" />
<polyline class="BarLine" fill="none" stroke="#000000" stroke-width="2.48" stroke-linejoin="bevel" points="845.499,186.872 845.499,432.8" />
<polyline class="BarLine" fill="none" stroke="#000000" stroke-width="2.48" stroke-linejoin="bevel" points="177.64,431.671 177.64,533.128" />
<polyline class="BarLine" fill="none" stroke="#000000" stroke-width="2.48" stroke-linejoin="bevel" points="1337.48,431.671 1337.48,533.128" />
<polyline class="BarLine" fill="none" stroke="#000000" stroke-width="2.48" stroke-linejoin="bevel" points="1352.36,431.671 1352.36,533.128" />
<polyline class="BarLine" fill="none" stroke="#000000" stroke-width="2.48" stroke-linejoin="bevel" points="845.499,431.671 845.499,533.128" />
<path class="Accidental" transform="matrix(0.992001,0,0,0.992001,887.148,250)" d="M2.6,-43.3 L0,-43.3 L0,15.8 C2.5,13.9 12.8,6.6 14.8,4.9 C18.1,2.1 21,-0.4 21,-6.6 C21,-10.3 18.2,-15.5 12.3,-15.5 C8.5,-15.5 6,-14.4 2.6,-11.3 L2.6,-43.3 M12.5,-3.9 C12.5,2.6 8.5,5.9 4,9.6 L2.6,10.7 L2.6,-0.5 C2.6,-4.4 2.8,-10.5 7.6,-10.5 C10.3,-10.5 12.5,-7.9 12.5,-3.9"/>
<path class="Accidental" transform="matrix(0.992001,0,0,0.992001,862.859,299.6)" d="M13.9,-9.2 L13.9,6.5 L2.5,9.5 L2.5,-6.2 L13.9,-9.2 M2.5,-15.8 L2.5,-38.1 L0,-38.1 L0,19.7 L13.9,16.1 L13.9,37.5 L16.5,37.5 L16.5,-19.6 L2.5,-15.8 "/>
<path class="Accidental" transform="matrix(0.992001,0,0,0.992001,395.167,324.4)" d="M13.9,-9.2 L13.9,6.5 L2.5,9.5 L2.5,-6.2 L13.9,-9.2 M2.5,-15.8 L2.5,-38.1 L0,-38.1 L0,19.7 L13.9,16.1 L13.9,37.5 L16.5,37.5 L16.5,-19.6 L2.5,-15.8 "/>
<path class="Accidental" transform="matrix(0.992001,0,0,0.992001,887.148,324.4)" d="M13.9,-9.2 L13.9,6.5 L2.5,9.5 L2.5,-6.2 L13.9,-9.2 M2.5,-15.8 L2.5,-38.1 L0,-38.1 L0,19.7 L13.9,16.1 L13.9,37.5 L16.5,37.5 L16.5,-19.6 L2.5,-15.8 "/>
<path class="Accidental" transform="matrix(0.992001,0,0,0.992001,370.879,299.6)" d="M13.9,-9.2 L13.9,6.5 L2.5,9.5 L2.5,-6.2 L13.9,-9.2 M2.5,-15.8 L2.5,-38.1 L0,-38.1 L0,19.7 L13.9,16.1 L13.9,37.5 L16.5,37.5 L16.5,-19.6 L2.5,-15.8 "/>
<path class="Accidental" transform="matrix(0.992001,0,0,0.992001,395.167,250)" d="M2.6,-43.3 L0,-43.3 L0,15.8 C2.5,13.9 12.8,6.6 14.8,4.9 C18.1,2.1 21,-0.4 21,-6.6 C21,-10.3 18.2,-15.5 12.3,-15.5 C8.5,-15.5 6,-14.4 2.6,-11.3 L2.6,-43.3 M12.5,-3.9 C12.5,2.6 8.5,5.9 4,9.6 L2.6,10.7 L2.6,-0.5 C2.6,-4.4 2.8,-10.5 7.6,-10.5 C10.3,-10.5 12.5,-7.9 12.5,-3.9"/>
<path class="Accidental" transform="matrix(0.992001,0,0,0.992001,887.148,432.8)" d="M2.6,-43.3 L0,-43.3 L0,15.8 C2.5,13.9 12.8,6.6 14.8,4.9 C18.1,2.1 21,-0.4 21,-6.6 C21,-10.3 18.2,-15.5 12.3,-15.5 C8.5,-15.5 6,-14.4 2.6,-11.3 L2.6,-43.3 M12.5,-3.9 C12.5,2.6 8.5,5.9 4,9.6 L2.6,10.7 L2.6,-0.5 C2.6,-4.4 2.8,-10.5 7.6,-10.5 C10.3,-10.5 12.5,-7.9 12.5,-3.9"/>
<path class="Accidental" transform="matrix(0.992001,0,0,0.992001,395.167,432.8)" d="M2.6,-43.3 L0,-43.3 L0,15.8 C2.5,13.9 12.8,6.6 14.8,4.9 C18.1,2.1 21,-0.4 21,-6.6 C21,-10.3 18.2,-15.5 12.3,-15.5 C8.5,-15.5 6,-14.4 2.6,-11.3 L2.6,-43.3 M12.5,-3.9 C12.5,2.6 8.5,5.9 4,9.6 L2.6,10.7 L2.6,-0.5 C2.6,-4.4 2.8,-10.5 7.6,-10.5 C10.3,-10.5 12.5,-7.9 12.5,-3.9"/>
<polyline class="LedgerLine" fill="none" stroke="#000000" stroke-width="2.73" stroke-linejoin="bevel" points="669.428,312 713.37,312" />
<polyline class="LedgerLine" fill="none" stroke="#000000" stroke-width="2.73" stroke-linejoin="bevel" points="907.964,312 952.899,312" />
<polyline class="LedgerLine" fill="none" stroke="#000000" stroke-width="2.73" stroke-linejoin="bevel" points="415.984,312 460.918,312" />
<polyline class="LedgerLine" fill="none" stroke="#000000" stroke-width="2.73" stroke-linejoin="bevel" points="1161.41,312 1205.35,312" />
<polyline class="Stem" fill="none" stroke="#000000" stroke-width="2.26" stroke-linejoin="bevel" points="945.574,319.54 945.574,169.4" />
<polyline class="Stem" fill="none" stroke="#000000" stroke-width="2.26" stroke-linejoin="bevel" points="453.593,319.54 453.593,169.4" />
<polyline class="Stem" fill="none" stroke="#000000" stroke-width="2.26" stroke-linejoin="bevel" points="1198.03,320.928 1198.03,175.6" />
<polyline class="Stem" fill="none" stroke="#000000" stroke-width="2.26" stroke-linejoin="bevel" points="706.045,320.928 706.045,175.6" />
<polyline class="Stem" fill="none" stroke="#000000" stroke-width="2.26" stroke-linejoin="bevel" points="706.045,528.528 706.045,383.2" />
<polyline class="Stem" fill="none" stroke="#000000" stroke-width="2.26" stroke-linejoin="bevel" points="1198.03,528.528 1198.03,383.2" />
<polyline class="Stem" fill="none" stroke="#000000" stroke-width="2.26" stroke-linejoin="bevel" points="915.293,437.76 915.293,606.4" />
<polyline class="Stem" fill="none" stroke="#000000" stroke-width="2.26" stroke-linejoin="bevel" points="423.312,437.76 423.312,606.4" />
<polyline class="Stem" fill="none" stroke="#000000" stroke-width="2.26" stroke-linejoin="bevel" points="463.786,502.339 463.786,408" />
<polyline class="Stem" fill="none" stroke="#000000" stroke-width="2.26" stroke-linejoin="bevel" points="955.766,502.339 955.766,408" />
<path class="Note" transform="matrix(0.992001,0,0,0.992001,1167.61,262.4)" d="M0,4 C0,9.3 4.3,13.2 11.1,13.2 C20.6,13.2 31.8,5.6 31.8,-3.5 C31.8,-8.8 27.5,-12.6 20.6,-12.6 C11.4,-12.6 0,-5.5 0,4"/>
<path class="Note" transform="matrix(0.992001,0,0,0.992001,422.184,250)" d="M20.8,-13.2 C9.7,-13.2 0,-4.6 0,5 C0,13.1 10.6,13.4 12.9,13.4 C25,13.4 32.8,4 32.8,-4.9 C32.8,-11.4 25.9,-13.2 20.8,-13.2 M30.2,-5.7 C30.2,-1.6 23.9,2.4 16.2,6.3 C16.2,6.3 10.3,9.7 7.2,9.7 C4.9,9.7 2.8,8.6 2.8,6 C2.8,1.3 13.6,-4.2 17.7,-6.3 C21.2,-8 23.6,-9.3 25.7,-9.3 C28.4,-9.3 30.2,-7.8 30.2,-5.7"/>
<path class="Note" transform="matrix(0.992001,0,0,0.992001,675.628,324.4)" d="M0,4 C0,9.3 4.3,13.2 11.1,13.2 C20.6,13.2 31.8,5.6 31.8,-3.5 C31.8,-8.8 27.5,-12.6 20.6,-12.6 C11.4,-12.6 0,-5.5 0,4"/>
<path class="Note" transform="matrix(0.992001,0,0,0.992001,675.628,299.6)" d="M0,4 C0,9.3 4.3,13.2 11.1,13.2 C20.6,13.2 31.8,5.6 31.8,-3.5 C31.8,-8.8 27.5,-12.6 20.6,-12.6 C11.4,-12.6 0,-5.5 0,4"/>
<path class="Note" transform="matrix(0.992001,0,0,0.992001,675.628,262.4)" d="M0,4 C0,9.3 4.3,13.2 11.1,13.2 C20.6,13.2 31.8,5.6 31.8,-3.5 C31.8,-8.8 27.5,-12.6 20.6,-12.6 C11.4,-12.6 0,-5.5 0,4"/>
<path class="Note" transform="matrix(0.992001,0,0,0.992001,1167.61,324.4)" d="M0,4 C0,9.3 4.3,13.2 11.1,13.2 C20.6,13.2 31.8,5.6 31.8,-3.5 C31.8,-8.8 27.5,-12.6 20.6,-12.6 C11.4,-12.6 0,-5.5 0,4"/>
<path class="Note" transform="matrix(0.992001,0,0,0.992001,914.164,250)" d="M20.8,-13.2 C9.7,-13.2 0,-4.6 0,5 C0,13.1 10.6,13.4 12.9,13.4 C25,13.4 32.8,4 32.8,-4.9 C32.8,-11.4 25.9,-13.2 20.8,-13.2 M30.2,-5.7 C30.2,-1.6 23.9,2.4 16.2,6.3 C16.2,6.3 10.3,9.7 7.2,9.7 C4.9,9.7 2.8,8.6 2.8,6 C2.8,1.3 13.6,-4.2 17.7,-6.3 C21.2,-8 23.6,-9.3 25.7,-9.3 C28.4,-9.3 30.2,-7.8 30.2,-5.7"/>
<path class="Note" transform="matrix(0.992001,0,0,0.992001,422.184,324.4)" d="M20.8,-13.2 C9.7,-13.2 0,-4.6 0,5 C0,13.1 10.6,13.4 12.9,13.4 C25,13.4 32.8,4 32.8,-4.9 C32.8,-11.4 25.9,-13.2 20.8,-13.2 M30.2,-5.7 C30.2,-1.6 23.9,2.4 16.2,6.3 C16.2,6.3 10.3,9.7 7.2,9.7 C4.9,9.7 2.8,8.6 2.8,6 C2.8,1.3 13.6,-4.2 17.7,-6.3 C21.2,-8 23.6,-9.3 25.7,-9.3 C28.4,-9.3 30.2,-7.8 30.2,-5.7"/>
<path class="Note" transform="matrix(0.992001,0,0,0.992001,914.164,299.6)" d="M20.8,-13.2 C9.7,-13.2 0,-4.6 0,5 C0,13.1 10.6,13.4 12.9,13.4 C25,13.4 32.8,4 32.8,-4.9 C32.8,-11.4 25.9,-13.2 20.8,-13.2 M30.2,-5.7 C30.2,-1.6 23.9,2.4 16.2,6.3 C16.2,6.3 10.3,9.7 7.2,9.7 C4.9,9.7 2.8,8.6 2.8,6 C2.8,1.3 13.6,-4.2 17.7,-6.3 C21.2,-8 23.6,-9.3 25.7,-9.3 C28.4,-9.3 30.2,-7.8 30.2,-5.7"/>
<path class="Note" transform="matrix(0.992001,0,0,0.992001,422.184,299.6)" d="M20.8,-13.2 C9.7,-13.2 0,-4.6 0,5 C0,13.1 10.6,13.4 12.9,13.4 C25,13.4 32.8,4 32.8,-4.9 C32.8,-11.4 25.9,-13.2 20.8,-13.2 M30.2,-5.7 C30.2,-1.6 23.9,2.4 16.2,6.3 C16.2,6.3 10.3,9.7 7.2,9.7 C4.9,9.7 2.8,8.6 2.8,6 C2.8,1.3 13.6,-4.2 17.7,-6.3 C21.2,-8 23.6,-9.3 25.7,-9.3 C28.4,-9.3 30.2,-7.8 30.2,-5.7"/>
<path class="Note" transform="matrix(0.992001,0,0,0.992001,914.164,324.4)" d="M20.8,-13.2 C9.7,-13.2 0,-4.6 0,5 C0,13.1 10.6,13.4 12.9,13.4 C25,13.4 32.8,4 32.8,-4.9 C32.8,-11.4 25.9,-13.2 20.8,-13.2 M30.2,-5.7 C30.2,-1.6 23.9,2.4 16.2,6.3 C16.2,6.3 10.3,9.7 7.2,9.7 C4.9,9.7 2.8,8.6 2.8,6 C2.8,1.3 13.6,-4.2 17.7,-6.3 C21.2,-8 23.6,-9.3 25.7,-9.3 C28.4,-9.3 30.2,-7.8 30.2,-5.7"/>
<path class="Note" transform="matrix(0.992001,0,0,0.992001,1167.61,299.6)" d="M0,4 C0,9.3 4.3,13.2 11.1,13.2 C20.6,13.2 31.8,5.6 31.8,-3.5 C31.8,-8.8 27.5,-12.6 20.6,-12.6 C11.4,-12.6 0,-5.5 0,4"/>
<path class="Note" transform="matrix(0.992001,0,0,0.992001,422.184,544.4)" d="M20.8,-13.2 C9.7,-13.2 0,-4.6 0,5 C0,13.1 10.6,13.4 12.9,13.4 C25,13.4 32.8,4 32.8,-4.9 C32.8,-11.4 25.9,-13.2 20.8,-13.2 M30.2,-5.7 C30.2,-1.6 23.9,2.4 16.2,6.3 C16.2,6.3 10.3,9.7 7.2,9.7 C4.9,9.7 2.8,8.6 2.8,6 C2.8,1.3 13.6,-4.2 17.7,-6.3 C21.2,-8 23.6,-9.3 25.7,-9.3 C28.4,-9.3 30.2,-7.8 30.2,-5.7"/>
<path class="Note" transform="matrix(0.992001,0,0,0.992001,422.184,432.8)" d="M20.8,-13.2 C9.7,-13.2 0,-4.6 0,5 C0,13.1 10.6,13.4 12.9,13.4 C25,13.4 32.8,4 32.8,-4.9 C32.8,-11.4 25.9,-13.2 20.8,-13.2 M30.2,-5.7 C30.2,-1.6 23.9,2.4 16.2,6.3 C16.2,6.3 10.3,9.7 7.2,9.7 C4.9,9.7 2.8,8.6 2.8,6 C2.8,1.3 13.6,-4.2 17.7,-6.3 C21.2,-8 23.6,-9.3 25.7,-9.3 C28.4,-9.3 30.2,-7.8 30.2,-5.7"/>
<path class="Note" transform="matrix(0.992001,0,0,0.992001,675.628,445.2)" d="M0,4 C0,9.3 4.3,13.2 11.1,13.2 C20.6,13.2 31.8,5.6 31.8,-3.5 C31.8,-8.8 27.5,-12.6 20.6,-12.6 C11.4,-12.6 0,-5.5 0,4"/>
<path class="Note" transform="matrix(0.992001,0,0,0.992001,675.628,532)" d="M0,4 C0,9.3 4.3,13.2 11.1,13.2 C20.6,13.2 31.8,5.6 31.8,-3.5 C31.8,-8.8 27.5,-12.6 20.6,-12.6 C11.4,-12.6 0,-5.5 0,4"/>
<path class="Note" transform="matrix(0.992001,0,0,0.992001,914.164,544.4)" d="M20.8,-13.2 C9.7,-13.2 0,-4.6 0,5 C0,13.1 10.6,13.4 12.9,13.4 C25,13.4 32.8,4 32.8,-4.9 C32.8,-11.4 25.9,-13.2 20.8,-13.2 M30.2,-5.7 C30.2,-1.6 23.9,2.4 16.2,6.3 C16.2,6.3 10.3,9.7 7.2,9.7 C4.9,9.7 2.8,8.6 2.8,6 C2.8,1.3 13.6,-4.2 17.7,-6.3 C21.2,-8 23.6,-9.3 25.7,-9.3 C28.4,-9.3 30.2,-7.8 30.2,-5.7"/>
<path class="Note" transform="matrix(0.992001,0,0,0.992001,914.164,432.8)" d="M20.8,-13.2 C9.7,-13.2 0,-4.6 0,5 C0,13.1 10.6,13.4 12.9,13.4 C25,13.4 32.8,4 32.8,-4.9 C32.8,-11.4 25.9,-13.2 20.8,-13.2 M30.2,-5.7 C30.2,-1.6 23.9,2.4 16.2,6.3 C16.2,6.3 10.3,9.7 7.2,9.7 C4.9,9.7 2.8,8.6 2.8,6 C2.8,1.3 13.6,-4.2 17.7,-6.3 C21.2,-8 23.6,-9.3 25.7,-9.3 C28.4,-9.3 30.2,-7.8 30.2,-5.7"/>
<path class="Note" transform="matrix(0.992001,0,0,0.992001,1167.61,532)" d="M0,4 C0,9.3 4.3,13.2 11.1,13.2 C20.6,13.2 31.8,5.6 31.8,-3.5 C31.8,-8.8 27.5,-12.6 20.6,-12.6 C11.4,-12.6 0,-5.5 0,4"/>
<path class="Note" transform="matrix(0.992001,0,0,0.992001,1167.61,445.2)" d="M0,4 C0,9.3 4.3,13.2 11.1,13.2 C20.6,13.2 31.8,5.6 31.8,-3.5 C31.8,-8.8 27.5,-12.6 20.6,-12.6 C11.4,-12.6 0,-5.5 0,4"/>
<path class="Note" transform="matrix(0.992001,0,0,0.992001,432.377,507.2)" d="M20.8,-13.2 C9.7,-13.2 0,-4.6 0,5 C0,13.1 10.6,13.4 12.9,13.4 C25,13.4 32.8,4 32.8,-4.9 C32.8,-11.4 25.9,-13.2 20.8,-13.2 M30.2,-5.7 C30.2,-1.6 23.9,2.4 16.2,6.3 C16.2,6.3 10.3,9.7 7.2,9.7 C4.9,9.7 2.8,8.6 2.8,6 C2.8,1.3 13.6,-4.2 17.7,-6.3 C21.2,-8 23.6,-9.3 25.7,-9.3 C28.4,-9.3 30.2,-7.8 30.2,-5.7"/>
<path class="Note" transform="matrix(0.992001,0,0,0.992001,924.357,507.2)" d="M20.8,-13.2 C9.7,-13.2 0,-4.6 0,5 C0,13.1 10.6,13.4 12.9,13.4 C25,13.4 32.8,4 32.8,-4.9 C32.8,-11.4 25.9,-13.2 20.8,-13.2 M30.2,-5.7 C30.2,-1.6 23.9,2.4 16.2,6.3 C16.2,6.3 10.3,9.7 7.2,9.7 C4.9,9.7 2.8,8.6 2.8,6 C2.8,1.3 13.6,-4.2 17.7,-6.3 C21.2,-8 23.6,-9.3 25.7,-9.3 C28.4,-9.3 30.2,-7.8 30.2,-5.7"/>
<path class="Note" transform="matrix(0.992001,0,0,0.992001,924.357,482.4)" d="M20.8,-13.2 C9.7,-13.2 0,-4.6 0,5 C0,13.1 10.6,13.4 12.9,13.4 C25,13.4 32.8,4 32.8,-4.9 C32.8,-11.4 25.9,-13.2 20.8,-13.2 M30.2,-5.7 C30.2,-1.6 23.9,2.4 16.2,6.3 C16.2,6.3 10.3,9.7 7.2,9.7 C4.9,9.7 2.8,8.6 2.8,6 C2.8,1.3 13.6,-4.2 17.7,-6.3 C21.2,-8 23.6,-9.3 25.7,-9.3 C28.4,-9.3 30.2,-7.8 30.2,-5.7"/>
<path class="Note" transform="matrix(0.992001,0,0,0.992001,432.377,482.4)" d="M20.8,-13.2 C9.7,-13.2 0,-4.6 0,5 C0,13.1 10.6,13.4 12.9,13.4 C25,13.4 32.8,4 32.8,-4.9 C32.8,-11.4 25.9,-13.2 20.8,-13.2 M30.2,-5.7 C30.2,-1.6 23.9,2.4 16.2,6.3 C16.2,6.3 10.3,9.7 7.2,9.7 C4.9,9.7 2.8,8.6 2.8,6 C2.8,1.3 13.6,-4.2 17.7,-6.3 C21.2,-8 23.6,-9.3 25.7,-9.3 C28.4,-9.3 30.2,-7.8 30.2,-5.7"/>
<path class="Clef" transform="matrix(0.992001,0,0,0.992001,201.743,262.4)" d="M48.8,-101.5 C52.4,-101.5 54.8,-97.4 54.8,-91.9 C54.8,-81.9 43,-69.7 35,-63.4 C34.6,-65.9 34.5,-68.4 34.5,-71 C34.5,-85.8 40,-101.5 48.8,-101.5 M42.9,-14.5 C54.6,-14.3 60.2,-7.2 60.2,3.6 C60.2,11.1 56.1,18.9 48.6,21.1 L42.9,-14.5 M46.2,21.9 C43.5,22.6 40.8,22.9 38.2,22.9 C20.7,22.9 6.8,9.4 6.8,-5.9 C6.8,-21.4 23.1,-36.5 35.3,-45.5 L38.3,-27.1 C26.4,-24.6 20.5,-13.8 20.5,-6 C20.5,3.1 25.9,10.6 33.8,13.4 L34.8,12.3 C30.3,10.1 26.9,3.2 26.9,-1.2 C26.9,-5.4 30.1,-12.9 40.2,-14.3 L46.2,21.9 M46.7,25.2 C48.1,32.1 49.9,46.8 49.9,49.4 C49.9,59.5 42.4,66.4 33.8,66.4 C28.2,66.4 24.3,64.3 23,62.5 C30.8,60.3 34.1,55.7 34.1,51 C34.1,45.1 28.7,40.9 23.7,40.9 C15.9,40.9 12.8,47.7 12.8,53.7 C12.8,65.1 25.5,69 33.2,69 C46.7,69 52.5,58.7 52.5,50.2 C52.5,47.3 50.4,30.6 49.2,24.5 C60.4,20.7 68.3,9.4 68.3,-2.4 C68.3,-16.4 59.1,-27.7 43.6,-27.7 C42.7,-27.7 41.8,-27.7 40.9,-27.6 L37.6,-47 C44,-52.1 48.3,-56.8 51.8,-62.7 C56.1,-70 58.9,-77 58.9,-89.2 C58.9,-100.3 51.7,-117 47.3,-117 C41.4,-117 33.7,-102.6 32.2,-95.8 C31.1,-91 30.6,-85.2 30.6,-81.4 C30.6,-74.2 31.5,-68 32.5,-61.3 C16.9,-49.8 0,-33.7 0,-13.5 C0,11 18.3,26.1 38.7,26.1 C41.6,26.1 44.2,25.7 46.7,25.2"/>
<path class="Clef" transform="matrix(0.992001,0,0,0.992001,201.743,457.6)" d="M51.7,2.8 C51.7,-11.4 42,-25 24.8,-25 C8,-25 0,-13.6 0,-1.5 C0,5.3 4.9,11 11,11 C17.5,11 21.6,6 21.6,0.9 C21.6,-4.1 18.7,-9.1 13,-9.1 C8.9,-9.1 6.8,-7.1 5.9,-7.1 C5.1,-7.1 5.1,-8.3 5.1,-8.6 C5.1,-15.7 14.3,-22.1 22.3,-22.1 C31.5,-22.1 37.2,-12.6 37.2,2 C37.2,24.4 27.4,46.5 -4.3,57.1 L-3.6,58.6 C26.3,54.7 51.7,30.9 51.7,2.8 M55.5,-12.3 C55.5,-9.1 58,-6.9 61.1,-6.9 C64.3,-6.9 66.5,-9.4 66.5,-12.5 C66.5,-15.7 64,-17.7 60.9,-17.7 C57.7,-17.7 55.5,-15.4 55.5,-12.3 M55.4,12.9 C55.5,16.1 58,18.3 61.1,18.3 C64.3,18.3 66.5,15.8 66.5,12.7 C66.5,9.6 64,7.5 60.9,7.5 C57.8,7.5 55.4,9.9 55.4,12.9"/>
<path class="TimeSig" transform="matrix(0.992001,0,0,0.992001,293.456,213.296)" d="M39.4,9.9 C39.4,3 32.6,-0.2 25.4,-0.8 C33,-3.1 37.4,-6.6 37.4,-12.5 C37.4,-19.5 30.4,-24.6 22.5,-24.6 C11.2,-24.6 2.9,-20.3 2.9,-11.5 C2.9,-7.9 6.7,-4.1 10.4,-4.1 C14.2,-4.1 17.8,-7.3 17.8,-10.2 C17.8,-15.4 12.9,-16.5 12.9,-19.2 C12.9,-20.5 14.5,-21.7 17,-21.7 C21.7,-21.7 25.4,-18.5 25.4,-11.9 C25.4,-5.6 21.1,-2.4 12.7,-1.4 L12.6,1.2 C22.4,2.3 26.9,3.7 26.9,10.2 C26.9,16.2 22.5,22.4 17.4,22.4 C15.1,22.4 13,21.5 13,19.5 C13,16.2 16.6,15.5 16.6,10.6 C16.6,6.3 12.7,4.2 9,4.2 C4.7,4.2 2,7.9 2,11.4 C2,19.9 10,24.6 19.8,24.6 C30.6,24.6 39.4,17.7 39.4,9.9"/>
<path class="TimeSig" transform="matrix(0.992001,0,0,0.992001,292.325,261.943)" d="M41.7,11 L41.7,8.2 L34.5,8.2 L34.5,-17.5 L22.3,-4.1 L22.3,8.2 L6.8,8.2 C14.5,-0.9 27.2,-13.5 34.4,-25 L17.1,-25 C15.4,-12.1 10.5,-1.3 2,9.1 L3.8,11 L22.3,11 L22.3,17.8 C22.3,20.9 19.4,21.5 17.5,21.5 L17.5,24.1 L39.2,24.1 L39.2,21.5 C37,21.5 34.5,20.8 34.5,17.6 L34.5,11 L41.7,11 "/>
<path class="TimeSig" transform="matrix(0.992001,0,0,0.992001,293.456,458.096)" d="M39.4,9.9 C39.4,3 32.6,-0.2 25.4,-0.8 C33,-3.1 37.4,-6.6 37.4,-12.5 C37.4,-19.5 30.4,-24.6 22.5,-24.6 C11.2,-24.6 2.9,-20.3 2.9,-11.5 C2.9,-7.9 6.7,-4.1 10.4,-4.1 C14.2,-4.1 17.8,-7.3 17.8,-10.2 C17.8,-15.4 12.9,-16.5 12.9,-19.2 C12.9,-20.5 14.5,-21.7 17,-21.7 C21.7,-21.7 25.4,-18.5 25.4,-11.9 C25.4,-5.6 21.1,-2.4 12.7,-1.4 L12.6,1.2 C22.4,2.3 26.9,3.7 26.9,10.2 C26.9,16.2 22.5,22.4 17.4,22.4 C15.1,22.4 13,21.5 13,19.5 C13,16.2 16.6,15.5 16.6,10.6 C16.6,6.3 12.7,4.2 9,4.2 C4.7,4.2 2,7.9 2,11.4 C2,19.9 10,24.6 19.8,24.6 C30.6,24.6 39.4,17.7 39.4,9.9"/>
<path class="TimeSig" transform="matrix(0.992001,0,0,0.992001,292.325,506.742)" d="M41.7,11 L41.7,8.2 L34.5,8.2 L34.5,-17.5 L22.3,-4.1 L22.3,8.2 L6.8,8.2 C14.5,-0.9 27.2,-13.5 34.4,-25 L17.1,-25 C15.4,-12.1 10.5,-1.3 2,9.1 L3.8,11 L22.3,11 L22.3,17.8 C22.3,20.9 19.4,21.5 17.5,21.5 L17.5,24.1 L39.2,24.1 L39.2,21.5 C37,21.5 34.5,20.8 34.5,17.6 L34.5,11 L41.7,11 "/>
<path class="StaffText" d="M194.963,143.886 C194.963,146.686 195.557,149.029 196.745,150.917 C197.933,152.805 199.837,153.749 202.458,153.749 C204.492,153.749 206.165,152.875 207.475,151.125 C208.785,149.375 209.44,146.865 209.44,143.593 C209.44,140.289 208.765,137.844 207.414,136.257 C206.063,134.67 204.395,133.876 202.409,133.876 C200.195,133.876 198.401,134.723 197.026,136.415 C195.65,138.108 194.963,140.598 194.963,143.886 M201.579,130.043 C203.581,130.043 205.257,130.467 206.608,131.313 C207.389,131.801 208.276,132.656 209.269,133.876 L209.269,120.668 L213.493,120.668 L213.493,156.655 L209.538,156.655 L209.538,153.017 C208.512,154.628 207.3,155.792 205.9,156.508 C204.5,157.224 202.897,157.582 201.091,157.582 C198.177,157.582 195.654,156.358 193.522,153.908 C191.39,151.459 190.324,148.199 190.324,144.13 C190.324,140.322 191.296,137.022 193.241,134.23 C195.186,131.439 197.966,130.043 201.579,130.043 M218.487,166.86 C221.075,161.814 222.743,158.136 223.492,155.825 C224.631,152.325 225.201,148.224 225.201,143.52 C225.201,138.816 224.542,134.511 223.223,130.605 C222.41,128.196 220.806,124.729 218.414,120.204 L221.368,120.204 C223.874,124.208 225.392,126.678 225.921,127.614 C226.45,128.55 227.024,129.84 227.642,131.484 C228.424,133.518 228.981,135.528 229.315,137.514 C229.648,139.5 229.815,141.412 229.815,143.251 C229.815,148.069 229.05,152.366 227.52,156.142 C226.56,158.567 224.566,162.14 221.539,166.86 L218.487,166.86 "/>
<path class="StaffText" d="M361.139,561.837 C364.085,561.837 366.482,562.553 368.329,563.985 C370.176,565.418 371.287,567.884 371.662,571.383 L367.389,571.383 C367.129,569.772 366.535,568.433 365.607,567.367 C364.679,566.301 363.19,565.768 361.139,565.768 C358.34,565.768 356.338,567.135 355.133,569.869 C354.352,571.643 353.961,573.832 353.961,576.437 C353.961,579.057 354.515,581.262 355.622,583.053 C356.728,584.843 358.47,585.738 360.846,585.738 C362.669,585.738 364.114,585.181 365.18,584.066 C366.246,582.951 366.982,581.425 367.389,579.488 L371.662,579.488 C371.173,582.955 369.953,585.49 367.999,587.093 C366.046,588.697 363.548,589.498 360.504,589.498 C357.086,589.498 354.36,588.249 352.326,585.751 C350.291,583.252 349.274,580.131 349.274,576.388 C349.274,571.798 350.389,568.225 352.619,565.67 C354.848,563.115 357.689,561.837 361.139,561.837 M378.375,562.936 L383.478,562.936 L383.478,568.258 L378.375,568.258 L378.375,562.936 M378.375,583.419 L383.478,583.419 L383.478,588.741 L378.375,588.741 L378.375,583.419 M393.365,552.877 L403.667,583.419 L413.848,552.877 L419.292,552.877 L406.207,588.741 L401.055,588.741 L387.994,552.877 L393.365,552.877 "/>
<polyline class="StaffText" fill="none" stroke="#000000" stroke-width="2.45" stroke-linejoin="bevel" points="347.271,575.908 419.271,575.908" />
<path class="StaffText" d="M678.006,555.139 L688.309,585.681 L698.49,555.139 L703.934,555.139 L690.848,591.004 L685.697,591.004 L672.635,555.139 L678.006,555.139 "/>
<path class="SystemText" d="M364.312,88.5172 C367.681,88.5172 370.595,89.1683 373.053,90.4703 C376.617,92.3421 378.798,95.6217 379.595,100.309 L374.786,100.309 C374.2,97.6888 372.987,95.7804 371.148,94.5841 C369.309,93.3878 366.99,92.7897 364.19,92.7897 C360.87,92.7897 358.074,94.0348 355.804,96.525 C353.533,99.0153 352.398,102.726 352.398,107.658 C352.398,111.922 353.334,115.393 355.206,118.07 C357.078,120.748 360.129,122.087 364.361,122.087 C367.6,122.087 370.282,121.147 372.406,119.267 C374.53,117.387 375.616,114.347 375.665,110.148 L364.434,110.148 L364.434,106.12 L380.181,106.12 L380.181,125.309 L377.056,125.309 L375.885,120.695 C374.241,122.502 372.784,123.755 371.514,124.455 C369.382,125.659 366.672,126.261 363.385,126.261 C359.136,126.261 355.483,124.886 352.423,122.135 C349.086,118.685 347.418,113.949 347.418,107.926 C347.418,101.921 349.045,97.1435 352.301,93.5953 C355.393,90.2099 359.397,88.5172 364.312,88.5172 M397.49,122.477 C400.403,122.477 402.401,121.374 403.484,119.169 C404.566,116.964 405.107,114.51 405.107,111.808 C405.107,109.367 404.717,107.381 403.935,105.851 C402.698,103.442 400.566,102.238 397.539,102.238 C394.853,102.238 392.9,103.263 391.679,105.314 C390.459,107.365 389.848,109.839 389.848,112.736 C389.848,115.519 390.459,117.839 391.679,119.694 C392.9,121.549 394.837,122.477 397.49,122.477 M397.661,98.4049 C401.03,98.4049 403.878,99.528 406.206,101.774 C408.533,104.02 409.697,107.324 409.697,111.686 C409.697,115.902 408.672,119.385 406.621,122.135 C404.57,124.886 401.388,126.261 397.075,126.261 C393.478,126.261 390.622,125.045 388.506,122.611 C386.39,120.178 385.332,116.911 385.332,112.809 C385.332,108.415 386.447,104.915 388.677,102.311 C390.906,99.707 393.901,98.4049 397.661,98.4049 M399.565,90.0309 L404.131,90.0309 L404.131,95.109 L399.565,95.109 L399.565,90.0309 M391.509,90.0309 L396.074,90.0309 L396.074,95.109 L391.509,95.109 L391.509,90.0309 M415.79,91.8619 L420.233,91.8619 L420.233,99.1618 L424.408,99.1618 L424.408,102.751 L420.233,102.751 L420.233,119.816 C420.233,120.728 420.542,121.338 421.161,121.647 C421.503,121.826 422.072,121.916 422.87,121.916 C423.081,121.916 423.309,121.912 423.553,121.903 C423.798,121.895 424.082,121.875 424.408,121.842 L424.408,125.309 C423.903,125.456 423.379,125.561 422.833,125.627 C422.288,125.692 421.698,125.724 421.063,125.724 C419.012,125.724 417.621,125.199 416.888,124.15 C416.156,123.1 415.79,121.737 415.79,120.06 L415.79,102.751 L412.25,102.751 L412.25,99.1618 L415.79,99.1618 L415.79,91.8619 M429.68,91.8619 L434.124,91.8619 L434.124,99.1618 L438.299,99.1618 L438.299,102.751 L434.124,102.751 L434.124,119.816 C434.124,120.728 434.433,121.338 435.052,121.647 C435.393,121.826 435.963,121.916 436.761,121.916 C436.972,121.916 437.2,121.912 437.444,121.903 C437.688,121.895 437.973,121.875 438.299,121.842 L438.299,125.309 C437.794,125.456 437.269,125.561 436.724,125.627 C436.179,125.692 435.589,125.724 434.954,125.724 C432.903,125.724 431.511,125.199 430.779,124.15 C430.047,123.1 429.68,121.737 429.68,120.06 L429.68,102.751 L426.14,102.751 L426.14,99.1618 L429.68,99.1618 L429.68,91.8619 M453.581,98.5758 C455.436,98.5758 457.235,99.0112 458.976,99.882 C460.718,100.753 462.044,101.88 462.956,103.263 C463.835,104.582 464.421,106.12 464.714,107.878 C464.974,109.082 465.104,111.003 465.104,113.639 L445.939,113.639 C446.021,116.292 446.647,118.42 447.819,120.024 C448.991,121.627 450.806,122.428 453.263,122.428 C455.558,122.428 457.389,121.672 458.757,120.158 C459.538,119.279 460.091,118.262 460.417,117.106 L464.738,117.106 C464.624,118.066 464.246,119.137 463.603,120.317 C462.96,121.497 462.24,122.461 461.442,123.21 C460.108,124.512 458.456,125.391 456.486,125.846 C455.428,126.107 454.232,126.237 452.897,126.237 C449.642,126.237 446.883,125.053 444.621,122.685 C442.359,120.317 441.227,117 441.227,112.736 C441.227,108.537 442.367,105.127 444.645,102.506 C446.924,99.886 449.902,98.5758 453.581,98.5758 M460.588,110.148 C460.409,108.244 459.994,106.722 459.343,105.583 C458.138,103.467 456.128,102.409 453.312,102.409 C451.294,102.409 449.601,103.137 448.234,104.594 C446.867,106.051 446.143,107.902 446.061,110.148 L460.588,110.148 M470.611,99.1618 L474.786,99.1618 L474.786,103.678 C475.128,102.799 475.966,101.729 477.301,100.468 C478.635,99.2065 480.173,98.5758 481.915,98.5758 C481.996,98.5758 482.135,98.584 482.33,98.6002 C482.525,98.6165 482.859,98.6491 483.331,98.6979 L483.331,103.337 C483.07,103.288 482.83,103.255 482.611,103.239 C482.391,103.223 482.151,103.214 481.89,103.214 C479.677,103.214 477.976,103.927 476.788,105.351 C475.6,106.775 475.006,108.415 475.006,110.27 L475.006,125.309 L470.611,125.309 L470.611,99.1618 M489.913,112.541 C489.913,115.34 490.507,117.684 491.695,119.572 C492.883,121.46 494.788,122.404 497.408,122.404 C499.442,122.404 501.115,121.529 502.425,119.779 C503.735,118.03 504.39,115.519 504.39,112.248 C504.39,108.944 503.715,106.498 502.364,104.911 C501.013,103.324 499.345,102.531 497.359,102.531 C495.146,102.531 493.351,103.377 491.976,105.07 C490.601,106.763 489.913,109.253 489.913,112.541 M496.529,98.6979 C498.531,98.6979 500.207,99.1211 501.558,99.9674 C502.34,100.456 503.227,101.31 504.22,102.531 L504.22,89.3229 L508.443,89.3229 L508.443,125.309 L504.488,125.309 L504.488,121.672 C503.463,123.283 502.25,124.447 500.85,125.163 C499.451,125.879 497.847,126.237 496.041,126.237 C493.127,126.237 490.605,125.012 488.472,122.563 C486.34,120.113 485.274,116.854 485.274,112.785 C485.274,108.976 486.247,105.676 488.192,102.885 C490.137,100.094 492.916,98.6979 496.529,98.6979 M518.296,118.351 C518.296,119.621 518.76,120.622 519.687,121.354 C520.615,122.087 521.714,122.453 522.983,122.453 C524.529,122.453 526.027,122.095 527.475,121.379 C529.917,120.19 531.137,118.245 531.137,115.544 L531.137,112.004 C530.6,112.345 529.909,112.63 529.062,112.858 C528.216,113.086 527.386,113.249 526.572,113.346 L523.911,113.688 C522.316,113.9 521.12,114.233 520.322,114.689 C518.971,115.454 518.296,116.675 518.296,118.351 M528.94,109.464 C529.949,109.334 530.625,108.911 530.967,108.195 C531.162,107.804 531.26,107.243 531.26,106.51 C531.26,105.013 530.727,103.927 529.66,103.251 C528.594,102.576 527.068,102.238 525.083,102.238 C522.788,102.238 521.16,102.856 520.2,104.093 C519.663,104.777 519.313,105.794 519.15,107.145 L515.049,107.145 C515.13,103.922 516.176,101.68 518.186,100.419 C520.196,99.1577 522.527,98.527 525.18,98.527 C528.257,98.527 530.755,99.1129 532.676,100.285 C534.58,101.457 535.532,103.28 535.532,105.754 L535.532,120.817 C535.532,121.273 535.626,121.639 535.813,121.916 C536,122.192 536.395,122.331 536.997,122.331 C537.192,122.331 537.412,122.318 537.656,122.294 C537.9,122.27 538.161,122.233 538.437,122.184 L538.437,125.431 C537.754,125.627 537.233,125.749 536.875,125.797 C536.517,125.846 536.028,125.871 535.41,125.871 C533.896,125.871 532.798,125.334 532.114,124.259 C531.756,123.69 531.504,122.884 531.357,121.842 C530.462,123.014 529.176,124.032 527.5,124.894 C525.823,125.757 523.976,126.188 521.958,126.188 C519.533,126.188 517.551,125.452 516.013,123.979 C514.475,122.506 513.706,120.662 513.706,118.449 C513.706,116.024 514.463,114.144 515.976,112.809 C517.49,111.475 519.476,110.653 521.933,110.343 L528.94,109.464 M527.597,90.0309 L532.163,90.0309 L532.163,95.109 L527.597,95.109 L527.597,90.0309 M519.541,90.0309 L524.106,90.0309 L524.106,95.109 L519.541,95.109 L519.541,90.0309 M542.723,99.1618 L547.069,99.1618 L547.069,102.873 C548.111,101.587 549.055,100.651 549.901,100.065 C551.35,99.0722 552.994,98.5758 554.833,98.5758 C556.916,98.5758 558.593,99.0885 559.862,100.114 C560.578,100.7 561.229,101.562 561.815,102.702 C562.792,101.302 563.939,100.264 565.258,99.589 C566.576,98.9135 568.057,98.5758 569.701,98.5758 C573.217,98.5758 575.609,99.8453 576.879,102.384 C577.562,103.752 577.904,105.591 577.904,107.902 L577.904,125.309 L573.339,125.309 L573.339,107.145 C573.339,105.404 572.903,104.207 572.032,103.556 C571.162,102.905 570.1,102.58 568.846,102.58 C567.121,102.58 565.636,103.158 564.391,104.313 C563.146,105.469 562.523,107.397 562.523,110.099 L562.523,125.309 L558.055,125.309 L558.055,108.244 C558.055,106.47 557.844,105.176 557.421,104.362 C556.753,103.141 555.508,102.531 553.685,102.531 C552.025,102.531 550.516,103.174 549.157,104.46 C547.797,105.745 547.118,108.073 547.118,111.442 L547.118,125.309 L542.723,125.309 L542.723,99.1618 M584.364,99.1618 L588.71,99.1618 L588.71,102.873 C589.751,101.587 590.695,100.651 591.542,100.065 C592.99,99.0722 594.634,98.5758 596.473,98.5758 C598.557,98.5758 600.233,99.0885 601.503,100.114 C602.219,100.7 602.87,101.562 603.456,102.702 C604.432,101.302 605.58,100.264 606.898,99.589 C608.217,98.9135 609.698,98.5758 611.342,98.5758 C614.857,98.5758 617.25,99.8453 618.519,102.384 C619.203,103.752 619.545,105.591 619.545,107.902 L619.545,125.309 L614.979,125.309 L614.979,107.145 C614.979,105.404 614.544,104.207 613.673,103.556 C612.802,102.905 611.74,102.58 610.487,102.58 C608.762,102.58 607.277,103.158 606.032,104.313 C604.786,105.469 604.164,107.397 604.164,110.099 L604.164,125.309 L599.696,125.309 L599.696,108.244 C599.696,106.47 599.484,105.176 599.061,104.362 C598.394,103.141 597.149,102.531 595.326,102.531 C593.666,102.531 592.156,103.174 590.797,104.46 C589.438,105.745 588.759,108.073 588.759,111.442 L588.759,125.309 L584.364,125.309 L584.364,99.1618 M636.893,98.5758 C638.749,98.5758 640.547,99.0112 642.289,99.882 C644.03,100.753 645.357,101.88 646.268,103.263 C647.147,104.582 647.733,106.12 648.026,107.878 C648.287,109.082 648.417,111.003 648.417,113.639 L629.252,113.639 C629.333,116.292 629.96,118.42 631.132,120.024 C632.303,121.627 634.118,122.428 636.576,122.428 C638.871,122.428 640.702,121.672 642.069,120.158 C642.85,119.279 643.404,118.262 643.729,117.106 L648.051,117.106 C647.937,118.066 647.558,119.137 646.915,120.317 C646.272,121.497 645.552,122.461 644.755,123.21 C643.42,124.512 641.768,125.391 639.799,125.846 C638.741,126.107 637.544,126.237 636.21,126.237 C632.955,126.237 630.196,125.053 627.933,122.685 C625.671,120.317 624.54,117 624.54,112.736 C624.54,108.537 625.679,105.127 627.958,102.506 C630.236,99.886 633.215,98.5758 636.893,98.5758 M643.9,110.148 C643.721,108.244 643.306,106.722 642.655,105.583 C641.451,103.467 639.441,102.409 636.625,102.409 C634.607,102.409 632.914,103.137 631.547,104.594 C630.179,106.051 629.455,107.902 629.374,110.148 L643.9,110.148 M653.924,99.1618 L658.098,99.1618 L658.098,103.678 C658.44,102.799 659.278,101.729 660.613,100.468 C661.948,99.2065 663.486,98.5758 665.227,98.5758 C665.309,98.5758 665.447,98.584 665.642,98.6002 C665.838,98.6165 666.171,98.6491 666.643,98.6979 L666.643,103.337 C666.383,103.288 666.143,103.255 665.923,103.239 C665.703,103.223 665.463,103.214 665.203,103.214 C662.989,103.214 661.289,103.927 660.1,105.351 C658.912,106.775 658.318,108.415 658.318,110.27 L658.318,125.309 L653.924,125.309 L653.924,99.1618 M674.837,99.1618 L674.837,116.52 C674.837,117.855 675.048,118.945 675.471,119.792 C676.253,121.354 677.709,122.135 679.842,122.135 C682.901,122.135 684.985,120.768 686.092,118.034 C686.694,116.569 686.995,114.559 686.995,112.004 L686.995,99.1618 L691.389,99.1618 L691.389,125.309 L687.239,125.309 L687.288,121.452 C686.718,122.445 686.01,123.283 685.164,123.966 C683.487,125.334 681.453,126.017 679.06,126.017 C675.333,126.017 672.794,124.772 671.443,122.282 C670.711,120.947 670.345,119.165 670.345,116.935 L670.345,99.1618 L674.837,99.1618 M698.239,99.1618 L702.414,99.1618 L702.414,102.873 C703.651,101.343 704.961,100.244 706.345,99.5768 C707.728,98.9095 709.266,98.5758 710.959,98.5758 C714.67,98.5758 717.176,99.8698 718.478,102.458 C719.194,103.874 719.553,105.9 719.553,108.537 L719.553,125.309 L715.085,125.309 L715.085,108.83 C715.085,107.235 714.849,105.949 714.377,104.972 C713.595,103.345 712.179,102.531 710.129,102.531 C709.087,102.531 708.233,102.637 707.565,102.848 C706.361,103.206 705.303,103.922 704.391,104.997 C703.659,105.859 703.183,106.75 702.963,107.67 C702.743,108.59 702.634,109.904 702.634,111.613 L702.634,125.309 L698.239,125.309 L698.239,99.1618 M735.264,98.6979 C737.315,98.6979 739.106,99.2024 740.636,100.212 C741.466,100.781 742.312,101.611 743.175,102.702 L743.175,99.4059 L747.227,99.4059 L747.227,123.185 C747.227,126.506 746.739,129.126 745.762,131.047 C743.94,134.595 740.497,136.369 735.435,136.369 C732.62,136.369 730.251,135.738 728.331,134.477 C726.41,133.215 725.336,131.242 725.108,128.556 L729.576,128.556 C729.788,129.728 730.211,130.631 730.845,131.266 C731.838,132.243 733.401,132.731 735.533,132.731 C738.902,132.731 741.108,131.543 742.149,129.167 C742.768,127.767 743.053,125.269 743.004,121.672 C742.125,123.006 741.067,123.999 739.83,124.65 C738.593,125.301 736.957,125.627 734.923,125.627 C732.091,125.627 729.613,124.622 727.489,122.611 C725.365,120.601 724.303,117.277 724.303,112.638 C724.303,108.26 725.373,104.842 727.513,102.384 C729.653,99.9267 732.237,98.6979 735.264,98.6979 M743.175,112.126 C743.175,108.887 742.507,106.486 741.173,104.923 C739.838,103.361 738.137,102.58 736.07,102.58 C732.978,102.58 730.862,104.028 729.722,106.925 C729.12,108.472 728.819,110.498 728.819,113.005 C728.819,115.95 729.417,118.193 730.614,119.731 C731.81,121.269 733.417,122.038 735.435,122.038 C738.593,122.038 740.815,120.614 742.1,117.765 C742.817,116.154 743.175,114.274 743.175,112.126"/>
<path class="RehearsalMark" fill="none" stroke="#000000" stroke-width="3.97" stroke-linecap="square" stroke-linejoin="miter" stroke-miterlimit="2" fill-rule="evenodd" d="M105.596,370.432 C105.596,388.214 91.1815,402.629 73.3999,402.629 C55.6182,402.629 41.2034,388.214 41.2034,370.432 C41.2034,352.651 55.6182,338.236 73.3999,338.236 C91.1815,338.236 105.596,352.651 105.596,370.432"/>
<path class="RehearsalMark" d="M66.8413,362.677 L66.8413,359.307 C70.0151,358.998 72.2287,358.481 73.4819,357.757 C74.7352,357.033 75.671,355.32 76.2895,352.618 L79.7563,352.618 L79.7563,387.432 L75.0688,387.432 L75.0688,362.677 L66.8413,362.677 "/>
<path class="NoteDot" transform="matrix(0.992001,0,0,0.992001,969.292,494.8)" d="M0,-0.1 C0,2.7 2.3,5 5.2,5 C8.1,5 10.4,2.7 10.4,-0.1 C10.4,-2.9 8.1,-5.1 5.2,-5.1 C2.3,-5.1 0,-2.9 0,-0.1"/>
<path class="NoteDot" transform="matrix(0.992001,0,0,0.992001,969.292,519.6)" d="M0,-0.1 C0,2.7 2.3,5 5.2,5 C8.1,5 10.4,2.7 10.4,-0.1 C10.4,-2.9 8.1,-5.1 5.2,-5.1 C2.3,-5.1 0,-2.9 0,-0.1"/>
<path class="NoteDot" transform="matrix(0.992001,0,0,0.992001,477.311,519.6)" d="M0,-0.1 C0,2.7 2.3,5 5.2,5 C8.1,5 10.4,2.7 10.4,-0.1 C10.4,-2.9 8.1,-5.1 5.2,-5.1 C2.3,-5.1 0,-2.9 0,-0.1"/>
<path class="NoteDot" transform="matrix(0.992001,0,0,0.992001,477.311,494.8)" d="M0,-0.1 C0,2.7 2.3,5 5.2,5 C8.1,5 10.4,2.7 10.4,-0.1 C10.4,-2.9 8.1,-5.1 5.2,-5.1 C2.3,-5.1 0,-2.9 0,-0.1"/>
<path class="Bracket" transform="matrix(3.596,0,0,3.44,123.5,532)" d="M0,-50 C4.7,-46.9 6.6,-44.6 6.6,-39.6 C6.6,-36.5 3.3,-24 3.3,-19.5 C3.3,-10.5 6.9,-4.5 12,0 L12.3,-1.2 C8.2,-5.6 6.9,-11.4 6.9,-16.8 C6.9,-22.6 9.4,-32.7 9.4,-37.3 C9.4,-43.4 6.8,-46.8 1.8,-50 C6.8,-53.2 9.4,-56.6 9.4,-62.7 C9.4,-67.3 6.9,-77.4 6.9,-83.2 C6.9,-88.6 8.2,-94.3 12.3,-98.7 L12,-99.9 C6.9,-95.4 3.3,-89.5 3.3,-80.5 C3.3,-76 6.6,-63.5 6.6,-60.4 C6.6,-55.4 4.7,-53.1 0,-50"/>
</svg>
