<?xml version="1.0" encoding="UTF-8" standalone="no"?>
<svg width="127mm" height="50.8mm" viewBox="0 0 1800 720"
 xmlns="http://www.w3.org/2000/svg" xmlns:xlink="http://www.w3.org/1999/xlink" version="1.2" baseProfile="full">
<title>sfoh-ex-01-e</title>
<desc>Generated by MuseScore Studio 4.6.3</desc>
<polyline class="StaffLines" fill="none" stroke="#000000" stroke-width="2.26" stroke-linejoin="bevel" points="176.4,188 1713.6,188" />
<polyline class="StaffLines" fill="none" stroke="#000000" stroke-width="2.26" stroke-linejoin="bevel" points="176.4,212.8 1713.6,212.8" />
<polyline class="StaffLines" fill="none" stroke="#000000" stroke-width="2.26" stroke-linejoin="bevel" points="176.4,237.6 1713.6,237.6" />
<polyline class="StaffLines" fill="none" stroke="#000000" stroke-width="2.26" stroke-linejoin="bevel" points="176.4,262.4 1713.6,262.4" />
<polyline class="StaffLines" fill="none" stroke="#000000" stroke-width="2.26" stroke-linejoin="bevel" points="176.4,287.2 1713.6,287.2" />
<polyline class="StaffLines" fill="none" stroke="#000000" stroke-width="2.26" stroke-linejoin="bevel" points="176.4,432.8 1713.6,432.8" />
<polyline class="StaffLines" fill="none" stroke="#000000" stroke-width="2.26" stroke-linejoin="bevel" points="176.4,457.6 1713.6,457.6" />
<polyline class="StaffLines" fill="none" stroke="#000000" stroke-width="2.26" stroke-linejoin="bevel" points="176.4,482.4 1713.6,482.4" />
<polyline class="StaffLines" fill="none" stroke="#000000" stroke-width="2.26" stroke-linejoin="bevel" points="176.4,507.2 1713.6,507.2" />
<polyline class="StaffLines" fill="none" stroke="#000000" stroke-width="2.26" stroke-linejoin="bevel" points="176.4,532 1713.6,532" />
<polyline class="BarLine" fill="none" stroke="#000000" stroke-width="2.48" stroke-linejoin="bevel" points="1017.28,186.872 1017.28,432.8" />
<polyline class="BarLine" fill="none" stroke="#000000" stroke-width="2.48" stroke-linejoin="bevel" points="177.64,186.872 177.64,432.8" />
<polyline class="BarLine" fill="none" stroke="#000000" stroke-width="2.48" stroke-linejoin="bevel" points="670.284,186.872 670.284,432.8" />
<polyline class="BarLine" fill="none" stroke="#000000" stroke-width="2.48" stroke-linejoin="bevel" points="1697.48,186.872 1697.48,432.8" />
<polyline class="BarLine" fill="none" stroke="#000000" stroke-width="2.48" stroke-linejoin="bevel" points="1712.36,186.872 1712.36,432.8" />
<polyline class="BarLine" fill="none" stroke="#000000" stroke-width="2.48" stroke-linejoin="bevel" points="1320.1,186.872 1320.1,432.8" />
<polyline class="BarLine" fill="none" stroke="#000000" stroke-width="2.48" stroke-linejoin="bevel" points="1017.28,431.671 1017.28,533.128" />
<polyline class="BarLine" fill="none" stroke="#000000" stroke-width="2.48" stroke-linejoin="bevel" points="177.64,431.671 177.64,533.128" />
<polyline class="BarLine" fill="none" stroke="#000000" stroke-width="2.48" stroke-linejoin="bevel" points="670.284,431.671 670.284,533.128" />
<polyline class="BarLine" fill="none" stroke="#000000" stroke-width="2.48" stroke-linejoin="bevel" points="1697.48,431.671 1697.48,533.128" />
<polyline class="BarLine" fill="none" stroke="#000000" stroke-width="2.48" stroke-linejoin="bevel" points="1712.36,431.671 1712.36,533.128" />
<polyline class="BarLine" fill="none" stroke="#000000" stroke-width="2.48" stroke-linejoin="bevel" points="1320.1,431.671 1320.1,533.128" />
<path class="SlurSegment" stroke="#000000" stroke-width="1.24" stroke-linecap="round" stroke-linejoin="round" fill-rule="evenodd" d="M478.204,182.532 C564.98,124.055 828.015,119.896 916.596,175.6 C828.172,129.814 565.136,133.973 478.204,182.532"/>
<path class="TieSegment" stroke="#000000" stroke-width="1.24" stroke-linecap="round" stroke-linejoin="round" fill-rule="evenodd" d="M456.865,280.504 C510.768,306.355 672.476,306.355 726.379,280.504 C672.476,316.275 510.768,316.275 456.865,280.504"/>
<path class="TieSegment" stroke="#000000" stroke-width="1.24" stroke-linecap="round" stroke-linejoin="round" fill-rule="evenodd" d="M1106.68,280.504 C1164.1,307.181 1336.37,307.181 1393.79,280.504 C1336.37,317.101 1164.1,317.101 1106.68,280.504"/>
<path class="TieSegment" stroke="#000000" stroke-width="1.24" stroke-linecap="round" stroke-linejoin="round" fill-rule="evenodd" d="M456.865,513.896 C510.768,479.5 672.476,479.5 726.379,513.896 C672.476,489.42 510.768,489.42 456.865,513.896"/>
<path class="TieSegment" stroke="#000000" stroke-width="1.24" stroke-linecap="round" stroke-linejoin="round" fill-rule="evenodd" d="M1106.68,550.104 C1156.85,575.046 1307.36,575.046 1357.53,550.104 C1307.36,584.966 1156.85,584.966 1106.68,550.104"/>
<path class="TieSegment" stroke="#000000" stroke-width="1.24" stroke-linecap="round" stroke-linejoin="round" fill-rule="evenodd" d="M1106.68,389.896 C1160.6,354.121 1322.36,354.121 1376.28,389.896 C1322.36,364.041 1160.6,364.041 1106.68,389.896"/>
<path class="Accidental" transform="matrix(0.992001,0,0,0.992001,872.309,237.6)" d="M13.9,-9.2 L13.9,6.5 L2.5,9.5 L2.5,-6.2 L13.9,-9.2 M2.5,-15.8 L2.5,-38.1 L0,-38.1 L0,19.7 L13.9,16.1 L13.9,37.5 L16.5,37.5 L16.5,-19.6 L2.5,-15.8 "/>
<path class="Accidental" transform="matrix(0.992001,0,0,0.992001,1552.5,237.6)" d="M13.9,-9.2 L13.9,6.5 L2.5,9.5 L2.5,-6.2 L13.9,-9.2 M2.5,-15.8 L2.5,-38.1 L0,-38.1 L0,19.7 L13.9,16.1 L13.9,37.5 L16.5,37.5 L16.5,-19.6 L2.5,-15.8 "/>
<path class="Accidental" transform="matrix(0.992001,0,0,0.992001,1337.46,470)" d="M13.9,-9.2 L13.9,6.5 L2.5,9.5 L2.5,-6.2 L13.9,-9.2 M2.5,-15.8 L2.5,-38.1 L0,-38.1 L0,19.7 L13.9,16.1 L13.9,37.5 L16.5,37.5 L16.5,-19.6 L2.5,-15.8 "/>
<path class="Accidental" transform="matrix(0.992001,0,0,0.992001,413.085,532)" d="M13.9,-9.2 L13.9,6.5 L2.5,9.5 L2.5,-6.2 L13.9,-9.2 M2.5,-15.8 L2.5,-38.1 L0,-38.1 L0,19.7 L13.9,16.1 L13.9,37.5 L16.5,37.5 L16.5,-19.6 L2.5,-15.8 "/>
<path class="Accidental" transform="matrix(0.992001,0,0,0.992001,1060.92,408)" d="M13.9,-9.2 L13.9,6.5 L2.5,9.5 L2.5,-6.2 L13.9,-9.2 M2.5,-15.8 L2.5,-38.1 L0,-38.1 L0,19.7 L13.9,16.1 L13.9,37.5 L16.5,37.5 L16.5,-19.6 L2.5,-15.8 "/>
<path class="Accidental" transform="matrix(0.992001,0,0,0.992001,1034.64,470)" d="M2.6,-43.3 L0,-43.3 L0,15.8 C2.5,13.9 12.8,6.6 14.8,4.9 C18.1,2.1 21,-0.4 21,-6.6 C21,-10.3 18.2,-15.5 12.3,-15.5 C8.5,-15.5 6,-14.4 2.6,-11.3 L2.6,-43.3 M12.5,-3.9 C12.5,2.6 8.5,5.9 4,9.6 L2.6,10.7 L2.6,-0.5 C2.6,-4.4 2.8,-10.5 7.6,-10.5 C10.3,-10.5 12.5,-7.9 12.5,-3.9"/>
<path class="Accidental" transform="matrix(0.992001,0,0,0.992001,1449.4,408)" d="M17,31.4 L19.9,31.4 L19.9,15 L23.8,13.8 L23.8,3.4 L19.9,4.6 L19.9,-10.2 L23.8,-11.5 L23.8,-21.9 L19.9,-20.6 L19.9,-34.4 L17,-34.4 L17,-19.7 L7.2,-16.5 L7.2,-31.9 L4.3,-31.9 L4.3,-15.6 L0,-14.2 L0,-3.8 L4.3,-5.2 L4.3,9.7 L0,11.1 L0,21.5 L4.3,20.1 L4.3,33.9 L7.2,33.9 L7.2,19.1 L17,16 L17,31.4 M7.2,-6.1 L17,-9.3 L17,5.6 L7.2,8.7 L7.2,-6.1 "/>
<polyline class="LedgerLine" fill="none" stroke="#000000" stroke-width="2.73" stroke-linejoin="bevel" points="1356.79,408 1400.73,408" />
<polyline class="LedgerLine" fill="none" stroke="#000000" stroke-width="2.73" stroke-linejoin="bevel" points="1477.47,408 1522.41,408" />
<polyline class="LedgerLine" fill="none" stroke="#000000" stroke-width="2.73" stroke-linejoin="bevel" points="1081.73,408 1126.67,408" />
<polyline class="Stem" fill="none" stroke="#000000" stroke-width="2.26" stroke-linejoin="bevel" points="1119.34,257.54 1119.34,175.6" />
<polyline class="Stem" fill="none" stroke="#000000" stroke-width="2.26" stroke-linejoin="bevel" points="1399.87,267.36 1399.87,324.4" />
<polyline class="Stem" fill="none" stroke="#000000" stroke-width="2.26" stroke-linejoin="bevel" points="925.279,234.128 925.279,163.2" />
<polyline class="Stem" fill="none" stroke="#000000" stroke-width="2.26" stroke-linejoin="bevel" points="469.527,257.54 469.527,175.6" />
<polyline class="Stem" fill="none" stroke="#000000" stroke-width="2.26" stroke-linejoin="bevel" points="744.001,257.54 744.001,175.6" />
<polyline class="Stem" fill="none" stroke="#000000" stroke-width="2.26" stroke-linejoin="bevel" points="1605.47,234.128 1605.47,163.2" />
<polyline class="Stem" fill="none" stroke="#000000" stroke-width="2.26" stroke-linejoin="bevel" points="749.975,267.36 749.975,324.4" />
<polyline class="Stem" fill="none" stroke="#000000" stroke-width="2.26" stroke-linejoin="bevel" points="1393.9,257.54 1393.9,175.6" />
<polyline class="Stem" fill="none" stroke="#000000" stroke-width="2.26" stroke-linejoin="bevel" points="713.72,536.96 713.72,594" />
<polyline class="Stem" fill="none" stroke="#000000" stroke-width="2.26" stroke-linejoin="bevel" points="439.246,536.96 439.246,594" />
<polyline class="Stem" fill="none" stroke="#000000" stroke-width="2.26" stroke-linejoin="bevel" points="1089.06,412.96 1089.06,594" />
<polyline class="Stem" fill="none" stroke="#000000" stroke-width="2.26" stroke-linejoin="bevel" points="1363.62,474.96 1363.62,594" />
<polyline class="Stem" fill="none" stroke="#000000" stroke-width="2.26" stroke-linejoin="bevel" points="1515.08,403.139 1515.08,346" />
<polyline class="Stem" fill="none" stroke="#000000" stroke-width="2.26" stroke-linejoin="bevel" points="1393.4,404.528 1393.4,346" />
<path class="Note" transform="matrix(0.992001,0,0,0.992001,438.118,262.4)" d="M20.8,-13.2 C9.7,-13.2 0,-4.6 0,5 C0,13.1 10.6,13.4 12.9,13.4 C25,13.4 32.8,4 32.8,-4.9 C32.8,-11.4 25.9,-13.2 20.8,-13.2 M30.2,-5.7 C30.2,-1.6 23.9,2.4 16.2,6.3 C16.2,6.3 10.3,9.7 7.2,9.7 C4.9,9.7 2.8,8.6 2.8,6 C2.8,1.3 13.6,-4.2 17.7,-6.3 C21.2,-8 23.6,-9.3 25.7,-9.3 C28.4,-9.3 30.2,-7.8 30.2,-5.7"/>
<path class="Note" transform="matrix(0.992001,0,0,0.992001,1087.93,262.4)" d="M20.8,-13.2 C9.7,-13.2 0,-4.6 0,5 C0,13.1 10.6,13.4 12.9,13.4 C25,13.4 32.8,4 32.8,-4.9 C32.8,-11.4 25.9,-13.2 20.8,-13.2 M30.2,-5.7 C30.2,-1.6 23.9,2.4 16.2,6.3 C16.2,6.3 10.3,9.7 7.2,9.7 C4.9,9.7 2.8,8.6 2.8,6 C2.8,1.3 13.6,-4.2 17.7,-6.3 C21.2,-8 23.6,-9.3 25.7,-9.3 C28.4,-9.3 30.2,-7.8 30.2,-5.7"/>
<path class="Note" transform="matrix(0.992001,0,0,0.992001,894.862,237.6)" d="M0,4 C0,9.3 4.3,13.2 11.1,13.2 C20.6,13.2 31.8,5.6 31.8,-3.5 C31.8,-8.8 27.5,-12.6 20.6,-12.6 C11.4,-12.6 0,-5.5 0,4"/>
<path class="Note" transform="matrix(0.992001,0,0,0.992001,712.592,262.4)" d="M20.8,-13.2 C9.7,-13.2 0,-4.6 0,5 C0,13.1 10.6,13.4 12.9,13.4 C25,13.4 32.8,4 32.8,-4.9 C32.8,-11.4 25.9,-13.2 20.8,-13.2 M30.2,-5.7 C30.2,-1.6 23.9,2.4 16.2,6.3 C16.2,6.3 10.3,9.7 7.2,9.7 C4.9,9.7 2.8,8.6 2.8,6 C2.8,1.3 13.6,-4.2 17.7,-6.3 C21.2,-8 23.6,-9.3 25.7,-9.3 C28.4,-9.3 30.2,-7.8 30.2,-5.7"/>
<path class="Note" transform="matrix(0.992001,0,0,0.992001,1398.75,262.4)" d="M20.8,-13.2 C9.7,-13.2 0,-4.6 0,5 C0,13.1 10.6,13.4 12.9,13.4 C25,13.4 32.8,4 32.8,-4.9 C32.8,-11.4 25.9,-13.2 20.8,-13.2 M30.2,-5.7 C30.2,-1.6 23.9,2.4 16.2,6.3 C16.2,6.3 10.3,9.7 7.2,9.7 C4.9,9.7 2.8,8.6 2.8,6 C2.8,1.3 13.6,-4.2 17.7,-6.3 C21.2,-8 23.6,-9.3 25.7,-9.3 C28.4,-9.3 30.2,-7.8 30.2,-5.7"/>
<path class="Note" transform="matrix(0.992001,0,0,0.992001,1362.49,262.4)" d="M20.8,-13.2 C9.7,-13.2 0,-4.6 0,5 C0,13.1 10.6,13.4 12.9,13.4 C25,13.4 32.8,4 32.8,-4.9 C32.8,-11.4 25.9,-13.2 20.8,-13.2 M30.2,-5.7 C30.2,-1.6 23.9,2.4 16.2,6.3 C16.2,6.3 10.3,9.7 7.2,9.7 C4.9,9.7 2.8,8.6 2.8,6 C2.8,1.3 13.6,-4.2 17.7,-6.3 C21.2,-8 23.6,-9.3 25.7,-9.3 C28.4,-9.3 30.2,-7.8 30.2,-5.7"/>
<path class="Note" transform="matrix(0.992001,0,0,0.992001,1575.06,237.6)" d="M0,4 C0,9.3 4.3,13.2 11.1,13.2 C20.6,13.2 31.8,5.6 31.8,-3.5 C31.8,-8.8 27.5,-12.6 20.6,-12.6 C11.4,-12.6 0,-5.5 0,4"/>
<path class="Note" transform="matrix(0.992001,0,0,0.992001,748.846,262.4)" d="M20.8,-13.2 C9.7,-13.2 0,-4.6 0,5 C0,13.1 10.6,13.4 12.9,13.4 C25,13.4 32.8,4 32.8,-4.9 C32.8,-11.4 25.9,-13.2 20.8,-13.2 M30.2,-5.7 C30.2,-1.6 23.9,2.4 16.2,6.3 C16.2,6.3 10.3,9.7 7.2,9.7 C4.9,9.7 2.8,8.6 2.8,6 C2.8,1.3 13.6,-4.2 17.7,-6.3 C21.2,-8 23.6,-9.3 25.7,-9.3 C28.4,-9.3 30.2,-7.8 30.2,-5.7"/>
<path class="Note" transform="matrix(0.992001,0,0,0.992001,438.118,532)" d="M20.8,-13.2 C9.7,-13.2 0,-4.6 0,5 C0,13.1 10.6,13.4 12.9,13.4 C25,13.4 32.8,4 32.8,-4.9 C32.8,-11.4 25.9,-13.2 20.8,-13.2 M30.2,-5.7 C30.2,-1.6 23.9,2.4 16.2,6.3 C16.2,6.3 10.3,9.7 7.2,9.7 C4.9,9.7 2.8,8.6 2.8,6 C2.8,1.3 13.6,-4.2 17.7,-6.3 C21.2,-8 23.6,-9.3 25.7,-9.3 C28.4,-9.3 30.2,-7.8 30.2,-5.7"/>
<path class="Note" transform="matrix(0.992001,0,0,0.992001,1087.93,408)" d="M20.8,-13.2 C9.7,-13.2 0,-4.6 0,5 C0,13.1 10.6,13.4 12.9,13.4 C25,13.4 32.8,4 32.8,-4.9 C32.8,-11.4 25.9,-13.2 20.8,-13.2 M30.2,-5.7 C30.2,-1.6 23.9,2.4 16.2,6.3 C16.2,6.3 10.3,9.7 7.2,9.7 C4.9,9.7 2.8,8.6 2.8,6 C2.8,1.3 13.6,-4.2 17.7,-6.3 C21.2,-8 23.6,-9.3 25.7,-9.3 C28.4,-9.3 30.2,-7.8 30.2,-5.7"/>
<path class="Note" transform="matrix(0.992001,0,0,0.992001,1087.93,470)" d="M20.8,-13.2 C9.7,-13.2 0,-4.6 0,5 C0,13.1 10.6,13.4 12.9,13.4 C25,13.4 32.8,4 32.8,-4.9 C32.8,-11.4 25.9,-13.2 20.8,-13.2 M30.2,-5.7 C30.2,-1.6 23.9,2.4 16.2,6.3 C16.2,6.3 10.3,9.7 7.2,9.7 C4.9,9.7 2.8,8.6 2.8,6 C2.8,1.3 13.6,-4.2 17.7,-6.3 C21.2,-8 23.6,-9.3 25.7,-9.3 C28.4,-9.3 30.2,-7.8 30.2,-5.7"/>
<path class="Note" transform="matrix(0.992001,0,0,0.992001,712.592,532)" d="M20.8,-13.2 C9.7,-13.2 0,-4.6 0,5 C0,13.1 10.6,13.4 12.9,13.4 C25,13.4 32.8,4 32.8,-4.9 C32.8,-11.4 25.9,-13.2 20.8,-13.2 M30.2,-5.7 C30.2,-1.6 23.9,2.4 16.2,6.3 C16.2,6.3 10.3,9.7 7.2,9.7 C4.9,9.7 2.8,8.6 2.8,6 C2.8,1.3 13.6,-4.2 17.7,-6.3 C21.2,-8 23.6,-9.3 25.7,-9.3 C28.4,-9.3 30.2,-7.8 30.2,-5.7"/>
<path class="Note" transform="matrix(0.992001,0,0,0.992001,1362.49,470)" d="M20.8,-13.2 C9.7,-13.2 0,-4.6 0,5 C0,13.1 10.6,13.4 12.9,13.4 C25,13.4 32.8,4 32.8,-4.9 C32.8,-11.4 25.9,-13.2 20.8,-13.2 M30.2,-5.7 C30.2,-1.6 23.9,2.4 16.2,6.3 C16.2,6.3 10.3,9.7 7.2,9.7 C4.9,9.7 2.8,8.6 2.8,6 C2.8,1.3 13.6,-4.2 17.7,-6.3 C21.2,-8 23.6,-9.3 25.7,-9.3 C28.4,-9.3 30.2,-7.8 30.2,-5.7"/>
<path class="Note" transform="matrix(0.992001,0,0,0.992001,1087.93,532)" d="M20.8,-13.2 C9.7,-13.2 0,-4.6 0,5 C0,13.1 10.6,13.4 12.9,13.4 C25,13.4 32.8,4 32.8,-4.9 C32.8,-11.4 25.9,-13.2 20.8,-13.2 M30.2,-5.7 C30.2,-1.6 23.9,2.4 16.2,6.3 C16.2,6.3 10.3,9.7 7.2,9.7 C4.9,9.7 2.8,8.6 2.8,6 C2.8,1.3 13.6,-4.2 17.7,-6.3 C21.2,-8 23.6,-9.3 25.7,-9.3 C28.4,-9.3 30.2,-7.8 30.2,-5.7"/>
<path class="Note" transform="matrix(0.992001,0,0,0.992001,1483.67,408)" d="M20.8,-13.2 C9.7,-13.2 0,-4.6 0,5 C0,13.1 10.6,13.4 12.9,13.4 C25,13.4 32.8,4 32.8,-4.9 C32.8,-11.4 25.9,-13.2 20.8,-13.2 M30.2,-5.7 C30.2,-1.6 23.9,2.4 16.2,6.3 C16.2,6.3 10.3,9.7 7.2,9.7 C4.9,9.7 2.8,8.6 2.8,6 C2.8,1.3 13.6,-4.2 17.7,-6.3 C21.2,-8 23.6,-9.3 25.7,-9.3 C28.4,-9.3 30.2,-7.8 30.2,-5.7"/>
<path class="Note" transform="matrix(0.992001,0,0,0.992001,1362.99,408)" d="M0,4 C0,9.3 4.3,13.2 11.1,13.2 C20.6,13.2 31.8,5.6 31.8,-3.5 C31.8,-8.8 27.5,-12.6 20.6,-12.6 C11.4,-12.6 0,-5.5 0,4"/>
<path class="Note" transform="matrix(0.992001,0,0,0.992001,1362.49,532)" d="M20.8,-13.2 C9.7,-13.2 0,-4.6 0,5 C0,13.1 10.6,13.4 12.9,13.4 C25,13.4 32.8,4 32.8,-4.9 C32.8,-11.4 25.9,-13.2 20.8,-13.2 M30.2,-5.7 C30.2,-1.6 23.9,2.4 16.2,6.3 C16.2,6.3 10.3,9.7 7.2,9.7 C4.9,9.7 2.8,8.6 2.8,6 C2.8,1.3 13.6,-4.2 17.7,-6.3 C21.2,-8 23.6,-9.3 25.7,-9.3 C28.4,-9.3 30.2,-7.8 30.2,-5.7"/>
<path class="Clef" transform="matrix(0.992001,0,0,0.992001,201.743,262.4)" d="M48.8,-101.5 C52.4,-101.5 54.8,-97.4 54.8,-91.9 C54.8,-81.9 43,-69.7 35,-63.4 C34.6,-65.9 34.5,-68.4 34.5,-71 C34.5,-85.8 40,-101.5 48.8,-101.5 M42.9,-14.5 C54.6,-14.3 60.2,-7.2 60.2,3.6 C60.2,11.1 56.1,18.9 48.6,21.1 L42.9,-14.5 M46.2,21.9 C43.5,22.6 40.8,22.9 38.2,22.9 C20.7,22.9 6.8,9.4 6.8,-5.9 C6.8,-21.4 23.1,-36.5 35.3,-45.5 L38.3,-27.1 C26.4,-24.6 20.5,-13.8 20.5,-6 C20.5,3.1 25.9,10.6 33.8,13.4 L34.8,12.3 C30.3,10.1 26.9,3.2 26.9,-1.2 C26.9,-5.4 30.1,-12.9 40.2,-14.3 L46.2,21.9 M46.7,25.2 C48.1,32.1 49.9,46.8 49.9,49.4 C49.9,59.5 42.4,66.4 33.8,66.4 C28.2,66.4 24.3,64.3 23,62.5 C30.8,60.3 34.1,55.7 34.1,51 C34.1,45.1 28.7,40.9 23.7,40.9 C15.9,40.9 12.8,47.7 12.8,53.7 C12.8,65.1 25.5,69 33.2,69 C46.7,69 52.5,58.7 52.5,50.2 C52.5,47.3 50.4,30.6 49.2,24.5 C60.4,20.7 68.3,9.4 68.3,-2.4 C68.3,-16.4 59.1,-27.7 43.6,-27.7 C42.7,-27.7 41.8,-27.7 40.9,-27.6 L37.6,-47 C44,-52.1 48.3,-56.8 51.8,-62.7 C56.1,-70 58.9,-77 58.9,-89.2 C58.9,-100.3 51.7,-117 47.3,-117 C41.4,-117 33.7,-102.6 32.2,-95.8 C31.1,-91 30.6,-85.2 30.6,-81.4 C30.6,-74.2 31.5,-68 32.5,-61.3 C16.9,-49.8 0,-33.7 0,-13.5 C0,11 18.3,26.1 38.7,26.1 C41.6,26.1 44.2,25.7 46.7,25.2"/>
<path class="Clef" transform="matrix(0.992001,0,0,0.992001,201.743,457.6)" d="M51.7,2.8 C51.7,-11.4 42,-25 24.8,-25 C8,-25 0,-13.6 0,-1.5 C0,5.3 4.9,11 11,11 C17.5,11 21.6,6 21.6,0.9 C21.6,-4.1 18.7,-9.1 13,-9.1 C8.9,-9.1 6.8,-7.1 5.9,-7.1 C5.1,-7.1 5.1,-8.3 5.1,-8.6 C5.1,-15.7 14.3,-22.1 22.3,-22.1 C31.5,-22.1 37.2,-12.6 37.2,2 C37.2,24.4 27.4,46.5 -4.3,57.1 L-3.6,58.6 C26.3,54.7 51.7,30.9 51.7,2.8 M55.5,-12.3 C55.5,-9.1 58,-6.9 61.1,-6.9 C64.3,-6.9 66.5,-9.4 66.5,-12.5 C66.5,-15.7 64,-17.7 60.9,-17.7 C57.7,-17.7 55.5,-15.4 55.5,-12.3 M55.4,12.9 C55.5,16.1 58,18.3 61.1,18.3 C64.3,18.3 66.5,15.8 66.5,12.7 C66.5,9.6 64,7.5 60.9,7.5 C57.8,7.5 55.4,9.9 55.4,12.9"/>
<path class="KeySig" transform="matrix(0.992001,0,0,0.992001,288.093,188)" d="M17,31.4 L19.9,31.4 L19.9,15 L23.8,13.8 L23.8,3.4 L19.9,4.6 L19.9,-10.2 L23.8,-11.5 L23.8,-21.9 L19.9,-20.6 L19.9,-34.4 L17,-34.4 L17,-19.7 L7.2,-16.5 L7.2,-31.9 L4.3,-31.9 L4.3,-15.6 L0,-14.2 L0,-3.8 L4.3,-5.2 L4.3,9.7 L0,11.1 L0,21.5 L4.3,20.1 L4.3,33.9 L7.2,33.9 L7.2,19.1 L17,16 L17,31.4 M7.2,-6.1 L17,-9.3 L17,5.6 L7.2,8.7 L7.2,-6.1 "/>
<path class="KeySig" transform="matrix(0.992001,0,0,0.992001,288.093,457.6)" d="M17,31.4 L19.9,31.4 L19.9,15 L23.8,13.8 L23.8,3.4 L19.9,4.6 L19.9,-10.2 L23.8,-11.5 L23.8,-21.9 L19.9,-20.6 L19.9,-34.4 L17,-34.4 L17,-19.7 L7.2,-16.5 L7.2,-31.9 L4.3,-31.9 L4.3,-15.6 L0,-14.2 L0,-3.8 L4.3,-5.2 L4.3,9.7 L0,11.1 L0,21.5 L4.3,20.1 L4.3,33.9 L7.2,33.9 L7.2,19.1 L17,16 L17,31.4 M7.2,-6.1 L17,-9.3 L17,5.6 L7.2,8.7 L7.2,-6.1 "/>
<path class="TimeSig" transform="matrix(0.992001,0,0,0.992001,335.663,213.296)" d="M39.4,9.9 C39.4,3 32.6,-0.2 25.4,-0.8 C33,-3.1 37.4,-6.6 37.4,-12.5 C37.4,-19.5 30.4,-24.6 22.5,-24.6 C11.2,-24.6 2.9,-20.3 2.9,-11.5 C2.9,-7.9 6.7,-4.1 10.4,-4.1 C14.2,-4.1 17.8,-7.3 17.8,-10.2 C17.8,-15.4 12.9,-16.5 12.9,-19.2 C12.9,-20.5 14.5,-21.7 17,-21.7 C21.7,-21.7 25.4,-18.5 25.4,-11.9 C25.4,-5.6 21.1,-2.4 12.7,-1.4 L12.6,1.2 C22.4,2.3 26.9,3.7 26.9,10.2 C26.9,16.2 22.5,22.4 17.4,22.4 C15.1,22.4 13,21.5 13,19.5 C13,16.2 16.6,15.5 16.6,10.6 C16.6,6.3 12.7,4.2 9,4.2 C4.7,4.2 2,7.9 2,11.4 C2,19.9 10,24.6 19.8,24.6 C30.6,24.6 39.4,17.7 39.4,9.9"/>
<path class="TimeSig" transform="matrix(0.992001,0,0,0.992001,334.531,261.943)" d="M41.7,11 L41.7,8.2 L34.5,8.2 L34.5,-17.5 L22.3,-4.1 L22.3,8.2 L6.8,8.2 C14.5,-0.9 27.2,-13.5 34.4,-25 L17.1,-25 C15.4,-12.1 10.5,-1.3 2,9.1 L3.8,11 L22.3,11 L22.3,17.8 C22.3,20.9 19.4,21.5 17.5,21.5 L17.5,24.1 L39.2,24.1 L39.2,21.5 C37,21.5 34.5,20.8 34.5,17.6 L34.5,11 L41.7,11 "/>
<path class="TimeSig" transform="matrix(0.992001,0,0,0.992001,335.663,458.096)" d="M39.4,9.9 C39.4,3 32.6,-0.2 25.4,-0.8 C33,-3.1 37.4,-6.6 37.4,-12.5 C37.4,-19.5 30.4,-24.6 22.5,-24.6 C11.2,-24.6 2.9,-20.3 2.9,-11.5 C2.9,-7.9 6.7,-4.1 10.4,-4.1 C14.2,-4.1 17.8,-7.3 17.8,-10.2 C17.8,-15.4 12.9,-16.5 12.9,-19.2 C12.9,-20.5 14.5,-21.7 17,-21.7 C21.7,-21.7 25.4,-18.5 25.4,-11.9 C25.4,-5.6 21.1,-2.4 12.7,-1.4 L12.6,1.2 C22.4,2.3 26.9,3.7 26.9,10.2 C26.9,16.2 22.5,22.4 17.4,22.4 C15.1,22.4 13,21.5 13,19.5 C13,16.2 16.6,15.5 16.6,10.6 C16.6,6.3 12.7,4.2 9,4.2 C4.7,4.2 2,7.9 2,11.4 C2,19.9 10,24.6 19.8,24.6 C30.6,24.6 39.4,17.7 39.4,9.9"/>
<path class="TimeSig" transform="matrix(0.992001,0,0,0.992001,334.531,506.742)" d="M41.7,11 L41.7,8.2 L34.5,8.2 L34.5,-17.5 L22.3,-4.1 L22.3,8.2 L6.8,8.2 C14.5,-0.9 27.2,-13.5 34.4,-25 L17.1,-25 C15.4,-12.1 10.5,-1.3 2,9.1 L3.8,11 L22.3,11 L22.3,17.8 C22.3,20.9 19.4,21.5 17.5,21.5 L17.5,24.1 L39.2,24.1 L39.2,21.5 C37,21.5 34.5,20.8 34.5,17.6 L34.5,11 L41.7,11 "/>
<path class="StaffText" d="M172.793,122.553 C174.649,122.553 176.447,122.989 178.189,123.86 C179.93,124.73 181.257,125.857 182.168,127.241 C183.047,128.559 183.633,130.097 183.926,131.855 C184.187,133.06 184.317,134.98 184.317,137.617 L165.152,137.617 C165.233,140.27 165.86,142.398 167.032,144.001 C168.204,145.604 170.018,146.406 172.476,146.406 C174.771,146.406 176.602,145.649 177.969,144.135 C178.75,143.257 179.304,142.239 179.629,141.084 L183.951,141.084 C183.837,142.044 183.458,143.114 182.815,144.294 C182.172,145.474 181.452,146.439 180.655,147.187 C179.32,148.489 177.668,149.368 175.699,149.824 C174.641,150.084 173.444,150.215 172.11,150.215 C168.855,150.215 166.096,149.03 163.833,146.662 C161.571,144.294 160.44,140.978 160.44,136.714 C160.44,132.514 161.579,129.105 163.858,126.484 C166.136,123.864 169.115,122.553 172.793,122.553 M179.8,134.126 C179.621,132.221 179.206,130.7 178.555,129.56 C177.351,127.444 175.341,126.386 172.525,126.386 C170.507,126.386 168.814,127.115 167.447,128.572 C166.079,130.028 165.355,131.88 165.274,134.126 L179.8,134.126 M188.212,159.492 C190.8,154.446 192.468,150.768 193.217,148.457 C194.356,144.957 194.926,140.856 194.926,136.152 C194.926,131.448 194.267,127.143 192.949,123.237 C192.135,120.828 190.532,117.361 188.139,112.837 L191.093,112.837 C193.6,116.841 195.117,119.31 195.646,120.246 C196.175,121.182 196.749,122.472 197.368,124.116 C198.149,126.15 198.706,128.161 199.04,130.146 C199.374,132.132 199.54,134.044 199.54,135.884 C199.54,140.701 198.775,144.998 197.245,148.774 C196.285,151.199 194.291,154.772 191.264,159.492 L188.212,159.492 "/>
<path class="SystemText" d="M380.246,74.1948 C383.615,74.1948 386.529,74.8458 388.987,76.1479 C392.551,78.0197 394.732,81.2993 395.53,85.9868 L390.72,85.9868 C390.134,83.3664 388.921,81.458 387.082,80.2617 C385.243,79.0654 382.924,78.4673 380.124,78.4673 C376.804,78.4673 374.009,79.7124 371.738,82.2026 C369.467,84.6929 368.332,88.4038 368.332,93.3354 C368.332,97.5998 369.268,101.071 371.14,103.748 C373.012,106.425 376.063,107.764 380.295,107.764 C383.534,107.764 386.216,106.824 388.34,104.944 C390.464,103.064 391.55,100.025 391.599,95.8257 L380.368,95.8257 L380.368,91.7973 L396.115,91.7973 L396.115,110.987 L392.99,110.987 L391.819,106.373 C390.175,108.179 388.718,109.432 387.448,110.132 C385.316,111.337 382.606,111.939 379.319,111.939 C375.071,111.939 371.417,110.564 368.357,107.813 C365.02,104.362 363.352,99.6261 363.352,93.604 C363.352,87.5981 364.979,82.8211 368.235,79.2729 C371.327,75.8875 375.331,74.1948 380.246,74.1948 M413.424,108.155 C416.337,108.155 418.335,107.052 419.418,104.847 C420.5,102.641 421.041,100.188 421.041,97.4858 C421.041,95.0444 420.651,93.0587 419.869,91.5288 C418.632,89.1199 416.5,87.9155 413.473,87.9155 C410.787,87.9155 408.834,88.9409 407.613,90.9917 C406.393,93.0425 405.782,95.5164 405.782,98.4136 C405.782,101.197 406.393,103.516 407.613,105.372 C408.834,107.227 410.771,108.155 413.424,108.155 M413.595,84.0825 C416.964,84.0825 419.812,85.2055 422.14,87.4516 C424.467,89.6977 425.631,93.0018 425.631,97.3638 C425.631,101.579 424.606,105.062 422.555,107.813 C420.504,110.564 417.322,111.939 413.009,111.939 C409.412,111.939 406.556,110.722 404.44,108.289 C402.324,105.856 401.266,102.588 401.266,98.4868 C401.266,94.0923 402.381,90.5929 404.611,87.9888 C406.84,85.3846 409.835,84.0825 413.595,84.0825 M415.499,75.7085 L420.065,75.7085 L420.065,80.7866 L415.499,80.7866 L415.499,75.7085 M407.443,75.7085 L412.008,75.7085 L412.008,80.7866 L407.443,80.7866 L407.443,75.7085 M431.724,77.5395 L436.167,77.5395 L436.167,84.8393 L440.342,84.8393 L440.342,88.4282 L436.167,88.4282 L436.167,105.494 C436.167,106.405 436.476,107.015 437.095,107.325 C437.437,107.504 438.006,107.593 438.804,107.593 C439.016,107.593 439.243,107.589 439.488,107.581 C439.732,107.573 440.016,107.553 440.342,107.52 L440.342,110.987 C439.837,111.133 439.313,111.239 438.767,111.304 C438.222,111.369 437.632,111.402 436.997,111.402 C434.946,111.402 433.555,110.877 432.822,109.827 C432.09,108.777 431.724,107.414 431.724,105.738 L431.724,88.4282 L428.184,88.4282 L428.184,84.8393 L431.724,84.8393 L431.724,77.5395 M445.614,77.5395 L450.058,77.5395 L450.058,84.8393 L454.233,84.8393 L454.233,88.4282 L450.058,88.4282 L450.058,105.494 C450.058,106.405 450.367,107.015 450.986,107.325 C451.327,107.504 451.897,107.593 452.695,107.593 C452.906,107.593 453.134,107.589 453.378,107.581 C453.622,107.573 453.907,107.553 454.233,107.52 L454.233,110.987 C453.728,111.133 453.203,111.239 452.658,111.304 C452.113,111.369 451.523,111.402 450.888,111.402 C448.837,111.402 447.446,110.877 446.713,109.827 C445.981,108.777 445.614,107.414 445.614,105.738 L445.614,88.4282 L442.074,88.4282 L442.074,84.8393 L445.614,84.8393 L445.614,77.5395 M469.515,84.2534 C471.37,84.2534 473.169,84.6888 474.91,85.5596 C476.652,86.4303 477.978,87.5574 478.89,88.9409 C479.769,90.2593 480.355,91.7973 480.648,93.5552 C480.908,94.7596 481.038,96.6802 481.038,99.3169 L461.873,99.3169 C461.955,101.97 462.581,104.098 463.753,105.701 C464.925,107.304 466.74,108.106 469.197,108.106 C471.492,108.106 473.323,107.349 474.691,105.835 C475.472,104.957 476.025,103.939 476.351,102.784 L480.672,102.784 C480.558,103.744 480.18,104.814 479.537,105.994 C478.894,107.174 478.174,108.138 477.376,108.887 C476.042,110.189 474.39,111.068 472.42,111.524 C471.362,111.784 470.166,111.915 468.831,111.915 C465.576,111.915 462.817,110.73 460.555,108.362 C458.293,105.994 457.161,102.678 457.161,98.4136 C457.161,94.2143 458.301,90.8045 460.579,88.1841 C462.858,85.5636 465.836,84.2534 469.515,84.2534 M476.522,95.8257 C476.343,93.9214 475.928,92.3996 475.277,91.2602 C474.072,89.1444 472.062,88.0864 469.246,88.0864 C467.228,88.0864 465.535,88.8148 464.168,90.2715 C462.801,91.7282 462.077,93.5796 461.995,95.8257 L476.522,95.8257 M486.545,84.8393 L490.72,84.8393 L490.72,89.3559 C491.062,88.477 491.9,87.4069 493.235,86.1455 C494.569,84.8841 496.107,84.2534 497.849,84.2534 C497.93,84.2534 498.069,84.2615 498.264,84.2778 C498.459,84.2941 498.793,84.3266 499.265,84.3755 L499.265,89.0141 C499.004,88.9653 498.764,88.9328 498.545,88.9165 C498.325,88.9002 498.085,88.8921 497.824,88.8921 C495.611,88.8921 493.91,89.6041 492.722,91.0283 C491.534,92.4525 490.94,94.0923 490.94,95.9477 L490.94,110.987 L486.545,110.987 L486.545,84.8393 M505.847,98.2182 C505.847,101.018 506.441,103.361 507.629,105.249 C508.817,107.138 510.722,108.082 513.342,108.082 C515.377,108.082 517.049,107.207 518.359,105.457 C519.669,103.707 520.324,101.197 520.324,97.9253 C520.324,94.6212 519.649,92.1758 518.298,90.5889 C516.947,89.0019 515.279,88.2085 513.293,88.2085 C511.08,88.2085 509.285,89.0548 507.91,90.7475 C506.535,92.4402 505.847,94.9305 505.847,98.2182 M512.463,84.3755 C514.465,84.3755 516.141,84.7986 517.492,85.645 C518.274,86.1333 519.161,86.9878 520.154,88.2085 L520.154,75.0005 L524.377,75.0005 L524.377,110.987 L520.422,110.987 L520.422,107.349 C519.397,108.96 518.184,110.124 516.784,110.84 C515.385,111.556 513.781,111.915 511.975,111.915 C509.061,111.915 506.539,110.69 504.406,108.24 C502.274,105.791 501.208,102.531 501.208,98.4624 C501.208,94.6538 502.181,91.3538 504.126,88.5625 C506.071,85.7711 508.85,84.3755 512.463,84.3755 M534.23,104.029 C534.23,105.298 534.694,106.299 535.621,107.032 C536.549,107.764 537.648,108.13 538.917,108.13 C540.463,108.13 541.961,107.772 543.409,107.056 C545.851,105.868 547.071,103.923 547.071,101.221 L547.071,97.6811 C546.534,98.0229 545.843,98.3078 544.996,98.5356 C544.15,98.7635 543.32,98.9263 542.506,99.0239 L539.845,99.3657 C538.25,99.5773 537.054,99.911 536.256,100.367 C534.905,101.132 534.23,102.352 534.23,104.029 M544.874,95.1421 C545.883,95.0119 546.559,94.5887 546.901,93.8725 C547.096,93.4819 547.194,92.9204 547.194,92.188 C547.194,90.6906 546.661,89.6041 545.594,88.9287 C544.528,88.2532 543.002,87.9155 541.017,87.9155 C538.722,87.9155 537.094,88.534 536.134,89.771 C535.597,90.4546 535.247,91.4718 535.084,92.8227 L530.983,92.8227 C531.064,89.6001 532.11,87.3581 534.12,86.0967 C536.13,84.8353 538.461,84.2046 541.114,84.2046 C544.191,84.2046 546.689,84.7905 548.61,85.9624 C550.514,87.1343 551.466,88.9572 551.466,91.4311 L551.466,106.495 C551.466,106.95 551.56,107.317 551.747,107.593 C551.934,107.87 552.329,108.008 552.931,108.008 C553.126,108.008 553.346,107.996 553.59,107.972 C553.834,107.947 554.095,107.911 554.371,107.862 L554.371,111.109 C553.688,111.304 553.167,111.426 552.809,111.475 C552.451,111.524 551.962,111.548 551.344,111.548 C549.83,111.548 548.732,111.011 548.048,109.937 C547.69,109.367 547.438,108.562 547.291,107.52 C546.396,108.692 545.11,109.709 543.434,110.572 C541.757,111.434 539.91,111.866 537.892,111.866 C535.467,111.866 533.485,111.129 531.947,109.656 C530.409,108.183 529.64,106.34 529.64,104.126 C529.64,101.701 530.397,99.8214 531.91,98.4868 C533.424,97.1522 535.41,96.3302 537.867,96.021 L544.874,95.1421 M543.531,75.7085 L548.097,75.7085 L548.097,80.7866 L543.531,80.7866 L543.531,75.7085 M535.475,75.7085 L540.04,75.7085 L540.04,80.7866 L535.475,80.7866 L535.475,75.7085 M558.657,84.8393 L563.003,84.8393 L563.003,88.5503 C564.045,87.2645 564.989,86.3286 565.835,85.7427 C567.284,84.7498 568.928,84.2534 570.767,84.2534 C572.85,84.2534 574.527,84.7661 575.796,85.7915 C576.512,86.3774 577.163,87.2401 577.749,88.3794 C578.726,86.9796 579.873,85.942 581.192,85.2666 C582.51,84.5911 583.991,84.2534 585.635,84.2534 C589.151,84.2534 591.543,85.5229 592.813,88.062 C593.496,89.4292 593.838,91.2684 593.838,93.5796 L593.838,110.987 L589.273,110.987 L589.273,92.8227 C589.273,91.0812 588.837,89.8849 587.967,89.2339 C587.096,88.5828 586.034,88.2573 584.78,88.2573 C583.055,88.2573 581.57,88.8351 580.325,89.9907 C579.08,91.1463 578.457,93.075 578.457,95.7768 L578.457,110.987 L573.989,110.987 L573.989,93.9214 C573.989,92.1473 573.778,90.8533 573.355,90.0395 C572.687,88.8188 571.442,88.2085 569.619,88.2085 C567.959,88.2085 566.45,88.8514 565.091,90.1372 C563.731,91.423 563.052,93.7505 563.052,97.1196 L563.052,110.987 L558.657,110.987 L558.657,84.8393 M600.298,84.8393 L604.644,84.8393 L604.644,88.5503 C605.685,87.2645 606.629,86.3286 607.476,85.7427 C608.924,84.7498 610.568,84.2534 612.407,84.2534 C614.491,84.2534 616.167,84.7661 617.437,85.7915 C618.153,86.3774 618.804,87.2401 619.39,88.3794 C620.366,86.9796 621.514,85.942 622.832,85.2666 C624.151,84.5911 625.632,84.2534 627.276,84.2534 C630.791,84.2534 633.184,85.5229 634.453,88.062 C635.137,89.4292 635.479,91.2684 635.479,93.5796 L635.479,110.987 L630.913,110.987 L630.913,92.8227 C630.913,91.0812 630.478,89.8849 629.607,89.2339 C628.736,88.5828 627.674,88.2573 626.421,88.2573 C624.696,88.2573 623.211,88.8351 621.966,89.9907 C620.72,91.1463 620.098,93.075 620.098,95.7768 L620.098,110.987 L615.63,110.987 L615.63,93.9214 C615.63,92.1473 615.418,90.8533 614.995,90.0395 C614.328,88.8188 613.083,88.2085 611.26,88.2085 C609.6,88.2085 608.09,88.8514 606.731,90.1372 C605.372,91.423 604.693,93.7505 604.693,97.1196 L604.693,110.987 L600.298,110.987 L600.298,84.8393 M652.827,84.2534 C654.683,84.2534 656.481,84.6888 658.223,85.5596 C659.964,86.4303 661.291,87.5574 662.202,88.9409 C663.081,90.2593 663.667,91.7973 663.96,93.5552 C664.221,94.7596 664.351,96.6802 664.351,99.3169 L645.186,99.3169 C645.267,101.97 645.894,104.098 647.066,105.701 C648.238,107.304 650.052,108.106 652.51,108.106 C654.805,108.106 656.636,107.349 658.003,105.835 C658.784,104.957 659.338,103.939 659.663,102.784 L663.985,102.784 C663.871,103.744 663.492,104.814 662.849,105.994 C662.206,107.174 661.486,108.138 660.689,108.887 C659.354,110.189 657.702,111.068 655.733,111.524 C654.675,111.784 653.478,111.915 652.144,111.915 C648.889,111.915 646.13,110.73 643.867,108.362 C641.605,105.994 640.474,102.678 640.474,98.4136 C640.474,94.2143 641.613,90.8045 643.892,88.1841 C646.17,85.5636 649.149,84.2534 652.827,84.2534 M659.834,95.8257 C659.655,93.9214 659.24,92.3996 658.589,91.2602 C657.385,89.1444 655.375,88.0864 652.559,88.0864 C650.541,88.0864 648.848,88.8148 647.481,90.2715 C646.113,91.7282 645.389,93.5796 645.308,95.8257 L659.834,95.8257 M669.858,84.8393 L674.032,84.8393 L674.032,89.3559 C674.374,88.477 675.212,87.4069 676.547,86.1455 C677.882,84.8841 679.42,84.2534 681.161,84.2534 C681.243,84.2534 681.381,84.2615 681.576,84.2778 C681.772,84.2941 682.105,84.3266 682.577,84.3755 L682.577,89.0141 C682.317,88.9653 682.077,88.9328 681.857,88.9165 C681.637,88.9002 681.397,88.8921 681.137,88.8921 C678.923,88.8921 677.223,89.6041 676.034,91.0283 C674.846,92.4525 674.252,94.0923 674.252,95.9477 L674.252,110.987 L669.858,110.987 L669.858,84.8393 M690.771,84.8393 L690.771,102.198 C690.771,103.532 690.982,104.623 691.405,105.469 C692.187,107.032 693.643,107.813 695.776,107.813 C698.835,107.813 700.919,106.446 702.026,103.711 C702.628,102.247 702.929,100.236 702.929,97.6811 L702.929,84.8393 L707.323,84.8393 L707.323,110.987 L703.173,110.987 L703.222,107.129 C702.652,108.122 701.944,108.96 701.098,109.644 C699.421,111.011 697.387,111.695 694.994,111.695 C691.267,111.695 688.728,110.45 687.377,107.959 C686.645,106.625 686.279,104.843 686.279,102.613 L686.279,84.8393 L690.771,84.8393 M714.173,84.8393 L718.348,84.8393 L718.348,88.5503 C719.585,87.0203 720.895,85.9217 722.279,85.2544 C723.662,84.5871 725.2,84.2534 726.893,84.2534 C730.604,84.2534 733.11,85.5473 734.412,88.1352 C735.128,89.5513 735.487,91.5776 735.487,94.2143 L735.487,110.987 L731.019,110.987 L731.019,94.5073 C731.019,92.9123 730.783,91.6264 730.311,90.6499 C729.53,89.0223 728.113,88.2085 726.063,88.2085 C725.021,88.2085 724.167,88.3143 723.499,88.5259 C722.295,88.8839 721.237,89.6001 720.325,90.6743 C719.593,91.5369 719.117,92.428 718.897,93.3476 C718.677,94.2672 718.568,95.5815 718.568,97.2905 L718.568,110.987 L714.173,110.987 L714.173,84.8393 M751.198,84.3755 C753.249,84.3755 755.04,84.88 756.57,85.8891 C757.4,86.4588 758.246,87.2889 759.109,88.3794 L759.109,85.0835 L763.161,85.0835 L763.161,108.863 C763.161,112.183 762.673,114.804 761.696,116.724 C759.874,120.272 756.431,122.046 751.369,122.046 C748.554,122.046 746.185,121.416 744.265,120.154 C742.344,118.893 741.27,116.919 741.042,114.234 L745.51,114.234 C745.722,115.406 746.145,116.309 746.78,116.944 C747.772,117.92 749.335,118.409 751.467,118.409 C754.836,118.409 757.042,117.221 758.083,114.844 C758.702,113.444 758.987,110.946 758.938,107.349 C758.059,108.684 757.001,109.677 755.764,110.328 C754.527,110.979 752.891,111.304 750.857,111.304 C748.025,111.304 745.547,110.299 743.423,108.289 C741.299,106.279 740.237,102.955 740.237,98.3159 C740.237,93.9376 741.307,90.5197 743.447,88.062 C745.587,85.6043 748.171,84.3755 751.198,84.3755 M759.109,97.8032 C759.109,94.5643 758.441,92.1636 757.107,90.6011 C755.772,89.0386 754.071,88.2573 752.004,88.2573 C748.912,88.2573 746.796,89.7059 745.656,92.603 C745.054,94.1492 744.753,96.1756 744.753,98.6821 C744.753,101.628 745.351,103.87 746.548,105.408 C747.744,106.946 749.351,107.715 751.369,107.715 C754.527,107.715 756.749,106.291 758.034,103.443 C758.751,101.832 759.109,99.9516 759.109,97.8032"/>
<path class="RehearsalMark" fill="none" stroke="#000000" stroke-width="3.97" stroke-linecap="square" stroke-linejoin="miter" stroke-miterlimit="2" fill-rule="evenodd" d="M101.985,363.887 C101.985,381.669 87.5699,396.083 69.7883,396.083 C52.0066,396.083 37.5917,381.669 37.5917,363.887 C37.5917,346.105 52.0066,331.69 69.7883,331.69 C87.5699,331.69 101.985,346.105 101.985,363.887"/>
<path class="RehearsalMark" d="M63.2297,356.131 L63.2297,352.762 C66.4035,352.453 68.617,351.936 69.8703,351.212 C71.1235,350.487 72.0594,348.774 72.6779,346.072 L76.1447,346.072 L76.1447,380.887 L71.4572,380.887 L71.4572,356.131 L63.2297,356.131 "/>
<path class="NoteDot" transform="matrix(0.992001,0,0,0.992001,1132.87,250)" d="M0,-0.1 C0,2.7 2.3,5 5.2,5 C8.1,5 10.4,2.7 10.4,-0.1 C10.4,-2.9 8.1,-5.1 5.2,-5.1 C2.3,-5.1 0,-2.9 0,-0.1"/>
<path class="NoteDot" transform="matrix(0.992001,0,0,0.992001,483.052,250)" d="M0,-0.1 C0,2.7 2.3,5 5.2,5 C8.1,5 10.4,2.7 10.4,-0.1 C10.4,-2.9 8.1,-5.1 5.2,-5.1 C2.3,-5.1 0,-2.9 0,-0.1"/>
<path class="NoteDot" transform="matrix(0.992001,0,0,0.992001,1443.68,250)" d="M0,-0.1 C0,2.7 2.3,5 5.2,5 C8.1,5 10.4,2.7 10.4,-0.1 C10.4,-2.9 8.1,-5.1 5.2,-5.1 C2.3,-5.1 0,-2.9 0,-0.1"/>
<path class="NoteDot" transform="matrix(0.992001,0,0,0.992001,793.781,274.8)" d="M0,-0.1 C0,2.7 2.3,5 5.2,5 C8.1,5 10.4,2.7 10.4,-0.1 C10.4,-2.9 8.1,-5.1 5.2,-5.1 C2.3,-5.1 0,-2.9 0,-0.1"/>
<path class="NoteDot" transform="matrix(0.992001,0,0,0.992001,483.052,519.6)" d="M0,-0.1 C0,2.7 2.3,5 5.2,5 C8.1,5 10.4,2.7 10.4,-0.1 C10.4,-2.9 8.1,-5.1 5.2,-5.1 C2.3,-5.1 0,-2.9 0,-0.1"/>
<path class="NoteDot" transform="matrix(0.992001,0,0,0.992001,1407.43,470)" d="M0,-0.1 C0,2.7 2.3,5 5.2,5 C8.1,5 10.4,2.7 10.4,-0.1 C10.4,-2.9 8.1,-5.1 5.2,-5.1 C2.3,-5.1 0,-2.9 0,-0.1"/>
<path class="NoteDot" transform="matrix(0.992001,0,0,0.992001,1407.43,519.6)" d="M0,-0.1 C0,2.7 2.3,5 5.2,5 C8.1,5 10.4,2.7 10.4,-0.1 C10.4,-2.9 8.1,-5.1 5.2,-5.1 C2.3,-5.1 0,-2.9 0,-0.1"/>
<path class="NoteDot" transform="matrix(0.992001,0,0,0.992001,757.526,519.6)" d="M0,-0.1 C0,2.7 2.3,5 5.2,5 C8.1,5 10.4,2.7 10.4,-0.1 C10.4,-2.9 8.1,-5.1 5.2,-5.1 C2.3,-5.1 0,-2.9 0,-0.1"/>
<path class="NoteDot" transform="matrix(0.992001,0,0,0.992001,1132.87,519.6)" d="M0,-0.1 C0,2.7 2.3,5 5.2,5 C8.1,5 10.4,2.7 10.4,-0.1 C10.4,-2.9 8.1,-5.1 5.2,-5.1 C2.3,-5.1 0,-2.9 0,-0.1"/>
<path class="NoteDot" transform="matrix(0.992001,0,0,0.992001,1132.87,470)" d="M0,-0.1 C0,2.7 2.3,5 5.2,5 C8.1,5 10.4,2.7 10.4,-0.1 C10.4,-2.9 8.1,-5.1 5.2,-5.1 C2.3,-5.1 0,-2.9 0,-0.1"/>
<path class="NoteDot" transform="matrix(0.992001,0,0,0.992001,1132.87,395.6)" d="M0,-0.1 C0,2.7 2.3,5 5.2,5 C8.1,5 10.4,2.7 10.4,-0.1 C10.4,-2.9 8.1,-5.1 5.2,-5.1 C2.3,-5.1 0,-2.9 0,-0.1"/>
<path class="Bracket" transform="matrix(3.596,0,0,3.44,123.5,532)" d="M0,-50 C4.7,-46.9 6.6,-44.6 6.6,-39.6 C6.6,-36.5 3.3,-24 3.3,-19.5 C3.3,-10.5 6.9,-4.5 12,0 L12.3,-1.2 C8.2,-5.6 6.9,-11.4 6.9,-16.8 C6.9,-22.6 9.4,-32.7 9.4,-37.3 C9.4,-43.4 6.8,-46.8 1.8,-50 C6.8,-53.2 9.4,-56.6 9.4,-62.7 C9.4,-67.3 6.9,-77.4 6.9,-83.2 C6.9,-88.6 8.2,-94.3 12.3,-98.7 L12,-99.9 C6.9,-95.4 3.3,-89.5 3.3,-80.5 C3.3,-76 6.6,-63.5 6.6,-60.4 C6.6,-55.4 4.7,-53.1 0,-50"/>
</svg>
