<?xml version="1.0" encoding="UTF-8" standalone="no"?>
<svg width="101.6mm" height="50.8mm" viewBox="0 0 1440 720"
 xmlns="http://www.w3.org/2000/svg" xmlns:xlink="http://www.w3.org/1999/xlink" version="1.2" baseProfile="full">
<title>sfoh-ex-01-c</title>
<desc>Generated by MuseScore Studio 4.6.3</desc>
<polyline class="StaffLines" fill="none" stroke="#000000" stroke-width="2.26" stroke-linejoin="bevel" points="176.4,188 1353.6,188" />
<polyline class="StaffLines" fill="none" stroke="#000000" stroke-width="2.26" stroke-linejoin="bevel" points="176.4,212.8 1353.6,212.8" />
<polyline class="StaffLines" fill="none" stroke="#000000" stroke-width="2.26" stroke-linejoin="bevel" points="176.4,237.6 1353.6,237.6" />
<polyline class="StaffLines" fill="none" stroke="#000000" stroke-width="2.26" stroke-linejoin="bevel" points="176.4,262.4 1353.6,262.4" />
<polyline class="StaffLines" fill="none" stroke="#000000" stroke-width="2.26" stroke-linejoin="bevel" points="176.4,287.2 1353.6,287.2" />
<polyline class="StaffLines" fill="none" stroke="#000000" stroke-width="2.26" stroke-linejoin="bevel" points="176.4,432.8 1353.6,432.8" />
<polyline class="StaffLines" fill="none" stroke="#000000" stroke-width="2.26" stroke-linejoin="bevel" points="176.4,457.6 1353.6,457.6" />
<polyline class="StaffLines" fill="none" stroke="#000000" stroke-width="2.26" stroke-linejoin="bevel" points="176.4,482.4 1353.6,482.4" />
<polyline class="StaffLines" fill="none" stroke="#000000" stroke-width="2.26" stroke-linejoin="bevel" points="176.4,507.2 1353.6,507.2" />
<polyline class="StaffLines" fill="none" stroke="#000000" stroke-width="2.26" stroke-linejoin="bevel" points="176.4,532 1353.6,532" />
<polyline class="BarLine" fill="none" stroke="#000000" stroke-width="2.48" stroke-linejoin="bevel" points="177.64,186.872 177.64,432.8" />
<polyline class="BarLine" fill="none" stroke="#000000" stroke-width="2.48" stroke-linejoin="bevel" points="1337.48,186.872 1337.48,432.8" />
<polyline class="BarLine" fill="none" stroke="#000000" stroke-width="2.48" stroke-linejoin="bevel" points="1352.36,186.872 1352.36,432.8" />
<polyline class="BarLine" fill="none" stroke="#000000" stroke-width="2.48" stroke-linejoin="bevel" points="845.499,186.872 845.499,432.8" />
<polyline class="BarLine" fill="none" stroke="#000000" stroke-width="2.48" stroke-linejoin="bevel" points="177.64,431.671 177.64,533.128" />
<polyline class="BarLine" fill="none" stroke="#000000" stroke-width="2.48" stroke-linejoin="bevel" points="1337.48,431.671 1337.48,533.128" />
<polyline class="BarLine" fill="none" stroke="#000000" stroke-width="2.48" stroke-linejoin="bevel" points="1352.36,431.671 1352.36,533.128" />
<polyline class="BarLine" fill="none" stroke="#000000" stroke-width="2.48" stroke-linejoin="bevel" points="845.499,431.671 845.499,533.128" />
<path class="Accidental" transform="matrix(0.992001,0,0,0.992001,625.116,225.2)" d="M13.9,-9.2 L13.9,6.5 L2.5,9.5 L2.5,-6.2 L13.9,-9.2 M2.5,-15.8 L2.5,-38.1 L0,-38.1 L0,19.7 L13.9,16.1 L13.9,37.5 L16.5,37.5 L16.5,-19.6 L2.5,-15.8 "/>
<path class="Accidental" transform="matrix(0.992001,0,0,0.992001,649.405,287.2)" d="M2.6,-43.3 L0,-43.3 L0,15.8 C2.5,13.9 12.8,6.6 14.8,4.9 C18.1,2.1 21,-0.4 21,-6.6 C21,-10.3 18.2,-15.5 12.3,-15.5 C8.5,-15.5 6,-14.4 2.6,-11.3 L2.6,-43.3 M12.5,-3.9 C12.5,2.6 8.5,5.9 4,9.6 L2.6,10.7 L2.6,-0.5 C2.6,-4.4 2.8,-10.5 7.6,-10.5 C10.3,-10.5 12.5,-7.9 12.5,-3.9"/>
<path class="Accidental" transform="matrix(0.992001,0,0,0.992001,375.343,299.6)" d="M13.9,-9.2 L13.9,6.5 L2.5,9.5 L2.5,-6.2 L13.9,-9.2 M2.5,-15.8 L2.5,-38.1 L0,-38.1 L0,19.7 L13.9,16.1 L13.9,37.5 L16.5,37.5 L16.5,-19.6 L2.5,-15.8 "/>
<path class="Accidental" transform="matrix(0.992001,0,0,0.992001,889.132,175.6)" d="M2.6,-43.3 L0,-43.3 L0,15.8 C2.5,13.9 12.8,6.6 14.8,4.9 C18.1,2.1 21,-0.4 21,-6.6 C21,-10.3 18.2,-15.5 12.3,-15.5 C8.5,-15.5 6,-14.4 2.6,-11.3 L2.6,-43.3 M12.5,-3.9 C12.5,2.6 8.5,5.9 4,9.6 L2.6,10.7 L2.6,-0.5 C2.6,-4.4 2.8,-10.5 7.6,-10.5 C10.3,-10.5 12.5,-7.9 12.5,-3.9"/>
<path class="Accidental" transform="matrix(0.992001,0,0,0.992001,397.151,250)" d="M2.6,-43.3 L0,-43.3 L0,15.8 C2.5,13.9 12.8,6.6 14.8,4.9 C18.1,2.1 21,-0.4 21,-6.6 C21,-10.3 18.2,-15.5 12.3,-15.5 C8.5,-15.5 6,-14.4 2.6,-11.3 L2.6,-43.3 M12.5,-3.9 C12.5,2.6 8.5,5.9 4,9.6 L2.6,10.7 L2.6,-0.5 C2.6,-4.4 2.8,-10.5 7.6,-10.5 C10.3,-10.5 12.5,-7.9 12.5,-3.9"/>
<path class="Accidental" transform="matrix(0.992001,0,0,0.992001,862.859,225.2)" d="M2.6,-43.3 L0,-43.3 L0,15.8 C2.5,13.9 12.8,6.6 14.8,4.9 C18.1,2.1 21,-0.4 21,-6.6 C21,-10.3 18.2,-15.5 12.3,-15.5 C8.5,-15.5 6,-14.4 2.6,-11.3 L2.6,-43.3 M12.5,-3.9 C12.5,2.6 8.5,5.9 4,9.6 L2.6,10.7 L2.6,-0.5 C2.6,-4.4 2.8,-10.5 7.6,-10.5 C10.3,-10.5 12.5,-7.9 12.5,-3.9"/>
<path class="Accidental" transform="matrix(0.992001,0,0,0.992001,370.879,225.2)" d="M2.6,-43.3 L0,-43.3 L0,15.8 C2.5,13.9 12.8,6.6 14.8,4.9 C18.1,2.1 21,-0.4 21,-6.6 C21,-10.3 18.2,-15.5 12.3,-15.5 C8.5,-15.5 6,-14.4 2.6,-11.3 L2.6,-43.3 M12.5,-3.9 C12.5,2.6 8.5,5.9 4,9.6 L2.6,10.7 L2.6,-0.5 C2.6,-4.4 2.8,-10.5 7.6,-10.5 C10.3,-10.5 12.5,-7.9 12.5,-3.9"/>
<path class="Accidental" transform="matrix(0.992001,0,0,0.992001,889.132,250)" d="M2.6,-43.3 L0,-43.3 L0,15.8 C2.5,13.9 12.8,6.6 14.8,4.9 C18.1,2.1 21,-0.4 21,-6.6 C21,-10.3 18.2,-15.5 12.3,-15.5 C8.5,-15.5 6,-14.4 2.6,-11.3 L2.6,-43.3 M12.5,-3.9 C12.5,2.6 8.5,5.9 4,9.6 L2.6,10.7 L2.6,-0.5 C2.6,-4.4 2.8,-10.5 7.6,-10.5 C10.3,-10.5 12.5,-7.9 12.5,-3.9"/>
<path class="Accidental" transform="matrix(0.992001,0,0,0.992001,397.151,175.6)" d="M2.6,-43.3 L0,-43.3 L0,15.8 C2.5,13.9 12.8,6.6 14.8,4.9 C18.1,2.1 21,-0.4 21,-6.6 C21,-10.3 18.2,-15.5 12.3,-15.5 C8.5,-15.5 6,-14.4 2.6,-11.3 L2.6,-43.3 M12.5,-3.9 C12.5,2.6 8.5,5.9 4,9.6 L2.6,10.7 L2.6,-0.5 C2.6,-4.4 2.8,-10.5 7.6,-10.5 C10.3,-10.5 12.5,-7.9 12.5,-3.9"/>
<path class="Accidental" transform="matrix(0.992001,0,0,0.992001,867.323,299.6)" d="M13.9,-9.2 L13.9,6.5 L2.5,9.5 L2.5,-6.2 L13.9,-9.2 M2.5,-15.8 L2.5,-38.1 L0,-38.1 L0,19.7 L13.9,16.1 L13.9,37.5 L16.5,37.5 L16.5,-19.6 L2.5,-15.8 "/>
<path class="Accidental" transform="matrix(0.992001,0,0,0.992001,1092.81,250)" d="M13.9,-9.2 L13.9,6.5 L2.5,9.5 L2.5,-6.2 L13.9,-9.2 M2.5,-15.8 L2.5,-38.1 L0,-38.1 L0,19.7 L13.9,16.1 L13.9,37.5 L16.5,37.5 L16.5,-19.6 L2.5,-15.8 "/>
<path class="Accidental" transform="matrix(0.992001,0,0,0.992001,1145.85,188)" d="M13.9,-9.2 L13.9,6.5 L2.5,9.5 L2.5,-6.2 L13.9,-9.2 M2.5,-15.8 L2.5,-38.1 L0,-38.1 L0,19.7 L13.9,16.1 L13.9,37.5 L16.5,37.5 L16.5,-19.6 L2.5,-15.8 "/>
<path class="Accidental" transform="matrix(0.992001,0,0,0.992001,653.869,188)" d="M13.9,-9.2 L13.9,6.5 L2.5,9.5 L2.5,-6.2 L13.9,-9.2 M2.5,-15.8 L2.5,-38.1 L0,-38.1 L0,19.7 L13.9,16.1 L13.9,37.5 L16.5,37.5 L16.5,-19.6 L2.5,-15.8 "/>
<path class="Accidental" transform="matrix(0.992001,0,0,0.992001,1117.1,225.2)" d="M13.9,-9.2 L13.9,6.5 L2.5,9.5 L2.5,-6.2 L13.9,-9.2 M2.5,-15.8 L2.5,-38.1 L0,-38.1 L0,19.7 L13.9,16.1 L13.9,37.5 L16.5,37.5 L16.5,-19.6 L2.5,-15.8 "/>
<path class="Accidental" transform="matrix(0.992001,0,0,0.992001,1141.39,287.2)" d="M2.6,-43.3 L0,-43.3 L0,15.8 C2.5,13.9 12.8,6.6 14.8,4.9 C18.1,2.1 21,-0.4 21,-6.6 C21,-10.3 18.2,-15.5 12.3,-15.5 C8.5,-15.5 6,-14.4 2.6,-11.3 L2.6,-43.3 M12.5,-3.9 C12.5,2.6 8.5,5.9 4,9.6 L2.6,10.7 L2.6,-0.5 C2.6,-4.4 2.8,-10.5 7.6,-10.5 C10.3,-10.5 12.5,-7.9 12.5,-3.9"/>
<path class="Accidental" transform="matrix(0.992001,0,0,0.992001,600.828,250)" d="M13.9,-9.2 L13.9,6.5 L2.5,9.5 L2.5,-6.2 L13.9,-9.2 M2.5,-15.8 L2.5,-38.1 L0,-38.1 L0,19.7 L13.9,16.1 L13.9,37.5 L16.5,37.5 L16.5,-19.6 L2.5,-15.8 "/>
<polyline class="Stem" fill="none" stroke="#000000" stroke-width="2.26" stroke-linejoin="bevel" points="455.577,294.74 455.577,113.6" />
<polyline class="Stem" fill="none" stroke="#000000" stroke-width="2.26" stroke-linejoin="bevel" points="706.838,283.728 706.838,126" />
<polyline class="Stem" fill="none" stroke="#000000" stroke-width="2.26" stroke-linejoin="bevel" points="947.558,294.74 947.558,113.6" />
<polyline class="Stem" fill="none" stroke="#000000" stroke-width="2.26" stroke-linejoin="bevel" points="1198.82,283.728 1198.82,126" />
<path class="Note" transform="matrix(0.992001,0,0,0.992001,676.421,250)" d="M0,4 C0,9.3 4.3,13.2 11.1,13.2 C20.6,13.2 31.8,5.6 31.8,-3.5 C31.8,-8.8 27.5,-12.6 20.6,-12.6 C11.4,-12.6 0,-5.5 0,4"/>
<path class="Note" transform="matrix(0.992001,0,0,0.992001,676.421,287.2)" d="M0,4 C0,9.3 4.3,13.2 11.1,13.2 C20.6,13.2 31.8,5.6 31.8,-3.5 C31.8,-8.8 27.5,-12.6 20.6,-12.6 C11.4,-12.6 0,-5.5 0,4"/>
<path class="Note" transform="matrix(0.992001,0,0,0.992001,676.421,225.2)" d="M0,4 C0,9.3 4.3,13.2 11.1,13.2 C20.6,13.2 31.8,5.6 31.8,-3.5 C31.8,-8.8 27.5,-12.6 20.6,-12.6 C11.4,-12.6 0,-5.5 0,4"/>
<path class="Note" transform="matrix(0.992001,0,0,0.992001,676.421,188)" d="M0,4 C0,9.3 4.3,13.2 11.1,13.2 C20.6,13.2 31.8,5.6 31.8,-3.5 C31.8,-8.8 27.5,-12.6 20.6,-12.6 C11.4,-12.6 0,-5.5 0,4"/>
<path class="Note" transform="matrix(0.992001,0,0,0.992001,1168.4,188)" d="M0,4 C0,9.3 4.3,13.2 11.1,13.2 C20.6,13.2 31.8,5.6 31.8,-3.5 C31.8,-8.8 27.5,-12.6 20.6,-12.6 C11.4,-12.6 0,-5.5 0,4"/>
<path class="Note" transform="matrix(0.992001,0,0,0.992001,1168.4,225.2)" d="M0,4 C0,9.3 4.3,13.2 11.1,13.2 C20.6,13.2 31.8,5.6 31.8,-3.5 C31.8,-8.8 27.5,-12.6 20.6,-12.6 C11.4,-12.6 0,-5.5 0,4"/>
<path class="Note" transform="matrix(0.992001,0,0,0.992001,424.168,299.6)" d="M20.8,-13.2 C9.7,-13.2 0,-4.6 0,5 C0,13.1 10.6,13.4 12.9,13.4 C25,13.4 32.8,4 32.8,-4.9 C32.8,-11.4 25.9,-13.2 20.8,-13.2 M30.2,-5.7 C30.2,-1.6 23.9,2.4 16.2,6.3 C16.2,6.3 10.3,9.7 7.2,9.7 C4.9,9.7 2.8,8.6 2.8,6 C2.8,1.3 13.6,-4.2 17.7,-6.3 C21.2,-8 23.6,-9.3 25.7,-9.3 C28.4,-9.3 30.2,-7.8 30.2,-5.7"/>
<path class="Note" transform="matrix(0.992001,0,0,0.992001,916.148,299.6)" d="M20.8,-13.2 C9.7,-13.2 0,-4.6 0,5 C0,13.1 10.6,13.4 12.9,13.4 C25,13.4 32.8,4 32.8,-4.9 C32.8,-11.4 25.9,-13.2 20.8,-13.2 M30.2,-5.7 C30.2,-1.6 23.9,2.4 16.2,6.3 C16.2,6.3 10.3,9.7 7.2,9.7 C4.9,9.7 2.8,8.6 2.8,6 C2.8,1.3 13.6,-4.2 17.7,-6.3 C21.2,-8 23.6,-9.3 25.7,-9.3 C28.4,-9.3 30.2,-7.8 30.2,-5.7"/>
<path class="Note" transform="matrix(0.992001,0,0,0.992001,916.148,250)" d="M20.8,-13.2 C9.7,-13.2 0,-4.6 0,5 C0,13.1 10.6,13.4 12.9,13.4 C25,13.4 32.8,4 32.8,-4.9 C32.8,-11.4 25.9,-13.2 20.8,-13.2 M30.2,-5.7 C30.2,-1.6 23.9,2.4 16.2,6.3 C16.2,6.3 10.3,9.7 7.2,9.7 C4.9,9.7 2.8,8.6 2.8,6 C2.8,1.3 13.6,-4.2 17.7,-6.3 C21.2,-8 23.6,-9.3 25.7,-9.3 C28.4,-9.3 30.2,-7.8 30.2,-5.7"/>
<path class="Note" transform="matrix(0.992001,0,0,0.992001,424.168,175.6)" d="M20.8,-13.2 C9.7,-13.2 0,-4.6 0,5 C0,13.1 10.6,13.4 12.9,13.4 C25,13.4 32.8,4 32.8,-4.9 C32.8,-11.4 25.9,-13.2 20.8,-13.2 M30.2,-5.7 C30.2,-1.6 23.9,2.4 16.2,6.3 C16.2,6.3 10.3,9.7 7.2,9.7 C4.9,9.7 2.8,8.6 2.8,6 C2.8,1.3 13.6,-4.2 17.7,-6.3 C21.2,-8 23.6,-9.3 25.7,-9.3 C28.4,-9.3 30.2,-7.8 30.2,-5.7"/>
<path class="Note" transform="matrix(0.992001,0,0,0.992001,916.148,225.2)" d="M20.8,-13.2 C9.7,-13.2 0,-4.6 0,5 C0,13.1 10.6,13.4 12.9,13.4 C25,13.4 32.8,4 32.8,-4.9 C32.8,-11.4 25.9,-13.2 20.8,-13.2 M30.2,-5.7 C30.2,-1.6 23.9,2.4 16.2,6.3 C16.2,6.3 10.3,9.7 7.2,9.7 C4.9,9.7 2.8,8.6 2.8,6 C2.8,1.3 13.6,-4.2 17.7,-6.3 C21.2,-8 23.6,-9.3 25.7,-9.3 C28.4,-9.3 30.2,-7.8 30.2,-5.7"/>
<path class="Note" transform="matrix(0.992001,0,0,0.992001,424.168,225.2)" d="M20.8,-13.2 C9.7,-13.2 0,-4.6 0,5 C0,13.1 10.6,13.4 12.9,13.4 C25,13.4 32.8,4 32.8,-4.9 C32.8,-11.4 25.9,-13.2 20.8,-13.2 M30.2,-5.7 C30.2,-1.6 23.9,2.4 16.2,6.3 C16.2,6.3 10.3,9.7 7.2,9.7 C4.9,9.7 2.8,8.6 2.8,6 C2.8,1.3 13.6,-4.2 17.7,-6.3 C21.2,-8 23.6,-9.3 25.7,-9.3 C28.4,-9.3 30.2,-7.8 30.2,-5.7"/>
<path class="Note" transform="matrix(0.992001,0,0,0.992001,916.148,175.6)" d="M20.8,-13.2 C9.7,-13.2 0,-4.6 0,5 C0,13.1 10.6,13.4 12.9,13.4 C25,13.4 32.8,4 32.8,-4.9 C32.8,-11.4 25.9,-13.2 20.8,-13.2 M30.2,-5.7 C30.2,-1.6 23.9,2.4 16.2,6.3 C16.2,6.3 10.3,9.7 7.2,9.7 C4.9,9.7 2.8,8.6 2.8,6 C2.8,1.3 13.6,-4.2 17.7,-6.3 C21.2,-8 23.6,-9.3 25.7,-9.3 C28.4,-9.3 30.2,-7.8 30.2,-5.7"/>
<path class="Note" transform="matrix(0.992001,0,0,0.992001,424.168,250)" d="M20.8,-13.2 C9.7,-13.2 0,-4.6 0,5 C0,13.1 10.6,13.4 12.9,13.4 C25,13.4 32.8,4 32.8,-4.9 C32.8,-11.4 25.9,-13.2 20.8,-13.2 M30.2,-5.7 C30.2,-1.6 23.9,2.4 16.2,6.3 C16.2,6.3 10.3,9.7 7.2,9.7 C4.9,9.7 2.8,8.6 2.8,6 C2.8,1.3 13.6,-4.2 17.7,-6.3 C21.2,-8 23.6,-9.3 25.7,-9.3 C28.4,-9.3 30.2,-7.8 30.2,-5.7"/>
<path class="Note" transform="matrix(0.992001,0,0,0.992001,1168.4,250)" d="M0,4 C0,9.3 4.3,13.2 11.1,13.2 C20.6,13.2 31.8,5.6 31.8,-3.5 C31.8,-8.8 27.5,-12.6 20.6,-12.6 C11.4,-12.6 0,-5.5 0,4"/>
<path class="Note" transform="matrix(0.992001,0,0,0.992001,1168.4,287.2)" d="M0,4 C0,9.3 4.3,13.2 11.1,13.2 C20.6,13.2 31.8,5.6 31.8,-3.5 C31.8,-8.8 27.5,-12.6 20.6,-12.6 C11.4,-12.6 0,-5.5 0,4"/>
<path class="Clef" transform="matrix(0.992001,0,0,0.992001,201.743,262.4)" d="M48.8,-101.5 C52.4,-101.5 54.8,-97.4 54.8,-91.9 C54.8,-81.9 43,-69.7 35,-63.4 C34.6,-65.9 34.5,-68.4 34.5,-71 C34.5,-85.8 40,-101.5 48.8,-101.5 M42.9,-14.5 C54.6,-14.3 60.2,-7.2 60.2,3.6 C60.2,11.1 56.1,18.9 48.6,21.1 L42.9,-14.5 M46.2,21.9 C43.5,22.6 40.8,22.9 38.2,22.9 C20.7,22.9 6.8,9.4 6.8,-5.9 C6.8,-21.4 23.1,-36.5 35.3,-45.5 L38.3,-27.1 C26.4,-24.6 20.5,-13.8 20.5,-6 C20.5,3.1 25.9,10.6 33.8,13.4 L34.8,12.3 C30.3,10.1 26.9,3.2 26.9,-1.2 C26.9,-5.4 30.1,-12.9 40.2,-14.3 L46.2,21.9 M46.7,25.2 C48.1,32.1 49.9,46.8 49.9,49.4 C49.9,59.5 42.4,66.4 33.8,66.4 C28.2,66.4 24.3,64.3 23,62.5 C30.8,60.3 34.1,55.7 34.1,51 C34.1,45.1 28.7,40.9 23.7,40.9 C15.9,40.9 12.8,47.7 12.8,53.7 C12.8,65.1 25.5,69 33.2,69 C46.7,69 52.5,58.7 52.5,50.2 C52.5,47.3 50.4,30.6 49.2,24.5 C60.4,20.7 68.3,9.4 68.3,-2.4 C68.3,-16.4 59.1,-27.7 43.6,-27.7 C42.7,-27.7 41.8,-27.7 40.9,-27.6 L37.6,-47 C44,-52.1 48.3,-56.8 51.8,-62.7 C56.1,-70 58.9,-77 58.9,-89.2 C58.9,-100.3 51.7,-117 47.3,-117 C41.4,-117 33.7,-102.6 32.2,-95.8 C31.1,-91 30.6,-85.2 30.6,-81.4 C30.6,-74.2 31.5,-68 32.5,-61.3 C16.9,-49.8 0,-33.7 0,-13.5 C0,11 18.3,26.1 38.7,26.1 C41.6,26.1 44.2,25.7 46.7,25.2"/>
<path class="Clef" transform="matrix(0.992001,0,0,0.992001,201.743,457.6)" d="M51.7,2.8 C51.7,-11.4 42,-25 24.8,-25 C8,-25 0,-13.6 0,-1.5 C0,5.3 4.9,11 11,11 C17.5,11 21.6,6 21.6,0.9 C21.6,-4.1 18.7,-9.1 13,-9.1 C8.9,-9.1 6.8,-7.1 5.9,-7.1 C5.1,-7.1 5.1,-8.3 5.1,-8.6 C5.1,-15.7 14.3,-22.1 22.3,-22.1 C31.5,-22.1 37.2,-12.6 37.2,2 C37.2,24.4 27.4,46.5 -4.3,57.1 L-3.6,58.6 C26.3,54.7 51.7,30.9 51.7,2.8 M55.5,-12.3 C55.5,-9.1 58,-6.9 61.1,-6.9 C64.3,-6.9 66.5,-9.4 66.5,-12.5 C66.5,-15.7 64,-17.7 60.9,-17.7 C57.7,-17.7 55.5,-15.4 55.5,-12.3 M55.4,12.9 C55.5,16.1 58,18.3 61.1,18.3 C64.3,18.3 66.5,15.8 66.5,12.7 C66.5,9.6 64,7.5 60.9,7.5 C57.8,7.5 55.4,9.9 55.4,12.9"/>
<path class="TimeSig" transform="matrix(0.992001,0,0,0.992001,293.456,213.296)" d="M39.4,9.9 C39.4,3 32.6,-0.2 25.4,-0.8 C33,-3.1 37.4,-6.6 37.4,-12.5 C37.4,-19.5 30.4,-24.6 22.5,-24.6 C11.2,-24.6 2.9,-20.3 2.9,-11.5 C2.9,-7.9 6.7,-4.1 10.4,-4.1 C14.2,-4.1 17.8,-7.3 17.8,-10.2 C17.8,-15.4 12.9,-16.5 12.9,-19.2 C12.9,-20.5 14.5,-21.7 17,-21.7 C21.7,-21.7 25.4,-18.5 25.4,-11.9 C25.4,-5.6 21.1,-2.4 12.7,-1.4 L12.6,1.2 C22.4,2.3 26.9,3.7 26.9,10.2 C26.9,16.2 22.5,22.4 17.4,22.4 C15.1,22.4 13,21.5 13,19.5 C13,16.2 16.6,15.5 16.6,10.6 C16.6,6.3 12.7,4.2 9,4.2 C4.7,4.2 2,7.9 2,11.4 C2,19.9 10,24.6 19.8,24.6 C30.6,24.6 39.4,17.7 39.4,9.9"/>
<path class="TimeSig" transform="matrix(0.992001,0,0,0.992001,292.325,261.943)" d="M41.7,11 L41.7,8.2 L34.5,8.2 L34.5,-17.5 L22.3,-4.1 L22.3,8.2 L6.8,8.2 C14.5,-0.9 27.2,-13.5 34.4,-25 L17.1,-25 C15.4,-12.1 10.5,-1.3 2,9.1 L3.8,11 L22.3,11 L22.3,17.8 C22.3,20.9 19.4,21.5 17.5,21.5 L17.5,24.1 L39.2,24.1 L39.2,21.5 C37,21.5 34.5,20.8 34.5,17.6 L34.5,11 L41.7,11 "/>
<path class="TimeSig" transform="matrix(0.992001,0,0,0.992001,293.456,458.096)" d="M39.4,9.9 C39.4,3 32.6,-0.2 25.4,-0.8 C33,-3.1 37.4,-6.6 37.4,-12.5 C37.4,-19.5 30.4,-24.6 22.5,-24.6 C11.2,-24.6 2.9,-20.3 2.9,-11.5 C2.9,-7.9 6.7,-4.1 10.4,-4.1 C14.2,-4.1 17.8,-7.3 17.8,-10.2 C17.8,-15.4 12.9,-16.5 12.9,-19.2 C12.9,-20.5 14.5,-21.7 17,-21.7 C21.7,-21.7 25.4,-18.5 25.4,-11.9 C25.4,-5.6 21.1,-2.4 12.7,-1.4 L12.6,1.2 C22.4,2.3 26.9,3.7 26.9,10.2 C26.9,16.2 22.5,22.4 17.4,22.4 C15.1,22.4 13,21.5 13,19.5 C13,16.2 16.6,15.5 16.6,10.6 C16.6,6.3 12.7,4.2 9,4.2 C4.7,4.2 2,7.9 2,11.4 C2,19.9 10,24.6 19.8,24.6 C30.6,24.6 39.4,17.7 39.4,9.9"/>
<path class="TimeSig" transform="matrix(0.992001,0,0,0.992001,292.325,506.742)" d="M41.7,11 L41.7,8.2 L34.5,8.2 L34.5,-17.5 L22.3,-4.1 L22.3,8.2 L6.8,8.2 C14.5,-0.9 27.2,-13.5 34.4,-25 L17.1,-25 C15.4,-12.1 10.5,-1.3 2,9.1 L3.8,11 L22.3,11 L22.3,17.8 C22.3,20.9 19.4,21.5 17.5,21.5 L17.5,24.1 L39.2,24.1 L39.2,21.5 C37,21.5 34.5,20.8 34.5,17.6 L34.5,11 L41.7,11 "/>
<path class="StaffText" d="M204.168,129.75 C207.114,129.75 209.511,130.467 211.358,131.899 C213.206,133.331 214.316,135.797 214.691,139.296 L210.418,139.296 C210.158,137.685 209.564,136.346 208.636,135.28 C207.708,134.214 206.219,133.681 204.168,133.681 C201.369,133.681 199.367,135.048 198.162,137.783 C197.381,139.557 196.991,141.746 196.991,144.35 C196.991,146.97 197.544,149.176 198.651,150.966 C199.758,152.757 201.499,153.652 203.875,153.652 C205.698,153.652 207.143,153.094 208.209,151.979 C209.275,150.864 210.011,149.339 210.418,147.402 L214.691,147.402 C214.203,150.869 212.982,153.404 211.029,155.007 C209.076,156.61 206.577,157.412 203.534,157.412 C200.116,157.412 197.389,156.162 195.355,153.664 C193.32,151.166 192.303,148.045 192.303,144.301 C192.303,139.711 193.418,136.139 195.648,133.583 C197.878,131.028 200.718,129.75 204.168,129.75 M217.596,166.86 C220.184,161.814 221.852,158.136 222.601,155.825 C223.74,152.325 224.31,148.224 224.31,143.52 C224.31,138.816 223.651,134.511 222.332,130.605 C221.519,128.196 219.915,124.729 217.523,120.204 L220.477,120.204 C222.983,124.208 224.501,126.678 225.03,127.614 C225.559,128.55 226.133,129.84 226.751,131.484 C227.533,133.518 228.09,135.528 228.424,137.514 C228.757,139.5 228.924,141.412 228.924,143.251 C228.924,148.069 228.159,152.366 226.629,156.142 C225.669,158.567 223.675,162.14 220.648,166.86 L217.596,166.86 "/>
<path class="SystemText" d="M366.296,52.58 C369.665,52.58 372.579,53.231 375.037,54.5331 C378.601,56.4049 380.782,59.6845 381.579,64.372 L376.77,64.372 C376.184,61.7515 374.971,59.8432 373.132,58.6469 C371.293,57.4506 368.974,56.8525 366.174,56.8525 C362.854,56.8525 360.058,58.0976 357.788,60.5878 C355.517,63.078 354.382,66.789 354.382,71.7206 C354.382,75.9849 355.318,79.4558 357.19,82.1332 C359.062,84.8106 362.113,86.1493 366.345,86.1493 C369.584,86.1493 372.266,85.2094 374.39,83.3295 C376.514,81.4496 377.6,78.4101 377.649,74.2109 L366.418,74.2109 L366.418,70.1825 L382.165,70.1825 L382.165,89.372 L379.04,89.372 L377.869,84.7577 C376.225,86.5644 374.768,87.8176 373.498,88.5175 C371.366,89.7219 368.656,90.3241 365.369,90.3241 C361.12,90.3241 357.467,88.9488 354.407,86.1982 C351.07,82.7476 349.402,78.0113 349.402,71.9892 C349.402,65.9833 351.029,61.2063 354.285,57.6581 C357.377,54.2727 361.381,52.58 366.296,52.58 M399.474,86.54 C402.387,86.54 404.385,85.4373 405.468,83.2318 C406.55,81.0264 407.091,78.5728 407.091,75.871 C407.091,73.4296 406.701,71.4439 405.919,69.914 C404.682,67.5051 402.55,66.3007 399.523,66.3007 C396.837,66.3007 394.884,67.3261 393.663,69.3769 C392.443,71.4276 391.832,73.9016 391.832,76.7987 C391.832,79.5819 392.443,81.9013 393.663,83.7568 C394.884,85.6122 396.821,86.54 399.474,86.54 M399.645,62.4677 C403.014,62.4677 405.862,63.5907 408.19,65.8368 C410.517,68.0829 411.681,71.387 411.681,75.7489 C411.681,79.9644 410.656,83.4475 408.605,86.1982 C406.554,88.9488 403.372,90.3241 399.059,90.3241 C395.462,90.3241 392.606,89.1075 390.49,86.6742 C388.374,84.241 387.316,80.9735 387.316,76.872 C387.316,72.4775 388.431,68.9781 390.661,66.3739 C392.89,63.7698 395.885,62.4677 399.645,62.4677 M401.549,54.0937 L406.115,54.0937 L406.115,59.1718 L401.549,59.1718 L401.549,54.0937 M393.493,54.0937 L398.058,54.0937 L398.058,59.1718 L393.493,59.1718 L393.493,54.0937 M417.774,55.9247 L422.217,55.9247 L422.217,63.2245 L426.392,63.2245 L426.392,66.8134 L422.217,66.8134 L422.217,83.8788 C422.217,84.7903 422.526,85.4006 423.145,85.7099 C423.487,85.8889 424.056,85.9784 424.854,85.9784 C425.065,85.9784 425.293,85.9744 425.537,85.9662 C425.782,85.9581 426.066,85.9377 426.392,85.9052 L426.392,89.372 C425.887,89.5185 425.363,89.6243 424.817,89.6894 C424.272,89.7545 423.682,89.787 423.047,89.787 C420.996,89.787 419.605,89.2621 418.872,88.2123 C418.14,87.1625 417.774,85.7994 417.774,84.123 L417.774,66.8134 L414.234,66.8134 L414.234,63.2245 L417.774,63.2245 L417.774,55.9247 M431.664,55.9247 L436.108,55.9247 L436.108,63.2245 L440.283,63.2245 L440.283,66.8134 L436.108,66.8134 L436.108,83.8788 C436.108,84.7903 436.417,85.4006 437.036,85.7099 C437.377,85.8889 437.947,85.9784 438.745,85.9784 C438.956,85.9784 439.184,85.9744 439.428,85.9662 C439.672,85.9581 439.957,85.9377 440.283,85.9052 L440.283,89.372 C439.778,89.5185 439.253,89.6243 438.708,89.6894 C438.163,89.7545 437.573,89.787 436.938,89.787 C434.887,89.787 433.495,89.2621 432.763,88.2123 C432.031,87.1625 431.664,85.7994 431.664,84.123 L431.664,66.8134 L428.124,66.8134 L428.124,63.2245 L431.664,63.2245 L431.664,55.9247 M455.565,62.6386 C457.42,62.6386 459.219,63.074 460.96,63.9447 C462.702,64.8155 464.028,65.9426 464.94,67.3261 C465.819,68.6444 466.405,70.1825 466.698,71.9403 C466.958,73.1448 467.088,75.0653 467.088,77.7021 L447.923,77.7021 C448.005,80.3551 448.631,82.4832 449.803,84.0863 C450.975,85.6895 452.79,86.4911 455.247,86.4911 C457.542,86.4911 459.373,85.7343 460.741,84.2206 C461.522,83.3417 462.075,82.3245 462.401,81.1689 L466.722,81.1689 C466.608,82.1291 466.23,83.1993 465.587,84.3793 C464.944,85.5593 464.224,86.5237 463.426,87.2724 C462.092,88.5745 460.44,89.4534 458.47,89.9091 C457.412,90.1695 456.216,90.2997 454.881,90.2997 C451.626,90.2997 448.867,89.1156 446.605,86.7475 C444.343,84.3793 443.211,81.0631 443.211,76.7987 C443.211,72.5995 444.351,69.1897 446.629,66.5693 C448.908,63.9488 451.886,62.6386 455.565,62.6386 M462.572,74.2109 C462.393,72.3066 461.978,70.7847 461.327,69.6454 C460.122,67.5295 458.112,66.4716 455.296,66.4716 C453.278,66.4716 451.585,67.1999 450.218,68.6567 C448.851,70.1134 448.127,71.9648 448.045,74.2109 L462.572,74.2109 M472.595,63.2245 L476.77,63.2245 L476.77,67.7411 C477.112,66.8622 477.95,65.7921 479.285,64.5307 C480.619,63.2693 482.157,62.6386 483.899,62.6386 C483.98,62.6386 484.119,62.6467 484.314,62.663 C484.509,62.6793 484.843,62.7118 485.315,62.7607 L485.315,67.3993 C485.054,67.3505 484.814,67.3179 484.595,67.3017 C484.375,67.2854 484.135,67.2773 483.874,67.2773 C481.661,67.2773 479.96,67.9893 478.772,69.4135 C477.584,70.8376 476.99,72.4775 476.99,74.3329 L476.99,89.372 L472.595,89.372 L472.595,63.2245 M491.897,76.6034 C491.897,79.4029 492.491,81.7467 493.679,83.6347 C494.867,85.5227 496.772,86.4667 499.392,86.4667 C501.426,86.4667 503.099,85.5919 504.409,83.8422 C505.719,82.0925 506.374,79.5819 506.374,76.3105 C506.374,73.0064 505.699,70.561 504.348,68.974 C502.997,67.3871 501.329,66.5937 499.343,66.5937 C497.13,66.5937 495.335,67.44 493.96,69.1327 C492.585,70.8254 491.897,73.3157 491.897,76.6034 M498.513,62.7607 C500.515,62.7607 502.191,63.1838 503.542,64.0302 C504.324,64.5185 505.211,65.373 506.204,66.5937 L506.204,53.3857 L510.427,53.3857 L510.427,89.372 L506.472,89.372 L506.472,85.7343 C505.447,87.3456 504.234,88.5094 502.834,89.2255 C501.435,89.9416 499.831,90.2997 498.025,90.2997 C495.111,90.2997 492.589,89.0749 490.456,86.6254 C488.324,84.1759 487.258,80.9166 487.258,76.8476 C487.258,73.039 488.231,69.739 490.176,66.9477 C492.121,64.1563 494.9,62.7607 498.513,62.7607 M520.28,82.414 C520.28,83.6835 520.744,84.6845 521.671,85.4169 C522.599,86.1493 523.698,86.5155 524.967,86.5155 C526.513,86.5155 528.011,86.1575 529.459,85.4413 C531.901,84.2532 533.121,82.3082 533.121,79.6064 L533.121,76.0663 C532.584,76.4081 531.893,76.6929 531.046,76.9208 C530.2,77.1487 529.37,77.3114 528.556,77.4091 L525.895,77.7509 C524.3,77.9625 523.104,78.2961 522.306,78.7519 C520.955,79.5168 520.28,80.7375 520.28,82.414 M530.924,73.5273 C531.933,73.3971 532.609,72.9739 532.951,72.2577 C533.146,71.8671 533.244,71.3056 533.244,70.5732 C533.244,69.0758 532.711,67.9893 531.644,67.3139 C530.578,66.6384 529.052,66.3007 527.067,66.3007 C524.772,66.3007 523.144,66.9192 522.184,68.1562 C521.647,68.8398 521.297,69.857 521.134,71.2079 L517.033,71.2079 C517.114,67.9853 518.16,65.7432 520.17,64.4818 C522.18,63.2205 524.511,62.5898 527.164,62.5898 C530.241,62.5898 532.739,63.1757 534.66,64.3476 C536.564,65.5194 537.516,67.3424 537.516,69.8163 L537.516,84.8798 C537.516,85.3355 537.61,85.7017 537.797,85.9784 C537.984,86.2551 538.379,86.3935 538.981,86.3935 C539.176,86.3935 539.396,86.3813 539.64,86.3568 C539.884,86.3324 540.145,86.2958 540.421,86.247 L540.421,89.4941 C539.738,89.6894 539.217,89.8114 538.859,89.8603 C538.501,89.9091 538.012,89.9335 537.394,89.9335 C535.88,89.9335 534.782,89.3964 534.098,88.3222 C533.74,87.7525 533.488,86.9469 533.341,85.9052 C532.446,87.0771 531.16,88.0943 529.484,88.9569 C527.807,89.8196 525.96,90.2509 523.942,90.2509 C521.517,90.2509 519.535,89.5144 517.997,88.0414 C516.459,86.5684 515.69,84.7252 515.69,82.5116 C515.69,80.0865 516.447,78.2066 517.96,76.872 C519.474,75.5373 521.46,74.7154 523.917,74.4062 L530.924,73.5273 M529.581,54.0937 L534.147,54.0937 L534.147,59.1718 L529.581,59.1718 L529.581,54.0937 M521.525,54.0937 L526.09,54.0937 L526.09,59.1718 L521.525,59.1718 L521.525,54.0937 M544.707,63.2245 L549.053,63.2245 L549.053,66.9355 C550.095,65.6497 551.039,64.7138 551.885,64.1278 C553.334,63.135 554.978,62.6386 556.817,62.6386 C558.9,62.6386 560.577,63.1513 561.846,64.1767 C562.562,64.7626 563.213,65.6252 563.799,66.7646 C564.776,65.3648 565.923,64.3272 567.242,63.6518 C568.56,62.9763 570.041,62.6386 571.685,62.6386 C575.201,62.6386 577.593,63.9081 578.863,66.4472 C579.546,67.8144 579.888,69.6536 579.888,71.9648 L579.888,89.372 L575.323,89.372 L575.323,71.2079 C575.323,69.4664 574.887,68.2701 574.016,67.6191 C573.146,66.968 572.084,66.6425 570.83,66.6425 C569.105,66.6425 567.62,67.2203 566.375,68.3759 C565.13,69.5315 564.507,71.4602 564.507,74.162 L564.507,89.372 L560.039,89.372 L560.039,72.3066 C560.039,70.5325 559.828,69.2385 559.405,68.4247 C558.737,67.204 557.492,66.5937 555.669,66.5937 C554.009,66.5937 552.5,67.2366 551.141,68.5224 C549.781,69.8082 549.102,72.1357 549.102,75.5048 L549.102,89.372 L544.707,89.372 L544.707,63.2245 M586.348,63.2245 L590.694,63.2245 L590.694,66.9355 C591.735,65.6497 592.679,64.7138 593.526,64.1278 C594.974,63.135 596.618,62.6386 598.457,62.6386 C600.541,62.6386 602.217,63.1513 603.487,64.1767 C604.203,64.7626 604.854,65.6252 605.44,66.7646 C606.416,65.3648 607.564,64.3272 608.882,63.6518 C610.201,62.9763 611.682,62.6386 613.326,62.6386 C616.841,62.6386 619.234,63.9081 620.503,66.4472 C621.187,67.8144 621.529,69.6536 621.529,71.9648 L621.529,89.372 L616.963,89.372 L616.963,71.2079 C616.963,69.4664 616.528,68.2701 615.657,67.6191 C614.786,66.968 613.724,66.6425 612.471,66.6425 C610.746,66.6425 609.261,67.2203 608.016,68.3759 C606.77,69.5315 606.148,71.4602 606.148,74.162 L606.148,89.372 L601.68,89.372 L601.68,72.3066 C601.68,70.5325 601.468,69.2385 601.045,68.4247 C600.378,67.204 599.133,66.5937 597.31,66.5937 C595.65,66.5937 594.14,67.2366 592.781,68.5224 C591.422,69.8082 590.743,72.1357 590.743,75.5048 L590.743,89.372 L586.348,89.372 L586.348,63.2245 M638.877,62.6386 C640.733,62.6386 642.531,63.074 644.273,63.9447 C646.014,64.8155 647.341,65.9426 648.252,67.3261 C649.131,68.6444 649.717,70.1825 650.01,71.9403 C650.271,73.1448 650.401,75.0653 650.401,77.7021 L631.236,77.7021 C631.317,80.3551 631.944,82.4832 633.116,84.0863 C634.287,85.6895 636.102,86.4911 638.56,86.4911 C640.855,86.4911 642.686,85.7343 644.053,84.2206 C644.834,83.3417 645.388,82.3245 645.713,81.1689 L650.035,81.1689 C649.921,82.1291 649.542,83.1993 648.899,84.3793 C648.256,85.5593 647.536,86.5237 646.739,87.2724 C645.404,88.5745 643.752,89.4534 641.783,89.9091 C640.725,90.1695 639.528,90.2997 638.194,90.2997 C634.939,90.2997 632.18,89.1156 629.917,86.7475 C627.655,84.3793 626.524,81.0631 626.524,76.7987 C626.524,72.5995 627.663,69.1897 629.942,66.5693 C632.22,63.9488 635.199,62.6386 638.877,62.6386 M645.884,74.2109 C645.705,72.3066 645.29,70.7847 644.639,69.6454 C643.435,67.5295 641.425,66.4716 638.609,66.4716 C636.591,66.4716 634.898,67.1999 633.531,68.6567 C632.163,70.1134 631.439,71.9648 631.358,74.2109 L645.884,74.2109 M655.908,63.2245 L660.082,63.2245 L660.082,67.7411 C660.424,66.8622 661.262,65.7921 662.597,64.5307 C663.932,63.2693 665.47,62.6386 667.211,62.6386 C667.293,62.6386 667.431,62.6467 667.626,62.663 C667.822,62.6793 668.155,62.7118 668.627,62.7607 L668.627,67.3993 C668.367,67.3505 668.127,67.3179 667.907,67.3017 C667.687,67.2854 667.447,67.2773 667.187,67.2773 C664.973,67.2773 663.273,67.9893 662.084,69.4135 C660.896,70.8376 660.302,72.4775 660.302,74.3329 L660.302,89.372 L655.908,89.372 L655.908,63.2245 M676.821,63.2245 L676.821,80.5829 C676.821,81.9176 677.032,83.0081 677.455,83.8544 C678.237,85.4169 679.693,86.1982 681.826,86.1982 C684.885,86.1982 686.969,84.831 688.076,82.0966 C688.678,80.6318 688.979,78.6217 688.979,76.0663 L688.979,63.2245 L693.373,63.2245 L693.373,89.372 L689.223,89.372 L689.272,85.5146 C688.702,86.5074 687.994,87.3456 687.148,88.0292 C685.471,89.3964 683.437,90.08 681.044,90.08 C677.317,90.08 674.778,88.8349 673.427,86.3446 C672.695,85.01 672.329,83.2278 672.329,80.998 L672.329,63.2245 L676.821,63.2245 M700.223,63.2245 L704.398,63.2245 L704.398,66.9355 C705.635,65.4055 706.945,64.3069 708.329,63.6396 C709.712,62.9722 711.25,62.6386 712.943,62.6386 C716.654,62.6386 719.16,63.9325 720.462,66.5204 C721.178,67.9364 721.537,69.9628 721.537,72.5995 L721.537,89.372 L717.069,89.372 L717.069,72.8925 C717.069,71.2974 716.833,70.0116 716.361,69.0351 C715.579,67.4075 714.163,66.5937 712.113,66.5937 C711.071,66.5937 710.217,66.6995 709.549,66.911 C708.345,67.2691 707.287,67.9853 706.375,69.0595 C705.643,69.9221 705.167,70.8132 704.947,71.7328 C704.727,72.6524 704.618,73.9667 704.618,75.6757 L704.618,89.372 L700.223,89.372 L700.223,63.2245 M737.248,62.7607 C739.299,62.7607 741.09,63.2652 742.62,64.2743 C743.45,64.844 744.296,65.6741 745.159,66.7646 L745.159,63.4687 L749.211,63.4687 L749.211,87.248 C749.211,90.5683 748.723,93.1887 747.746,95.1093 C745.924,98.6575 742.481,100.432 737.419,100.432 C734.604,100.432 732.235,99.8009 730.315,98.5395 C728.394,97.2781 727.32,95.3046 727.092,92.6191 L731.56,92.6191 C731.772,93.7909 732.195,94.6943 732.829,95.329 C733.822,96.3056 735.385,96.7939 737.517,96.7939 C740.886,96.7939 743.092,95.6057 744.133,93.2294 C744.752,91.8297 745.037,89.3313 744.988,85.7343 C744.109,87.0689 743.051,88.0618 741.814,88.7128 C740.577,89.3638 738.941,89.6894 736.907,89.6894 C734.075,89.6894 731.597,88.6843 729.473,86.6742 C727.349,84.6641 726.287,81.3398 726.287,76.7011 C726.287,72.3228 727.357,68.9049 729.497,66.4472 C731.637,63.9895 734.221,62.7607 737.248,62.7607 M745.159,76.1884 C745.159,72.9495 744.491,70.5487 743.157,68.9862 C741.822,67.4237 740.121,66.6425 738.054,66.6425 C734.962,66.6425 732.846,68.0911 731.706,70.9882 C731.104,72.5344 730.803,74.5608 730.803,77.0673 C730.803,80.0133 731.401,82.2553 732.598,83.7934 C733.794,85.3315 735.401,86.1005 737.419,86.1005 C740.577,86.1005 742.799,84.6763 744.084,81.828 C744.801,80.2167 745.159,78.3368 745.159,76.1884"/>
<path class="RehearsalMark" fill="none" stroke="#000000" stroke-width="3.97" stroke-linecap="square" stroke-linejoin="miter" stroke-miterlimit="2" fill-rule="evenodd" d="M105.596,370.432 C105.596,388.214 91.1815,402.629 73.3999,402.629 C55.6182,402.629 41.2034,388.214 41.2034,370.432 C41.2034,352.651 55.6182,338.236 73.3999,338.236 C91.1815,338.236 105.596,352.651 105.596,370.432"/>
<path class="RehearsalMark" d="M66.8413,362.677 L66.8413,359.307 C70.0151,358.998 72.2287,358.481 73.4819,357.757 C74.7352,357.033 75.671,355.32 76.2895,352.618 L79.7563,352.618 L79.7563,387.432 L75.0688,387.432 L75.0688,362.677 L66.8413,362.677 "/>
<path class="Bracket" transform="matrix(3.596,0,0,3.44,123.5,532)" d="M0,-50 C4.7,-46.9 6.6,-44.6 6.6,-39.6 C6.6,-36.5 3.3,-24 3.3,-19.5 C3.3,-10.5 6.9,-4.5 12,0 L12.3,-1.2 C8.2,-5.6 6.9,-11.4 6.9,-16.8 C6.9,-22.6 9.4,-32.7 9.4,-37.3 C9.4,-43.4 6.8,-46.8 1.8,-50 C6.8,-53.2 9.4,-56.6 9.4,-62.7 C9.4,-67.3 6.9,-77.4 6.9,-83.2 C6.9,-88.6 8.2,-94.3 12.3,-98.7 L12,-99.9 C6.9,-95.4 3.3,-89.5 3.3,-80.5 C3.3,-76 6.6,-63.5 6.6,-60.4 C6.6,-55.4 4.7,-53.1 0,-50"/>
</svg>
