<svg version="1.2" xmlns:xlink="http://www.w3.org/1999/xlink" xmlns="http://www.w3.org/2000/svg" viewBox="0 7.92 3044.145077720207 704.88" style="max-height: 500px" width="3044.145077720207" height="704.88">
<title>sfoh-ex-01-a</title>
<desc>Generated by MuseScore Studio 4.6.3</desc>
<polyline points="176.4,188 2973.6,188" stroke-linejoin="bevel" stroke-width="2.26" stroke="#000000" fill="none" class="StaffLines"/>
<polyline points="176.4,212.8 2973.6,212.8" stroke-linejoin="bevel" stroke-width="2.26" stroke="#000000" fill="none" class="StaffLines"/>
<polyline points="176.4,237.6 2973.6,237.6" stroke-linejoin="bevel" stroke-width="2.26" stroke="#000000" fill="none" class="StaffLines"/>
<polyline points="176.4,262.4 2973.6,262.4" stroke-linejoin="bevel" stroke-width="2.26" stroke="#000000" fill="none" class="StaffLines"/>
<polyline points="176.4,287.2 2973.6,287.2" stroke-linejoin="bevel" stroke-width="2.26" stroke="#000000" fill="none" class="StaffLines"/>
<polyline points="176.4,448.401 2973.6,448.401" stroke-linejoin="bevel" stroke-width="2.26" stroke="#000000" fill="none" class="StaffLines"/>
<polyline points="176.4,473.201 2973.6,473.201" stroke-linejoin="bevel" stroke-width="2.26" stroke="#000000" fill="none" class="StaffLines"/>
<polyline points="176.4,498.001 2973.6,498.001" stroke-linejoin="bevel" stroke-width="2.26" stroke="#000000" fill="none" class="StaffLines"/>
<polyline points="176.4,522.801 2973.6,522.801" stroke-linejoin="bevel" stroke-width="2.26" stroke="#000000" fill="none" class="StaffLines"/>
<polyline points="176.4,547.601 2973.6,547.601" stroke-linejoin="bevel" stroke-width="2.26" stroke="#000000" fill="none" class="StaffLines"/>
<polyline points="177.64,186.872 177.64,448.401" stroke-linejoin="bevel" stroke-width="2.48" stroke="#000000" fill="none" class="BarLine"/>
<polyline points="2957.48,186.872 2957.48,448.401" stroke-linejoin="bevel" stroke-width="2.48" stroke="#000000" fill="none" class="BarLine"/>
<polyline points="2972.36,186.872 2972.36,448.401" stroke-linejoin="bevel" stroke-width="2.48" stroke="#000000" fill="none" class="BarLine"/>
<polyline points="1825.89,186.872 1825.89,448.401" stroke-linejoin="bevel" stroke-width="2.48" stroke="#000000" fill="none" class="BarLine"/>
<polyline points="177.64,447.272 177.64,548.729" stroke-linejoin="bevel" stroke-width="2.48" stroke="#000000" fill="none" class="BarLine"/>
<polyline points="2957.48,447.272 2957.48,548.729" stroke-linejoin="bevel" stroke-width="2.48" stroke="#000000" fill="none" class="BarLine"/>
<polyline points="2972.36,447.272 2972.36,548.729" stroke-linejoin="bevel" stroke-width="2.48" stroke="#000000" fill="none" class="BarLine"/>
<polyline points="1825.89,447.272 1825.89,548.729" stroke-linejoin="bevel" stroke-width="2.48" stroke="#000000" fill="none" class="BarLine"/>
<path d="M449.782,182.645 C511.51,145.075 696.696,145.075 758.425,182.645 C696.696,154.995 511.51,154.995 449.782,182.645" fill-rule="evenodd" stroke-linejoin="round" stroke-linecap="round" stroke-width="1.24" stroke="#000000" class="TieSegment"/>
<path d="M449.782,242.956 C507.86,275.243 682.095,275.243 740.173,242.956 C682.095,285.163 507.86,285.163 449.782,242.956" fill-rule="evenodd" stroke-linejoin="round" stroke-linecap="round" stroke-width="1.24" stroke="#000000" class="TieSegment"/>
<polyline points="1121.89,163.2 1165.83,163.2" stroke-linejoin="bevel" stroke-width="2.73" stroke="#000000" fill="none" class="LedgerLine"/>
<polyline points="1028.97,163.2 1072.92,163.2" stroke-linejoin="bevel" stroke-width="2.73" stroke="#000000" fill="none" class="LedgerLine"/>
<polyline points="1859.26,192.96 1859.26,305.8" stroke-linejoin="bevel" stroke-width="2.26" stroke="#000000" fill="none" class="Stem"/>
<polyline points="2330.16,204.368 2330.16,305.8" stroke-linejoin="bevel" stroke-width="2.26" stroke="#000000" fill="none" class="Stem"/>
<polyline points="746.262,204.368 746.262,318.2" stroke-linejoin="bevel" stroke-width="2.26" stroke="#000000" fill="none" class="Stem"/>
<polyline points="1732.86,191.968 1732.86,318.2" stroke-linejoin="bevel" stroke-width="2.26" stroke="#000000" fill="none" class="Stem"/>
<polyline points="1442.82,204.368 1442.82,318.2" stroke-linejoin="bevel" stroke-width="2.26" stroke="#000000" fill="none" class="Stem"/>
<polyline points="432.659,204.368 432.659,305.8" stroke-linejoin="bevel" stroke-width="2.26" stroke="#000000" fill="none" class="Stem"/>
<polyline points="1129.22,167.168 1129.22,305.8" stroke-linejoin="bevel" stroke-width="2.26" stroke="#000000" fill="none" class="Stem"/>
<polyline points="1036.3,167.168 1036.3,318.2" stroke-linejoin="bevel" stroke-width="2.26" stroke="#000000" fill="none" class="Stem"/>
<polyline points="1889.54,530.34 1889.54,429.801" stroke-linejoin="bevel" stroke-width="2.26" stroke="#000000" fill="none" class="Stem"/>
<polyline points="462.444,505.54 462.444,429.801" stroke-linejoin="bevel" stroke-width="2.26" stroke="#000000" fill="none" class="Stem"/>
<polyline points="1762.15,531.729 1762.15,417.401" stroke-linejoin="bevel" stroke-width="2.26" stroke="#000000" fill="none" class="Stem"/>
<polyline points="1472.11,506.929 1472.11,417.401" stroke-linejoin="bevel" stroke-width="2.26" stroke="#000000" fill="none" class="Stem"/>
<polyline points="2359.45,506.929 2359.45,429.801" stroke-linejoin="bevel" stroke-width="2.26" stroke="#000000" fill="none" class="Stem"/>
<path d="M0,4 C0,9.3 4.3,13.2 11.1,13.2 C20.6,13.2 31.8,5.6 31.8,-3.5 C31.8,-8.8 27.5,-12.6 20.6,-12.6 C11.4,-12.6 0,-5.5 0,4" transform="matrix(0.992001,0,0,0.992001,1441.69,200.4)" class="Note"/>
<path d="M0,4 C0,9.3 4.3,13.2 11.1,13.2 C20.6,13.2 31.8,5.6 31.8,-3.5 C31.8,-8.8 27.5,-12.6 20.6,-12.6 C11.4,-12.6 0,-5.5 0,4" transform="matrix(0.992001,0,0,0.992001,1731.73,225.2)" class="Note"/>
<path d="M0,4 C0,9.3 4.3,13.2 11.1,13.2 C20.6,13.2 31.8,5.6 31.8,-3.5 C31.8,-8.8 27.5,-12.6 20.6,-12.6 C11.4,-12.6 0,-5.5 0,4" transform="matrix(0.992001,0,0,0.992001,1035.17,200.4)" class="Note"/>
<path d="M0,4 C0,9.3 4.3,13.2 11.1,13.2 C20.6,13.2 31.8,5.6 31.8,-3.5 C31.8,-8.8 27.5,-12.6 20.6,-12.6 C11.4,-12.6 0,-5.5 0,4" transform="matrix(0.992001,0,0,0.992001,1035.17,163.2)" class="Note"/>
<path d="M0,4 C0,9.3 4.3,13.2 11.1,13.2 C20.6,13.2 31.8,5.6 31.8,-3.5 C31.8,-8.8 27.5,-12.6 20.6,-12.6 C11.4,-12.6 0,-5.5 0,4" transform="matrix(0.992001,0,0,0.992001,431.53,225.2)" class="Note"/>
<path d="M0,4 C0,9.3 4.3,13.2 11.1,13.2 C20.6,13.2 31.8,5.6 31.8,-3.5 C31.8,-8.8 27.5,-12.6 20.6,-12.6 C11.4,-12.6 0,-5.5 0,4" transform="matrix(0.992001,0,0,0.992001,2329.03,200.4)" class="Note"/>
<path d="M0,4 C0,9.3 4.3,13.2 11.1,13.2 C20.6,13.2 31.8,5.6 31.8,-3.5 C31.8,-8.8 27.5,-12.6 20.6,-12.6 C11.4,-12.6 0,-5.5 0,4" transform="matrix(0.992001,0,0,0.992001,1128.09,225.2)" class="Note"/>
<path d="M0,4 C0,9.3 4.3,13.2 11.1,13.2 C20.6,13.2 31.8,5.6 31.8,-3.5 C31.8,-8.8 27.5,-12.6 20.6,-12.6 C11.4,-12.6 0,-5.5 0,4" transform="matrix(0.992001,0,0,0.992001,1128.09,200.4)" class="Note"/>
<path d="M0,4 C0,9.3 4.3,13.2 11.1,13.2 C20.6,13.2 31.8,5.6 31.8,-3.5 C31.8,-8.8 27.5,-12.6 20.6,-12.6 C11.4,-12.6 0,-5.5 0,4" transform="matrix(0.992001,0,0,0.992001,1128.09,163.2)" class="Note"/>
<path d="M0,4 C0,9.3 4.3,13.2 11.1,13.2 C20.6,13.2 31.8,5.6 31.8,-3.5 C31.8,-8.8 27.5,-12.6 20.6,-12.6 C11.4,-12.6 0,-5.5 0,4" transform="matrix(0.992001,0,0,0.992001,2329.03,225.2)" class="Note"/>
<path d="M0,4 C0,9.3 4.3,13.2 11.1,13.2 C20.6,13.2 31.8,5.6 31.8,-3.5 C31.8,-8.8 27.5,-12.6 20.6,-12.6 C11.4,-12.6 0,-5.5 0,4" transform="matrix(0.992001,0,0,0.992001,1441.69,225.2)" class="Note"/>
<path d="M0,4 C0,9.3 4.3,13.2 11.1,13.2 C20.6,13.2 31.8,5.6 31.8,-3.5 C31.8,-8.8 27.5,-12.6 20.6,-12.6 C11.4,-12.6 0,-5.5 0,4" transform="matrix(0.992001,0,0,0.992001,431.53,200.4)" class="Note"/>
<path d="M20.8,-13.2 C9.7,-13.2 0,-4.6 0,5 C0,13.1 10.6,13.4 12.9,13.4 C25,13.4 32.8,4 32.8,-4.9 C32.8,-11.4 25.9,-13.2 20.8,-13.2 M30.2,-5.7 C30.2,-1.6 23.9,2.4 16.2,6.3 C16.2,6.3 10.3,9.7 7.2,9.7 C4.9,9.7 2.8,8.6 2.8,6 C2.8,1.3 13.6,-4.2 17.7,-6.3 C21.2,-8 23.6,-9.3 25.7,-9.3 C28.4,-9.3 30.2,-7.8 30.2,-5.7" transform="matrix(0.992001,0,0,0.992001,1858.13,188)" class="Note"/>
<path d="M0,4 C0,9.3 4.3,13.2 11.1,13.2 C20.6,13.2 31.8,5.6 31.8,-3.5 C31.8,-8.8 27.5,-12.6 20.6,-12.6 C11.4,-12.6 0,-5.5 0,4" transform="matrix(0.992001,0,0,0.992001,745.133,200.4)" class="Note"/>
<path d="M20.8,-13.2 C9.7,-13.2 0,-4.6 0,5 C0,13.1 10.6,13.4 12.9,13.4 C25,13.4 32.8,4 32.8,-4.9 C32.8,-11.4 25.9,-13.2 20.8,-13.2 M30.2,-5.7 C30.2,-1.6 23.9,2.4 16.2,6.3 C16.2,6.3 10.3,9.7 7.2,9.7 C4.9,9.7 2.8,8.6 2.8,6 C2.8,1.3 13.6,-4.2 17.7,-6.3 C21.2,-8 23.6,-9.3 25.7,-9.3 C28.4,-9.3 30.2,-7.8 30.2,-5.7" transform="matrix(0.992001,0,0,0.992001,1858.13,225.2)" class="Note"/>
<path d="M0,4 C0,9.3 4.3,13.2 11.1,13.2 C20.6,13.2 31.8,5.6 31.8,-3.5 C31.8,-8.8 27.5,-12.6 20.6,-12.6 C11.4,-12.6 0,-5.5 0,4" transform="matrix(0.992001,0,0,0.992001,1035.17,225.2)" class="Note"/>
<path d="M0,4 C0,9.3 4.3,13.2 11.1,13.2 C20.6,13.2 31.8,5.6 31.8,-3.5 C31.8,-8.8 27.5,-12.6 20.6,-12.6 C11.4,-12.6 0,-5.5 0,4" transform="matrix(0.992001,0,0,0.992001,745.133,225.2)" class="Note"/>
<path d="M0,4 C0,9.3 4.3,13.2 11.1,13.2 C20.6,13.2 31.8,5.6 31.8,-3.5 C31.8,-8.8 27.5,-12.6 20.6,-12.6 C11.4,-12.6 0,-5.5 0,4" transform="matrix(0.992001,0,0,0.992001,1731.73,188)" class="Note"/>
<path d="M0,4 C0,9.3 4.3,13.2 11.1,13.2 C20.6,13.2 31.8,5.6 31.8,-3.5 C31.8,-8.8 27.5,-12.6 20.6,-12.6 C11.4,-12.6 0,-5.5 0,4" transform="matrix(0.992001,0,0,0.992001,1731.73,510.401)" class="Note"/>
<path d="M0,4 C0,9.3 4.3,13.2 11.1,13.2 C20.6,13.2 31.8,5.6 31.8,-3.5 C31.8,-8.8 27.5,-12.6 20.6,-12.6 C11.4,-12.6 0,-5.5 0,4" transform="matrix(0.992001,0,0,0.992001,2329.03,510.401)" class="Note"/>
<path d="M20.8,-13.2 C9.7,-13.2 0,-4.6 0,5 C0,13.1 10.6,13.4 12.9,13.4 C25,13.4 32.8,4 32.8,-4.9 C32.8,-11.4 25.9,-13.2 20.8,-13.2 M30.2,-5.7 C30.2,-1.6 23.9,2.4 16.2,6.3 C16.2,6.3 10.3,9.7 7.2,9.7 C4.9,9.7 2.8,8.6 2.8,6 C2.8,1.3 13.6,-4.2 17.7,-6.3 C21.2,-8 23.6,-9.3 25.7,-9.3 C28.4,-9.3 30.2,-7.8 30.2,-5.7" transform="matrix(0.992001,0,0,0.992001,1858.13,510.401)" class="Note"/>
<path d="M0,4 C0,9.3 4.3,13.2 11.1,13.2 C20.6,13.2 31.8,5.6 31.8,-3.5 C31.8,-8.8 27.5,-12.6 20.6,-12.6 C11.4,-12.6 0,-5.5 0,4" transform="matrix(0.992001,0,0,0.992001,1441.69,510.401)" class="Note"/>
<path d="M20.8,-13.2 C9.7,-13.2 0,-4.6 0,5 C0,13.1 10.6,13.4 12.9,13.4 C25,13.4 32.8,4 32.8,-4.9 C32.8,-11.4 25.9,-13.2 20.8,-13.2 M30.2,-5.7 C30.2,-1.6 23.9,2.4 16.2,6.3 C16.2,6.3 10.3,9.7 7.2,9.7 C4.9,9.7 2.8,8.6 2.8,6 C2.8,1.3 13.6,-4.2 17.7,-6.3 C21.2,-8 23.6,-9.3 25.7,-9.3 C28.4,-9.3 30.2,-7.8 30.2,-5.7" transform="matrix(0.992001,0,0,0.992001,1858.13,535.201)" class="Note"/>
<path d="M20.8,-13.2 C9.7,-13.2 0,-4.6 0,5 C0,13.1 10.6,13.4 12.9,13.4 C25,13.4 32.8,4 32.8,-4.9 C32.8,-11.4 25.9,-13.2 20.8,-13.2 M30.2,-5.7 C30.2,-1.6 23.9,2.4 16.2,6.3 C16.2,6.3 10.3,9.7 7.2,9.7 C4.9,9.7 2.8,8.6 2.8,6 C2.8,1.3 13.6,-4.2 17.7,-6.3 C21.2,-8 23.6,-9.3 25.7,-9.3 C28.4,-9.3 30.2,-7.8 30.2,-5.7" transform="matrix(0.992001,0,0,0.992001,431.034,510.401)" class="Note"/>
<path d="M0,4 C0,9.3 4.3,13.2 11.1,13.2 C20.6,13.2 31.8,5.6 31.8,-3.5 C31.8,-8.8 27.5,-12.6 20.6,-12.6 C11.4,-12.6 0,-5.5 0,4" transform="matrix(0.992001,0,0,0.992001,1731.73,535.201)" class="Note"/>
<path d="M46.7,25.2 C48.1,32.1 49.9,46.8 49.9,49.4 C49.9,59.5 42.4,66.4 33.8,66.4 C28.2,66.4 24.3,64.3 23,62.5 C30.8,60.3 34.1,55.7 34.1,51 C34.1,45.1 28.7,40.9 23.7,40.9 C15.9,40.9 12.8,47.7 12.8,53.7 C12.8,65.1 25.5,69 33.2,69 C46.7,69 52.5,58.7 52.5,50.2 C52.5,47.3 50.4,30.6 49.2,24.5 C60.4,20.7 68.3,9.4 68.3,-2.4 C68.3,-16.4 59.1,-27.7 43.6,-27.7 C42.7,-27.7 41.8,-27.7 40.9,-27.6 L37.6,-47 C44,-52.1 48.3,-56.8 51.8,-62.7 C56.1,-70 58.9,-77 58.9,-89.2 C58.9,-98.5 53.8,-111.8 49.6,-115.8 C53.5,-116.7 57,-119.7 57,-123.8 C57,-127.8 54,-130.3 51.9,-131.8 C53.8,-132.9 55.9,-135.4 55.9,-137.7 C55.9,-142.6 51.4,-145.7 47.1,-145.7 C42.1,-145.7 37.9,-142.2 37.9,-137.2 C37.9,-134.1 40.4,-132 42.5,-130.8 C39.8,-129.6 36.9,-127.2 36.9,-123.1 C36.9,-119.9 39.5,-116.8 44,-115.8 C38.9,-112.5 33.4,-101.4 32.2,-95.8 C31.1,-91 30.6,-85.2 30.6,-81.4 C30.6,-74.2 31.5,-68 32.5,-61.3 C16.9,-49.8 0,-33.7 0,-13.5 C0,11 18.3,26.1 38.7,26.1 C41.6,26.1 44.2,25.7 46.7,25.2 M46.2,21.9 C43.5,22.6 40.8,22.9 38.2,22.9 C20.7,22.9 6.8,9.4 6.8,-5.9 C6.8,-21.4 23.1,-36.5 35.3,-45.5 L38.3,-27.1 C26.4,-24.6 20.5,-13.8 20.5,-6 C20.5,3.1 25.9,10.6 33.8,13.4 L34.8,12.3 C30.3,10.1 26.9,3.2 26.9,-1.2 C26.9,-5.4 30.1,-12.9 40.2,-14.3 L46.2,21.9 M48.8,-101.5 C52.4,-101.5 54.8,-97.4 54.8,-91.9 C54.8,-81.9 43,-69.7 35,-63.4 C34.6,-65.9 34.5,-68.4 34.5,-71 C34.5,-85.8 40,-101.5 48.8,-101.5 M42.9,-14.5 C54.6,-14.3 60.2,-7.2 60.2,3.6 C60.2,11.1 56.1,18.9 48.6,21.1 L42.9,-14.5 M47.5,-128.2 C50.2,-126.9 52.3,-125.7 52.3,-122.5 C52.3,-119.9 50.8,-117.3 47.1,-117.3 C43.5,-117.3 40.7,-120.3 40.7,-123.4 C40.7,-126.1 42.5,-128.9 45,-129.4 L47.5,-128.2 M47.3,-143.8 C50.3,-143.8 52.6,-140.8 52.6,-138 C52.6,-136.1 51.7,-134 49.7,-133.2 L45.8,-134.8 C43.9,-135.6 42.2,-137 42.2,-139.2 C42.2,-141.8 44.1,-143.8 47.3,-143.8" transform="matrix(0.992001,0,0,0.992001,197.48,262.4)" class="Clef"/>
<path d="M48.8,-101.5 C52.4,-101.5 54.8,-97.4 54.8,-91.9 C54.8,-81.9 43,-69.7 35,-63.4 C34.6,-65.9 34.5,-68.4 34.5,-71 C34.5,-85.8 40,-101.5 48.8,-101.5 M42.9,-14.5 C54.6,-14.3 60.2,-7.2 60.2,3.6 C60.2,11.1 56.1,18.9 48.6,21.1 L42.9,-14.5 M46.2,21.9 C43.5,22.6 40.8,22.9 38.2,22.9 C20.7,22.9 6.8,9.4 6.8,-5.9 C6.8,-21.4 23.1,-36.5 35.3,-45.5 L38.3,-27.1 C26.4,-24.6 20.5,-13.8 20.5,-6 C20.5,3.1 25.9,10.6 33.8,13.4 L34.8,12.3 C30.3,10.1 26.9,3.2 26.9,-1.2 C26.9,-5.4 30.1,-12.9 40.2,-14.3 L46.2,21.9 M46.7,25.2 C48.1,32.1 49.9,46.8 49.9,49.4 C49.9,59.5 42.4,66.4 33.8,66.4 C28.2,66.4 24.3,64.3 23,62.5 C30.8,60.3 34.1,55.7 34.1,51 C34.1,45.1 28.7,40.9 23.7,40.9 C15.9,40.9 12.8,47.7 12.8,53.7 C12.8,65.1 25.5,69 33.2,69 C46.7,69 52.5,58.7 52.5,50.2 C52.5,47.3 50.4,30.6 49.2,24.5 C60.4,20.7 68.3,9.4 68.3,-2.4 C68.3,-16.4 59.1,-27.7 43.6,-27.7 C42.7,-27.7 41.8,-27.7 40.9,-27.6 L37.6,-47 C44,-52.1 48.3,-56.8 51.8,-62.7 C56.1,-70 58.9,-77 58.9,-89.2 C58.9,-100.3 51.7,-117 47.3,-117 C41.4,-117 33.7,-102.6 32.2,-95.8 C31.1,-91 30.6,-85.2 30.6,-81.4 C30.6,-74.2 31.5,-68 32.5,-61.3 C16.9,-49.8 0,-33.7 0,-13.5 C0,11 18.3,26.1 38.7,26.1 C41.6,26.1 44.2,25.7 46.7,25.2" transform="matrix(0.992001,0,0,0.992001,197.48,522.801)" class="Clef"/>
<path d="M17,31.4 L19.9,31.4 L19.9,15 L23.8,13.8 L23.8,3.4 L19.9,4.6 L19.9,-10.2 L23.8,-11.5 L23.8,-21.9 L19.9,-20.6 L19.9,-34.4 L17,-34.4 L17,-19.7 L7.2,-16.5 L7.2,-31.9 L4.3,-31.9 L4.3,-15.6 L0,-14.2 L0,-3.8 L4.3,-5.2 L4.3,9.7 L0,11.1 L0,21.5 L4.3,20.1 L4.3,33.9 L7.2,33.9 L7.2,19.1 L17,16 L17,31.4 M7.2,-6.1 L17,-9.3 L17,5.6 L7.2,8.7 L7.2,-6.1" transform="matrix(0.992001,0,0,0.992001,283.831,188)" class="KeySig"/>
<path d="M17,31.4 L19.9,31.4 L19.9,15 L23.8,13.8 L23.8,3.4 L19.9,4.6 L19.9,-10.2 L23.8,-11.5 L23.8,-21.9 L19.9,-20.6 L19.9,-34.4 L17,-34.4 L17,-19.7 L7.2,-16.5 L7.2,-31.9 L4.3,-31.9 L4.3,-15.6 L0,-14.2 L0,-3.8 L4.3,-5.2 L4.3,9.7 L0,11.1 L0,21.5 L4.3,20.1 L4.3,33.9 L7.2,33.9 L7.2,19.1 L17,16 L17,31.4 M7.2,-6.1 L17,-9.3 L17,5.6 L7.2,8.7 L7.2,-6.1" transform="matrix(0.992001,0,0,0.992001,314.877,225.2)" class="KeySig"/>
<path d="M17,31.4 L19.9,31.4 L19.9,15 L23.8,13.8 L23.8,3.4 L19.9,4.6 L19.9,-10.2 L23.8,-11.5 L23.8,-21.9 L19.9,-20.6 L19.9,-34.4 L17,-34.4 L17,-19.7 L7.2,-16.5 L7.2,-31.9 L4.3,-31.9 L4.3,-15.6 L0,-14.2 L0,-3.8 L4.3,-5.2 L4.3,9.7 L0,11.1 L0,21.5 L4.3,20.1 L4.3,33.9 L7.2,33.9 L7.2,19.1 L17,16 L17,31.4 M7.2,-6.1 L17,-9.3 L17,5.6 L7.2,8.7 L7.2,-6.1" transform="matrix(0.992001,0,0,0.992001,345.924,175.6)" class="KeySig"/>
<path d="M17,31.4 L19.9,31.4 L19.9,15 L23.8,13.8 L23.8,3.4 L19.9,4.6 L19.9,-10.2 L23.8,-11.5 L23.8,-21.9 L19.9,-20.6 L19.9,-34.4 L17,-34.4 L17,-19.7 L7.2,-16.5 L7.2,-31.9 L4.3,-31.9 L4.3,-15.6 L0,-14.2 L0,-3.8 L4.3,-5.2 L4.3,9.7 L0,11.1 L0,21.5 L4.3,20.1 L4.3,33.9 L7.2,33.9 L7.2,19.1 L17,16 L17,31.4 M7.2,-6.1 L17,-9.3 L17,5.6 L7.2,8.7 L7.2,-6.1" transform="matrix(0.992001,0,0,0.992001,283.831,448.401)" class="KeySig"/>
<path d="M17,31.4 L19.9,31.4 L19.9,15 L23.8,13.8 L23.8,3.4 L19.9,4.6 L19.9,-10.2 L23.8,-11.5 L23.8,-21.9 L19.9,-20.6 L19.9,-34.4 L17,-34.4 L17,-19.7 L7.2,-16.5 L7.2,-31.9 L4.3,-31.9 L4.3,-15.6 L0,-14.2 L0,-3.8 L4.3,-5.2 L4.3,9.7 L0,11.1 L0,21.5 L4.3,20.1 L4.3,33.9 L7.2,33.9 L7.2,19.1 L17,16 L17,31.4 M7.2,-6.1 L17,-9.3 L17,5.6 L7.2,8.7 L7.2,-6.1" transform="matrix(0.992001,0,0,0.992001,314.877,485.601)" class="KeySig"/>
<path d="M17,31.4 L19.9,31.4 L19.9,15 L23.8,13.8 L23.8,3.4 L19.9,4.6 L19.9,-10.2 L23.8,-11.5 L23.8,-21.9 L19.9,-20.6 L19.9,-34.4 L17,-34.4 L17,-19.7 L7.2,-16.5 L7.2,-31.9 L4.3,-31.9 L4.3,-15.6 L0,-14.2 L0,-3.8 L4.3,-5.2 L4.3,9.7 L0,11.1 L0,21.5 L4.3,20.1 L4.3,33.9 L7.2,33.9 L7.2,19.1 L17,16 L17,31.4 M7.2,-6.1 L17,-9.3 L17,5.6 L7.2,8.7 L7.2,-6.1" transform="matrix(0.992001,0,0,0.992001,345.924,436.001)" class="KeySig"/>
<path d="M1441.69,312 L1733.99,312 L1733.99,324.4 L1441.69,324.4 L1441.69,312" fill-rule="evenodd" class="Beam"/>
<path d="M1733.99,293.4 L1706.71,293.4 L1706.71,305.8 L1733.99,305.8 L1733.99,293.4" fill-rule="evenodd" class="Beam"/>
<path d="M1733.99,274.8 L1706.71,274.8 L1706.71,287.2 L1733.99,287.2 L1733.99,274.8" fill-rule="evenodd" class="Beam"/>
<path d="M745.133,312 L1037.43,312 L1037.43,324.4 L745.133,324.4 L745.133,312" fill-rule="evenodd" class="Beam"/>
<path d="M1037.43,293.4 L1010.15,293.4 L1010.15,305.8 L1037.43,305.8 L1037.43,293.4" fill-rule="evenodd" class="Beam"/>
<path d="M1037.43,274.8 L1010.15,274.8 L1010.15,287.2 L1037.43,287.2 L1037.43,274.8" fill-rule="evenodd" class="Beam"/>
<path d="M1470.98,411.201 L1763.28,411.201 L1763.28,423.601 L1470.98,423.601 L1470.98,411.201" fill-rule="evenodd" class="Beam"/>
<path d="M1763.28,429.801 L1736,429.801 L1736,442.201 L1763.28,442.201 L1763.28,429.801" fill-rule="evenodd" class="Beam"/>
<path d="M1763.28,448.401 L1736,448.401 L1736,460.801 L1763.28,460.801 L1763.28,448.401" fill-rule="evenodd" class="Beam"/>
<path d="M174.303,134.5 C174.303,135.77 174.767,136.771 175.695,137.503 C176.623,138.235 177.721,138.602 178.991,138.602 C180.537,138.602 182.034,138.243 183.483,137.527 C185.924,136.339 187.145,134.394 187.145,131.692 L187.145,128.152 C186.608,128.494 185.916,128.779 185.07,129.007 C184.223,129.235 183.393,129.397 182.58,129.495 L179.918,129.837 C178.323,130.048 177.127,130.382 176.33,130.838 C174.979,131.603 174.303,132.824 174.303,134.5 M184.948,125.613 C185.957,125.483 186.632,125.06 186.974,124.344 C187.169,123.953 187.267,123.392 187.267,122.659 C187.267,121.162 186.734,120.075 185.668,119.4 C184.602,118.724 183.076,118.387 181.09,118.387 C178.795,118.387 177.168,119.005 176.208,120.242 C175.67,120.926 175.32,121.943 175.158,123.294 L171.056,123.294 C171.138,120.071 172.183,117.829 174.193,116.568 C176.203,115.306 178.535,114.676 181.188,114.676 C184.264,114.676 186.763,115.262 188.683,116.434 C190.587,117.605 191.54,119.428 191.54,121.902 L191.54,136.966 C191.54,137.422 191.633,137.788 191.82,138.064 C192.007,138.341 192.402,138.479 193.004,138.479 C193.2,138.479 193.419,138.467 193.664,138.443 C193.908,138.418 194.168,138.382 194.445,138.333 L194.445,141.58 C193.761,141.775 193.24,141.897 192.882,141.946 C192.524,141.995 192.036,142.02 191.417,142.02 C189.904,142.02 188.805,141.482 188.122,140.408 C187.764,139.839 187.511,139.033 187.365,137.991 C186.47,139.163 185.184,140.18 183.507,141.043 C181.831,141.906 179.984,142.337 177.965,142.337 C175.54,142.337 173.559,141.6 172.021,140.127 C170.482,138.654 169.713,136.811 169.713,134.598 C169.713,132.173 170.47,130.293 171.984,128.958 C173.498,127.623 175.483,126.801 177.941,126.492 L184.948,125.613 M197.242,151.663 C199.83,146.618 201.498,142.939 202.247,140.628 C203.386,137.129 203.956,133.027 203.956,128.323 C203.956,123.619 203.296,119.314 201.978,115.408 C201.164,112.999 199.561,109.533 197.168,105.008 L200.123,105.008 C202.629,109.012 204.147,111.482 204.676,112.417 C205.205,113.353 205.778,114.643 206.397,116.287 C207.178,118.322 207.736,120.332 208.069,122.317 C208.403,124.303 208.57,126.215 208.57,128.055 C208.57,132.872 207.805,137.169 206.275,140.945 C205.315,143.37 203.321,146.943 200.293,151.663 L197.242,151.663" class="StaffText"/>
<path d="M361.544,81.2838 L368.306,110.459 L376.412,81.2838 L381.685,81.2838 L389.791,110.459 L396.553,81.2838 L401.876,81.2838 L392.452,117.148 L387.349,117.148 L379.073,87.4117 L370.748,117.148 L365.645,117.148 L356.27,81.2838 L361.544,81.2838 M407.318,110.19 C407.318,111.46 407.782,112.461 408.71,113.193 C409.637,113.925 410.736,114.292 412.006,114.292 C413.552,114.292 415.049,113.934 416.498,113.217 C418.939,112.029 420.16,110.084 420.16,107.382 L420.16,103.842 C419.623,104.184 418.931,104.469 418.085,104.697 C417.238,104.925 416.408,105.087 415.594,105.185 L412.933,105.527 C411.338,105.739 410.142,106.072 409.344,106.528 C407.994,107.293 407.318,108.514 407.318,110.19 M417.963,101.303 C418.972,101.173 419.647,100.75 419.989,100.034 C420.184,99.6431 420.282,99.0816 420.282,98.3492 C420.282,96.8518 419.749,95.7654 418.683,95.0899 C417.617,94.4145 416.091,94.0767 414.105,94.0767 C411.81,94.0767 410.183,94.6952 409.222,95.9322 C408.685,96.6158 408.335,97.633 408.173,98.984 L404.071,98.984 C404.152,95.7613 405.198,93.5193 407.208,92.2579 C409.218,90.9965 411.55,90.3658 414.203,90.3658 C417.279,90.3658 419.777,90.9517 421.698,92.1236 C423.602,93.2955 424.554,95.1184 424.554,97.5924 L424.554,112.656 C424.554,113.112 424.648,113.478 424.835,113.754 C425.022,114.031 425.417,114.17 426.019,114.17 C426.215,114.17 426.434,114.157 426.678,114.133 C426.923,114.108 427.183,114.072 427.46,114.023 L427.46,117.27 C426.776,117.465 426.255,117.587 425.897,117.636 C425.539,117.685 425.051,117.71 424.432,117.71 C422.919,117.71 421.82,117.172 421.136,116.098 C420.778,115.529 420.526,114.723 420.38,113.681 C419.484,114.853 418.199,115.87 416.522,116.733 C414.846,117.596 412.998,118.027 410.98,118.027 C408.555,118.027 406.573,117.29 405.035,115.817 C403.497,114.344 402.728,112.501 402.728,110.288 C402.728,107.863 403.485,105.983 404.999,104.648 C406.512,103.313 408.498,102.491 410.956,102.182 L417.963,101.303 M440.974,90.5367 C443.025,90.5367 444.815,91.0412 446.345,92.0504 C447.175,92.62 448.022,93.4501 448.884,94.5406 L448.884,91.2447 L452.937,91.2447 L452.937,115.024 C452.937,118.344 452.449,120.965 451.472,122.885 C449.649,126.434 446.207,128.208 441.145,128.208 C438.329,128.208 435.961,127.577 434.041,126.316 C432.12,125.054 431.046,123.081 430.818,120.395 L435.286,120.395 C435.497,121.567 435.921,122.47 436.555,123.105 C437.548,124.082 439.111,124.57 441.243,124.57 C444.612,124.57 446.817,123.382 447.859,121.005 C448.478,119.606 448.762,117.107 448.714,113.51 C447.835,114.845 446.777,115.838 445.54,116.489 C444.303,117.14 442.667,117.465 440.633,117.465 C437.8,117.465 435.322,116.46 433.198,114.45 C431.074,112.44 430.012,109.116 430.012,104.477 C430.012,100.099 431.083,96.6809 433.223,94.2232 C435.363,91.7655 437.947,90.5367 440.974,90.5367 M448.884,103.964 C448.884,100.725 448.217,98.3248 446.883,96.7623 C445.548,95.1998 443.847,94.4185 441.78,94.4185 C438.688,94.4185 436.572,95.8671 435.432,98.7642 C434.83,100.31 434.529,102.337 434.529,104.843 C434.529,107.789 435.127,110.031 436.323,111.569 C437.52,113.107 439.127,113.877 441.145,113.877 C444.303,113.877 446.524,112.452 447.81,109.604 C448.526,107.993 448.884,106.113 448.884,103.964 M459.543,91.0006 L463.717,91.0006 L463.717,94.7115 C464.954,93.1815 466.265,92.0829 467.648,91.4156 C469.032,90.7483 470.57,90.4146 472.262,90.4146 C475.973,90.4146 478.48,91.7086 479.782,94.2965 C480.498,95.7125 480.856,97.7388 480.856,100.376 L480.856,117.148 L476.388,117.148 L476.388,100.669 C476.388,99.0735 476.152,97.7877 475.68,96.8111 C474.899,95.1835 473.483,94.3697 471.432,94.3697 C470.391,94.3697 469.536,94.4755 468.869,94.6871 C467.664,95.0452 466.606,95.7613 465.695,96.8355 C464.963,97.6982 464.487,98.5893 464.267,99.5089 C464.047,100.428 463.937,101.743 463.937,103.452 L463.937,117.148 L459.543,117.148 L459.543,91.0006 M498.228,90.4146 C500.084,90.4146 501.882,90.85 503.624,91.7208 C505.365,92.5915 506.692,93.7187 507.603,95.1021 C508.482,96.4205 509.068,97.9586 509.361,99.7164 C509.621,100.921 509.752,102.841 509.752,105.478 L490.587,105.478 C490.668,108.131 491.295,110.259 492.467,111.862 C493.638,113.466 495.453,114.267 497.911,114.267 C500.206,114.267 502.037,113.51 503.404,111.997 C504.185,111.118 504.739,110.1 505.064,108.945 L509.385,108.945 C509.272,109.905 508.893,110.975 508.25,112.155 C507.607,113.335 506.887,114.3 506.09,115.048 C504.755,116.35 503.103,117.229 501.133,117.685 C500.076,117.946 498.879,118.076 497.545,118.076 C494.289,118.076 491.531,116.892 489.268,114.524 C487.006,112.155 485.875,108.839 485.875,104.575 C485.875,100.376 487.014,96.9657 489.293,94.3453 C491.571,91.7248 494.55,90.4146 498.228,90.4146 M505.235,101.987 C505.056,100.083 504.641,98.5608 503.99,97.4215 C502.786,95.3056 500.775,94.2476 497.96,94.2476 C495.941,94.2476 494.249,94.976 492.882,96.4327 C491.514,97.8894 490.79,99.7408 490.709,101.987 L505.235,101.987 M515.258,91.0006 L519.433,91.0006 L519.433,95.5172 C519.775,94.6383 520.613,93.5681 521.948,92.3067 C523.283,91.0453 524.821,90.4146 526.562,90.4146 C526.644,90.4146 526.782,90.4228 526.977,90.439 C527.173,90.4553 527.506,90.4879 527.978,90.5367 L527.978,95.1754 C527.718,95.1265 527.478,95.094 527.258,95.0777 C527.038,95.0614 526.798,95.0533 526.538,95.0533 C524.324,95.0533 522.623,95.7654 521.435,97.1895 C520.247,98.6137 519.653,100.253 519.653,102.109 L519.653,117.148 L515.258,117.148 L515.258,91.0006 M534.096,91.3424 L539.199,91.3424 L539.199,96.6646 L534.096,96.6646 L534.096,91.3424 M534.096,111.826 L539.199,111.826 L539.199,117.148 L534.096,117.148 L534.096,111.826" class="SystemText"/>
<path d="M551.254,81.2838 L556.112,81.2838 L556.112,112.876 L574.276,112.876 L574.276,117.148 L551.254,117.148 L551.254,81.2838 M588.841,114.316 C591.754,114.316 593.752,113.213 594.834,111.008 C595.917,108.802 596.458,106.349 596.458,103.647 C596.458,101.206 596.067,99.22 595.286,97.69 C594.049,95.2812 591.917,94.0767 588.889,94.0767 C586.204,94.0767 584.251,95.1021 583.03,97.1529 C581.809,99.2037 581.199,101.678 581.199,104.575 C581.199,107.358 581.809,109.677 583.03,111.533 C584.251,113.388 586.188,114.316 588.841,114.316 M589.011,90.2437 C592.381,90.2437 595.229,91.3668 597.556,93.6129 C599.884,95.859 601.048,99.163 601.048,103.525 C601.048,107.74 600.022,111.224 597.971,113.974 C595.921,116.725 592.739,118.1 588.425,118.1 C584.828,118.1 581.972,116.884 579.856,114.45 C577.74,112.017 576.682,108.75 576.682,104.648 C576.682,100.253 577.797,96.7541 580.027,94.15 C582.257,91.5458 585.252,90.2437 589.011,90.2437 M606.261,81.1617 L610.656,81.1617 L610.656,94.5406 C611.698,93.2222 612.633,92.2945 613.464,91.7574 C614.88,90.8297 616.646,90.3658 618.761,90.3658 C622.554,90.3658 625.125,91.6923 626.476,94.3453 C627.209,95.7939 627.575,97.8039 627.575,100.376 L627.575,117.148 L623.058,117.148 L623.058,100.669 C623.058,98.748 622.814,97.3401 622.326,96.4449 C621.528,95.0126 620.031,94.2965 617.834,94.2965 C616.011,94.2965 614.359,94.9231 612.878,96.1763 C611.397,97.4296 610.656,99.7978 610.656,103.281 L610.656,117.148 L606.261,117.148 L606.261,81.1617 M644.947,90.4146 C646.802,90.4146 648.601,90.85 650.342,91.7208 C652.084,92.5915 653.411,93.7187 654.322,95.1021 C655.201,96.4205 655.787,97.9586 656.08,99.7164 C656.34,100.921 656.47,102.841 656.47,105.478 L637.305,105.478 C637.387,108.131 638.013,110.259 639.185,111.862 C640.357,113.466 642.172,114.267 644.63,114.267 C646.925,114.267 648.756,113.51 650.123,111.997 C650.904,111.118 651.457,110.1 651.783,108.945 L656.104,108.945 C655.99,109.905 655.612,110.975 654.969,112.155 C654.326,113.335 653.606,114.3 652.808,115.048 C651.474,116.35 649.822,117.229 647.852,117.685 C646.794,117.946 645.598,118.076 644.263,118.076 C641.008,118.076 638.249,116.892 635.987,114.524 C633.725,112.155 632.593,108.839 632.593,104.575 C632.593,100.376 633.733,96.9657 636.011,94.3453 C638.29,91.7248 641.269,90.4146 644.947,90.4146 M651.954,101.987 C651.775,100.083 651.36,98.5608 650.709,97.4215 C649.504,95.3056 647.494,94.2476 644.678,94.2476 C642.66,94.2476 640.967,94.976 639.6,96.4327 C638.233,97.8894 637.509,99.7408 637.427,101.987 L651.954,101.987 M661.855,91.0006 L666.03,91.0006 L666.03,94.7115 C667.267,93.1815 668.577,92.0829 669.961,91.4156 C671.344,90.7483 672.882,90.4146 674.575,90.4146 C678.286,90.4146 680.792,91.7086 682.094,94.2965 C682.811,95.7125 683.169,97.7388 683.169,100.376 L683.169,117.148 L678.701,117.148 L678.701,100.669 C678.701,99.0735 678.465,97.7877 677.993,96.8111 C677.212,95.1835 675.796,94.3697 673.745,94.3697 C672.703,94.3697 671.849,94.4755 671.181,94.6871 C669.977,95.0452 668.919,95.7613 668.008,96.8355 C667.275,97.6982 666.799,98.5893 666.579,99.5089 C666.36,100.428 666.25,101.743 666.25,103.452 L666.25,117.148 L661.855,117.148 L661.855,91.0006 M698.881,90.5367 C700.931,90.5367 702.722,91.0412 704.252,92.0504 C705.082,92.62 705.928,93.4501 706.791,94.5406 L706.791,91.2447 L710.843,91.2447 L710.843,115.024 C710.843,118.344 710.355,120.965 709.379,122.885 C707.556,126.434 704.113,128.208 699.051,128.208 C696.236,128.208 693.868,127.577 691.947,126.316 C690.026,125.054 688.952,123.081 688.724,120.395 L693.192,120.395 C693.404,121.567 693.827,122.47 694.462,123.105 C695.454,124.082 697.017,124.57 699.149,124.57 C702.518,124.57 704.724,123.382 705.765,121.005 C706.384,119.606 706.669,117.107 706.62,113.51 C705.741,114.845 704.683,115.838 703.446,116.489 C702.209,117.14 700.573,117.465 698.539,117.465 C695.707,117.465 693.229,116.46 691.105,114.45 C688.981,112.44 687.919,109.116 687.919,104.477 C687.919,100.099 688.989,96.6809 691.129,94.2232 C693.269,91.7655 695.853,90.5367 698.881,90.5367 M706.791,103.964 C706.791,100.725 706.123,98.3248 704.789,96.7623 C703.454,95.1998 701.753,94.4185 699.686,94.4185 C696.594,94.4185 694.478,95.8671 693.339,98.7642 C692.736,100.31 692.435,102.337 692.435,104.843 C692.435,107.789 693.033,110.031 694.23,111.569 C695.426,113.107 697.033,113.877 699.051,113.877 C702.209,113.877 704.431,112.452 705.717,109.604 C706.433,107.993 706.791,106.113 706.791,103.964 M717.571,91.0006 L721.746,91.0006 L721.746,95.5172 C722.088,94.6383 722.926,93.5681 724.26,92.3067 C725.595,91.0453 727.133,90.4146 728.875,90.4146 C728.956,90.4146 729.094,90.4228 729.29,90.439 C729.485,90.4553 729.819,90.4879 730.291,90.5367 L730.291,95.1754 C730.03,95.1265 729.79,95.094 729.571,95.0777 C729.351,95.0614 729.111,95.0533 728.85,95.0533 C726.637,95.0533 724.936,95.7654 723.748,97.1895 C722.56,98.6137 721.966,100.253 721.966,102.109 L721.966,117.148 L717.571,117.148 L717.571,91.0006 M734.09,91.1226 L738.557,91.1226 L738.557,117.148 L734.09,117.148 L734.09,91.1226 M734.09,81.2838 L738.557,81.2838 L738.557,86.2642 L734.09,86.2642 L734.09,81.2838 M745.183,91.0006 L749.358,91.0006 L749.358,94.7115 C750.595,93.1815 751.905,92.0829 753.289,91.4156 C754.672,90.7483 756.21,90.4146 757.903,90.4146 C761.614,90.4146 764.12,91.7086 765.423,94.2965 C766.139,95.7125 766.497,97.7388 766.497,100.376 L766.497,117.148 L762.029,117.148 L762.029,100.669 C762.029,99.0735 761.793,97.7877 761.321,96.8111 C760.54,95.1835 759.124,94.3697 757.073,94.3697 C756.031,94.3697 755.177,94.4755 754.509,94.6871 C753.305,95.0452 752.247,95.7613 751.336,96.8355 C750.603,97.6982 750.127,98.5893 749.907,99.5089 C749.688,100.428 749.578,101.743 749.578,103.452 L749.578,117.148 L745.183,117.148 L745.183,91.0006 M773.908,122.251 C775.031,122.055 775.82,121.266 776.276,119.882 C776.52,119.15 776.642,118.442 776.642,117.758 C776.642,117.644 776.638,117.543 776.63,117.453 C776.622,117.364 776.602,117.262 776.569,117.148 L773.908,117.148 L773.908,111.826 L779.133,111.826 L779.133,116.757 C779.133,118.694 778.742,120.395 777.961,121.86 C777.179,123.325 775.828,124.228 773.908,124.57 L773.908,122.251" class="SystemText"/>
<path d="M792.921,81.2838 L809.058,81.2838 C812.248,81.2838 814.82,82.183 816.773,83.9815 C818.726,85.78 819.703,88.3069 819.703,91.5621 C819.703,94.3616 818.832,96.7989 817.091,98.8741 C815.349,100.949 812.672,101.987 809.058,101.987 L797.779,101.987 L797.779,117.148 L792.921,117.148 L792.921,81.2838 M814.796,91.5865 C814.796,88.9498 813.819,87.1594 811.866,86.2154 C810.792,85.7108 809.319,85.4586 807.447,85.4586 L797.779,85.4586 L797.779,97.8853 L807.447,97.8853 C809.628,97.8853 811.398,97.4215 812.757,96.4937 C814.116,95.566 814.796,93.9302 814.796,91.5865 M825.337,91.0006 L829.511,91.0006 L829.511,95.5172 C829.853,94.6383 830.691,93.5681 832.026,92.3067 C833.361,91.0453 834.899,90.4146 836.64,90.4146 C836.722,90.4146 836.86,90.4228 837.055,90.439 C837.251,90.4553 837.584,90.4879 838.056,90.5367 L838.056,95.1754 C837.796,95.1265 837.556,95.094 837.336,95.0777 C837.116,95.0614 836.876,95.0533 836.616,95.0533 C834.402,95.0533 832.702,95.7654 831.513,97.1895 C830.325,98.6137 829.731,100.253 829.731,102.109 L829.731,117.148 L825.337,117.148 L825.337,91.0006 M852.744,90.4146 C854.599,90.4146 856.398,90.85 858.139,91.7208 C859.881,92.5915 861.207,93.7187 862.119,95.1021 C862.998,96.4205 863.584,97.9586 863.877,99.7164 C864.137,100.921 864.267,102.841 864.267,105.478 L845.102,105.478 C845.184,108.131 845.81,110.259 846.982,111.862 C848.154,113.466 849.969,114.267 852.426,114.267 C854.721,114.267 856.552,113.51 857.92,111.997 C858.701,111.118 859.254,110.1 859.58,108.945 L863.901,108.945 C863.787,109.905 863.409,110.975 862.766,112.155 C862.123,113.335 861.403,114.3 860.605,115.048 C859.271,116.35 857.619,117.229 855.649,117.685 C854.591,117.946 853.395,118.076 852.06,118.076 C848.805,118.076 846.046,116.892 843.784,114.524 C841.522,112.155 840.39,108.839 840.39,104.575 C840.39,100.376 841.53,96.9657 843.808,94.3453 C846.087,91.7248 849.065,90.4146 852.744,90.4146 M859.751,101.987 C859.572,100.083 859.157,98.5608 858.506,97.4215 C857.301,95.3056 855.291,94.2476 852.475,94.2476 C850.457,94.2476 848.764,94.976 847.397,96.4327 C846.03,97.8894 845.306,99.7408 845.224,101.987 L859.751,101.987 M869.774,81.2838 L874.169,81.2838 L874.169,117.148 L869.774,117.148 L869.774,81.2838 M885.14,91.0006 L885.14,108.359 C885.14,109.694 885.352,110.784 885.775,111.63 C886.556,113.193 888.013,113.974 890.145,113.974 C893.205,113.974 895.288,112.607 896.395,109.873 C896.997,108.408 897.299,106.398 897.299,103.842 L897.299,91.0006 L901.693,91.0006 L901.693,117.148 L897.543,117.148 L897.592,113.291 C897.022,114.283 896.314,115.122 895.467,115.805 C893.791,117.172 891.757,117.856 889.364,117.856 C885.637,117.856 883.098,116.611 881.747,114.121 C881.014,112.786 880.648,111.004 880.648,108.774 L880.648,91.0006 L885.14,91.0006 M911.326,104.379 C911.326,107.179 911.92,109.523 913.108,111.411 C914.296,113.299 916.201,114.243 918.821,114.243 C920.855,114.243 922.528,113.368 923.838,111.618 C925.148,109.869 925.803,107.358 925.803,104.086 C925.803,100.782 925.128,98.337 923.777,96.7501 C922.426,95.1632 920.758,94.3697 918.772,94.3697 C916.559,94.3697 914.764,95.2161 913.389,96.9088 C912.014,98.6015 911.326,101.092 911.326,104.379 M917.942,90.5367 C919.944,90.5367 921.62,90.9599 922.971,91.8062 C923.753,92.2945 924.64,93.149 925.633,94.3697 L925.633,81.1617 L929.856,81.1617 L929.856,117.148 L925.901,117.148 L925.901,113.51 C924.876,115.122 923.663,116.285 922.263,117.002 C920.864,117.718 919.26,118.076 917.454,118.076 C914.54,118.076 912.018,116.851 909.885,114.401 C907.753,111.952 906.687,108.693 906.687,104.624 C906.687,100.815 907.66,97.515 909.605,94.7237 C911.55,91.9324 914.329,90.5367 917.942,90.5367 M947.228,90.4146 C949.084,90.4146 950.882,90.85 952.624,91.7208 C954.365,92.5915 955.692,93.7187 956.603,95.1021 C957.482,96.4205 958.068,97.9586 958.361,99.7164 C958.621,100.921 958.752,102.841 958.752,105.478 L939.587,105.478 C939.668,108.131 940.295,110.259 941.467,111.862 C942.638,113.466 944.453,114.267 946.911,114.267 C949.206,114.267 951.037,113.51 952.404,111.997 C953.185,111.118 953.739,110.1 954.064,108.945 L958.385,108.945 C958.272,109.905 957.893,110.975 957.25,112.155 C956.607,113.335 955.887,114.3 955.09,115.048 C953.755,116.35 952.103,117.229 950.133,117.685 C949.076,117.946 947.879,118.076 946.545,118.076 C943.289,118.076 940.531,116.892 938.268,114.524 C936.006,112.155 934.875,108.839 934.875,104.575 C934.875,100.376 936.014,96.9657 938.293,94.3453 C940.571,91.7248 943.55,90.4146 947.228,90.4146 M954.235,101.987 C954.056,100.083 953.641,98.5608 952.99,97.4215 C951.786,95.3056 949.775,94.2476 946.96,94.2476 C944.941,94.2476 943.249,94.976 941.882,96.4327 C940.514,97.8894 939.79,99.7408 939.709,101.987 L954.235,101.987" class="SystemText"/>
<path d="M108.495,363.66 C108.495,383.348 92.5337,399.309 72.845,399.309 C53.1562,399.309 37.1953,383.348 37.1953,363.66 C37.1953,343.971 53.1562,328.01 72.845,328.01 C92.5337,328.01 108.495,343.971 108.495,363.66" fill-rule="evenodd" stroke-miterlimit="2" stroke-linejoin="miter" stroke-linecap="square" stroke-width="3.97" stroke="#000000" fill="none" class="RehearsalMark"/>
<path d="M64.9778,354.453 L64.9778,350.41 C68.7864,350.038 71.4426,349.418 72.9466,348.549 C74.4505,347.68 75.5735,345.624 76.3157,342.382 L80.4758,342.382 L80.4758,384.16 L74.8508,384.16 L74.8508,354.453 L64.9778,354.453" class="RehearsalMark"/>
<path d="M1758.85,595.729 L1758.85,594.674 L1746.64,594.674 L1746.64,595.729 C1747.36,595.846 1747.95,595.978 1748.41,596.124 C1748.87,596.271 1749.24,596.422 1749.52,596.579 C1749.81,596.735 1750.03,596.891 1750.18,597.047 C1750.34,597.204 1750.46,597.37 1750.56,597.545 C1750.87,598.073 1750.91,598.786 1750.68,599.684 C1750.45,600.582 1750.04,601.764 1749.48,603.229 L1740.1,626.315 L1729.94,602.995 C1729.27,601.471 1728.86,600.246 1728.69,599.318 C1728.53,598.39 1728.62,597.672 1728.97,597.164 C1729.22,596.754 1729.67,596.437 1730.3,596.212 C1730.94,595.988 1731.84,595.827 1733.01,595.729 L1733.01,594.674 L1716.75,594.674 L1716.75,595.729 C1717.69,595.807 1718.44,595.939 1719.01,596.124 C1719.58,596.31 1720.08,596.579 1720.53,596.93 C1720.71,597.067 1720.87,597.199 1721.03,597.326 C1721.19,597.453 1721.36,597.648 1721.56,597.912 C1721.75,598.175 1721.98,598.546 1722.23,599.025 C1722.49,599.503 1722.79,600.172 1723.14,601.032 L1737.96,635.338 L1739.08,635.338 L1752.91,601.442 C1753.75,599.45 1754.67,597.985 1755.69,597.047 C1756.02,596.696 1756.46,596.413 1757.01,596.198 C1757.55,595.983 1758.17,595.827 1758.85,595.729 M1761.11,634.401 L1778.13,634.401 L1778.13,633.288 L1776.7,633.288 C1776.34,633.288 1775.98,633.244 1775.61,633.156 C1775.24,633.068 1774.88,632.96 1774.54,632.833 C1774.2,632.706 1773.9,632.56 1773.65,632.394 C1773.39,632.228 1773.22,632.067 1773.12,631.911 C1772.91,631.559 1772.74,631.032 1772.62,630.329 C1772.51,629.625 1772.45,628.629 1772.45,627.34 L1772.45,601.676 C1772.45,600.485 1772.52,599.518 1772.65,598.776 C1772.79,598.034 1772.96,597.496 1773.18,597.164 C1773.96,596.207 1775.13,595.729 1776.7,595.729 L1778.13,595.729 L1778.13,594.674 L1761.11,594.674 L1761.11,595.729 L1762.54,595.729 C1763.23,595.729 1763.9,595.861 1764.57,596.124 C1765.23,596.388 1765.75,596.754 1766.12,597.223 C1766.28,597.399 1766.4,597.604 1766.49,597.838 C1766.57,598.073 1766.64,598.361 1766.68,598.703 C1766.71,599.044 1766.74,599.454 1766.75,599.933 C1766.76,600.412 1766.76,600.993 1766.76,601.676 L1766.76,627.34 C1766.76,629.801 1766.53,631.305 1766.06,631.852 C1765.67,632.36 1765.19,632.726 1764.62,632.951 C1764.06,633.175 1763.36,633.288 1762.54,633.288 L1761.11,633.288 L1761.11,634.401" class="Harmony"/>
<path d="M438.546,634.401 L455.567,634.401 L455.567,633.288 L454.132,633.288 C453.78,633.288 453.419,633.244 453.048,633.156 C452.677,633.068 452.32,632.96 451.978,632.833 C451.637,632.706 451.339,632.56 451.085,632.394 C450.831,632.228 450.655,632.067 450.557,631.911 C450.343,631.559 450.177,631.032 450.059,630.329 C449.942,629.625 449.884,628.629 449.884,627.34 L449.884,601.676 C449.884,600.485 449.952,599.518 450.089,598.776 C450.225,598.034 450.401,597.496 450.616,597.164 C451.397,596.207 452.569,595.729 454.132,595.729 L455.567,595.729 L455.567,594.674 L438.546,594.674 L438.546,595.729 L439.981,595.729 C440.665,595.729 441.339,595.861 442.003,596.124 C442.667,596.388 443.184,596.754 443.556,597.223 C443.712,597.399 443.834,597.604 443.922,597.838 C444.01,598.073 444.073,598.361 444.112,598.703 C444.151,599.044 444.176,599.454 444.185,599.933 C444.195,600.412 444.2,600.993 444.2,601.676 L444.2,627.34 C444.2,629.801 443.966,631.305 443.497,631.852 C443.106,632.36 442.628,632.726 442.061,632.951 C441.495,633.175 440.802,633.288 439.981,633.288 L438.546,633.288 L438.546,634.401" class="Harmony"/>
<path d="M2336.05,634.401 L2353.07,634.401 L2353.07,633.288 L2351.64,633.288 C2351.28,633.288 2350.92,633.244 2350.55,633.156 C2350.18,633.068 2349.82,632.96 2349.48,632.833 C2349.14,632.706 2348.84,632.56 2348.59,632.394 C2348.33,632.228 2348.16,632.067 2348.06,631.911 C2347.85,631.559 2347.68,631.032 2347.56,630.329 C2347.45,629.625 2347.39,628.629 2347.39,627.34 L2347.39,601.676 C2347.39,600.485 2347.46,599.518 2347.59,598.776 C2347.73,598.034 2347.91,597.496 2348.12,597.164 C2348.9,596.207 2350.07,595.729 2351.64,595.729 L2353.07,595.729 L2353.07,594.674 L2336.05,594.674 L2336.05,595.729 L2337.49,595.729 C2338.17,595.729 2338.84,595.861 2339.51,596.124 C2340.17,596.388 2340.69,596.754 2341.06,597.223 C2341.22,597.399 2341.34,597.604 2341.43,597.838 C2341.51,598.073 2341.58,598.361 2341.62,598.703 C2341.66,599.044 2341.68,599.454 2341.69,599.933 C2341.7,600.412 2341.7,600.993 2341.7,601.676 L2341.7,627.34 C2341.7,629.801 2341.47,631.305 2341,631.852 C2340.61,632.36 2340.13,632.726 2339.57,632.951 C2339,633.175 2338.31,633.288 2337.49,633.288 L2336.05,633.288 L2336.05,634.401" class="Harmony"/>
<path d="M0,-0.1 C0,2.7 2.3,5 5.2,5 C8.1,5 10.4,2.7 10.4,-0.1 C10.4,-2.9 8.1,-5.1 5.2,-5.1 C2.3,-5.1 0,-2.9 0,-0.1" transform="matrix(0.992001,0,0,0.992001,1501.76,200.4)" class="NoteDot"/>
<path d="M0,-0.1 C0,2.7 2.3,5 5.2,5 C8.1,5 10.4,2.7 10.4,-0.1 C10.4,-2.9 8.1,-5.1 5.2,-5.1 C2.3,-5.1 0,-2.9 0,-0.1" transform="matrix(0.992001,0,0,0.992001,1485.64,200.4)" class="NoteDot"/>
<path d="M0,-0.1 C0,2.7 2.3,5 5.2,5 C8.1,5 10.4,2.7 10.4,-0.1 C10.4,-2.9 8.1,-5.1 5.2,-5.1 C2.3,-5.1 0,-2.9 0,-0.1" transform="matrix(0.992001,0,0,0.992001,1501.76,225.2)" class="NoteDot"/>
<path d="M0,-0.1 C0,2.7 2.3,5 5.2,5 C8.1,5 10.4,2.7 10.4,-0.1 C10.4,-2.9 8.1,-5.1 5.2,-5.1 C2.3,-5.1 0,-2.9 0,-0.1" transform="matrix(0.992001,0,0,0.992001,805.196,225.2)" class="NoteDot"/>
<path d="M0,-0.1 C0,2.7 2.3,5 5.2,5 C8.1,5 10.4,2.7 10.4,-0.1 C10.4,-2.9 8.1,-5.1 5.2,-5.1 C2.3,-5.1 0,-2.9 0,-0.1" transform="matrix(0.992001,0,0,0.992001,789.076,225.2)" class="NoteDot"/>
<path d="M0,-0.1 C0,2.7 2.3,5 5.2,5 C8.1,5 10.4,2.7 10.4,-0.1 C10.4,-2.9 8.1,-5.1 5.2,-5.1 C2.3,-5.1 0,-2.9 0,-0.1" transform="matrix(0.992001,0,0,0.992001,1485.64,225.2)" class="NoteDot"/>
<path d="M0,-0.1 C0,2.7 2.3,5 5.2,5 C8.1,5 10.4,2.7 10.4,-0.1 C10.4,-2.9 8.1,-5.1 5.2,-5.1 C2.3,-5.1 0,-2.9 0,-0.1" transform="matrix(0.992001,0,0,0.992001,789.076,200.4)" class="NoteDot"/>
<path d="M0,-0.1 C0,2.7 2.3,5 5.2,5 C8.1,5 10.4,2.7 10.4,-0.1 C10.4,-2.9 8.1,-5.1 5.2,-5.1 C2.3,-5.1 0,-2.9 0,-0.1" transform="matrix(0.992001,0,0,0.992001,805.196,200.4)" class="NoteDot"/>
<path d="M0,-0.1 C0,2.7 2.3,5 5.2,5 C8.1,5 10.4,2.7 10.4,-0.1 C10.4,-2.9 8.1,-5.1 5.2,-5.1 C2.3,-5.1 0,-2.9 0,-0.1" transform="matrix(0.992001,0,0,0.992001,1485.64,510.401)" class="NoteDot"/>
<path d="M0,-0.1 C0,2.7 2.3,5 5.2,5 C8.1,5 10.4,2.7 10.4,-0.1 C10.4,-2.9 8.1,-5.1 5.2,-5.1 C2.3,-5.1 0,-2.9 0,-0.1" transform="matrix(0.992001,0,0,0.992001,475.969,510.401)" class="NoteDot"/>
<path d="M0,-0.1 C0,2.7 2.3,5 5.2,5 C8.1,5 10.4,2.7 10.4,-0.1 C10.4,-2.9 8.1,-5.1 5.2,-5.1 C2.3,-5.1 0,-2.9 0,-0.1" transform="matrix(0.992001,0,0,0.992001,1501.76,510.401)" class="NoteDot"/>
<path d="M0,-50 C4.7,-46.9 6.6,-44.6 6.6,-39.6 C6.6,-36.5 3.3,-24 3.3,-19.5 C3.3,-10.5 6.9,-4.5 12,0 L12.3,-1.2 C8.2,-5.6 6.9,-11.4 6.9,-16.8 C6.9,-22.6 9.4,-32.7 9.4,-37.3 C9.4,-43.4 6.8,-46.8 1.8,-50 C6.8,-53.2 9.4,-56.6 9.4,-62.7 C9.4,-67.3 6.9,-77.4 6.9,-83.2 C6.9,-88.6 8.2,-94.3 12.3,-98.7 L12,-99.9 C6.9,-95.4 3.3,-89.5 3.3,-80.5 C3.3,-76 6.6,-63.5 6.6,-60.4 C6.6,-55.4 4.7,-53.1 0,-50" transform="matrix(3.596,0,0,3.596,123.5,547.601)" class="Bracket"/>
</svg>