<?xml version="1.0" encoding="UTF-8" standalone="no"?>
<svg width="127mm" height="50.8mm" viewBox="0 0 1800 720"
 xmlns="http://www.w3.org/2000/svg" xmlns:xlink="http://www.w3.org/1999/xlink" version="1.2" baseProfile="full">
<title>sfoh-ex-01-f</title>
<desc>Generated by MuseScore Studio 4.6.3</desc>
<polyline class="StaffLines" fill="none" stroke="#000000" stroke-width="2.26" stroke-linejoin="bevel" points="176.4,188 1713.6,188" />
<polyline class="StaffLines" fill="none" stroke="#000000" stroke-width="2.26" stroke-linejoin="bevel" points="176.4,212.8 1713.6,212.8" />
<polyline class="StaffLines" fill="none" stroke="#000000" stroke-width="2.26" stroke-linejoin="bevel" points="176.4,237.6 1713.6,237.6" />
<polyline class="StaffLines" fill="none" stroke="#000000" stroke-width="2.26" stroke-linejoin="bevel" points="176.4,262.4 1713.6,262.4" />
<polyline class="StaffLines" fill="none" stroke="#000000" stroke-width="2.26" stroke-linejoin="bevel" points="176.4,287.2 1713.6,287.2" />
<polyline class="StaffLines" fill="none" stroke="#000000" stroke-width="2.26" stroke-linejoin="bevel" points="176.4,432.8 1713.6,432.8" />
<polyline class="StaffLines" fill="none" stroke="#000000" stroke-width="2.26" stroke-linejoin="bevel" points="176.4,457.6 1713.6,457.6" />
<polyline class="StaffLines" fill="none" stroke="#000000" stroke-width="2.26" stroke-linejoin="bevel" points="176.4,482.4 1713.6,482.4" />
<polyline class="StaffLines" fill="none" stroke="#000000" stroke-width="2.26" stroke-linejoin="bevel" points="176.4,507.2 1713.6,507.2" />
<polyline class="StaffLines" fill="none" stroke="#000000" stroke-width="2.26" stroke-linejoin="bevel" points="176.4,532 1713.6,532" />
<polyline class="BarLine" fill="none" stroke="#000000" stroke-width="2.48" stroke-linejoin="bevel" points="177.64,186.872 177.64,432.8" />
<polyline class="BarLine" fill="none" stroke="#000000" stroke-width="2.48" stroke-linejoin="bevel" points="1697.48,186.872 1697.48,432.8" />
<polyline class="BarLine" fill="none" stroke="#000000" stroke-width="2.48" stroke-linejoin="bevel" points="1712.36,186.872 1712.36,432.8" />
<polyline class="BarLine" fill="none" stroke="#000000" stroke-width="2.48" stroke-linejoin="bevel" points="992.508,186.872 992.508,432.8" />
<polyline class="BarLine" fill="none" stroke="#000000" stroke-width="2.48" stroke-linejoin="bevel" points="177.64,431.671 177.64,533.128" />
<polyline class="BarLine" fill="none" stroke="#000000" stroke-width="2.48" stroke-linejoin="bevel" points="1697.48,431.671 1697.48,533.128" />
<polyline class="BarLine" fill="none" stroke="#000000" stroke-width="2.48" stroke-linejoin="bevel" points="1712.36,431.671 1712.36,533.128" />
<polyline class="BarLine" fill="none" stroke="#000000" stroke-width="2.48" stroke-linejoin="bevel" points="992.508,431.671 992.508,533.128" />
<path class="SlurSegment" stroke="#000000" stroke-width="1.24" stroke-linecap="round" stroke-linejoin="round" fill-rule="evenodd" d="M399.338,541.92 C457.048,582.299 634.933,589.739 695.814,554.32 C634.519,599.65 456.634,592.21 399.338,541.92"/>
<path class="SlurSegment" stroke="#000000" stroke-width="1.24" stroke-linecap="round" stroke-linejoin="round" fill-rule="evenodd" d="M1104.31,541.92 C1162.02,582.299 1339.91,589.739 1400.79,554.32 C1339.49,599.65 1161.61,592.21 1104.31,541.92"/>
<path class="Accidental" transform="matrix(0.992001,0,0,0.992001,1038.93,212.8)" d="M17,31.4 L19.9,31.4 L19.9,15 L23.8,13.8 L23.8,3.4 L19.9,4.6 L19.9,-10.2 L23.8,-11.5 L23.8,-21.9 L19.9,-20.6 L19.9,-34.4 L17,-34.4 L17,-19.7 L7.2,-16.5 L7.2,-31.9 L4.3,-31.9 L4.3,-15.6 L0,-14.2 L0,-3.8 L4.3,-5.2 L4.3,9.7 L0,11.1 L0,21.5 L4.3,20.1 L4.3,33.9 L7.2,33.9 L7.2,19.1 L17,16 L17,31.4 M7.2,-6.1 L17,-9.3 L17,5.6 L7.2,8.7 L7.2,-6.1 "/>
<path class="Accidental" transform="matrix(0.992001,0,0,0.992001,1009.87,237.6)" d="M17,31.4 L19.9,31.4 L19.9,15 L23.8,13.8 L23.8,3.4 L19.9,4.6 L19.9,-10.2 L23.8,-11.5 L23.8,-21.9 L19.9,-20.6 L19.9,-34.4 L17,-34.4 L17,-19.7 L7.2,-16.5 L7.2,-31.9 L4.3,-31.9 L4.3,-15.6 L0,-14.2 L0,-3.8 L4.3,-5.2 L4.3,9.7 L0,11.1 L0,21.5 L4.3,20.1 L4.3,33.9 L7.2,33.9 L7.2,19.1 L17,16 L17,31.4 M7.2,-6.1 L17,-9.3 L17,5.6 L7.2,8.7 L7.2,-6.1 "/>
<path class="Accidental" transform="matrix(0.992001,0,0,0.992001,333.958,212.8)" d="M17,31.4 L19.9,31.4 L19.9,15 L23.8,13.8 L23.8,3.4 L19.9,4.6 L19.9,-10.2 L23.8,-11.5 L23.8,-21.9 L19.9,-20.6 L19.9,-34.4 L17,-34.4 L17,-19.7 L7.2,-16.5 L7.2,-31.9 L4.3,-31.9 L4.3,-15.6 L0,-14.2 L0,-3.8 L4.3,-5.2 L4.3,9.7 L0,11.1 L0,21.5 L4.3,20.1 L4.3,33.9 L7.2,33.9 L7.2,19.1 L17,16 L17,31.4 M7.2,-6.1 L17,-9.3 L17,5.6 L7.2,8.7 L7.2,-6.1 "/>
<path class="Accidental" transform="matrix(0.992001,0,0,0.992001,304.895,237.6)" d="M17,31.4 L19.9,31.4 L19.9,15 L23.8,13.8 L23.8,3.4 L19.9,4.6 L19.9,-10.2 L23.8,-11.5 L23.8,-21.9 L19.9,-20.6 L19.9,-34.4 L17,-34.4 L17,-19.7 L7.2,-16.5 L7.2,-31.9 L4.3,-31.9 L4.3,-15.6 L0,-14.2 L0,-3.8 L4.3,-5.2 L4.3,9.7 L0,11.1 L0,21.5 L4.3,20.1 L4.3,33.9 L7.2,33.9 L7.2,19.1 L17,16 L17,31.4 M7.2,-6.1 L17,-9.3 L17,5.6 L7.2,8.7 L7.2,-6.1 "/>
<path class="Accidental" transform="matrix(0.992001,0,0,0.992001,1041.72,519.6)" d="M2.6,-43.3 L0,-43.3 L0,15.8 C2.5,13.9 12.8,6.6 14.8,4.9 C18.1,2.1 21,-0.4 21,-6.6 C21,-10.3 18.2,-15.5 12.3,-15.5 C8.5,-15.5 6,-14.4 2.6,-11.3 L2.6,-43.3 M12.5,-3.9 C12.5,2.6 8.5,5.9 4,9.6 L2.6,10.7 L2.6,-0.5 C2.6,-4.4 2.8,-10.5 7.6,-10.5 C10.3,-10.5 12.5,-7.9 12.5,-3.9"/>
<path class="Accidental" transform="matrix(0.992001,0,0,0.992001,336.748,519.6)" d="M2.6,-43.3 L0,-43.3 L0,15.8 C2.5,13.9 12.8,6.6 14.8,4.9 C18.1,2.1 21,-0.4 21,-6.6 C21,-10.3 18.2,-15.5 12.3,-15.5 C8.5,-15.5 6,-14.4 2.6,-11.3 L2.6,-43.3 M12.5,-3.9 C12.5,2.6 8.5,5.9 4,9.6 L2.6,10.7 L2.6,-0.5 C2.6,-4.4 2.8,-10.5 7.6,-10.5 C10.3,-10.5 12.5,-7.9 12.5,-3.9"/>
<polyline class="LedgerLine" fill="none" stroke="#000000" stroke-width="2.73" stroke-linejoin="bevel" points="1062.54,163.2 1116.59,163.2" />
<polyline class="LedgerLine" fill="none" stroke="#000000" stroke-width="2.73" stroke-linejoin="bevel" points="357.564,163.2 411.613,163.2" />
<polyline class="LedgerLine" fill="none" stroke="#000000" stroke-width="2.73" stroke-linejoin="bevel" points="1062.54,556.8 1116.59,556.8" />
<polyline class="LedgerLine" fill="none" stroke="#000000" stroke-width="2.73" stroke-linejoin="bevel" points="357.564,556.8 411.613,556.8" />
<polyline class="LedgerLine" fill="none" stroke="#000000" stroke-width="2.73" stroke-linejoin="bevel" points="357.564,581.6 411.613,581.6" />
<polyline class="LedgerLine" fill="none" stroke="#000000" stroke-width="2.73" stroke-linejoin="bevel" points="1062.54,581.6 1116.59,581.6" />
<polyline class="Stem" fill="none" stroke="#000000" stroke-width="2.26" stroke-linejoin="bevel" points="1069.87,217.76 1069.87,312" />
<polyline class="Stem" fill="none" stroke="#000000" stroke-width="2.26" stroke-linejoin="bevel" points="1385.65,205.36 1385.65,305.8" />
<polyline class="Stem" fill="none" stroke="#000000" stroke-width="2.26" stroke-linejoin="bevel" points="364.893,217.76 364.893,312" />
<polyline class="Stem" fill="none" stroke="#000000" stroke-width="2.26" stroke-linejoin="bevel" points="680.675,205.36 680.675,305.8" />
<polyline class="Stem" fill="none" stroke="#000000" stroke-width="2.26" stroke-linejoin="bevel" points="710.956,527.139 710.956,445.2" />
<polyline class="Stem" fill="none" stroke="#000000" stroke-width="2.26" stroke-linejoin="bevel" points="1415.93,527.139 1415.93,445.2" />
<polyline class="Stem" fill="none" stroke="#000000" stroke-width="2.26" stroke-linejoin="bevel" points="1119.45,514.739 1119.45,432.8" />
<polyline class="Stem" fill="none" stroke="#000000" stroke-width="2.26" stroke-linejoin="bevel" points="414.48,514.739 414.48,432.8" />
<path class="Note" transform="matrix(0.992001,0,0,0.992001,679.546,200.4)" d="M20.8,-13.2 C9.7,-13.2 0,-4.6 0,5 C0,13.1 10.6,13.4 12.9,13.4 C25,13.4 32.8,4 32.8,-4.9 C32.8,-11.4 25.9,-13.2 20.8,-13.2 M30.2,-5.7 C30.2,-1.6 23.9,2.4 16.2,6.3 C16.2,6.3 10.3,9.7 7.2,9.7 C4.9,9.7 2.8,8.6 2.8,6 C2.8,1.3 13.6,-4.2 17.7,-6.3 C21.2,-8 23.6,-9.3 25.7,-9.3 C28.4,-9.3 30.2,-7.8 30.2,-5.7"/>
<path class="Note" transform="matrix(0.992001,0,0,0.992001,679.546,225.2)" d="M20.8,-13.2 C9.7,-13.2 0,-4.6 0,5 C0,13.1 10.6,13.4 12.9,13.4 C25,13.4 32.8,4 32.8,-4.9 C32.8,-11.4 25.9,-13.2 20.8,-13.2 M30.2,-5.7 C30.2,-1.6 23.9,2.4 16.2,6.3 C16.2,6.3 10.3,9.7 7.2,9.7 C4.9,9.7 2.8,8.6 2.8,6 C2.8,1.3 13.6,-4.2 17.7,-6.3 C21.2,-8 23.6,-9.3 25.7,-9.3 C28.4,-9.3 30.2,-7.8 30.2,-5.7"/>
<path class="Note" transform="matrix(0.992001,0,0,0.992001,1384.52,200.4)" d="M20.8,-13.2 C9.7,-13.2 0,-4.6 0,5 C0,13.1 10.6,13.4 12.9,13.4 C25,13.4 32.8,4 32.8,-4.9 C32.8,-11.4 25.9,-13.2 20.8,-13.2 M30.2,-5.7 C30.2,-1.6 23.9,2.4 16.2,6.3 C16.2,6.3 10.3,9.7 7.2,9.7 C4.9,9.7 2.8,8.6 2.8,6 C2.8,1.3 13.6,-4.2 17.7,-6.3 C21.2,-8 23.6,-9.3 25.7,-9.3 C28.4,-9.3 30.2,-7.8 30.2,-5.7"/>
<path class="Note" transform="matrix(0.992001,0,0,0.992001,1384.52,225.2)" d="M20.8,-13.2 C9.7,-13.2 0,-4.6 0,5 C0,13.1 10.6,13.4 12.9,13.4 C25,13.4 32.8,4 32.8,-4.9 C32.8,-11.4 25.9,-13.2 20.8,-13.2 M30.2,-5.7 C30.2,-1.6 23.9,2.4 16.2,6.3 C16.2,6.3 10.3,9.7 7.2,9.7 C4.9,9.7 2.8,8.6 2.8,6 C2.8,1.3 13.6,-4.2 17.7,-6.3 C21.2,-8 23.6,-9.3 25.7,-9.3 C28.4,-9.3 30.2,-7.8 30.2,-5.7"/>
<path class="Note" transform="matrix(0.992001,0,0,0.992001,363.764,237.6)" d="M20.8,-13.2 C9.7,-13.2 0,-4.6 0,5 C0,13.1 10.6,13.4 12.9,13.4 C25,13.4 32.8,4 32.8,-4.9 C32.8,-11.4 25.9,-13.2 20.8,-13.2 M30.2,-5.7 C30.2,-1.6 23.9,2.4 16.2,6.3 C16.2,6.3 10.3,9.7 7.2,9.7 C4.9,9.7 2.8,8.6 2.8,6 C2.8,1.3 13.6,-4.2 17.7,-6.3 C21.2,-8 23.6,-9.3 25.7,-9.3 C28.4,-9.3 30.2,-7.8 30.2,-5.7"/>
<path class="Note" transform="matrix(0.992001,0,0,0.992001,1068.74,237.6)" d="M20.8,-13.2 C9.7,-13.2 0,-4.6 0,5 C0,13.1 10.6,13.4 12.9,13.4 C25,13.4 32.8,4 32.8,-4.9 C32.8,-11.4 25.9,-13.2 20.8,-13.2 M30.2,-5.7 C30.2,-1.6 23.9,2.4 16.2,6.3 C16.2,6.3 10.3,9.7 7.2,9.7 C4.9,9.7 2.8,8.6 2.8,6 C2.8,1.3 13.6,-4.2 17.7,-6.3 C21.2,-8 23.6,-9.3 25.7,-9.3 C28.4,-9.3 30.2,-7.8 30.2,-5.7"/>
<path class="Note" transform="matrix(0.992001,0,0,0.992001,1068.74,212.8)" d="M20.8,-13.2 C9.7,-13.2 0,-4.6 0,5 C0,13.1 10.6,13.4 12.9,13.4 C25,13.4 32.8,4 32.8,-4.9 C32.8,-11.4 25.9,-13.2 20.8,-13.2 M30.2,-5.7 C30.2,-1.6 23.9,2.4 16.2,6.3 C16.2,6.3 10.3,9.7 7.2,9.7 C4.9,9.7 2.8,8.6 2.8,6 C2.8,1.3 13.6,-4.2 17.7,-6.3 C21.2,-8 23.6,-9.3 25.7,-9.3 C28.4,-9.3 30.2,-7.8 30.2,-5.7"/>
<path class="Note" transform="matrix(0.992001,0,0,0.992001,363.764,212.8)" d="M20.8,-13.2 C9.7,-13.2 0,-4.6 0,5 C0,13.1 10.6,13.4 12.9,13.4 C25,13.4 32.8,4 32.8,-4.9 C32.8,-11.4 25.9,-13.2 20.8,-13.2 M30.2,-5.7 C30.2,-1.6 23.9,2.4 16.2,6.3 C16.2,6.3 10.3,9.7 7.2,9.7 C4.9,9.7 2.8,8.6 2.8,6 C2.8,1.3 13.6,-4.2 17.7,-6.3 C21.2,-8 23.6,-9.3 25.7,-9.3 C28.4,-9.3 30.2,-7.8 30.2,-5.7"/>
<path class="Note" transform="matrix(0.992001,0,0,0.992001,1068.74,163.2)" d="M0,-0.3 C0,9 11.4,13.2 22.5,13.2 C33.4,13.2 42,7.4 42,0.8 C42,-8.9 30.6,-13.4 19.6,-13.4 C11.3,-13.4 0,-9.2 0,-0.3 M12.4,-3.1 C12.4,-6.6 15.1,-10.6 19.5,-10.6 C21.9,-10.6 23.8,-9.9 25.5,-8.2 C27.5,-6.2 29.7,0.2 29.7,3.4 C29.7,6.9 26.7,10.9 22.3,10.9 C19.6,10.9 17.8,10.1 15.9,8 C14.4,6.4 12.4,0.7 12.4,-3.1"/>
<path class="Note" transform="matrix(0.992001,0,0,0.992001,363.764,163.2)" d="M0,-0.3 C0,9 11.4,13.2 22.5,13.2 C33.4,13.2 42,7.4 42,0.8 C42,-8.9 30.6,-13.4 19.6,-13.4 C11.3,-13.4 0,-9.2 0,-0.3 M12.4,-3.1 C12.4,-6.6 15.1,-10.6 19.5,-10.6 C21.9,-10.6 23.8,-9.9 25.5,-8.2 C27.5,-6.2 29.7,0.2 29.7,3.4 C29.7,6.9 26.7,10.9 22.3,10.9 C19.6,10.9 17.8,10.1 15.9,8 C14.4,6.4 12.4,0.7 12.4,-3.1"/>
<path class="Note" transform="matrix(0.992001,0,0,0.992001,1384.52,532)" d="M20.8,-13.2 C9.7,-13.2 0,-4.6 0,5 C0,13.1 10.6,13.4 12.9,13.4 C25,13.4 32.8,4 32.8,-4.9 C32.8,-11.4 25.9,-13.2 20.8,-13.2 M30.2,-5.7 C30.2,-1.6 23.9,2.4 16.2,6.3 C16.2,6.3 10.3,9.7 7.2,9.7 C4.9,9.7 2.8,8.6 2.8,6 C2.8,1.3 13.6,-4.2 17.7,-6.3 C21.2,-8 23.6,-9.3 25.7,-9.3 C28.4,-9.3 30.2,-7.8 30.2,-5.7"/>
<path class="Note" transform="matrix(0.992001,0,0,0.992001,679.546,532)" d="M20.8,-13.2 C9.7,-13.2 0,-4.6 0,5 C0,13.1 10.6,13.4 12.9,13.4 C25,13.4 32.8,4 32.8,-4.9 C32.8,-11.4 25.9,-13.2 20.8,-13.2 M30.2,-5.7 C30.2,-1.6 23.9,2.4 16.2,6.3 C16.2,6.3 10.3,9.7 7.2,9.7 C4.9,9.7 2.8,8.6 2.8,6 C2.8,1.3 13.6,-4.2 17.7,-6.3 C21.2,-8 23.6,-9.3 25.7,-9.3 C28.4,-9.3 30.2,-7.8 30.2,-5.7"/>
<path class="Note" transform="matrix(0.992001,0,0,0.992001,383.071,519.6)" d="M20.8,-13.2 C9.7,-13.2 0,-4.6 0,5 C0,13.1 10.6,13.4 12.9,13.4 C25,13.4 32.8,4 32.8,-4.9 C32.8,-11.4 25.9,-13.2 20.8,-13.2 M30.2,-5.7 C30.2,-1.6 23.9,2.4 16.2,6.3 C16.2,6.3 10.3,9.7 7.2,9.7 C4.9,9.7 2.8,8.6 2.8,6 C2.8,1.3 13.6,-4.2 17.7,-6.3 C21.2,-8 23.6,-9.3 25.7,-9.3 C28.4,-9.3 30.2,-7.8 30.2,-5.7"/>
<path class="Note" transform="matrix(0.992001,0,0,0.992001,1088.04,519.6)" d="M20.8,-13.2 C9.7,-13.2 0,-4.6 0,5 C0,13.1 10.6,13.4 12.9,13.4 C25,13.4 32.8,4 32.8,-4.9 C32.8,-11.4 25.9,-13.2 20.8,-13.2 M30.2,-5.7 C30.2,-1.6 23.9,2.4 16.2,6.3 C16.2,6.3 10.3,9.7 7.2,9.7 C4.9,9.7 2.8,8.6 2.8,6 C2.8,1.3 13.6,-4.2 17.7,-6.3 C21.2,-8 23.6,-9.3 25.7,-9.3 C28.4,-9.3 30.2,-7.8 30.2,-5.7"/>
<path class="Note" transform="matrix(0.992001,0,0,0.992001,1068.74,581.6)" d="M0,-0.3 C0,9 11.4,13.2 22.5,13.2 C33.4,13.2 42,7.4 42,0.8 C42,-8.9 30.6,-13.4 19.6,-13.4 C11.3,-13.4 0,-9.2 0,-0.3 M12.4,-3.1 C12.4,-6.6 15.1,-10.6 19.5,-10.6 C21.9,-10.6 23.8,-9.9 25.5,-8.2 C27.5,-6.2 29.7,0.2 29.7,3.4 C29.7,6.9 26.7,10.9 22.3,10.9 C19.6,10.9 17.8,10.1 15.9,8 C14.4,6.4 12.4,0.7 12.4,-3.1"/>
<path class="Note" transform="matrix(0.992001,0,0,0.992001,1068.74,494.8)" d="M0,-0.3 C0,9 11.4,13.2 22.5,13.2 C33.4,13.2 42,7.4 42,0.8 C42,-8.9 30.6,-13.4 19.6,-13.4 C11.3,-13.4 0,-9.2 0,-0.3 M12.4,-3.1 C12.4,-6.6 15.1,-10.6 19.5,-10.6 C21.9,-10.6 23.8,-9.9 25.5,-8.2 C27.5,-6.2 29.7,0.2 29.7,3.4 C29.7,6.9 26.7,10.9 22.3,10.9 C19.6,10.9 17.8,10.1 15.9,8 C14.4,6.4 12.4,0.7 12.4,-3.1"/>
<path class="Note" transform="matrix(0.992001,0,0,0.992001,363.764,494.8)" d="M0,-0.3 C0,9 11.4,13.2 22.5,13.2 C33.4,13.2 42,7.4 42,0.8 C42,-8.9 30.6,-13.4 19.6,-13.4 C11.3,-13.4 0,-9.2 0,-0.3 M12.4,-3.1 C12.4,-6.6 15.1,-10.6 19.5,-10.6 C21.9,-10.6 23.8,-9.9 25.5,-8.2 C27.5,-6.2 29.7,0.2 29.7,3.4 C29.7,6.9 26.7,10.9 22.3,10.9 C19.6,10.9 17.8,10.1 15.9,8 C14.4,6.4 12.4,0.7 12.4,-3.1"/>
<path class="Note" transform="matrix(0.992001,0,0,0.992001,363.764,581.6)" d="M0,-0.3 C0,9 11.4,13.2 22.5,13.2 C33.4,13.2 42,7.4 42,0.8 C42,-8.9 30.6,-13.4 19.6,-13.4 C11.3,-13.4 0,-9.2 0,-0.3 M12.4,-3.1 C12.4,-6.6 15.1,-10.6 19.5,-10.6 C21.9,-10.6 23.8,-9.9 25.5,-8.2 C27.5,-6.2 29.7,0.2 29.7,3.4 C29.7,6.9 26.7,10.9 22.3,10.9 C19.6,10.9 17.8,10.1 15.9,8 C14.4,6.4 12.4,0.7 12.4,-3.1"/>
<path class="Clef" transform="matrix(0.992001,0,0,0.992001,201.743,212.8)" d="M51.7,2.8 C51.7,-11.4 42,-25 24.8,-25 C8,-25 0,-13.6 0,-1.5 C0,5.3 4.9,11 11,11 C17.5,11 21.6,6 21.6,0.9 C21.6,-4.1 18.7,-9.1 13,-9.1 C8.9,-9.1 6.8,-7.1 5.9,-7.1 C5.1,-7.1 5.1,-8.3 5.1,-8.6 C5.1,-15.7 14.3,-22.1 22.3,-22.1 C31.5,-22.1 37.2,-12.6 37.2,2 C37.2,24.4 27.4,46.5 -4.3,57.1 L-3.6,58.6 C26.3,54.7 51.7,30.9 51.7,2.8 M55.5,-12.3 C55.5,-9.1 58,-6.9 61.1,-6.9 C64.3,-6.9 66.5,-9.4 66.5,-12.5 C66.5,-15.7 64,-17.7 60.9,-17.7 C57.7,-17.7 55.5,-15.4 55.5,-12.3 M55.4,12.9 C55.5,16.1 58,18.3 61.1,18.3 C64.3,18.3 66.5,15.8 66.5,12.7 C66.5,9.6 64,7.5 60.9,7.5 C57.8,7.5 55.4,9.9 55.4,12.9"/>
<path class="Clef" transform="matrix(0.992001,0,0,0.992001,201.743,457.6)" d="M51.7,2.8 C51.7,-11.4 42,-25 24.8,-25 C8,-25 0,-13.6 0,-1.5 C0,5.3 4.9,11 11,11 C17.5,11 21.6,6 21.6,0.9 C21.6,-4.1 18.7,-9.1 13,-9.1 C8.9,-9.1 6.8,-7.1 5.9,-7.1 C5.1,-7.1 5.1,-8.3 5.1,-8.6 C5.1,-15.7 14.3,-22.1 22.3,-22.1 C31.5,-22.1 37.2,-12.6 37.2,2 C37.2,24.4 27.4,46.5 -4.3,57.1 L-3.6,58.6 C26.3,54.7 51.7,30.9 51.7,2.8 M55.5,-12.3 C55.5,-9.1 58,-6.9 61.1,-6.9 C64.3,-6.9 66.5,-9.4 66.5,-12.5 C66.5,-15.7 64,-17.7 60.9,-17.7 C57.7,-17.7 55.5,-15.4 55.5,-12.3 M55.4,12.9 C55.5,16.1 58,18.3 61.1,18.3 C64.3,18.3 66.5,15.8 66.5,12.7 C66.5,9.6 64,7.5 60.9,7.5 C57.8,7.5 55.4,9.9 55.4,12.9"/>
<path class="StaffText" d="M195.739,123.024 C195.805,121.201 196.122,119.866 196.692,119.02 C197.717,117.523 199.694,116.774 202.624,116.774 C202.901,116.774 203.186,116.782 203.479,116.798 C203.772,116.815 204.105,116.839 204.48,116.872 L204.48,120.876 C204.024,120.843 203.694,120.823 203.491,120.815 C203.287,120.806 203.096,120.802 202.917,120.802 C201.583,120.802 200.785,121.148 200.525,121.84 C200.264,122.532 200.134,124.294 200.134,127.126 L204.48,127.126 L204.48,130.592 L200.085,130.592 L200.085,153.151 L195.739,153.151 L195.739,130.592 L192.102,130.592 L192.102,127.126 L195.739,127.126 L195.739,123.024 M207.042,163.356 C209.63,158.31 211.298,154.632 212.047,152.321 C213.186,148.822 213.756,144.72 213.756,140.016 C213.756,135.312 213.097,131.007 211.778,127.101 C210.965,124.692 209.361,121.226 206.969,116.701 L209.923,116.701 C212.43,120.705 213.947,123.175 214.476,124.11 C215.005,125.046 215.579,126.336 216.197,127.98 C216.979,130.015 217.536,132.025 217.87,134.01 C218.203,135.996 218.37,137.908 218.37,139.748 C218.37,144.565 217.605,148.862 216.075,152.638 C215.115,155.063 213.121,158.636 210.094,163.356 L207.042,163.356 "/>
<path class="StaffText" d="M699.68,598.444 L704.587,598.444 L704.587,634.309 L699.68,634.309 L699.68,598.444 "/>
<path class="StaffText" d="M368.818,607.185 L373.725,607.185 L373.725,643.05 L368.818,643.05 L368.818,607.185 M382.709,607.185 L387.616,607.185 L387.616,643.05 L382.709,643.05 L382.709,607.185 "/>
<polyline class="StaffText" fill="none" stroke="#000000" stroke-width="2.45" stroke-linejoin="bevel" points="363.817,630.216 390.817,630.216" />
<path class="SystemText" d="M298.183,113.737 C298.297,115.771 298.777,117.423 299.624,118.693 C301.235,121.069 304.075,122.257 308.144,122.257 C309.967,122.257 311.627,121.997 313.125,121.476 C316.022,120.467 317.47,118.66 317.47,116.056 C317.47,114.103 316.86,112.712 315.639,111.881 C314.402,111.068 312.465,110.36 309.829,109.757 L304.97,108.659 C301.796,107.943 299.55,107.153 298.232,106.291 C295.953,104.793 294.814,102.555 294.814,99.5768 C294.814,96.3541 295.929,93.7093 298.159,91.6422 C300.389,89.5752 303.546,88.5416 307.631,88.5416 C311.391,88.5416 314.585,89.449 317.214,91.2638 C319.842,93.0786 321.157,95.9798 321.157,99.9674 L316.591,99.9674 C316.347,98.0468 315.826,96.5739 315.029,95.5485 C313.548,93.6767 311.033,92.7409 307.485,92.7409 C304.62,92.7409 302.561,93.3431 301.308,94.5475 C300.055,95.7519 299.428,97.1517 299.428,98.7467 C299.428,100.505 300.161,101.79 301.625,102.604 C302.586,103.125 304.759,103.776 308.144,104.557 L313.173,105.705 C315.598,106.258 317.47,107.015 318.789,107.975 C321.067,109.652 322.207,112.085 322.207,115.275 C322.207,119.246 320.762,122.087 317.873,123.796 C314.984,125.505 311.627,126.359 307.802,126.359 C303.343,126.359 299.851,125.22 297.329,122.941 C294.806,120.679 293.569,117.611 293.618,113.737 L298.183,113.737 M337.85,98.4049 C340.796,98.4049 343.193,99.1211 345.04,100.553 C346.887,101.986 347.998,104.451 348.373,107.951 L344.1,107.951 C343.84,106.339 343.246,105.001 342.318,103.935 C341.39,102.869 339.901,102.336 337.85,102.336 C335.051,102.336 333.049,103.703 331.844,106.437 C331.063,108.211 330.672,110.4 330.672,113.005 C330.672,115.625 331.226,117.83 332.333,119.621 C333.439,121.411 335.181,122.306 337.557,122.306 C339.38,122.306 340.825,121.749 341.891,120.634 C342.957,119.519 343.693,117.993 344.1,116.056 L348.373,116.056 C347.884,119.523 346.664,122.058 344.71,123.661 C342.757,125.264 340.259,126.066 337.215,126.066 C333.797,126.066 331.071,124.817 329.037,122.318 C327.002,119.82 325.985,116.699 325.985,112.956 C325.985,108.366 327.1,104.793 329.33,102.238 C331.559,99.6826 334.4,98.4049 337.85,98.4049 M352.767,89.3229 L357.162,89.3229 L357.162,102.702 C358.203,101.383 359.139,100.456 359.969,99.9186 C361.385,98.9909 363.151,98.527 365.267,98.527 C369.059,98.527 371.631,99.8535 372.982,102.506 C373.714,103.955 374.081,105.965 374.081,108.537 L374.081,125.309 L369.564,125.309 L369.564,108.83 C369.564,106.909 369.32,105.501 368.832,104.606 C368.034,103.174 366.537,102.458 364.339,102.458 C362.516,102.458 360.864,103.084 359.383,104.338 C357.902,105.591 357.162,107.959 357.162,111.442 L357.162,125.309 L352.767,125.309 L352.767,89.3229 M384.958,99.1618 L384.958,116.52 C384.958,117.855 385.17,118.945 385.593,119.792 C386.375,121.354 387.831,122.135 389.963,122.135 C393.023,122.135 395.107,120.768 396.213,118.034 C396.816,116.569 397.117,114.559 397.117,112.004 L397.117,99.1618 L401.511,99.1618 L401.511,125.309 L397.361,125.309 L397.41,121.452 C396.84,122.445 396.132,123.283 395.286,123.966 C393.609,125.334 391.575,126.017 389.182,126.017 C385.455,126.017 382.916,124.772 381.565,122.282 C380.833,120.947 380.466,119.165 380.466,116.935 L380.466,99.1618 L384.958,99.1618 M408.019,89.3229 L412.292,89.3229 L412.292,102.336 C413.252,101.082 414.399,100.126 415.734,99.4669 C417.069,98.8077 418.517,98.4782 420.08,98.4782 C423.335,98.4782 425.976,99.5971 428.002,101.835 C430.028,104.073 431.042,107.373 431.042,111.735 C431.042,115.869 430.041,119.303 428.039,122.038 C426.037,124.772 423.262,126.139 419.713,126.139 C417.728,126.139 416.051,125.659 414.684,124.699 C413.87,124.129 413,123.218 412.072,121.964 L412.072,125.309 L408.019,125.309 L408.019,89.3229 M419.445,122.257 C421.821,122.257 423.599,121.313 424.779,119.425 C425.959,117.537 426.549,115.047 426.549,111.955 C426.549,109.204 425.959,106.925 424.779,105.119 C423.599,103.312 421.862,102.409 419.567,102.409 C417.565,102.409 415.811,103.149 414.306,104.631 C412.8,106.112 412.047,108.553 412.047,111.955 C412.047,114.412 412.357,116.406 412.975,117.936 C414.131,120.817 416.287,122.257 419.445,122.257 M447.046,98.5758 C448.902,98.5758 450.7,99.0112 452.442,99.882 C454.183,100.753 455.51,101.88 456.421,103.263 C457.3,104.582 457.886,106.12 458.179,107.878 C458.44,109.082 458.57,111.003 458.57,113.639 L439.405,113.639 C439.486,116.292 440.113,118.42 441.285,120.024 C442.457,121.627 444.271,122.428 446.729,122.428 C449.024,122.428 450.855,121.672 452.222,120.158 C453.003,119.279 453.557,118.262 453.882,117.106 L458.204,117.106 C458.09,118.066 457.711,119.137 457.068,120.317 C456.425,121.497 455.705,122.461 454.908,123.21 C453.573,124.512 451.921,125.391 449.952,125.846 C448.894,126.107 447.697,126.237 446.363,126.237 C443.108,126.237 440.349,125.053 438.086,122.685 C435.824,120.317 434.693,117 434.693,112.736 C434.693,108.537 435.832,105.127 438.111,102.506 C440.389,99.886 443.368,98.5758 447.046,98.5758 M454.053,110.148 C453.874,108.244 453.459,106.722 452.808,105.583 C451.604,103.467 449.594,102.409 446.778,102.409 C444.76,102.409 443.067,103.137 441.7,104.594 C440.333,106.051 439.608,107.902 439.527,110.148 L454.053,110.148 M464.077,99.1618 L468.251,99.1618 L468.251,103.678 C468.593,102.799 469.431,101.729 470.766,100.468 C472.101,99.2065 473.639,98.5758 475.38,98.5758 C475.462,98.5758 475.6,98.584 475.795,98.6002 C475.991,98.6165 476.324,98.6491 476.796,98.6979 L476.796,103.337 C476.536,103.288 476.296,103.255 476.076,103.239 C475.856,103.223 475.616,103.214 475.356,103.214 C473.142,103.214 471.442,103.927 470.253,105.351 C469.065,106.775 468.471,108.415 468.471,110.27 L468.471,125.309 L464.077,125.309 L464.077,99.1618 M481.474,91.8619 L485.917,91.8619 L485.917,99.1618 L490.092,99.1618 L490.092,102.751 L485.917,102.751 L485.917,119.816 C485.917,120.728 486.227,121.338 486.845,121.647 C487.187,121.826 487.757,121.916 488.554,121.916 C488.766,121.916 488.994,121.912 489.238,121.903 C489.482,121.895 489.767,121.875 490.092,121.842 L490.092,125.309 C489.588,125.456 489.063,125.561 488.518,125.627 C487.972,125.692 487.382,125.724 486.748,125.724 C484.697,125.724 483.305,125.199 482.573,124.15 C481.84,123.1 481.474,121.737 481.474,120.06 L481.474,102.751 L477.934,102.751 L477.934,99.1618 L481.474,99.1618 L481.474,91.8619 M496.805,99.5035 L501.908,99.5035 L501.908,104.826 L496.805,104.826 L496.805,99.5035 M496.805,119.987 L501.908,119.987 L501.908,125.309 L496.805,125.309 L496.805,119.987 "/>
<path class="SystemText" d="M532.371,110.612 L526.926,94.7672 L521.14,110.612 L532.371,110.612 M524.387,89.445 L529.88,89.445 L542.893,125.309 L537.571,125.309 L533.933,114.567 L519.749,114.567 L515.867,125.309 L510.886,125.309 L524.387,89.445 M546.72,99.1618 L551.066,99.1618 L551.066,102.873 C552.108,101.587 553.052,100.651 553.898,100.065 C555.347,99.0722 556.99,98.5758 558.83,98.5758 C560.913,98.5758 562.589,99.0885 563.859,100.114 C564.575,100.7 565.226,101.562 565.812,102.702 C566.789,101.302 567.936,100.264 569.254,99.589 C570.573,98.9135 572.054,98.5758 573.698,98.5758 C577.213,98.5758 579.606,99.8453 580.875,102.384 C581.559,103.752 581.901,105.591 581.901,107.902 L581.901,125.309 L577.335,125.309 L577.335,107.145 C577.335,105.404 576.9,104.207 576.029,103.556 C575.159,102.905 574.097,102.58 572.843,102.58 C571.118,102.58 569.633,103.158 568.388,104.313 C567.143,105.469 566.52,107.397 566.52,110.099 L566.52,125.309 L562.052,125.309 L562.052,108.244 C562.052,106.47 561.841,105.176 561.417,104.362 C560.75,103.141 559.505,102.531 557.682,102.531 C556.022,102.531 554.512,103.174 553.153,104.46 C551.794,105.745 551.115,108.073 551.115,111.442 L551.115,125.309 L546.72,125.309 L546.72,99.1618 "/>
<path class="SystemText" d="M593.825,89.445 L600.783,89.445 L611.085,119.767 L621.315,89.445 L628.2,89.445 L628.2,125.309 L623.585,125.309 L623.585,104.142 C623.585,103.41 623.602,102.197 623.634,100.505 C623.667,98.8118 623.683,96.997 623.683,95.0602 L613.454,125.309 L608.644,125.309 L598.341,95.0602 L598.341,96.1588 C598.341,97.0377 598.362,98.3764 598.402,100.175 C598.443,101.973 598.463,103.296 598.463,104.142 L598.463,125.309 L593.825,125.309 L593.825,89.445 M645.89,98.5758 C647.746,98.5758 649.544,99.0112 651.286,99.882 C653.027,100.753 654.354,101.88 655.265,103.263 C656.144,104.582 656.73,106.12 657.023,107.878 C657.283,109.082 657.414,111.003 657.414,113.639 L638.249,113.639 C638.33,116.292 638.957,118.42 640.128,120.024 C641.3,121.627 643.115,122.428 645.573,122.428 C647.868,122.428 649.699,121.672 651.066,120.158 C651.847,119.279 652.401,118.262 652.726,117.106 L657.047,117.106 C656.933,118.066 656.555,119.137 655.912,120.317 C655.269,121.497 654.549,122.461 653.751,123.21 C652.417,124.512 650.765,125.391 648.795,125.846 C647.737,126.107 646.541,126.237 645.207,126.237 C641.951,126.237 639.193,125.053 636.93,122.685 C634.668,120.317 633.537,117 633.537,112.736 C633.537,108.537 634.676,105.127 636.955,102.506 C639.233,99.886 642.212,98.5758 645.89,98.5758 M652.897,110.148 C652.718,108.244 652.303,106.722 651.652,105.583 C650.447,103.467 648.437,102.409 645.622,102.409 C643.603,102.409 641.911,103.137 640.543,104.594 C639.176,106.051 638.452,107.902 638.371,110.148 L652.897,110.148 M673.687,98.5758 C675.542,98.5758 677.341,99.0112 679.083,99.882 C680.824,100.753 682.151,101.88 683.062,103.263 C683.941,104.582 684.527,106.12 684.82,107.878 C685.08,109.082 685.21,111.003 685.21,113.639 L666.045,113.639 C666.127,116.292 666.753,118.42 667.925,120.024 C669.097,121.627 670.912,122.428 673.37,122.428 C675.665,122.428 677.496,121.672 678.863,120.158 C679.644,119.279 680.197,118.262 680.523,117.106 L684.844,117.106 C684.73,118.066 684.352,119.137 683.709,120.317 C683.066,121.497 682.346,122.461 681.548,123.21 C680.214,124.512 678.562,125.391 676.592,125.846 C675.534,126.107 674.338,126.237 673.003,126.237 C669.748,126.237 666.989,125.053 664.727,122.685 C662.465,120.317 661.333,117 661.333,112.736 C661.333,108.537 662.473,105.127 664.751,102.506 C667.03,99.886 670.009,98.5758 673.687,98.5758 M680.694,110.148 C680.515,108.244 680.1,106.722 679.449,105.583 C678.244,103.467 676.234,102.409 673.418,102.409 C671.4,102.409 669.708,103.137 668.34,104.594 C666.973,106.051 666.249,107.902 666.167,110.148 L680.694,110.148 M690.717,99.1618 L694.892,99.1618 L694.892,103.678 C695.234,102.799 696.072,101.729 697.407,100.468 C698.741,99.2065 700.279,98.5758 702.021,98.5758 C702.102,98.5758 702.241,98.584 702.436,98.6002 C702.631,98.6165 702.965,98.6491 703.437,98.6979 L703.437,103.337 C703.177,103.288 702.937,103.255 702.717,103.239 C702.497,103.223 702.257,103.214 701.997,103.214 C699.783,103.214 698.082,103.927 696.894,105.351 C695.706,106.775 695.112,108.415 695.112,110.27 L695.112,125.309 L690.717,125.309 L690.717,99.1618 "/>
<path class="RehearsalMark" fill="none" stroke="#000000" stroke-width="3.97" stroke-linecap="square" stroke-linejoin="miter" stroke-miterlimit="2" fill-rule="evenodd" d="M98.1905,354.069 C98.1905,371.85 83.7756,386.265 65.994,386.265 C48.2123,386.265 33.7975,371.85 33.7975,354.069 C33.7975,336.287 48.2123,321.872 65.994,321.872 C83.7756,321.872 98.1905,336.287 98.1905,354.069"/>
<path class="RehearsalMark" d="M59.4354,346.313 L59.4354,342.944 C62.6092,342.635 64.8228,342.118 66.076,341.394 C67.3293,340.669 68.2651,338.956 68.8836,336.254 L72.3504,336.254 L72.3504,371.069 L67.6629,371.069 L67.6629,346.313 L59.4354,346.313 "/>
<path class="Bracket" transform="matrix(3.596,0,0,3.44,123.5,532)" d="M0,-50 C4.7,-46.9 6.6,-44.6 6.6,-39.6 C6.6,-36.5 3.3,-24 3.3,-19.5 C3.3,-10.5 6.9,-4.5 12,0 L12.3,-1.2 C8.2,-5.6 6.9,-11.4 6.9,-16.8 C6.9,-22.6 9.4,-32.7 9.4,-37.3 C9.4,-43.4 6.8,-46.8 1.8,-50 C6.8,-53.2 9.4,-56.6 9.4,-62.7 C9.4,-67.3 6.9,-77.4 6.9,-83.2 C6.9,-88.6 8.2,-94.3 12.3,-98.7 L12,-99.9 C6.9,-95.4 3.3,-89.5 3.3,-80.5 C3.3,-76 6.6,-63.5 6.6,-60.4 C6.6,-55.4 4.7,-53.1 0,-50"/>
</svg>
