<?xml version="1.0" encoding="UTF-8" standalone="no"?>
<svg width="127mm" height="50.8mm" viewBox="0 0 1800 720"
 xmlns="http://www.w3.org/2000/svg" xmlns:xlink="http://www.w3.org/1999/xlink" version="1.2" baseProfile="full">
<title>sfoh-ex-02-a</title>
<desc>Generated by MuseScore Studio 4.6.4</desc>
<polyline class="StaffLines" fill="none" stroke="#000000" stroke-width="2.26" stroke-linejoin="bevel" points="176.4,188 1713.6,188" />
<polyline class="StaffLines" fill="none" stroke="#000000" stroke-width="2.26" stroke-linejoin="bevel" points="176.4,212.8 1713.6,212.8" />
<polyline class="StaffLines" fill="none" stroke="#000000" stroke-width="2.26" stroke-linejoin="bevel" points="176.4,237.6 1713.6,237.6" />
<polyline class="StaffLines" fill="none" stroke="#000000" stroke-width="2.26" stroke-linejoin="bevel" points="176.4,262.4 1713.6,262.4" />
<polyline class="StaffLines" fill="none" stroke="#000000" stroke-width="2.26" stroke-linejoin="bevel" points="176.4,287.2 1713.6,287.2" />
<polyline class="StaffLines" fill="none" stroke="#000000" stroke-width="2.26" stroke-linejoin="bevel" points="176.4,432.8 1713.6,432.8" />
<polyline class="StaffLines" fill="none" stroke="#000000" stroke-width="2.26" stroke-linejoin="bevel" points="176.4,457.6 1713.6,457.6" />
<polyline class="StaffLines" fill="none" stroke="#000000" stroke-width="2.26" stroke-linejoin="bevel" points="176.4,482.4 1713.6,482.4" />
<polyline class="StaffLines" fill="none" stroke="#000000" stroke-width="2.26" stroke-linejoin="bevel" points="176.4,507.2 1713.6,507.2" />
<polyline class="StaffLines" fill="none" stroke="#000000" stroke-width="2.26" stroke-linejoin="bevel" points="176.4,532 1713.6,532" />
<polyline class="BarLine" fill="none" stroke="#000000" stroke-width="2.48" stroke-linejoin="bevel" points="177.64,186.872 177.64,432.8" />
<polyline class="BarLine" fill="none" stroke="#000000" stroke-width="2.48" stroke-linejoin="bevel" points="1697.48,186.872 1697.48,432.8" />
<polyline class="BarLine" fill="none" stroke="#000000" stroke-width="2.48" stroke-linejoin="bevel" points="1712.36,186.872 1712.36,432.8" />
<polyline class="BarLine" fill="none" stroke="#000000" stroke-width="2.48" stroke-linejoin="bevel" points="687.649,186.872 687.649,432.8" />
<polyline class="BarLine" fill="none" stroke="#000000" stroke-width="2.48" stroke-linejoin="bevel" points="1360.87,186.872 1360.87,432.8" />
<polyline class="BarLine" fill="none" stroke="#000000" stroke-width="2.48" stroke-linejoin="bevel" points="1024.26,186.872 1024.26,432.8" />
<polyline class="BarLine" fill="none" stroke="#000000" stroke-width="2.48" stroke-linejoin="bevel" points="687.649,431.671 687.649,533.128" />
<polyline class="BarLine" fill="none" stroke="#000000" stroke-width="2.48" stroke-linejoin="bevel" points="177.64,431.671 177.64,533.128" />
<polyline class="BarLine" fill="none" stroke="#000000" stroke-width="2.48" stroke-linejoin="bevel" points="1697.48,431.671 1697.48,533.128" />
<polyline class="BarLine" fill="none" stroke="#000000" stroke-width="2.48" stroke-linejoin="bevel" points="1712.36,431.671 1712.36,533.128" />
<polyline class="BarLine" fill="none" stroke="#000000" stroke-width="2.48" stroke-linejoin="bevel" points="1360.87,431.671 1360.87,533.128" />
<polyline class="BarLine" fill="none" stroke="#000000" stroke-width="2.48" stroke-linejoin="bevel" points="1024.26,431.671 1024.26,533.128" />
<polyline class="LedgerLine" fill="none" stroke="#000000" stroke-width="2.73" stroke-linejoin="bevel" points="1487.95,312 1531.9,312" />
<polyline class="LedgerLine" fill="none" stroke="#000000" stroke-width="2.73" stroke-linejoin="bevel" points="1487.95,336.8 1531.9,336.8" />
<polyline class="LedgerLine" fill="none" stroke="#000000" stroke-width="2.73" stroke-linejoin="bevel" points="478.122,312 522.065,312" />
<polyline class="LedgerLine" fill="none" stroke="#000000" stroke-width="2.73" stroke-linejoin="bevel" points="478.122,336.8 522.065,336.8" />
<polyline class="LedgerLine" fill="none" stroke="#000000" stroke-width="2.73" stroke-linejoin="bevel" points="915.776,336.8 959.718,336.8" />
<polyline class="LedgerLine" fill="none" stroke="#000000" stroke-width="2.73" stroke-linejoin="bevel" points="1252.39,336.8 1296.33,336.8" />
<polyline class="LedgerLine" fill="none" stroke="#000000" stroke-width="2.73" stroke-linejoin="bevel" points="1252.39,312 1296.33,312" />
<polyline class="LedgerLine" fill="none" stroke="#000000" stroke-width="2.73" stroke-linejoin="bevel" points="915.776,312 959.718,312" />
<polyline class="LedgerLine" fill="none" stroke="#000000" stroke-width="2.73" stroke-linejoin="bevel" points="814.732,312 858.675,312" />
<polyline class="LedgerLine" fill="none" stroke="#000000" stroke-width="2.73" stroke-linejoin="bevel" points="579.166,312 623.108,312" />
<polyline class="LedgerLine" fill="none" stroke="#000000" stroke-width="2.73" stroke-linejoin="bevel" points="579.166,336.8 623.108,336.8" />
<polyline class="LedgerLine" fill="none" stroke="#000000" stroke-width="2.73" stroke-linejoin="bevel" points="1151.34,336.8 1195.29,336.8" />
<polyline class="LedgerLine" fill="none" stroke="#000000" stroke-width="2.73" stroke-linejoin="bevel" points="1151.34,312 1195.29,312" />
<polyline class="LedgerLine" fill="none" stroke="#000000" stroke-width="2.73" stroke-linejoin="bevel" points="1589,312 1632.94,312" />
<polyline class="LedgerLine" fill="none" stroke="#000000" stroke-width="2.73" stroke-linejoin="bevel" points="1589,336.8 1632.94,336.8" />
<polyline class="LedgerLine" fill="none" stroke="#000000" stroke-width="2.73" stroke-linejoin="bevel" points="814.732,336.8 858.675,336.8" />
<polyline class="Stem" fill="none" stroke="#000000" stroke-width="2.26" stroke-linejoin="bevel" points="1289,345.728 1289,188" />
<polyline class="Stem" fill="none" stroke="#000000" stroke-width="2.26" stroke-linejoin="bevel" points="1187.96,345.728 1187.96,188" />
<polyline class="Stem" fill="none" stroke="#000000" stroke-width="2.26" stroke-linejoin="bevel" points="851.35,345.728 851.35,200.4" />
<polyline class="Stem" fill="none" stroke="#000000" stroke-width="2.26" stroke-linejoin="bevel" points="615.783,345.728 615.783,200.4" />
<polyline class="Stem" fill="none" stroke="#000000" stroke-width="2.26" stroke-linejoin="bevel" points="514.739,345.728 514.739,200.4" />
<polyline class="Stem" fill="none" stroke="#000000" stroke-width="2.26" stroke-linejoin="bevel" points="1524.57,345.728 1524.57,188" />
<polyline class="Stem" fill="none" stroke="#000000" stroke-width="2.26" stroke-linejoin="bevel" points="1625.61,345.728 1625.61,188" />
<polyline class="Stem" fill="none" stroke="#000000" stroke-width="2.26" stroke-linejoin="bevel" points="952.393,345.728 952.393,200.4" />
<polyline class="Stem" fill="none" stroke="#000000" stroke-width="2.26" stroke-linejoin="bevel" points="1086.92,478.928 1086.92,408" />
<polyline class="Stem" fill="none" stroke="#000000" stroke-width="2.26" stroke-linejoin="bevel" points="750.306,528.528 750.306,445.2" />
<polyline class="Stem" fill="none" stroke="#000000" stroke-width="2.26" stroke-linejoin="bevel" points="1423.53,528.528 1423.53,445.2" />
<polyline class="Stem" fill="none" stroke="#000000" stroke-width="2.26" stroke-linejoin="bevel" points="413.696,491.328 413.696,414.2" />
<path class="Note" transform="matrix(0.992001,0,0,0.992001,921.976,312)" d="M0,4 C0,9.3 4.3,13.2 11.1,13.2 C20.6,13.2 31.8,5.6 31.8,-3.5 C31.8,-8.8 27.5,-12.6 20.6,-12.6 C11.4,-12.6 0,-5.5 0,4"/>
<path class="Note" transform="matrix(0.992001,0,0,0.992001,484.322,312)" d="M0,4 C0,9.3 4.3,13.2 11.1,13.2 C20.6,13.2 31.8,5.6 31.8,-3.5 C31.8,-8.8 27.5,-12.6 20.6,-12.6 C11.4,-12.6 0,-5.5 0,4"/>
<path class="Note" transform="matrix(0.992001,0,0,0.992001,921.976,349.2)" d="M0,4 C0,9.3 4.3,13.2 11.1,13.2 C20.6,13.2 31.8,5.6 31.8,-3.5 C31.8,-8.8 27.5,-12.6 20.6,-12.6 C11.4,-12.6 0,-5.5 0,4"/>
<path class="Note" transform="matrix(0.992001,0,0,0.992001,820.933,287.2)" d="M0,4 C0,9.3 4.3,13.2 11.1,13.2 C20.6,13.2 31.8,5.6 31.8,-3.5 C31.8,-8.8 27.5,-12.6 20.6,-12.6 C11.4,-12.6 0,-5.5 0,4"/>
<path class="Note" transform="matrix(0.992001,0,0,0.992001,921.976,287.2)" d="M0,4 C0,9.3 4.3,13.2 11.1,13.2 C20.6,13.2 31.8,5.6 31.8,-3.5 C31.8,-8.8 27.5,-12.6 20.6,-12.6 C11.4,-12.6 0,-5.5 0,4"/>
<path class="Note" transform="matrix(0.992001,0,0,0.992001,1494.15,324.4)" d="M0,4 C0,9.3 4.3,13.2 11.1,13.2 C20.6,13.2 31.8,5.6 31.8,-3.5 C31.8,-8.8 27.5,-12.6 20.6,-12.6 C11.4,-12.6 0,-5.5 0,4"/>
<path class="Note" transform="matrix(0.992001,0,0,0.992001,820.933,312)" d="M0,4 C0,9.3 4.3,13.2 11.1,13.2 C20.6,13.2 31.8,5.6 31.8,-3.5 C31.8,-8.8 27.5,-12.6 20.6,-12.6 C11.4,-12.6 0,-5.5 0,4"/>
<path class="Note" transform="matrix(0.992001,0,0,0.992001,820.933,349.2)" d="M0,4 C0,9.3 4.3,13.2 11.1,13.2 C20.6,13.2 31.8,5.6 31.8,-3.5 C31.8,-8.8 27.5,-12.6 20.6,-12.6 C11.4,-12.6 0,-5.5 0,4"/>
<path class="Note" transform="matrix(0.992001,0,0,0.992001,1494.15,274.8)" d="M0,4 C0,9.3 4.3,13.2 11.1,13.2 C20.6,13.2 31.8,5.6 31.8,-3.5 C31.8,-8.8 27.5,-12.6 20.6,-12.6 C11.4,-12.6 0,-5.5 0,4"/>
<path class="Note" transform="matrix(0.992001,0,0,0.992001,484.322,349.2)" d="M0,4 C0,9.3 4.3,13.2 11.1,13.2 C20.6,13.2 31.8,5.6 31.8,-3.5 C31.8,-8.8 27.5,-12.6 20.6,-12.6 C11.4,-12.6 0,-5.5 0,4"/>
<path class="Note" transform="matrix(0.992001,0,0,0.992001,1258.59,274.8)" d="M0,4 C0,9.3 4.3,13.2 11.1,13.2 C20.6,13.2 31.8,5.6 31.8,-3.5 C31.8,-8.8 27.5,-12.6 20.6,-12.6 C11.4,-12.6 0,-5.5 0,4"/>
<path class="Note" transform="matrix(0.992001,0,0,0.992001,1258.59,324.4)" d="M0,4 C0,9.3 4.3,13.2 11.1,13.2 C20.6,13.2 31.8,5.6 31.8,-3.5 C31.8,-8.8 27.5,-12.6 20.6,-12.6 C11.4,-12.6 0,-5.5 0,4"/>
<path class="Note" transform="matrix(0.992001,0,0,0.992001,1258.59,349.2)" d="M0,4 C0,9.3 4.3,13.2 11.1,13.2 C20.6,13.2 31.8,5.6 31.8,-3.5 C31.8,-8.8 27.5,-12.6 20.6,-12.6 C11.4,-12.6 0,-5.5 0,4"/>
<path class="Note" transform="matrix(0.992001,0,0,0.992001,1595.2,274.8)" d="M0,4 C0,9.3 4.3,13.2 11.1,13.2 C20.6,13.2 31.8,5.6 31.8,-3.5 C31.8,-8.8 27.5,-12.6 20.6,-12.6 C11.4,-12.6 0,-5.5 0,4"/>
<path class="Note" transform="matrix(0.992001,0,0,0.992001,585.366,287.2)" d="M0,4 C0,9.3 4.3,13.2 11.1,13.2 C20.6,13.2 31.8,5.6 31.8,-3.5 C31.8,-8.8 27.5,-12.6 20.6,-12.6 C11.4,-12.6 0,-5.5 0,4"/>
<path class="Note" transform="matrix(0.992001,0,0,0.992001,585.366,312)" d="M0,4 C0,9.3 4.3,13.2 11.1,13.2 C20.6,13.2 31.8,5.6 31.8,-3.5 C31.8,-8.8 27.5,-12.6 20.6,-12.6 C11.4,-12.6 0,-5.5 0,4"/>
<path class="Note" transform="matrix(0.992001,0,0,0.992001,585.366,349.2)" d="M0,4 C0,9.3 4.3,13.2 11.1,13.2 C20.6,13.2 31.8,5.6 31.8,-3.5 C31.8,-8.8 27.5,-12.6 20.6,-12.6 C11.4,-12.6 0,-5.5 0,4"/>
<path class="Note" transform="matrix(0.992001,0,0,0.992001,1157.54,349.2)" d="M0,4 C0,9.3 4.3,13.2 11.1,13.2 C20.6,13.2 31.8,5.6 31.8,-3.5 C31.8,-8.8 27.5,-12.6 20.6,-12.6 C11.4,-12.6 0,-5.5 0,4"/>
<path class="Note" transform="matrix(0.992001,0,0,0.992001,1157.54,324.4)" d="M0,4 C0,9.3 4.3,13.2 11.1,13.2 C20.6,13.2 31.8,5.6 31.8,-3.5 C31.8,-8.8 27.5,-12.6 20.6,-12.6 C11.4,-12.6 0,-5.5 0,4"/>
<path class="Note" transform="matrix(0.992001,0,0,0.992001,1157.54,274.8)" d="M0,4 C0,9.3 4.3,13.2 11.1,13.2 C20.6,13.2 31.8,5.6 31.8,-3.5 C31.8,-8.8 27.5,-12.6 20.6,-12.6 C11.4,-12.6 0,-5.5 0,4"/>
<path class="Note" transform="matrix(0.992001,0,0,0.992001,1595.2,324.4)" d="M0,4 C0,9.3 4.3,13.2 11.1,13.2 C20.6,13.2 31.8,5.6 31.8,-3.5 C31.8,-8.8 27.5,-12.6 20.6,-12.6 C11.4,-12.6 0,-5.5 0,4"/>
<path class="Note" transform="matrix(0.992001,0,0,0.992001,1595.2,349.2)" d="M0,4 C0,9.3 4.3,13.2 11.1,13.2 C20.6,13.2 31.8,5.6 31.8,-3.5 C31.8,-8.8 27.5,-12.6 20.6,-12.6 C11.4,-12.6 0,-5.5 0,4"/>
<path class="Note" transform="matrix(0.992001,0,0,0.992001,484.322,287.2)" d="M0,4 C0,9.3 4.3,13.2 11.1,13.2 C20.6,13.2 31.8,5.6 31.8,-3.5 C31.8,-8.8 27.5,-12.6 20.6,-12.6 C11.4,-12.6 0,-5.5 0,4"/>
<path class="Note" transform="matrix(0.992001,0,0,0.992001,1494.15,349.2)" d="M0,4 C0,9.3 4.3,13.2 11.1,13.2 C20.6,13.2 31.8,5.6 31.8,-3.5 C31.8,-8.8 27.5,-12.6 20.6,-12.6 C11.4,-12.6 0,-5.5 0,4"/>
<path class="Note" transform="matrix(0.992001,0,0,0.992001,1056.5,482.4)" d="M0,4 C0,9.3 4.3,13.2 11.1,13.2 C20.6,13.2 31.8,5.6 31.8,-3.5 C31.8,-8.8 27.5,-12.6 20.6,-12.6 C11.4,-12.6 0,-5.5 0,4"/>
<path class="Note" transform="matrix(0.992001,0,0,0.992001,719.889,532)" d="M0,4 C0,9.3 4.3,13.2 11.1,13.2 C20.6,13.2 31.8,5.6 31.8,-3.5 C31.8,-8.8 27.5,-12.6 20.6,-12.6 C11.4,-12.6 0,-5.5 0,4"/>
<path class="Note" transform="matrix(0.992001,0,0,0.992001,1393.11,532)" d="M0,4 C0,9.3 4.3,13.2 11.1,13.2 C20.6,13.2 31.8,5.6 31.8,-3.5 C31.8,-8.8 27.5,-12.6 20.6,-12.6 C11.4,-12.6 0,-5.5 0,4"/>
<path class="Note" transform="matrix(0.992001,0,0,0.992001,383.279,494.8)" d="M0,4 C0,9.3 4.3,13.2 11.1,13.2 C20.6,13.2 31.8,5.6 31.8,-3.5 C31.8,-8.8 27.5,-12.6 20.6,-12.6 C11.4,-12.6 0,-5.5 0,4"/>
<path class="Clef" transform="matrix(0.992001,0,0,0.992001,201.743,262.4)" d="M48.8,-101.5 C52.4,-101.5 54.8,-97.4 54.8,-91.9 C54.8,-81.9 43,-69.7 35,-63.4 C34.6,-65.9 34.5,-68.4 34.5,-71 C34.5,-85.8 40,-101.5 48.8,-101.5 M42.9,-14.5 C54.6,-14.3 60.2,-7.2 60.2,3.6 C60.2,11.1 56.1,18.9 48.6,21.1 L42.9,-14.5 M46.2,21.9 C43.5,22.6 40.8,22.9 38.2,22.9 C20.7,22.9 6.8,9.4 6.8,-5.9 C6.8,-21.4 23.1,-36.5 35.3,-45.5 L38.3,-27.1 C26.4,-24.6 20.5,-13.8 20.5,-6 C20.5,3.1 25.9,10.6 33.8,13.4 L34.8,12.3 C30.3,10.1 26.9,3.2 26.9,-1.2 C26.9,-5.4 30.1,-12.9 40.2,-14.3 L46.2,21.9 M46.7,25.2 C48.1,32.1 49.9,46.8 49.9,49.4 C49.9,59.5 42.4,66.4 33.8,66.4 C28.2,66.4 24.3,64.3 23,62.5 C30.8,60.3 34.1,55.7 34.1,51 C34.1,45.1 28.7,40.9 23.7,40.9 C15.9,40.9 12.8,47.7 12.8,53.7 C12.8,65.1 25.5,69 33.2,69 C46.7,69 52.5,58.7 52.5,50.2 C52.5,47.3 50.4,30.6 49.2,24.5 C60.4,20.7 68.3,9.4 68.3,-2.4 C68.3,-16.4 59.1,-27.7 43.6,-27.7 C42.7,-27.7 41.8,-27.7 40.9,-27.6 L37.6,-47 C44,-52.1 48.3,-56.8 51.8,-62.7 C56.1,-70 58.9,-77 58.9,-89.2 C58.9,-100.3 51.7,-117 47.3,-117 C41.4,-117 33.7,-102.6 32.2,-95.8 C31.1,-91 30.6,-85.2 30.6,-81.4 C30.6,-74.2 31.5,-68 32.5,-61.3 C16.9,-49.8 0,-33.7 0,-13.5 C0,11 18.3,26.1 38.7,26.1 C41.6,26.1 44.2,25.7 46.7,25.2"/>
<path class="Clef" transform="matrix(0.992001,0,0,0.992001,201.743,457.6)" d="M51.7,2.8 C51.7,-11.4 42,-25 24.8,-25 C8,-25 0,-13.6 0,-1.5 C0,5.3 4.9,11 11,11 C17.5,11 21.6,6 21.6,0.9 C21.6,-4.1 18.7,-9.1 13,-9.1 C8.9,-9.1 6.8,-7.1 5.9,-7.1 C5.1,-7.1 5.1,-8.3 5.1,-8.6 C5.1,-15.7 14.3,-22.1 22.3,-22.1 C31.5,-22.1 37.2,-12.6 37.2,2 C37.2,24.4 27.4,46.5 -4.3,57.1 L-3.6,58.6 C26.3,54.7 51.7,30.9 51.7,2.8 M55.5,-12.3 C55.5,-9.1 58,-6.9 61.1,-6.9 C64.3,-6.9 66.5,-9.4 66.5,-12.5 C66.5,-15.7 64,-17.7 60.9,-17.7 C57.7,-17.7 55.5,-15.4 55.5,-12.3 M55.4,12.9 C55.5,16.1 58,18.3 61.1,18.3 C64.3,18.3 66.5,15.8 66.5,12.7 C66.5,9.6 64,7.5 60.9,7.5 C57.8,7.5 55.4,9.9 55.4,12.9"/>
<path class="TimeSig" transform="matrix(0.992001,0,0,0.992001,293.456,213.296)" d="M39.4,9.9 C39.4,3 32.6,-0.2 25.4,-0.8 C33,-3.1 37.4,-6.6 37.4,-12.5 C37.4,-19.5 30.4,-24.6 22.5,-24.6 C11.2,-24.6 2.9,-20.3 2.9,-11.5 C2.9,-7.9 6.7,-4.1 10.4,-4.1 C14.2,-4.1 17.8,-7.3 17.8,-10.2 C17.8,-15.4 12.9,-16.5 12.9,-19.2 C12.9,-20.5 14.5,-21.7 17,-21.7 C21.7,-21.7 25.4,-18.5 25.4,-11.9 C25.4,-5.6 21.1,-2.4 12.7,-1.4 L12.6,1.2 C22.4,2.3 26.9,3.7 26.9,10.2 C26.9,16.2 22.5,22.4 17.4,22.4 C15.1,22.4 13,21.5 13,19.5 C13,16.2 16.6,15.5 16.6,10.6 C16.6,6.3 12.7,4.2 9,4.2 C4.7,4.2 2,7.9 2,11.4 C2,19.9 10,24.6 19.8,24.6 C30.6,24.6 39.4,17.7 39.4,9.9"/>
<path class="TimeSig" transform="matrix(0.992001,0,0,0.992001,292.325,261.943)" d="M41.7,11 L41.7,8.2 L34.5,8.2 L34.5,-17.5 L22.3,-4.1 L22.3,8.2 L6.8,8.2 C14.5,-0.9 27.2,-13.5 34.4,-25 L17.1,-25 C15.4,-12.1 10.5,-1.3 2,9.1 L3.8,11 L22.3,11 L22.3,17.8 C22.3,20.9 19.4,21.5 17.5,21.5 L17.5,24.1 L39.2,24.1 L39.2,21.5 C37,21.5 34.5,20.8 34.5,17.6 L34.5,11 L41.7,11 "/>
<path class="TimeSig" transform="matrix(0.992001,0,0,0.992001,293.456,458.096)" d="M39.4,9.9 C39.4,3 32.6,-0.2 25.4,-0.8 C33,-3.1 37.4,-6.6 37.4,-12.5 C37.4,-19.5 30.4,-24.6 22.5,-24.6 C11.2,-24.6 2.9,-20.3 2.9,-11.5 C2.9,-7.9 6.7,-4.1 10.4,-4.1 C14.2,-4.1 17.8,-7.3 17.8,-10.2 C17.8,-15.4 12.9,-16.5 12.9,-19.2 C12.9,-20.5 14.5,-21.7 17,-21.7 C21.7,-21.7 25.4,-18.5 25.4,-11.9 C25.4,-5.6 21.1,-2.4 12.7,-1.4 L12.6,1.2 C22.4,2.3 26.9,3.7 26.9,10.2 C26.9,16.2 22.5,22.4 17.4,22.4 C15.1,22.4 13,21.5 13,19.5 C13,16.2 16.6,15.5 16.6,10.6 C16.6,6.3 12.7,4.2 9,4.2 C4.7,4.2 2,7.9 2,11.4 C2,19.9 10,24.6 19.8,24.6 C30.6,24.6 39.4,17.7 39.4,9.9"/>
<path class="TimeSig" transform="matrix(0.992001,0,0,0.992001,292.325,506.742)" d="M41.7,11 L41.7,8.2 L34.5,8.2 L34.5,-17.5 L22.3,-4.1 L22.3,8.2 L6.8,8.2 C14.5,-0.9 27.2,-13.5 34.4,-25 L17.1,-25 C15.4,-12.1 10.5,-1.3 2,9.1 L3.8,11 L22.3,11 L22.3,17.8 C22.3,20.9 19.4,21.5 17.5,21.5 L17.5,24.1 L39.2,24.1 L39.2,21.5 C37,21.5 34.5,20.8 34.5,17.6 L34.5,11 L41.7,11 "/>
<path class="Rest" transform="matrix(0.992001,0,0,0.992001,1056.5,237.6)" d="M25.1,20.1 C22.6,16.3 14.5,9.5 14.5,1.7 C14.5,-3.5 19,-10.9 23.1,-15.8 L4.9,-38.7 L3.5,-37.7 C6.1,-33.7 10.5,-27 10.5,-22.3 C10.5,-17.9 7.3,-12.6 5,-9 C3.8,-7 1.8,-5.5 1.8,-4.2 C1.8,-2.2 6.8,4 15.8,12.7 C14.2,12.4 11,11.9 8.7,11.9 C3.1,11.9 0,16.3 0,20.2 C0,26.5 7,32.1 12.9,35.9 L14.1,34.9 C10.9,32.1 9,29 9,26.8 C9,22.3 12.4,19.7 16.8,19.7 C19.7,19.7 22.8,20.8 24.9,21.7 L25.1,20.1 "/>
<path class="Rest" transform="matrix(0.992001,0,0,0.992001,719.889,237.6)" d="M25.1,20.1 C22.6,16.3 14.5,9.5 14.5,1.7 C14.5,-3.5 19,-10.9 23.1,-15.8 L4.9,-38.7 L3.5,-37.7 C6.1,-33.7 10.5,-27 10.5,-22.3 C10.5,-17.9 7.3,-12.6 5,-9 C3.8,-7 1.8,-5.5 1.8,-4.2 C1.8,-2.2 6.8,4 15.8,12.7 C14.2,12.4 11,11.9 8.7,11.9 C3.1,11.9 0,16.3 0,20.2 C0,26.5 7,32.1 12.9,35.9 L14.1,34.9 C10.9,32.1 9,29 9,26.8 C9,22.3 12.4,19.7 16.8,19.7 C19.7,19.7 22.8,20.8 24.9,21.7 L25.1,20.1 "/>
<path class="Rest" transform="matrix(0.992001,0,0,0.992001,1393.11,237.6)" d="M25.1,20.1 C22.6,16.3 14.5,9.5 14.5,1.7 C14.5,-3.5 19,-10.9 23.1,-15.8 L4.9,-38.7 L3.5,-37.7 C6.1,-33.7 10.5,-27 10.5,-22.3 C10.5,-17.9 7.3,-12.6 5,-9 C3.8,-7 1.8,-5.5 1.8,-4.2 C1.8,-2.2 6.8,4 15.8,12.7 C14.2,12.4 11,11.9 8.7,11.9 C3.1,11.9 0,16.3 0,20.2 C0,26.5 7,32.1 12.9,35.9 L14.1,34.9 C10.9,32.1 9,29 9,26.8 C9,22.3 12.4,19.7 16.8,19.7 C19.7,19.7 22.8,20.8 24.9,21.7 L25.1,20.1 "/>
<path class="Rest" transform="matrix(0.992001,0,0,0.992001,383.279,237.6)" d="M25.1,20.1 C22.6,16.3 14.5,9.5 14.5,1.7 C14.5,-3.5 19,-10.9 23.1,-15.8 L4.9,-38.7 L3.5,-37.7 C6.1,-33.7 10.5,-27 10.5,-22.3 C10.5,-17.9 7.3,-12.6 5,-9 C3.8,-7 1.8,-5.5 1.8,-4.2 C1.8,-2.2 6.8,4 15.8,12.7 C14.2,12.4 11,11.9 8.7,11.9 C3.1,11.9 0,16.3 0,20.2 C0,26.5 7,32.1 12.9,35.9 L14.1,34.9 C10.9,32.1 9,29 9,26.8 C9,22.3 12.4,19.7 16.8,19.7 C19.7,19.7 22.8,20.8 24.9,21.7 L25.1,20.1 "/>
<path class="Rest" transform="matrix(0.992001,0,0,0.992001,820.933,482.4)" d="M25.1,20.1 C22.6,16.3 14.5,9.5 14.5,1.7 C14.5,-3.5 19,-10.9 23.1,-15.8 L4.9,-38.7 L3.5,-37.7 C6.1,-33.7 10.5,-27 10.5,-22.3 C10.5,-17.9 7.3,-12.6 5,-9 C3.8,-7 1.8,-5.5 1.8,-4.2 C1.8,-2.2 6.8,4 15.8,12.7 C14.2,12.4 11,11.9 8.7,11.9 C3.1,11.9 0,16.3 0,20.2 C0,26.5 7,32.1 12.9,35.9 L14.1,34.9 C10.9,32.1 9,29 9,26.8 C9,22.3 12.4,19.7 16.8,19.7 C19.7,19.7 22.8,20.8 24.9,21.7 L25.1,20.1 "/>
<path class="Rest" transform="matrix(0.992001,0,0,0.992001,1494.15,482.4)" d="M25.1,20.1 C22.6,16.3 14.5,9.5 14.5,1.7 C14.5,-3.5 19,-10.9 23.1,-15.8 L4.9,-38.7 L3.5,-37.7 C6.1,-33.7 10.5,-27 10.5,-22.3 C10.5,-17.9 7.3,-12.6 5,-9 C3.8,-7 1.8,-5.5 1.8,-4.2 C1.8,-2.2 6.8,4 15.8,12.7 C14.2,12.4 11,11.9 8.7,11.9 C3.1,11.9 0,16.3 0,20.2 C0,26.5 7,32.1 12.9,35.9 L14.1,34.9 C10.9,32.1 9,29 9,26.8 C9,22.3 12.4,19.7 16.8,19.7 C19.7,19.7 22.8,20.8 24.9,21.7 L25.1,20.1 "/>
<path class="Rest" transform="matrix(0.992001,0,0,0.992001,1258.59,482.4)" d="M25.1,20.1 C22.6,16.3 14.5,9.5 14.5,1.7 C14.5,-3.5 19,-10.9 23.1,-15.8 L4.9,-38.7 L3.5,-37.7 C6.1,-33.7 10.5,-27 10.5,-22.3 C10.5,-17.9 7.3,-12.6 5,-9 C3.8,-7 1.8,-5.5 1.8,-4.2 C1.8,-2.2 6.8,4 15.8,12.7 C14.2,12.4 11,11.9 8.7,11.9 C3.1,11.9 0,16.3 0,20.2 C0,26.5 7,32.1 12.9,35.9 L14.1,34.9 C10.9,32.1 9,29 9,26.8 C9,22.3 12.4,19.7 16.8,19.7 C19.7,19.7 22.8,20.8 24.9,21.7 L25.1,20.1 "/>
<path class="Rest" transform="matrix(0.992001,0,0,0.992001,484.322,482.4)" d="M25.1,20.1 C22.6,16.3 14.5,9.5 14.5,1.7 C14.5,-3.5 19,-10.9 23.1,-15.8 L4.9,-38.7 L3.5,-37.7 C6.1,-33.7 10.5,-27 10.5,-22.3 C10.5,-17.9 7.3,-12.6 5,-9 C3.8,-7 1.8,-5.5 1.8,-4.2 C1.8,-2.2 6.8,4 15.8,12.7 C14.2,12.4 11,11.9 8.7,11.9 C3.1,11.9 0,16.3 0,20.2 C0,26.5 7,32.1 12.9,35.9 L14.1,34.9 C10.9,32.1 9,29 9,26.8 C9,22.3 12.4,19.7 16.8,19.7 C19.7,19.7 22.8,20.8 24.9,21.7 L25.1,20.1 "/>
<path class="Rest" transform="matrix(0.992001,0,0,0.992001,1157.54,482.4)" d="M25.1,20.1 C22.6,16.3 14.5,9.5 14.5,1.7 C14.5,-3.5 19,-10.9 23.1,-15.8 L4.9,-38.7 L3.5,-37.7 C6.1,-33.7 10.5,-27 10.5,-22.3 C10.5,-17.9 7.3,-12.6 5,-9 C3.8,-7 1.8,-5.5 1.8,-4.2 C1.8,-2.2 6.8,4 15.8,12.7 C14.2,12.4 11,11.9 8.7,11.9 C3.1,11.9 0,16.3 0,20.2 C0,26.5 7,32.1 12.9,35.9 L14.1,34.9 C10.9,32.1 9,29 9,26.8 C9,22.3 12.4,19.7 16.8,19.7 C19.7,19.7 22.8,20.8 24.9,21.7 L25.1,20.1 "/>
<path class="Rest" transform="matrix(0.992001,0,0,0.992001,1595.2,482.4)" d="M25.1,20.1 C22.6,16.3 14.5,9.5 14.5,1.7 C14.5,-3.5 19,-10.9 23.1,-15.8 L4.9,-38.7 L3.5,-37.7 C6.1,-33.7 10.5,-27 10.5,-22.3 C10.5,-17.9 7.3,-12.6 5,-9 C3.8,-7 1.8,-5.5 1.8,-4.2 C1.8,-2.2 6.8,4 15.8,12.7 C14.2,12.4 11,11.9 8.7,11.9 C3.1,11.9 0,16.3 0,20.2 C0,26.5 7,32.1 12.9,35.9 L14.1,34.9 C10.9,32.1 9,29 9,26.8 C9,22.3 12.4,19.7 16.8,19.7 C19.7,19.7 22.8,20.8 24.9,21.7 L25.1,20.1 "/>
<path class="Rest" transform="matrix(0.992001,0,0,0.992001,585.366,482.4)" d="M25.1,20.1 C22.6,16.3 14.5,9.5 14.5,1.7 C14.5,-3.5 19,-10.9 23.1,-15.8 L4.9,-38.7 L3.5,-37.7 C6.1,-33.7 10.5,-27 10.5,-22.3 C10.5,-17.9 7.3,-12.6 5,-9 C3.8,-7 1.8,-5.5 1.8,-4.2 C1.8,-2.2 6.8,4 15.8,12.7 C14.2,12.4 11,11.9 8.7,11.9 C3.1,11.9 0,16.3 0,20.2 C0,26.5 7,32.1 12.9,35.9 L14.1,34.9 C10.9,32.1 9,29 9,26.8 C9,22.3 12.4,19.7 16.8,19.7 C19.7,19.7 22.8,20.8 24.9,21.7 L25.1,20.1 "/>
<path class="Rest" transform="matrix(0.992001,0,0,0.992001,921.976,482.4)" d="M25.1,20.1 C22.6,16.3 14.5,9.5 14.5,1.7 C14.5,-3.5 19,-10.9 23.1,-15.8 L4.9,-38.7 L3.5,-37.7 C6.1,-33.7 10.5,-27 10.5,-22.3 C10.5,-17.9 7.3,-12.6 5,-9 C3.8,-7 1.8,-5.5 1.8,-4.2 C1.8,-2.2 6.8,4 15.8,12.7 C14.2,12.4 11,11.9 8.7,11.9 C3.1,11.9 0,16.3 0,20.2 C0,26.5 7,32.1 12.9,35.9 L14.1,34.9 C10.9,32.1 9,29 9,26.8 C9,22.3 12.4,19.7 16.8,19.7 C19.7,19.7 22.8,20.8 24.9,21.7 L25.1,20.1 "/>
<path class="StaffText" d="M155.507,152.97 C155.507,154.239 155.971,155.24 156.899,155.972 C157.826,156.705 158.925,157.071 160.194,157.071 C161.741,157.071 163.238,156.713 164.687,155.997 C167.128,154.809 168.349,152.864 168.349,150.162 L168.349,146.622 C167.812,146.964 167.12,147.249 166.274,147.476 C165.427,147.704 164.597,147.867 163.783,147.965 L161.122,148.306 C159.527,148.518 158.331,148.852 157.533,149.307 C156.182,150.072 155.507,151.293 155.507,152.97 M166.151,144.083 C167.161,143.953 167.836,143.529 168.178,142.813 C168.373,142.423 168.471,141.861 168.471,141.129 C168.471,139.631 167.938,138.545 166.872,137.869 C165.806,137.194 164.28,136.856 162.294,136.856 C159.999,136.856 158.371,137.475 157.411,138.712 C156.874,139.395 156.524,140.413 156.361,141.764 L152.26,141.764 C152.341,138.541 153.387,136.299 155.397,135.037 C157.407,133.776 159.739,133.145 162.392,133.145 C165.468,133.145 167.966,133.731 169.887,134.903 C171.791,136.075 172.743,137.898 172.743,140.372 L172.743,155.435 C172.743,155.891 172.837,156.257 173.024,156.534 C173.211,156.811 173.606,156.949 174.208,156.949 C174.403,156.949 174.623,156.937 174.867,156.912 C175.111,156.888 175.372,156.851 175.649,156.803 L175.649,160.05 C174.965,160.245 174.444,160.367 174.086,160.416 C173.728,160.465 173.24,160.489 172.621,160.489 C171.107,160.489 170.009,159.952 169.325,158.878 C168.967,158.308 168.715,157.502 168.568,156.461 C167.673,157.633 166.387,158.65 164.711,159.513 C163.035,160.375 161.187,160.806 159.169,160.806 C156.744,160.806 154.762,160.07 153.224,158.597 C151.686,157.124 150.917,155.281 150.917,153.067 C150.917,150.642 151.674,148.762 153.188,147.428 C154.701,146.093 156.687,145.271 159.145,144.962 L166.151,144.083 M178.445,170.133 C181.033,165.087 182.702,161.409 183.45,159.097 C184.59,155.598 185.159,151.497 185.159,146.793 C185.159,142.089 184.5,137.784 183.182,133.878 C182.368,131.469 180.765,128.002 178.372,123.477 L181.326,123.477 C183.833,127.481 185.35,129.951 185.879,130.887 C186.408,131.823 186.982,133.113 187.601,134.757 C188.382,136.791 188.939,138.801 189.273,140.787 C189.607,142.773 189.774,144.685 189.774,146.524 C189.774,151.342 189.009,155.639 187.479,159.415 C186.518,161.84 184.524,165.413 181.497,170.133 L178.445,170.133 "/>
<path class="StaffText" d="M383.28,558.136 L388.187,558.136 L388.187,594 L383.28,594 L383.28,558.136 "/>
<path class="StaffText" d="M1061.87,558.136 L1072.18,588.678 L1082.36,558.136 L1087.8,558.136 L1074.72,594 L1069.56,594 L1056.5,558.136 L1061.87,558.136 "/>
<path class="RehearsalMark" fill="none" stroke="#000000" stroke-width="3.97" stroke-linecap="square" stroke-linejoin="miter" stroke-miterlimit="2" fill-rule="evenodd" d="M98.8173,337.205 C98.8173,354.857 84.5074,369.167 66.8552,369.167 C49.203,369.167 34.893,354.857 34.893,337.205 C34.893,319.553 49.203,305.243 66.8552,305.243 C84.5074,305.243 98.8173,319.553 98.8173,337.205"/>
<path class="RehearsalMark" d="M54.5583,354.705 C54.721,351.694 55.3436,349.074 56.426,346.844 C57.5083,344.614 59.6201,342.588 62.7614,340.765 L67.4489,338.055 C69.5485,336.834 71.0215,335.792 71.8679,334.93 C73.2025,333.579 73.8698,332.033 73.8698,330.291 C73.8698,328.256 73.2595,326.641 72.0388,325.445 C70.8181,324.248 69.1904,323.65 67.1559,323.65 C64.1449,323.65 62.0615,324.79 60.9059,327.068 C60.2875,328.289 59.9457,329.982 59.8806,332.146 L55.4128,332.146 C55.4616,329.103 56.0231,326.621 57.0973,324.7 C59.0016,321.315 62.3626,319.622 67.1804,319.622 C71.1843,319.622 74.1099,320.704 75.9572,322.869 C77.8045,325.034 78.7282,327.443 78.7282,330.096 C78.7282,332.895 77.7435,335.288 75.7741,337.273 C74.6348,338.429 72.5921,339.829 69.6462,341.473 L66.3014,343.328 C64.7064,344.207 63.4531,345.045 62.5417,345.843 C60.9141,347.259 59.8887,348.829 59.4655,350.555 L78.5573,350.555 L78.5573,354.705 L54.5583,354.705 "/>
<path class="Bracket" transform="matrix(3.596,0,0,3.44,123.5,532)" d="M0,-50 C4.7,-46.9 6.6,-44.6 6.6,-39.6 C6.6,-36.5 3.3,-24 3.3,-19.5 C3.3,-10.5 6.9,-4.5 12,0 L12.3,-1.2 C8.2,-5.6 6.9,-11.4 6.9,-16.8 C6.9,-22.6 9.4,-32.7 9.4,-37.3 C9.4,-43.4 6.8,-46.8 1.8,-50 C6.8,-53.2 9.4,-56.6 9.4,-62.7 C9.4,-67.3 6.9,-77.4 6.9,-83.2 C6.9,-88.6 8.2,-94.3 12.3,-98.7 L12,-99.9 C6.9,-95.4 3.3,-89.5 3.3,-80.5 C3.3,-76 6.6,-63.5 6.6,-60.4 C6.6,-55.4 4.7,-53.1 0,-50"/>
</svg>
