<?xml version="1.0" encoding="UTF-8" standalone="no"?>
<svg width="152.4mm" height="50.8mm" viewBox="0 0 2160 720"
 xmlns="http://www.w3.org/2000/svg" xmlns:xlink="http://www.w3.org/1999/xlink" version="1.2" baseProfile="full">
<title>sfoh-ex-02-b</title>
<desc>Generated by MuseScore Studio 4.6.4</desc>
<polyline class="StaffLines" fill="none" stroke="#000000" stroke-width="2.26" stroke-linejoin="bevel" points="176.4,188 2073.6,188" />
<polyline class="StaffLines" fill="none" stroke="#000000" stroke-width="2.26" stroke-linejoin="bevel" points="176.4,212.8 2073.6,212.8" />
<polyline class="StaffLines" fill="none" stroke="#000000" stroke-width="2.26" stroke-linejoin="bevel" points="176.4,237.6 2073.6,237.6" />
<polyline class="StaffLines" fill="none" stroke="#000000" stroke-width="2.26" stroke-linejoin="bevel" points="176.4,262.4 2073.6,262.4" />
<polyline class="StaffLines" fill="none" stroke="#000000" stroke-width="2.26" stroke-linejoin="bevel" points="176.4,287.2 2073.6,287.2" />
<polyline class="StaffLines" fill="none" stroke="#000000" stroke-width="2.26" stroke-linejoin="bevel" points="176.4,432.8 2073.6,432.8" />
<polyline class="StaffLines" fill="none" stroke="#000000" stroke-width="2.26" stroke-linejoin="bevel" points="176.4,457.6 2073.6,457.6" />
<polyline class="StaffLines" fill="none" stroke="#000000" stroke-width="2.26" stroke-linejoin="bevel" points="176.4,482.4 2073.6,482.4" />
<polyline class="StaffLines" fill="none" stroke="#000000" stroke-width="2.26" stroke-linejoin="bevel" points="176.4,507.2 2073.6,507.2" />
<polyline class="StaffLines" fill="none" stroke="#000000" stroke-width="2.26" stroke-linejoin="bevel" points="176.4,532 2073.6,532" />
<polyline class="BarLine" fill="none" stroke="#000000" stroke-width="2.48" stroke-linejoin="bevel" points="177.64,186.872 177.64,432.8" />
<polyline class="BarLine" fill="none" stroke="#000000" stroke-width="2.48" stroke-linejoin="bevel" points="2057.48,186.872 2057.48,432.8" />
<polyline class="BarLine" fill="none" stroke="#000000" stroke-width="2.48" stroke-linejoin="bevel" points="2072.36,186.872 2072.36,432.8" />
<polyline class="BarLine" fill="none" stroke="#000000" stroke-width="2.48" stroke-linejoin="bevel" points="777.649,186.872 777.649,432.8" />
<polyline class="BarLine" fill="none" stroke="#000000" stroke-width="2.48" stroke-linejoin="bevel" points="1204.26,186.872 1204.26,432.8" />
<polyline class="BarLine" fill="none" stroke="#000000" stroke-width="2.48" stroke-linejoin="bevel" points="1630.87,186.872 1630.87,432.8" />
<polyline class="BarLine" fill="none" stroke="#000000" stroke-width="2.48" stroke-linejoin="bevel" points="1630.87,431.671 1630.87,533.128" />
<polyline class="BarLine" fill="none" stroke="#000000" stroke-width="2.48" stroke-linejoin="bevel" points="177.64,431.671 177.64,533.128" />
<polyline class="BarLine" fill="none" stroke="#000000" stroke-width="2.48" stroke-linejoin="bevel" points="2057.48,431.671 2057.48,533.128" />
<polyline class="BarLine" fill="none" stroke="#000000" stroke-width="2.48" stroke-linejoin="bevel" points="2072.36,431.671 2072.36,533.128" />
<polyline class="BarLine" fill="none" stroke="#000000" stroke-width="2.48" stroke-linejoin="bevel" points="777.649,431.671 777.649,533.128" />
<polyline class="BarLine" fill="none" stroke="#000000" stroke-width="2.48" stroke-linejoin="bevel" points="1204.26,431.671 1204.26,533.128" />
<polyline class="LedgerLine" fill="none" stroke="#000000" stroke-width="2.73" stroke-linejoin="bevel" points="901.972,312 945.914,312" />
<polyline class="LedgerLine" fill="none" stroke="#000000" stroke-width="2.73" stroke-linejoin="bevel" points="475.361,336.8 519.304,336.8" />
<polyline class="LedgerLine" fill="none" stroke="#000000" stroke-width="2.73" stroke-linejoin="bevel" points="475.361,312 519.304,312" />
<polyline class="LedgerLine" fill="none" stroke="#000000" stroke-width="2.73" stroke-linejoin="bevel" points="1525.15,336.8 1569.09,336.8" />
<polyline class="LedgerLine" fill="none" stroke="#000000" stroke-width="2.73" stroke-linejoin="bevel" points="1525.15,312 1569.09,312" />
<polyline class="LedgerLine" fill="none" stroke="#000000" stroke-width="2.73" stroke-linejoin="bevel" points="671.926,312 715.869,312" />
<polyline class="LedgerLine" fill="none" stroke="#000000" stroke-width="2.73" stroke-linejoin="bevel" points="671.926,336.8 715.869,336.8" />
<polyline class="LedgerLine" fill="none" stroke="#000000" stroke-width="2.73" stroke-linejoin="bevel" points="1328.58,336.8 1372.52,336.8" />
<polyline class="LedgerLine" fill="none" stroke="#000000" stroke-width="2.73" stroke-linejoin="bevel" points="1328.58,312 1372.52,312" />
<polyline class="LedgerLine" fill="none" stroke="#000000" stroke-width="2.73" stroke-linejoin="bevel" points="1755.19,312 1799.13,312" />
<polyline class="LedgerLine" fill="none" stroke="#000000" stroke-width="2.73" stroke-linejoin="bevel" points="1098.54,336.8 1142.48,336.8" />
<polyline class="LedgerLine" fill="none" stroke="#000000" stroke-width="2.73" stroke-linejoin="bevel" points="1755.19,336.8 1799.13,336.8" />
<polyline class="LedgerLine" fill="none" stroke="#000000" stroke-width="2.73" stroke-linejoin="bevel" points="1098.54,312 1142.48,312" />
<polyline class="LedgerLine" fill="none" stroke="#000000" stroke-width="2.73" stroke-linejoin="bevel" points="1951.76,312 1995.7,312" />
<polyline class="LedgerLine" fill="none" stroke="#000000" stroke-width="2.73" stroke-linejoin="bevel" points="901.972,336.8 945.914,336.8" />
<polyline class="LedgerLine" fill="none" stroke="#000000" stroke-width="2.73" stroke-linejoin="bevel" points="1951.76,336.8 1995.7,336.8" />
<polyline class="Stem" fill="none" stroke="#000000" stroke-width="2.26" stroke-linejoin="bevel" points="511.979,345.728 511.979,200.4" />
<polyline class="Stem" fill="none" stroke="#000000" stroke-width="2.26" stroke-linejoin="bevel" points="1561.76,345.728 1561.76,188" />
<polyline class="Stem" fill="none" stroke="#000000" stroke-width="2.26" stroke-linejoin="bevel" points="1135.15,345.728 1135.15,200.4" />
<polyline class="Stem" fill="none" stroke="#000000" stroke-width="2.26" stroke-linejoin="bevel" points="1791.81,345.728 1791.81,188" />
<polyline class="Stem" fill="none" stroke="#000000" stroke-width="2.26" stroke-linejoin="bevel" points="708.544,345.728 708.544,200.4" />
<polyline class="Stem" fill="none" stroke="#000000" stroke-width="2.26" stroke-linejoin="bevel" points="1365.2,345.728 1365.2,188" />
<polyline class="Stem" fill="none" stroke="#000000" stroke-width="2.26" stroke-linejoin="bevel" points="1988.37,345.728 1988.37,188" />
<polyline class="Stem" fill="none" stroke="#000000" stroke-width="2.26" stroke-linejoin="bevel" points="938.589,345.728 938.589,200.4" />
<polyline class="Stem" fill="none" stroke="#000000" stroke-width="2.26" stroke-linejoin="bevel" points="610.261,528.528 610.261,445.2" />
<polyline class="Stem" fill="none" stroke="#000000" stroke-width="2.26" stroke-linejoin="bevel" points="840.306,491.328 840.306,414.2" />
<polyline class="Stem" fill="none" stroke="#000000" stroke-width="2.26" stroke-linejoin="bevel" points="1266.92,478.928 1266.92,408" />
<polyline class="Stem" fill="none" stroke="#000000" stroke-width="2.26" stroke-linejoin="bevel" points="1463.48,528.528 1463.48,445.2" />
<polyline class="Stem" fill="none" stroke="#000000" stroke-width="2.26" stroke-linejoin="bevel" points="1693.53,478.928 1693.53,408" />
<polyline class="Stem" fill="none" stroke="#000000" stroke-width="2.26" stroke-linejoin="bevel" points="413.696,491.328 413.696,414.2" />
<polyline class="Stem" fill="none" stroke="#000000" stroke-width="2.26" stroke-linejoin="bevel" points="1890.09,528.528 1890.09,445.2" />
<polyline class="Stem" fill="none" stroke="#000000" stroke-width="2.26" stroke-linejoin="bevel" points="1036.87,528.528 1036.87,445.2" />
<path class="Note" transform="matrix(0.992001,0,0,0.992001,1104.74,312)" d="M0,4 C0,9.3 4.3,13.2 11.1,13.2 C20.6,13.2 31.8,5.6 31.8,-3.5 C31.8,-8.8 27.5,-12.6 20.6,-12.6 C11.4,-12.6 0,-5.5 0,4"/>
<path class="Note" transform="matrix(0.992001,0,0,0.992001,481.561,287.2)" d="M0,4 C0,9.3 4.3,13.2 11.1,13.2 C20.6,13.2 31.8,5.6 31.8,-3.5 C31.8,-8.8 27.5,-12.6 20.6,-12.6 C11.4,-12.6 0,-5.5 0,4"/>
<path class="Note" transform="matrix(0.992001,0,0,0.992001,1957.96,274.8)" d="M0,4 C0,9.3 4.3,13.2 11.1,13.2 C20.6,13.2 31.8,5.6 31.8,-3.5 C31.8,-8.8 27.5,-12.6 20.6,-12.6 C11.4,-12.6 0,-5.5 0,4"/>
<path class="Note" transform="matrix(0.992001,0,0,0.992001,1957.96,324.4)" d="M0,4 C0,9.3 4.3,13.2 11.1,13.2 C20.6,13.2 31.8,5.6 31.8,-3.5 C31.8,-8.8 27.5,-12.6 20.6,-12.6 C11.4,-12.6 0,-5.5 0,4"/>
<path class="Note" transform="matrix(0.992001,0,0,0.992001,1104.74,349.2)" d="M0,4 C0,9.3 4.3,13.2 11.1,13.2 C20.6,13.2 31.8,5.6 31.8,-3.5 C31.8,-8.8 27.5,-12.6 20.6,-12.6 C11.4,-12.6 0,-5.5 0,4"/>
<path class="Note" transform="matrix(0.992001,0,0,0.992001,908.172,287.2)" d="M0,4 C0,9.3 4.3,13.2 11.1,13.2 C20.6,13.2 31.8,5.6 31.8,-3.5 C31.8,-8.8 27.5,-12.6 20.6,-12.6 C11.4,-12.6 0,-5.5 0,4"/>
<path class="Note" transform="matrix(0.992001,0,0,0.992001,1104.74,287.2)" d="M0,4 C0,9.3 4.3,13.2 11.1,13.2 C20.6,13.2 31.8,5.6 31.8,-3.5 C31.8,-8.8 27.5,-12.6 20.6,-12.6 C11.4,-12.6 0,-5.5 0,4"/>
<path class="Note" transform="matrix(0.992001,0,0,0.992001,1957.96,349.2)" d="M0,4 C0,9.3 4.3,13.2 11.1,13.2 C20.6,13.2 31.8,5.6 31.8,-3.5 C31.8,-8.8 27.5,-12.6 20.6,-12.6 C11.4,-12.6 0,-5.5 0,4"/>
<path class="Note" transform="matrix(0.992001,0,0,0.992001,908.172,312)" d="M0,4 C0,9.3 4.3,13.2 11.1,13.2 C20.6,13.2 31.8,5.6 31.8,-3.5 C31.8,-8.8 27.5,-12.6 20.6,-12.6 C11.4,-12.6 0,-5.5 0,4"/>
<path class="Note" transform="matrix(0.992001,0,0,0.992001,908.172,349.2)" d="M0,4 C0,9.3 4.3,13.2 11.1,13.2 C20.6,13.2 31.8,5.6 31.8,-3.5 C31.8,-8.8 27.5,-12.6 20.6,-12.6 C11.4,-12.6 0,-5.5 0,4"/>
<path class="Note" transform="matrix(0.992001,0,0,0.992001,1761.39,274.8)" d="M0,4 C0,9.3 4.3,13.2 11.1,13.2 C20.6,13.2 31.8,5.6 31.8,-3.5 C31.8,-8.8 27.5,-12.6 20.6,-12.6 C11.4,-12.6 0,-5.5 0,4"/>
<path class="Note" transform="matrix(0.992001,0,0,0.992001,1761.39,324.4)" d="M0,4 C0,9.3 4.3,13.2 11.1,13.2 C20.6,13.2 31.8,5.6 31.8,-3.5 C31.8,-8.8 27.5,-12.6 20.6,-12.6 C11.4,-12.6 0,-5.5 0,4"/>
<path class="Note" transform="matrix(0.992001,0,0,0.992001,1761.39,349.2)" d="M0,4 C0,9.3 4.3,13.2 11.1,13.2 C20.6,13.2 31.8,5.6 31.8,-3.5 C31.8,-8.8 27.5,-12.6 20.6,-12.6 C11.4,-12.6 0,-5.5 0,4"/>
<path class="Note" transform="matrix(0.992001,0,0,0.992001,481.561,349.2)" d="M0,4 C0,9.3 4.3,13.2 11.1,13.2 C20.6,13.2 31.8,5.6 31.8,-3.5 C31.8,-8.8 27.5,-12.6 20.6,-12.6 C11.4,-12.6 0,-5.5 0,4"/>
<path class="Note" transform="matrix(0.992001,0,0,0.992001,481.561,312)" d="M0,4 C0,9.3 4.3,13.2 11.1,13.2 C20.6,13.2 31.8,5.6 31.8,-3.5 C31.8,-8.8 27.5,-12.6 20.6,-12.6 C11.4,-12.6 0,-5.5 0,4"/>
<path class="Note" transform="matrix(0.992001,0,0,0.992001,1531.35,274.8)" d="M0,4 C0,9.3 4.3,13.2 11.1,13.2 C20.6,13.2 31.8,5.6 31.8,-3.5 C31.8,-8.8 27.5,-12.6 20.6,-12.6 C11.4,-12.6 0,-5.5 0,4"/>
<path class="Note" transform="matrix(0.992001,0,0,0.992001,678.126,287.2)" d="M0,4 C0,9.3 4.3,13.2 11.1,13.2 C20.6,13.2 31.8,5.6 31.8,-3.5 C31.8,-8.8 27.5,-12.6 20.6,-12.6 C11.4,-12.6 0,-5.5 0,4"/>
<path class="Note" transform="matrix(0.992001,0,0,0.992001,678.126,312)" d="M0,4 C0,9.3 4.3,13.2 11.1,13.2 C20.6,13.2 31.8,5.6 31.8,-3.5 C31.8,-8.8 27.5,-12.6 20.6,-12.6 C11.4,-12.6 0,-5.5 0,4"/>
<path class="Note" transform="matrix(0.992001,0,0,0.992001,678.126,349.2)" d="M0,4 C0,9.3 4.3,13.2 11.1,13.2 C20.6,13.2 31.8,5.6 31.8,-3.5 C31.8,-8.8 27.5,-12.6 20.6,-12.6 C11.4,-12.6 0,-5.5 0,4"/>
<path class="Note" transform="matrix(0.992001,0,0,0.992001,1334.78,349.2)" d="M0,4 C0,9.3 4.3,13.2 11.1,13.2 C20.6,13.2 31.8,5.6 31.8,-3.5 C31.8,-8.8 27.5,-12.6 20.6,-12.6 C11.4,-12.6 0,-5.5 0,4"/>
<path class="Note" transform="matrix(0.992001,0,0,0.992001,1334.78,324.4)" d="M0,4 C0,9.3 4.3,13.2 11.1,13.2 C20.6,13.2 31.8,5.6 31.8,-3.5 C31.8,-8.8 27.5,-12.6 20.6,-12.6 C11.4,-12.6 0,-5.5 0,4"/>
<path class="Note" transform="matrix(0.992001,0,0,0.992001,1334.78,274.8)" d="M0,4 C0,9.3 4.3,13.2 11.1,13.2 C20.6,13.2 31.8,5.6 31.8,-3.5 C31.8,-8.8 27.5,-12.6 20.6,-12.6 C11.4,-12.6 0,-5.5 0,4"/>
<path class="Note" transform="matrix(0.992001,0,0,0.992001,1531.35,324.4)" d="M0,4 C0,9.3 4.3,13.2 11.1,13.2 C20.6,13.2 31.8,5.6 31.8,-3.5 C31.8,-8.8 27.5,-12.6 20.6,-12.6 C11.4,-12.6 0,-5.5 0,4"/>
<path class="Note" transform="matrix(0.992001,0,0,0.992001,1531.35,349.2)" d="M0,4 C0,9.3 4.3,13.2 11.1,13.2 C20.6,13.2 31.8,5.6 31.8,-3.5 C31.8,-8.8 27.5,-12.6 20.6,-12.6 C11.4,-12.6 0,-5.5 0,4"/>
<path class="Note" transform="matrix(0.992001,0,0,0.992001,1006.45,532)" d="M0,4 C0,9.3 4.3,13.2 11.1,13.2 C20.6,13.2 31.8,5.6 31.8,-3.5 C31.8,-8.8 27.5,-12.6 20.6,-12.6 C11.4,-12.6 0,-5.5 0,4"/>
<path class="Note" transform="matrix(0.992001,0,0,0.992001,1663.11,482.4)" d="M0,4 C0,9.3 4.3,13.2 11.1,13.2 C20.6,13.2 31.8,5.6 31.8,-3.5 C31.8,-8.8 27.5,-12.6 20.6,-12.6 C11.4,-12.6 0,-5.5 0,4"/>
<path class="Note" transform="matrix(0.992001,0,0,0.992001,579.844,532)" d="M0,4 C0,9.3 4.3,13.2 11.1,13.2 C20.6,13.2 31.8,5.6 31.8,-3.5 C31.8,-8.8 27.5,-12.6 20.6,-12.6 C11.4,-12.6 0,-5.5 0,4"/>
<path class="Note" transform="matrix(0.992001,0,0,0.992001,1859.67,532)" d="M0,4 C0,9.3 4.3,13.2 11.1,13.2 C20.6,13.2 31.8,5.6 31.8,-3.5 C31.8,-8.8 27.5,-12.6 20.6,-12.6 C11.4,-12.6 0,-5.5 0,4"/>
<path class="Note" transform="matrix(0.992001,0,0,0.992001,1236.5,482.4)" d="M0,4 C0,9.3 4.3,13.2 11.1,13.2 C20.6,13.2 31.8,5.6 31.8,-3.5 C31.8,-8.8 27.5,-12.6 20.6,-12.6 C11.4,-12.6 0,-5.5 0,4"/>
<path class="Note" transform="matrix(0.992001,0,0,0.992001,809.889,494.8)" d="M0,4 C0,9.3 4.3,13.2 11.1,13.2 C20.6,13.2 31.8,5.6 31.8,-3.5 C31.8,-8.8 27.5,-12.6 20.6,-12.6 C11.4,-12.6 0,-5.5 0,4"/>
<path class="Note" transform="matrix(0.992001,0,0,0.992001,1433.06,532)" d="M0,4 C0,9.3 4.3,13.2 11.1,13.2 C20.6,13.2 31.8,5.6 31.8,-3.5 C31.8,-8.8 27.5,-12.6 20.6,-12.6 C11.4,-12.6 0,-5.5 0,4"/>
<path class="Note" transform="matrix(0.992001,0,0,0.992001,383.279,494.8)" d="M0,4 C0,9.3 4.3,13.2 11.1,13.2 C20.6,13.2 31.8,5.6 31.8,-3.5 C31.8,-8.8 27.5,-12.6 20.6,-12.6 C11.4,-12.6 0,-5.5 0,4"/>
<path class="Clef" transform="matrix(0.992001,0,0,0.992001,201.743,262.4)" d="M48.8,-101.5 C52.4,-101.5 54.8,-97.4 54.8,-91.9 C54.8,-81.9 43,-69.7 35,-63.4 C34.6,-65.9 34.5,-68.4 34.5,-71 C34.5,-85.8 40,-101.5 48.8,-101.5 M42.9,-14.5 C54.6,-14.3 60.2,-7.2 60.2,3.6 C60.2,11.1 56.1,18.9 48.6,21.1 L42.9,-14.5 M46.2,21.9 C43.5,22.6 40.8,22.9 38.2,22.9 C20.7,22.9 6.8,9.4 6.8,-5.9 C6.8,-21.4 23.1,-36.5 35.3,-45.5 L38.3,-27.1 C26.4,-24.6 20.5,-13.8 20.5,-6 C20.5,3.1 25.9,10.6 33.8,13.4 L34.8,12.3 C30.3,10.1 26.9,3.2 26.9,-1.2 C26.9,-5.4 30.1,-12.9 40.2,-14.3 L46.2,21.9 M46.7,25.2 C48.1,32.1 49.9,46.8 49.9,49.4 C49.9,59.5 42.4,66.4 33.8,66.4 C28.2,66.4 24.3,64.3 23,62.5 C30.8,60.3 34.1,55.7 34.1,51 C34.1,45.1 28.7,40.9 23.7,40.9 C15.9,40.9 12.8,47.7 12.8,53.7 C12.8,65.1 25.5,69 33.2,69 C46.7,69 52.5,58.7 52.5,50.2 C52.5,47.3 50.4,30.6 49.2,24.5 C60.4,20.7 68.3,9.4 68.3,-2.4 C68.3,-16.4 59.1,-27.7 43.6,-27.7 C42.7,-27.7 41.8,-27.7 40.9,-27.6 L37.6,-47 C44,-52.1 48.3,-56.8 51.8,-62.7 C56.1,-70 58.9,-77 58.9,-89.2 C58.9,-100.3 51.7,-117 47.3,-117 C41.4,-117 33.7,-102.6 32.2,-95.8 C31.1,-91 30.6,-85.2 30.6,-81.4 C30.6,-74.2 31.5,-68 32.5,-61.3 C16.9,-49.8 0,-33.7 0,-13.5 C0,11 18.3,26.1 38.7,26.1 C41.6,26.1 44.2,25.7 46.7,25.2"/>
<path class="Clef" transform="matrix(0.992001,0,0,0.992001,201.743,457.6)" d="M51.7,2.8 C51.7,-11.4 42,-25 24.8,-25 C8,-25 0,-13.6 0,-1.5 C0,5.3 4.9,11 11,11 C17.5,11 21.6,6 21.6,0.9 C21.6,-4.1 18.7,-9.1 13,-9.1 C8.9,-9.1 6.8,-7.1 5.9,-7.1 C5.1,-7.1 5.1,-8.3 5.1,-8.6 C5.1,-15.7 14.3,-22.1 22.3,-22.1 C31.5,-22.1 37.2,-12.6 37.2,2 C37.2,24.4 27.4,46.5 -4.3,57.1 L-3.6,58.6 C26.3,54.7 51.7,30.9 51.7,2.8 M55.5,-12.3 C55.5,-9.1 58,-6.9 61.1,-6.9 C64.3,-6.9 66.5,-9.4 66.5,-12.5 C66.5,-15.7 64,-17.7 60.9,-17.7 C57.7,-17.7 55.5,-15.4 55.5,-12.3 M55.4,12.9 C55.5,16.1 58,18.3 61.1,18.3 C64.3,18.3 66.5,15.8 66.5,12.7 C66.5,9.6 64,7.5 60.9,7.5 C57.8,7.5 55.4,9.9 55.4,12.9"/>
<path class="TimeSig" transform="matrix(0.992001,0,0,0.992001,292.325,213.258)" d="M41.7,11 L41.7,8.2 L34.5,8.2 L34.5,-17.5 L22.3,-4.1 L22.3,8.2 L6.8,8.2 C14.5,-0.9 27.2,-13.5 34.4,-25 L17.1,-25 C15.4,-12.1 10.5,-1.3 2,9.1 L3.8,11 L22.3,11 L22.3,17.8 C22.3,20.9 19.4,21.5 17.5,21.5 L17.5,24.1 L39.2,24.1 L39.2,21.5 C37,21.5 34.5,20.8 34.5,17.6 L34.5,11 L41.7,11 "/>
<path class="TimeSig" transform="matrix(0.992001,0,0,0.992001,292.325,261.943)" d="M41.7,11 L41.7,8.2 L34.5,8.2 L34.5,-17.5 L22.3,-4.1 L22.3,8.2 L6.8,8.2 C14.5,-0.9 27.2,-13.5 34.4,-25 L17.1,-25 C15.4,-12.1 10.5,-1.3 2,9.1 L3.8,11 L22.3,11 L22.3,17.8 C22.3,20.9 19.4,21.5 17.5,21.5 L17.5,24.1 L39.2,24.1 L39.2,21.5 C37,21.5 34.5,20.8 34.5,17.6 L34.5,11 L41.7,11 "/>
<path class="TimeSig" transform="matrix(0.992001,0,0,0.992001,292.325,458.057)" d="M41.7,11 L41.7,8.2 L34.5,8.2 L34.5,-17.5 L22.3,-4.1 L22.3,8.2 L6.8,8.2 C14.5,-0.9 27.2,-13.5 34.4,-25 L17.1,-25 C15.4,-12.1 10.5,-1.3 2,9.1 L3.8,11 L22.3,11 L22.3,17.8 C22.3,20.9 19.4,21.5 17.5,21.5 L17.5,24.1 L39.2,24.1 L39.2,21.5 C37,21.5 34.5,20.8 34.5,17.6 L34.5,11 L41.7,11 "/>
<path class="TimeSig" transform="matrix(0.992001,0,0,0.992001,292.325,506.742)" d="M41.7,11 L41.7,8.2 L34.5,8.2 L34.5,-17.5 L22.3,-4.1 L22.3,8.2 L6.8,8.2 C14.5,-0.9 27.2,-13.5 34.4,-25 L17.1,-25 C15.4,-12.1 10.5,-1.3 2,9.1 L3.8,11 L22.3,11 L22.3,17.8 C22.3,20.9 19.4,21.5 17.5,21.5 L17.5,24.1 L39.2,24.1 L39.2,21.5 C37,21.5 34.5,20.8 34.5,17.6 L34.5,11 L41.7,11 "/>
<path class="Rest" transform="matrix(0.992001,0,0,0.992001,1236.5,237.6)" d="M25.1,20.1 C22.6,16.3 14.5,9.5 14.5,1.7 C14.5,-3.5 19,-10.9 23.1,-15.8 L4.9,-38.7 L3.5,-37.7 C6.1,-33.7 10.5,-27 10.5,-22.3 C10.5,-17.9 7.3,-12.6 5,-9 C3.8,-7 1.8,-5.5 1.8,-4.2 C1.8,-2.2 6.8,4 15.8,12.7 C14.2,12.4 11,11.9 8.7,11.9 C3.1,11.9 0,16.3 0,20.2 C0,26.5 7,32.1 12.9,35.9 L14.1,34.9 C10.9,32.1 9,29 9,26.8 C9,22.3 12.4,19.7 16.8,19.7 C19.7,19.7 22.8,20.8 24.9,21.7 L25.1,20.1 "/>
<path class="Rest" transform="matrix(0.992001,0,0,0.992001,1663.11,237.6)" d="M25.1,20.1 C22.6,16.3 14.5,9.5 14.5,1.7 C14.5,-3.5 19,-10.9 23.1,-15.8 L4.9,-38.7 L3.5,-37.7 C6.1,-33.7 10.5,-27 10.5,-22.3 C10.5,-17.9 7.3,-12.6 5,-9 C3.8,-7 1.8,-5.5 1.8,-4.2 C1.8,-2.2 6.8,4 15.8,12.7 C14.2,12.4 11,11.9 8.7,11.9 C3.1,11.9 0,16.3 0,20.2 C0,26.5 7,32.1 12.9,35.9 L14.1,34.9 C10.9,32.1 9,29 9,26.8 C9,22.3 12.4,19.7 16.8,19.7 C19.7,19.7 22.8,20.8 24.9,21.7 L25.1,20.1 "/>
<path class="Rest" transform="matrix(0.992001,0,0,0.992001,383.279,237.6)" d="M25.1,20.1 C22.6,16.3 14.5,9.5 14.5,1.7 C14.5,-3.5 19,-10.9 23.1,-15.8 L4.9,-38.7 L3.5,-37.7 C6.1,-33.7 10.5,-27 10.5,-22.3 C10.5,-17.9 7.3,-12.6 5,-9 C3.8,-7 1.8,-5.5 1.8,-4.2 C1.8,-2.2 6.8,4 15.8,12.7 C14.2,12.4 11,11.9 8.7,11.9 C3.1,11.9 0,16.3 0,20.2 C0,26.5 7,32.1 12.9,35.9 L14.1,34.9 C10.9,32.1 9,29 9,26.8 C9,22.3 12.4,19.7 16.8,19.7 C19.7,19.7 22.8,20.8 24.9,21.7 L25.1,20.1 "/>
<path class="Rest" transform="matrix(0.992001,0,0,0.992001,809.889,237.6)" d="M25.1,20.1 C22.6,16.3 14.5,9.5 14.5,1.7 C14.5,-3.5 19,-10.9 23.1,-15.8 L4.9,-38.7 L3.5,-37.7 C6.1,-33.7 10.5,-27 10.5,-22.3 C10.5,-17.9 7.3,-12.6 5,-9 C3.8,-7 1.8,-5.5 1.8,-4.2 C1.8,-2.2 6.8,4 15.8,12.7 C14.2,12.4 11,11.9 8.7,11.9 C3.1,11.9 0,16.3 0,20.2 C0,26.5 7,32.1 12.9,35.9 L14.1,34.9 C10.9,32.1 9,29 9,26.8 C9,22.3 12.4,19.7 16.8,19.7 C19.7,19.7 22.8,20.8 24.9,21.7 L25.1,20.1 "/>
<path class="Rest" transform="matrix(0.992001,0,0,0.992001,1859.67,237.6)" d="M25.1,20.1 C22.6,16.3 14.5,9.5 14.5,1.7 C14.5,-3.5 19,-10.9 23.1,-15.8 L4.9,-38.7 L3.5,-37.7 C6.1,-33.7 10.5,-27 10.5,-22.3 C10.5,-17.9 7.3,-12.6 5,-9 C3.8,-7 1.8,-5.5 1.8,-4.2 C1.8,-2.2 6.8,4 15.8,12.7 C14.2,12.4 11,11.9 8.7,11.9 C3.1,11.9 0,16.3 0,20.2 C0,26.5 7,32.1 12.9,35.9 L14.1,34.9 C10.9,32.1 9,29 9,26.8 C9,22.3 12.4,19.7 16.8,19.7 C19.7,19.7 22.8,20.8 24.9,21.7 L25.1,20.1 "/>
<path class="Rest" transform="matrix(0.992001,0,0,0.992001,1433.06,237.6)" d="M25.1,20.1 C22.6,16.3 14.5,9.5 14.5,1.7 C14.5,-3.5 19,-10.9 23.1,-15.8 L4.9,-38.7 L3.5,-37.7 C6.1,-33.7 10.5,-27 10.5,-22.3 C10.5,-17.9 7.3,-12.6 5,-9 C3.8,-7 1.8,-5.5 1.8,-4.2 C1.8,-2.2 6.8,4 15.8,12.7 C14.2,12.4 11,11.9 8.7,11.9 C3.1,11.9 0,16.3 0,20.2 C0,26.5 7,32.1 12.9,35.9 L14.1,34.9 C10.9,32.1 9,29 9,26.8 C9,22.3 12.4,19.7 16.8,19.7 C19.7,19.7 22.8,20.8 24.9,21.7 L25.1,20.1 "/>
<path class="Rest" transform="matrix(0.992001,0,0,0.992001,1006.45,237.6)" d="M25.1,20.1 C22.6,16.3 14.5,9.5 14.5,1.7 C14.5,-3.5 19,-10.9 23.1,-15.8 L4.9,-38.7 L3.5,-37.7 C6.1,-33.7 10.5,-27 10.5,-22.3 C10.5,-17.9 7.3,-12.6 5,-9 C3.8,-7 1.8,-5.5 1.8,-4.2 C1.8,-2.2 6.8,4 15.8,12.7 C14.2,12.4 11,11.9 8.7,11.9 C3.1,11.9 0,16.3 0,20.2 C0,26.5 7,32.1 12.9,35.9 L14.1,34.9 C10.9,32.1 9,29 9,26.8 C9,22.3 12.4,19.7 16.8,19.7 C19.7,19.7 22.8,20.8 24.9,21.7 L25.1,20.1 "/>
<path class="Rest" transform="matrix(0.992001,0,0,0.992001,579.844,237.6)" d="M25.1,20.1 C22.6,16.3 14.5,9.5 14.5,1.7 C14.5,-3.5 19,-10.9 23.1,-15.8 L4.9,-38.7 L3.5,-37.7 C6.1,-33.7 10.5,-27 10.5,-22.3 C10.5,-17.9 7.3,-12.6 5,-9 C3.8,-7 1.8,-5.5 1.8,-4.2 C1.8,-2.2 6.8,4 15.8,12.7 C14.2,12.4 11,11.9 8.7,11.9 C3.1,11.9 0,16.3 0,20.2 C0,26.5 7,32.1 12.9,35.9 L14.1,34.9 C10.9,32.1 9,29 9,26.8 C9,22.3 12.4,19.7 16.8,19.7 C19.7,19.7 22.8,20.8 24.9,21.7 L25.1,20.1 "/>
<path class="Rest" transform="matrix(0.992001,0,0,0.992001,1761.39,482.4)" d="M25.1,20.1 C22.6,16.3 14.5,9.5 14.5,1.7 C14.5,-3.5 19,-10.9 23.1,-15.8 L4.9,-38.7 L3.5,-37.7 C6.1,-33.7 10.5,-27 10.5,-22.3 C10.5,-17.9 7.3,-12.6 5,-9 C3.8,-7 1.8,-5.5 1.8,-4.2 C1.8,-2.2 6.8,4 15.8,12.7 C14.2,12.4 11,11.9 8.7,11.9 C3.1,11.9 0,16.3 0,20.2 C0,26.5 7,32.1 12.9,35.9 L14.1,34.9 C10.9,32.1 9,29 9,26.8 C9,22.3 12.4,19.7 16.8,19.7 C19.7,19.7 22.8,20.8 24.9,21.7 L25.1,20.1 "/>
<path class="Rest" transform="matrix(0.992001,0,0,0.992001,678.126,482.4)" d="M25.1,20.1 C22.6,16.3 14.5,9.5 14.5,1.7 C14.5,-3.5 19,-10.9 23.1,-15.8 L4.9,-38.7 L3.5,-37.7 C6.1,-33.7 10.5,-27 10.5,-22.3 C10.5,-17.9 7.3,-12.6 5,-9 C3.8,-7 1.8,-5.5 1.8,-4.2 C1.8,-2.2 6.8,4 15.8,12.7 C14.2,12.4 11,11.9 8.7,11.9 C3.1,11.9 0,16.3 0,20.2 C0,26.5 7,32.1 12.9,35.9 L14.1,34.9 C10.9,32.1 9,29 9,26.8 C9,22.3 12.4,19.7 16.8,19.7 C19.7,19.7 22.8,20.8 24.9,21.7 L25.1,20.1 "/>
<path class="Rest" transform="matrix(0.992001,0,0,0.992001,1531.35,482.4)" d="M25.1,20.1 C22.6,16.3 14.5,9.5 14.5,1.7 C14.5,-3.5 19,-10.9 23.1,-15.8 L4.9,-38.7 L3.5,-37.7 C6.1,-33.7 10.5,-27 10.5,-22.3 C10.5,-17.9 7.3,-12.6 5,-9 C3.8,-7 1.8,-5.5 1.8,-4.2 C1.8,-2.2 6.8,4 15.8,12.7 C14.2,12.4 11,11.9 8.7,11.9 C3.1,11.9 0,16.3 0,20.2 C0,26.5 7,32.1 12.9,35.9 L14.1,34.9 C10.9,32.1 9,29 9,26.8 C9,22.3 12.4,19.7 16.8,19.7 C19.7,19.7 22.8,20.8 24.9,21.7 L25.1,20.1 "/>
<path class="Rest" transform="matrix(0.992001,0,0,0.992001,1334.78,482.4)" d="M25.1,20.1 C22.6,16.3 14.5,9.5 14.5,1.7 C14.5,-3.5 19,-10.9 23.1,-15.8 L4.9,-38.7 L3.5,-37.7 C6.1,-33.7 10.5,-27 10.5,-22.3 C10.5,-17.9 7.3,-12.6 5,-9 C3.8,-7 1.8,-5.5 1.8,-4.2 C1.8,-2.2 6.8,4 15.8,12.7 C14.2,12.4 11,11.9 8.7,11.9 C3.1,11.9 0,16.3 0,20.2 C0,26.5 7,32.1 12.9,35.9 L14.1,34.9 C10.9,32.1 9,29 9,26.8 C9,22.3 12.4,19.7 16.8,19.7 C19.7,19.7 22.8,20.8 24.9,21.7 L25.1,20.1 "/>
<path class="Rest" transform="matrix(0.992001,0,0,0.992001,1104.74,482.4)" d="M25.1,20.1 C22.6,16.3 14.5,9.5 14.5,1.7 C14.5,-3.5 19,-10.9 23.1,-15.8 L4.9,-38.7 L3.5,-37.7 C6.1,-33.7 10.5,-27 10.5,-22.3 C10.5,-17.9 7.3,-12.6 5,-9 C3.8,-7 1.8,-5.5 1.8,-4.2 C1.8,-2.2 6.8,4 15.8,12.7 C14.2,12.4 11,11.9 8.7,11.9 C3.1,11.9 0,16.3 0,20.2 C0,26.5 7,32.1 12.9,35.9 L14.1,34.9 C10.9,32.1 9,29 9,26.8 C9,22.3 12.4,19.7 16.8,19.7 C19.7,19.7 22.8,20.8 24.9,21.7 L25.1,20.1 "/>
<path class="Rest" transform="matrix(0.992001,0,0,0.992001,908.172,482.4)" d="M25.1,20.1 C22.6,16.3 14.5,9.5 14.5,1.7 C14.5,-3.5 19,-10.9 23.1,-15.8 L4.9,-38.7 L3.5,-37.7 C6.1,-33.7 10.5,-27 10.5,-22.3 C10.5,-17.9 7.3,-12.6 5,-9 C3.8,-7 1.8,-5.5 1.8,-4.2 C1.8,-2.2 6.8,4 15.8,12.7 C14.2,12.4 11,11.9 8.7,11.9 C3.1,11.9 0,16.3 0,20.2 C0,26.5 7,32.1 12.9,35.9 L14.1,34.9 C10.9,32.1 9,29 9,26.8 C9,22.3 12.4,19.7 16.8,19.7 C19.7,19.7 22.8,20.8 24.9,21.7 L25.1,20.1 "/>
<path class="Rest" transform="matrix(0.992001,0,0,0.992001,1957.96,482.4)" d="M25.1,20.1 C22.6,16.3 14.5,9.5 14.5,1.7 C14.5,-3.5 19,-10.9 23.1,-15.8 L4.9,-38.7 L3.5,-37.7 C6.1,-33.7 10.5,-27 10.5,-22.3 C10.5,-17.9 7.3,-12.6 5,-9 C3.8,-7 1.8,-5.5 1.8,-4.2 C1.8,-2.2 6.8,4 15.8,12.7 C14.2,12.4 11,11.9 8.7,11.9 C3.1,11.9 0,16.3 0,20.2 C0,26.5 7,32.1 12.9,35.9 L14.1,34.9 C10.9,32.1 9,29 9,26.8 C9,22.3 12.4,19.7 16.8,19.7 C19.7,19.7 22.8,20.8 24.9,21.7 L25.1,20.1 "/>
<path class="Rest" transform="matrix(0.992001,0,0,0.992001,481.561,482.4)" d="M25.1,20.1 C22.6,16.3 14.5,9.5 14.5,1.7 C14.5,-3.5 19,-10.9 23.1,-15.8 L4.9,-38.7 L3.5,-37.7 C6.1,-33.7 10.5,-27 10.5,-22.3 C10.5,-17.9 7.3,-12.6 5,-9 C3.8,-7 1.8,-5.5 1.8,-4.2 C1.8,-2.2 6.8,4 15.8,12.7 C14.2,12.4 11,11.9 8.7,11.9 C3.1,11.9 0,16.3 0,20.2 C0,26.5 7,32.1 12.9,35.9 L14.1,34.9 C10.9,32.1 9,29 9,26.8 C9,22.3 12.4,19.7 16.8,19.7 C19.7,19.7 22.8,20.8 24.9,21.7 L25.1,20.1 "/>
<path class="StaffText" d="M150.921,123.941 L155.193,123.941 L155.193,136.954 C156.154,135.701 157.301,134.744 158.636,134.085 C159.97,133.426 161.419,133.097 162.982,133.097 C166.237,133.097 168.878,134.215 170.904,136.453 C172.93,138.691 173.943,141.991 173.943,146.353 C173.943,150.487 172.942,153.922 170.941,156.656 C168.939,159.39 166.163,160.758 162.615,160.758 C160.63,160.758 158.953,160.278 157.586,159.317 C156.772,158.748 155.901,157.836 154.974,156.583 L154.974,159.928 L150.921,159.928 L150.921,123.941 M162.347,156.876 C164.723,156.876 166.501,155.932 167.681,154.044 C168.861,152.156 169.451,149.666 169.451,146.573 C169.451,143.822 168.861,141.544 167.681,139.737 C166.501,137.931 164.764,137.027 162.469,137.027 C160.467,137.027 158.713,137.768 157.208,139.249 C155.702,140.73 154.949,143.171 154.949,146.573 C154.949,149.031 155.259,151.025 155.877,152.555 C157.033,155.435 159.189,156.876 162.347,156.876 M177.57,170.133 C180.158,165.087 181.827,161.409 182.575,159.097 C183.715,155.598 184.284,151.497 184.284,146.793 C184.284,142.089 183.625,137.784 182.307,133.878 C181.493,131.469 179.89,128.002 177.497,123.477 L180.451,123.477 C182.958,127.481 184.475,129.951 185.004,130.887 C185.533,131.823 186.107,133.113 186.726,134.757 C187.507,136.791 188.064,138.801 188.398,140.787 C188.732,142.773 188.899,144.685 188.899,146.524 C188.899,151.342 188.134,155.639 186.604,159.415 C185.643,161.84 183.649,165.413 180.622,170.133 L177.57,170.133 "/>
<path class="StaffText" d="M383.28,558.136 L388.187,558.136 L388.187,594 L383.28,594 L383.28,558.136 "/>
<path class="StaffText" d="M1241.87,558.136 L1252.18,588.678 L1262.36,558.136 L1267.8,558.136 L1254.72,594 L1249.56,594 L1236.5,558.136 L1241.87,558.136 "/>
<path class="RehearsalMark" fill="none" stroke="#000000" stroke-width="3.97" stroke-linecap="square" stroke-linejoin="miter" stroke-miterlimit="2" fill-rule="evenodd" d="M98.8173,337.205 C98.8173,354.857 84.5074,369.167 66.8552,369.167 C49.203,369.167 34.893,354.857 34.893,337.205 C34.893,319.553 49.203,305.243 66.8552,305.243 C84.5074,305.243 98.8173,319.553 98.8173,337.205"/>
<path class="RehearsalMark" d="M54.5583,354.705 C54.721,351.694 55.3436,349.074 56.426,346.844 C57.5083,344.614 59.6201,342.588 62.7614,340.765 L67.4489,338.055 C69.5485,336.834 71.0215,335.792 71.8679,334.93 C73.2025,333.579 73.8698,332.033 73.8698,330.291 C73.8698,328.256 73.2595,326.641 72.0388,325.445 C70.8181,324.248 69.1904,323.65 67.1559,323.65 C64.1449,323.65 62.0615,324.79 60.9059,327.068 C60.2875,328.289 59.9457,329.982 59.8806,332.146 L55.4128,332.146 C55.4616,329.103 56.0231,326.621 57.0973,324.7 C59.0016,321.315 62.3626,319.622 67.1804,319.622 C71.1843,319.622 74.1099,320.704 75.9572,322.869 C77.8045,325.034 78.7282,327.443 78.7282,330.096 C78.7282,332.895 77.7435,335.288 75.7741,337.273 C74.6348,338.429 72.5921,339.829 69.6462,341.473 L66.3014,343.328 C64.7064,344.207 63.4531,345.045 62.5417,345.843 C60.9141,347.259 59.8887,348.829 59.4655,350.555 L78.5573,350.555 L78.5573,354.705 L54.5583,354.705 "/>
<path class="Bracket" transform="matrix(3.596,0,0,3.44,123.5,532)" d="M0,-50 C4.7,-46.9 6.6,-44.6 6.6,-39.6 C6.6,-36.5 3.3,-24 3.3,-19.5 C3.3,-10.5 6.9,-4.5 12,0 L12.3,-1.2 C8.2,-5.6 6.9,-11.4 6.9,-16.8 C6.9,-22.6 9.4,-32.7 9.4,-37.3 C9.4,-43.4 6.8,-46.8 1.8,-50 C6.8,-53.2 9.4,-56.6 9.4,-62.7 C9.4,-67.3 6.9,-77.4 6.9,-83.2 C6.9,-88.6 8.2,-94.3 12.3,-98.7 L12,-99.9 C6.9,-95.4 3.3,-89.5 3.3,-80.5 C3.3,-76 6.6,-63.5 6.6,-60.4 C6.6,-55.4 4.7,-53.1 0,-50"/>
</svg>
