<svg version="1.2" xmlns:xlink="http://www.w3.org/1999/xlink" xmlns="http://www.w3.org/2000/svg" viewBox="0 7.92 3044.145077720207 704.88" style="max-height: 500px" width="3044.145077720207" height="704.88">
<title>sfoh-ex-01-b</title>
<desc>Generated by MuseScore Studio 4.6.3</desc>
<polyline points="176.4,188 2973.6,188" stroke-linejoin="bevel" stroke-width="2.26" stroke="#000000" fill="none" class="StaffLines"/>
<polyline points="176.4,212.8 2973.6,212.8" stroke-linejoin="bevel" stroke-width="2.26" stroke="#000000" fill="none" class="StaffLines"/>
<polyline points="176.4,237.6 2973.6,237.6" stroke-linejoin="bevel" stroke-width="2.26" stroke="#000000" fill="none" class="StaffLines"/>
<polyline points="176.4,262.4 2973.6,262.4" stroke-linejoin="bevel" stroke-width="2.26" stroke="#000000" fill="none" class="StaffLines"/>
<polyline points="176.4,287.2 2973.6,287.2" stroke-linejoin="bevel" stroke-width="2.26" stroke="#000000" fill="none" class="StaffLines"/>
<polyline points="176.4,448.401 2973.6,448.401" stroke-linejoin="bevel" stroke-width="2.26" stroke="#000000" fill="none" class="StaffLines"/>
<polyline points="176.4,473.201 2973.6,473.201" stroke-linejoin="bevel" stroke-width="2.26" stroke="#000000" fill="none" class="StaffLines"/>
<polyline points="176.4,498.001 2973.6,498.001" stroke-linejoin="bevel" stroke-width="2.26" stroke="#000000" fill="none" class="StaffLines"/>
<polyline points="176.4,522.801 2973.6,522.801" stroke-linejoin="bevel" stroke-width="2.26" stroke="#000000" fill="none" class="StaffLines"/>
<polyline points="176.4,547.601 2973.6,547.601" stroke-linejoin="bevel" stroke-width="2.26" stroke="#000000" fill="none" class="StaffLines"/>
<polyline points="1890.47,186.872 1890.47,448.401" stroke-linejoin="bevel" stroke-width="2.48" stroke="#000000" fill="none" class="BarLine"/>
<polyline points="2957.48,186.872 2957.48,448.401" stroke-linejoin="bevel" stroke-width="2.48" stroke="#000000" fill="none" class="BarLine"/>
<polyline points="2972.36,186.872 2972.36,448.401" stroke-linejoin="bevel" stroke-width="2.48" stroke="#000000" fill="none" class="BarLine"/>
<polyline points="177.64,186.872 177.64,448.401" stroke-linejoin="bevel" stroke-width="2.48" stroke="#000000" fill="none" class="BarLine"/>
<polyline points="1890.47,447.272 1890.47,548.729" stroke-linejoin="bevel" stroke-width="2.48" stroke="#000000" fill="none" class="BarLine"/>
<polyline points="177.64,447.272 177.64,548.729" stroke-linejoin="bevel" stroke-width="2.48" stroke="#000000" fill="none" class="BarLine"/>
<polyline points="2957.48,447.272 2957.48,548.729" stroke-linejoin="bevel" stroke-width="2.48" stroke="#000000" fill="none" class="BarLine"/>
<polyline points="2972.36,447.272 2972.36,548.729" stroke-linejoin="bevel" stroke-width="2.48" stroke="#000000" fill="none" class="BarLine"/>
<polyline points="2331.02,221.728 2331.02,145.592" stroke-linejoin="bevel" stroke-width="2.26" stroke="#000000" fill="none" class="Stem"/>
<polyline points="854.101,221.728 854.101,132.928" stroke-linejoin="bevel" stroke-width="2.26" stroke="#000000" fill="none" class="Stem"/>
<polyline points="1233.38,196.928 1233.38,138.4" stroke-linejoin="bevel" stroke-width="2.26" stroke="#000000" fill="none" class="Stem"/>
<polyline points="1723.57,196.928 1723.57,120.792" stroke-linejoin="bevel" stroke-width="2.26" stroke="#000000" fill="none" class="Stem"/>
<polyline points="1958.18,184.528 1958.18,126" stroke-linejoin="bevel" stroke-width="2.26" stroke="#000000" fill="none" class="Stem"/>
<polyline points="1102.66,196.928 1102.66,126.031" stroke-linejoin="bevel" stroke-width="2.26" stroke="#000000" fill="none" class="Stem"/>
<polyline points="2527.1,196.928 2527.1,138.4" stroke-linejoin="bevel" stroke-width="2.26" stroke="#000000" fill="none" class="Stem"/>
<polyline points="658.025,221.728 658.025,138.369" stroke-linejoin="bevel" stroke-width="2.26" stroke="#000000" fill="none" class="Stem"/>
<path d="M0,-3.1 L0,23.1 L2,23.1 C18.5,24.7 24.8,43.9 24.8,58.2 C24.8,63.8 24,70.6 22.1,75.3 L23.3,75.5 C25.3,69.9 26.4,63.7 26.4,57 C26.4,47.3 24.4,37.4 18.9,28 C11.5,15.4 2.4,7.7 2,-3.1 L0,-3.1" transform="matrix(0.992001,0,0,0.992001,1722.44,119.8)" class="Hook"/>
<path d="M0,-3.1 L0,23.1 L2,23.1 C18.5,24.7 24.8,43.9 24.8,58.2 C24.8,63.8 24,70.6 22.1,75.3 L23.3,75.5 C25.3,69.9 26.4,63.7 26.4,57 C26.4,47.3 24.4,37.4 18.9,28 C11.5,15.4 2.4,7.7 2,-3.1 L0,-3.1" transform="matrix(0.992001,0,0,0.992001,2329.9,144.6)" class="Hook"/>
<path d="M0,4 C0,9.3 4.3,13.2 11.1,13.2 C20.6,13.2 31.8,5.6 31.8,-3.5 C31.8,-8.8 27.5,-12.6 20.6,-12.6 C11.4,-12.6 0,-5.5 0,4" transform="matrix(0.992001,0,0,0.992001,2300.61,225.2)" class="Note"/>
<path d="M0,4 C0,9.3 4.3,13.2 11.1,13.2 C20.6,13.2 31.8,5.6 31.8,-3.5 C31.8,-8.8 27.5,-12.6 20.6,-12.6 C11.4,-12.6 0,-5.5 0,4" transform="matrix(0.992001,0,0,0.992001,2496.68,200.4)" class="Note"/>
<path d="M0,4 C0,9.3 4.3,13.2 11.1,13.2 C20.6,13.2 31.8,5.6 31.8,-3.5 C31.8,-8.8 27.5,-12.6 20.6,-12.6 C11.4,-12.6 0,-5.5 0,4" transform="matrix(0.992001,0,0,0.992001,627.607,225.2)" class="Note"/>
<path d="M0,4 C0,9.3 4.3,13.2 11.1,13.2 C20.6,13.2 31.8,5.6 31.8,-3.5 C31.8,-8.8 27.5,-12.6 20.6,-12.6 C11.4,-12.6 0,-5.5 0,4" transform="matrix(0.992001,0,0,0.992001,823.684,225.2)" class="Note"/>
<path d="M0,4 C0,9.3 4.3,13.2 11.1,13.2 C20.6,13.2 31.8,5.6 31.8,-3.5 C31.8,-8.8 27.5,-12.6 20.6,-12.6 C11.4,-12.6 0,-5.5 0,4" transform="matrix(0.992001,0,0,0.992001,1202.96,200.4)" class="Note"/>
<path d="M0,4 C0,9.3 4.3,13.2 11.1,13.2 C20.6,13.2 31.8,5.6 31.8,-3.5 C31.8,-8.8 27.5,-12.6 20.6,-12.6 C11.4,-12.6 0,-5.5 0,4" transform="matrix(0.992001,0,0,0.992001,1072.25,200.4)" class="Note"/>
<path d="M0,4 C0,9.3 4.3,13.2 11.1,13.2 C20.6,13.2 31.8,5.6 31.8,-3.5 C31.8,-8.8 27.5,-12.6 20.6,-12.6 C11.4,-12.6 0,-5.5 0,4" transform="matrix(0.992001,0,0,0.992001,1927.77,188)" class="Note"/>
<path d="M0,4 C0,9.3 4.3,13.2 11.1,13.2 C20.6,13.2 31.8,5.6 31.8,-3.5 C31.8,-8.8 27.5,-12.6 20.6,-12.6 C11.4,-12.6 0,-5.5 0,4" transform="matrix(0.992001,0,0,0.992001,1693.16,200.4)" class="Note"/>
<path d="M0,-0.3 C0,9 11.4,13.2 22.5,13.2 C33.4,13.2 42,7.4 42,0.8 C42,-8.9 30.6,-13.4 19.6,-13.4 C11.3,-13.4 0,-9.2 0,-0.3 M12.4,-3.1 C12.4,-6.6 15.1,-10.6 19.5,-10.6 C21.9,-10.6 23.8,-9.9 25.5,-8.2 C27.5,-6.2 29.7,0.2 29.7,3.4 C29.7,6.9 26.7,10.9 22.3,10.9 C19.6,10.9 17.8,10.1 15.9,8 C14.4,6.4 12.4,0.7 12.4,-3.1" transform="matrix(0.992001,0,0,0.992001,1922.71,250)" class="Note"/>
<path d="M0,-0.3 C0,9 11.4,13.2 22.5,13.2 C33.4,13.2 42,7.4 42,0.8 C42,-8.9 30.6,-13.4 19.6,-13.4 C11.3,-13.4 0,-9.2 0,-0.3 M12.4,-3.1 C12.4,-6.6 15.1,-10.6 19.5,-10.6 C21.9,-10.6 23.8,-9.9 25.5,-8.2 C27.5,-6.2 29.7,0.2 29.7,3.4 C29.7,6.9 26.7,10.9 22.3,10.9 C19.6,10.9 17.8,10.1 15.9,8 C14.4,6.4 12.4,0.7 12.4,-3.1" transform="matrix(0.992001,0,0,0.992001,1922.71,225.2)" class="Note"/>
<path d="M48.8,-101.5 C52.4,-101.5 54.8,-97.4 54.8,-91.9 C54.8,-81.9 43,-69.7 35,-63.4 C34.6,-65.9 34.5,-68.4 34.5,-71 C34.5,-85.8 40,-101.5 48.8,-101.5 M42.9,-14.5 C54.6,-14.3 60.2,-7.2 60.2,3.6 C60.2,11.1 56.1,18.9 48.6,21.1 L42.9,-14.5 M46.2,21.9 C43.5,22.6 40.8,22.9 38.2,22.9 C20.7,22.9 6.8,9.4 6.8,-5.9 C6.8,-21.4 23.1,-36.5 35.3,-45.5 L38.3,-27.1 C26.4,-24.6 20.5,-13.8 20.5,-6 C20.5,3.1 25.9,10.6 33.8,13.4 L34.8,12.3 C30.3,10.1 26.9,3.2 26.9,-1.2 C26.9,-5.4 30.1,-12.9 40.2,-14.3 L46.2,21.9 M46.7,25.2 C48.1,32.1 49.9,46.8 49.9,49.4 C49.9,59.5 42.4,66.4 33.8,66.4 C28.2,66.4 24.3,64.3 23,62.5 C30.8,60.3 34.1,55.7 34.1,51 C34.1,45.1 28.7,40.9 23.7,40.9 C15.9,40.9 12.8,47.7 12.8,53.7 C12.8,65.1 25.5,69 33.2,69 C46.7,69 52.5,58.7 52.5,50.2 C52.5,47.3 50.4,30.6 49.2,24.5 C60.4,20.7 68.3,9.4 68.3,-2.4 C68.3,-16.4 59.1,-27.7 43.6,-27.7 C42.7,-27.7 41.8,-27.7 40.9,-27.6 L37.6,-47 C44,-52.1 48.3,-56.8 51.8,-62.7 C56.1,-70 58.9,-77 58.9,-89.2 C58.9,-100.3 51.7,-117 47.3,-117 C41.4,-117 33.7,-102.6 32.2,-95.8 C31.1,-91 30.6,-85.2 30.6,-81.4 C30.6,-74.2 31.5,-68 32.5,-61.3 C16.9,-49.8 0,-33.7 0,-13.5 C0,11 18.3,26.1 38.7,26.1 C41.6,26.1 44.2,25.7 46.7,25.2" transform="matrix(0.992001,0,0,0.992001,197.48,262.4)" class="Clef"/>
<path d="M48.8,-101.5 C52.4,-101.5 54.8,-97.4 54.8,-91.9 C54.8,-81.9 43,-69.7 35,-63.4 C34.6,-65.9 34.5,-68.4 34.5,-71 C34.5,-85.8 40,-101.5 48.8,-101.5 M42.9,-14.5 C54.6,-14.3 60.2,-7.2 60.2,3.6 C60.2,11.1 56.1,18.9 48.6,21.1 L42.9,-14.5 M46.2,21.9 C43.5,22.6 40.8,22.9 38.2,22.9 C20.7,22.9 6.8,9.4 6.8,-5.9 C6.8,-21.4 23.1,-36.5 35.3,-45.5 L38.3,-27.1 C26.4,-24.6 20.5,-13.8 20.5,-6 C20.5,3.1 25.9,10.6 33.8,13.4 L34.8,12.3 C30.3,10.1 26.9,3.2 26.9,-1.2 C26.9,-5.4 30.1,-12.9 40.2,-14.3 L46.2,21.9 M46.7,25.2 C48.1,32.1 49.9,46.8 49.9,49.4 C49.9,59.5 42.4,66.4 33.8,66.4 C28.2,66.4 24.3,64.3 23,62.5 C30.8,60.3 34.1,55.7 34.1,51 C34.1,45.1 28.7,40.9 23.7,40.9 C15.9,40.9 12.8,47.7 12.8,53.7 C12.8,65.1 25.5,69 33.2,69 C46.7,69 52.5,58.7 52.5,50.2 C52.5,47.3 50.4,30.6 49.2,24.5 C60.4,20.7 68.3,9.4 68.3,-2.4 C68.3,-16.4 59.1,-27.7 43.6,-27.7 C42.7,-27.7 41.8,-27.7 40.9,-27.6 L37.6,-47 C44,-52.1 48.3,-56.8 51.8,-62.7 C56.1,-70 58.9,-77 58.9,-89.2 C58.9,-100.3 51.7,-117 47.3,-117 C41.4,-117 33.7,-102.6 32.2,-95.8 C31.1,-91 30.6,-85.2 30.6,-81.4 C30.6,-74.2 31.5,-68 32.5,-61.3 C16.9,-49.8 0,-33.7 0,-13.5 C0,11 18.3,26.1 38.7,26.1 C41.6,26.1 44.2,25.7 46.7,25.2" transform="matrix(0.992001,0,0,0.992001,197.48,522.801)" class="Clef"/>
<path d="M17,31.4 L19.9,31.4 L19.9,15 L23.8,13.8 L23.8,3.4 L19.9,4.6 L19.9,-10.2 L23.8,-11.5 L23.8,-21.9 L19.9,-20.6 L19.9,-34.4 L17,-34.4 L17,-19.7 L7.2,-16.5 L7.2,-31.9 L4.3,-31.9 L4.3,-15.6 L0,-14.2 L0,-3.8 L4.3,-5.2 L4.3,9.7 L0,11.1 L0,21.5 L4.3,20.1 L4.3,33.9 L7.2,33.9 L7.2,19.1 L17,16 L17,31.4 M7.2,-6.1 L17,-9.3 L17,5.6 L7.2,8.7 L7.2,-6.1" transform="matrix(0.992001,0,0,0.992001,283.831,188)" class="KeySig"/>
<path d="M17,31.4 L19.9,31.4 L19.9,15 L23.8,13.8 L23.8,3.4 L19.9,4.6 L19.9,-10.2 L23.8,-11.5 L23.8,-21.9 L19.9,-20.6 L19.9,-34.4 L17,-34.4 L17,-19.7 L7.2,-16.5 L7.2,-31.9 L4.3,-31.9 L4.3,-15.6 L0,-14.2 L0,-3.8 L4.3,-5.2 L4.3,9.7 L0,11.1 L0,21.5 L4.3,20.1 L4.3,33.9 L7.2,33.9 L7.2,19.1 L17,16 L17,31.4 M7.2,-6.1 L17,-9.3 L17,5.6 L7.2,8.7 L7.2,-6.1" transform="matrix(0.992001,0,0,0.992001,314.877,225.2)" class="KeySig"/>
<path d="M17,31.4 L19.9,31.4 L19.9,15 L23.8,13.8 L23.8,3.4 L19.9,4.6 L19.9,-10.2 L23.8,-11.5 L23.8,-21.9 L19.9,-20.6 L19.9,-34.4 L17,-34.4 L17,-19.7 L7.2,-16.5 L7.2,-31.9 L4.3,-31.9 L4.3,-15.6 L0,-14.2 L0,-3.8 L4.3,-5.2 L4.3,9.7 L0,11.1 L0,21.5 L4.3,20.1 L4.3,33.9 L7.2,33.9 L7.2,19.1 L17,16 L17,31.4 M7.2,-6.1 L17,-9.3 L17,5.6 L7.2,8.7 L7.2,-6.1" transform="matrix(0.992001,0,0,0.992001,345.924,175.6)" class="KeySig"/>
<path d="M17,31.4 L19.9,31.4 L19.9,15 L23.8,13.8 L23.8,3.4 L19.9,4.6 L19.9,-10.2 L23.8,-11.5 L23.8,-21.9 L19.9,-20.6 L19.9,-34.4 L17,-34.4 L17,-19.7 L7.2,-16.5 L7.2,-31.9 L4.3,-31.9 L4.3,-15.6 L0,-14.2 L0,-3.8 L4.3,-5.2 L4.3,9.7 L0,11.1 L0,21.5 L4.3,20.1 L4.3,33.9 L7.2,33.9 L7.2,19.1 L17,16 L17,31.4 M7.2,-6.1 L17,-9.3 L17,5.6 L7.2,8.7 L7.2,-6.1" transform="matrix(0.992001,0,0,0.992001,283.831,448.401)" class="KeySig"/>
<path d="M17,31.4 L19.9,31.4 L19.9,15 L23.8,13.8 L23.8,3.4 L19.9,4.6 L19.9,-10.2 L23.8,-11.5 L23.8,-21.9 L19.9,-20.6 L19.9,-34.4 L17,-34.4 L17,-19.7 L7.2,-16.5 L7.2,-31.9 L4.3,-31.9 L4.3,-15.6 L0,-14.2 L0,-3.8 L4.3,-5.2 L4.3,9.7 L0,11.1 L0,21.5 L4.3,20.1 L4.3,33.9 L7.2,33.9 L7.2,19.1 L17,16 L17,31.4 M7.2,-6.1 L17,-9.3 L17,5.6 L7.2,8.7 L7.2,-6.1" transform="matrix(0.992001,0,0,0.992001,314.877,485.601)" class="KeySig"/>
<path d="M17,31.4 L19.9,31.4 L19.9,15 L23.8,13.8 L23.8,3.4 L19.9,4.6 L19.9,-10.2 L23.8,-11.5 L23.8,-21.9 L19.9,-20.6 L19.9,-34.4 L17,-34.4 L17,-19.7 L7.2,-16.5 L7.2,-31.9 L4.3,-31.9 L4.3,-15.6 L0,-14.2 L0,-3.8 L4.3,-5.2 L4.3,9.7 L0,11.1 L0,21.5 L4.3,20.1 L4.3,33.9 L7.2,33.9 L7.2,19.1 L17,16 L17,31.4 M7.2,-6.1 L17,-9.3 L17,5.6 L7.2,8.7 L7.2,-6.1" transform="matrix(0.992001,0,0,0.992001,345.924,436.001)" class="KeySig"/>
<path d="M0,-12.6 C0,-8.2 3.2,-3.9 8.6,-3.9 C13.2,-3.9 17.8,-7.1 22.3,-10.3 C20.6,-1.2 16,10.4 13.5,18.3 L11.4,24.8 L15.4,24.8 L26.5,-17.1 L25.1,-17.9 C22.5,-15.2 21,-11 15.3,-10.6 C15.5,-11.3 15.7,-12.3 15.7,-13.2 C15.7,-17.9 13,-21.6 9,-21.6 C3.2,-21.6 0,-16.6 0,-12.6" transform="matrix(0.992001,0,0,0.992001,1497.08,237.6)" class="Rest"/>
<path d="M0,-12.6 C0,-8.2 3.2,-3.9 8.6,-3.9 C13.2,-3.9 17.8,-7.1 22.3,-10.3 C20.6,-1.2 16,10.4 13.5,18.3 L11.4,24.8 L15.4,24.8 L26.5,-17.1 L25.1,-17.9 C22.5,-15.2 21,-11 15.3,-10.6 C15.5,-11.3 15.7,-12.3 15.7,-13.2 C15.7,-17.9 13,-21.6 9,-21.6 C3.2,-21.6 0,-16.6 0,-12.6" transform="matrix(0.992001,0,0,0.992001,431.53,237.6)" class="Rest"/>
<path d="M656.896,132.198 L1103.79,119.798 L1103.79,132.203 L656.896,144.603 L656.896,132.198" fill-rule="evenodd" class="Beam"/>
<path d="M1103.79,138.398 L1076.51,139.155 L1076.51,151.559 L1103.79,150.803 L1103.79,138.398" fill-rule="evenodd" class="Beam"/>
<path d="M172.991,110.85 L177.263,110.85 L177.263,123.863 C178.223,122.61 179.371,121.653 180.706,120.994 C182.04,120.335 183.489,120.005 185.051,120.005 C188.306,120.005 190.947,121.124 192.974,123.362 C195,125.6 196.013,128.9 196.013,133.262 C196.013,137.396 195.012,140.831 193.01,143.565 C191.008,146.299 188.233,147.667 184.685,147.667 C182.699,147.667 181.023,147.186 179.656,146.226 C178.842,145.657 177.971,144.745 177.043,143.492 L177.043,146.837 L172.991,146.837 L172.991,110.85 M184.417,143.785 C186.793,143.785 188.571,142.841 189.751,140.953 C190.931,139.065 191.521,136.575 191.521,133.482 C191.521,130.731 190.931,128.453 189.751,126.646 C188.571,124.839 186.834,123.936 184.539,123.936 C182.537,123.936 180.783,124.677 179.277,126.158 C177.772,127.639 177.019,130.08 177.019,133.482 C177.019,135.94 177.328,137.934 177.947,139.464 C179.102,142.344 181.259,143.785 184.417,143.785 M199.64,157.042 C202.228,151.996 203.896,148.318 204.645,146.006 C205.784,142.507 206.354,138.406 206.354,133.702 C206.354,128.998 205.695,124.693 204.376,120.787 C203.563,118.378 201.959,114.911 199.567,110.386 L202.521,110.386 C205.028,114.39 206.545,116.86 207.074,117.796 C207.603,118.732 208.177,120.022 208.795,121.666 C209.577,123.7 210.134,125.71 210.468,127.696 C210.801,129.682 210.968,131.594 210.968,133.433 C210.968,138.251 210.203,142.548 208.673,146.324 C207.713,148.749 205.719,152.322 202.692,157.042 L199.64,157.042" class="StaffText"/>
<path d="M356.269,81.2838 L361.128,81.2838 L361.128,112.876 L379.292,112.876 L379.292,117.148 L356.269,117.148 L356.269,81.2838 M393.856,114.316 C396.77,114.316 398.767,113.213 399.85,111.008 C400.932,108.802 401.473,106.349 401.473,103.647 C401.473,101.206 401.083,99.22 400.301,97.69 C399.064,95.2812 396.932,94.0767 393.905,94.0767 C391.219,94.0767 389.266,95.1021 388.046,97.1529 C386.825,99.2037 386.215,101.678 386.215,104.575 C386.215,107.358 386.825,109.677 388.046,111.533 C389.266,113.388 391.203,114.316 393.856,114.316 M394.027,90.2437 C397.396,90.2437 400.244,91.3668 402.572,93.6129 C404.899,95.859 406.063,99.163 406.063,103.525 C406.063,107.74 405.038,111.224 402.987,113.974 C400.936,116.725 397.754,118.1 393.441,118.1 C389.844,118.1 386.988,116.884 384.872,114.45 C382.756,112.017 381.698,108.75 381.698,104.648 C381.698,100.253 382.813,96.7541 385.043,94.15 C387.272,91.5458 390.267,90.2437 394.027,90.2437 M411.277,81.1617 L415.672,81.1617 L415.672,94.5406 C416.713,93.2222 417.649,92.2945 418.479,91.7574 C419.895,90.8297 421.661,90.3658 423.777,90.3658 C427.569,90.3658 430.141,91.6923 431.492,94.3453 C432.224,95.7939 432.591,97.8039 432.591,100.376 L432.591,117.148 L428.074,117.148 L428.074,100.669 C428.074,98.748 427.83,97.3401 427.342,96.4449 C426.544,95.0126 425.047,94.2965 422.849,94.2965 C421.026,94.2965 419.374,94.9231 417.893,96.1763 C416.412,97.4296 415.672,99.7978 415.672,103.281 L415.672,117.148 L411.277,117.148 L411.277,81.1617 M449.963,90.4146 C451.818,90.4146 453.617,90.85 455.358,91.7208 C457.1,92.5915 458.426,93.7187 459.338,95.1021 C460.217,96.4205 460.802,97.9586 461.095,99.7164 C461.356,100.921 461.486,102.841 461.486,105.478 L442.321,105.478 C442.402,108.131 443.029,110.259 444.201,111.862 C445.373,113.466 447.188,114.267 449.645,114.267 C451.94,114.267 453.771,113.51 455.138,111.997 C455.92,111.118 456.473,110.1 456.799,108.945 L461.12,108.945 C461.006,109.905 460.627,110.975 459.985,112.155 C459.342,113.335 458.621,114.3 457.824,115.048 C456.489,116.35 454.837,117.229 452.868,117.685 C451.81,117.946 450.614,118.076 449.279,118.076 C446.024,118.076 443.265,116.892 441.003,114.524 C438.74,112.155 437.609,108.839 437.609,104.575 C437.609,100.376 438.748,96.9657 441.027,94.3453 C443.306,91.7248 446.284,90.4146 449.963,90.4146 M456.969,101.987 C456.79,100.083 456.375,98.5608 455.724,97.4215 C454.52,95.3056 452.51,94.2476 449.694,94.2476 C447.676,94.2476 445.983,94.976 444.616,96.4327 C443.249,97.8894 442.524,99.7408 442.443,101.987 L456.969,101.987 M466.871,91.0006 L471.046,91.0006 L471.046,94.7115 C472.283,93.1815 473.593,92.0829 474.976,91.4156 C476.36,90.7483 477.898,90.4146 479.591,90.4146 C483.301,90.4146 485.808,91.7086 487.11,94.2965 C487.826,95.7125 488.184,97.7388 488.184,100.376 L488.184,117.148 L483.717,117.148 L483.717,100.669 C483.717,99.0735 483.48,97.7877 483.008,96.8111 C482.227,95.1835 480.811,94.3697 478.76,94.3697 C477.719,94.3697 476.864,94.4755 476.197,94.6871 C474.993,95.0452 473.935,95.7613 473.023,96.8355 C472.291,97.6982 471.815,98.5893 471.595,99.5089 C471.375,100.428 471.265,101.743 471.265,103.452 L471.265,117.148 L466.871,117.148 L466.871,91.0006 M503.896,90.5367 C505.947,90.5367 507.737,91.0412 509.267,92.0504 C510.097,92.62 510.944,93.4501 511.806,94.5406 L511.806,91.2447 L515.859,91.2447 L515.859,115.024 C515.859,118.344 515.371,120.965 514.394,122.885 C512.571,126.434 509.129,128.208 504.067,128.208 C501.251,128.208 498.883,127.577 496.963,126.316 C495.042,125.054 493.968,123.081 493.74,120.395 L498.208,120.395 C498.419,121.567 498.842,122.47 499.477,123.105 C500.47,124.082 502.033,124.57 504.165,124.57 C507.534,124.57 509.739,123.382 510.781,121.005 C511.399,119.606 511.684,117.107 511.635,113.51 C510.757,114.845 509.699,115.838 508.462,116.489 C507.225,117.14 505.589,117.465 503.554,117.465 C500.722,117.465 498.244,116.46 496.12,114.45 C493.996,112.44 492.934,109.116 492.934,104.477 C492.934,100.099 494.004,96.6809 496.145,94.2232 C498.285,91.7655 500.869,90.5367 503.896,90.5367 M511.806,103.964 C511.806,100.725 511.139,98.3248 509.804,96.7623 C508.47,95.1998 506.769,94.4185 504.702,94.4185 C501.609,94.4185 499.494,95.8671 498.354,98.7642 C497.752,100.31 497.451,102.337 497.451,104.843 C497.451,107.789 498.049,110.031 499.245,111.569 C500.442,113.107 502.049,113.877 504.067,113.877 C507.225,113.877 509.446,112.452 510.732,109.604 C511.448,107.993 511.806,106.113 511.806,103.964 M522.587,91.0006 L526.761,91.0006 L526.761,95.5172 C527.103,94.6383 527.941,93.5681 529.276,92.3067 C530.611,91.0453 532.149,90.4146 533.89,90.4146 C533.972,90.4146 534.11,90.4228 534.305,90.439 C534.501,90.4553 534.834,90.4879 535.306,90.5367 L535.306,95.1754 C535.046,95.1265 534.806,95.094 534.586,95.0777 C534.366,95.0614 534.126,95.0533 533.866,95.0533 C531.652,95.0533 529.952,95.7654 528.763,97.1895 C527.575,98.6137 526.981,100.253 526.981,102.109 L526.981,117.148 L522.587,117.148 L522.587,91.0006 M539.105,91.1226 L543.573,91.1226 L543.573,117.148 L539.105,117.148 L539.105,91.1226 M539.105,81.2838 L543.573,81.2838 L543.573,86.2642 L539.105,86.2642 L539.105,81.2838 M550.199,91.0006 L554.374,91.0006 L554.374,94.7115 C555.611,93.1815 556.921,92.0829 558.304,91.4156 C559.688,90.7483 561.226,90.4146 562.919,90.4146 C566.63,90.4146 569.136,91.7086 570.438,94.2965 C571.154,95.7125 571.512,97.7388 571.512,100.376 L571.512,117.148 L567.045,117.148 L567.045,100.669 C567.045,99.0735 566.809,97.7877 566.337,96.8111 C565.555,95.1835 564.139,94.3697 562.089,94.3697 C561.047,94.3697 560.192,94.4755 559.525,94.6871 C558.321,95.0452 557.263,95.7613 556.351,96.8355 C555.619,97.6982 555.143,98.5893 554.923,99.5089 C554.703,100.428 554.593,101.743 554.593,103.452 L554.593,117.148 L550.199,117.148 L550.199,91.0006" class="SystemText"/>
<path d="M108.495,363.66 C108.495,383.348 92.5337,399.309 72.845,399.309 C53.1562,399.309 37.1953,383.348 37.1953,363.66 C37.1953,343.971 53.1562,328.01 72.845,328.01 C92.5337,328.01 108.495,343.971 108.495,363.66" fill-rule="evenodd" stroke-miterlimit="2" stroke-linejoin="miter" stroke-linecap="square" stroke-width="3.97" stroke="#000000" fill="none" class="RehearsalMark"/>
<path d="M64.9778,354.453 L64.9778,350.41 C68.7864,350.038 71.4426,349.418 72.9466,348.549 C74.4505,347.68 75.5735,345.624 76.3157,342.382 L80.4758,342.382 L80.4758,384.16 L74.8508,384.16 L74.8508,354.453 L64.9778,354.453" class="RehearsalMark"/>
<path d="M2061.42,628.456 L2061.42,627.401 L2049.21,627.401 L2049.21,628.456 C2049.93,628.573 2050.52,628.705 2050.98,628.852 C2051.44,628.998 2051.81,629.15 2052.09,629.306 C2052.37,629.462 2052.59,629.618 2052.75,629.775 C2052.91,629.931 2053.03,630.097 2053.13,630.273 C2053.44,630.8 2053.48,631.513 2053.25,632.411 C2053.01,633.31 2052.61,634.491 2052.05,635.956 L2042.67,659.042 L2032.51,635.722 C2031.84,634.198 2031.43,632.973 2031.26,632.045 C2031.1,631.117 2031.19,630.4 2031.54,629.892 C2031.79,629.482 2032.24,629.164 2032.87,628.94 C2033.51,628.715 2034.41,628.554 2035.58,628.456 L2035.58,627.401 L2019.32,627.401 L2019.32,628.456 C2020.26,628.534 2021.01,628.666 2021.58,628.852 C2022.15,629.037 2022.65,629.306 2023.1,629.657 C2023.28,629.794 2023.44,629.926 2023.6,630.053 C2023.76,630.18 2023.93,630.375 2024.13,630.639 C2024.32,630.902 2024.55,631.274 2024.8,631.752 C2025.06,632.231 2025.36,632.9 2025.71,633.759 L2040.53,668.066 L2041.65,668.066 L2055.48,634.169 C2056.32,632.177 2057.24,630.712 2058.26,629.775 C2058.59,629.423 2059.03,629.14 2059.58,628.925 C2060.12,628.71 2060.74,628.554 2061.42,628.456 M2063.68,667.128 L2080.7,667.128 L2080.7,666.015 L2079.26,666.015 C2078.91,666.015 2078.55,665.971 2078.18,665.883 C2077.81,665.795 2077.45,665.688 2077.11,665.561 C2076.77,665.434 2076.47,665.287 2076.22,665.121 C2075.96,664.955 2075.79,664.794 2075.69,664.638 C2075.48,664.286 2075.31,663.759 2075.19,663.056 C2075.07,662.353 2075.02,661.357 2075.02,660.068 L2075.02,634.403 C2075.02,633.212 2075.08,632.245 2075.22,631.503 C2075.36,630.761 2075.53,630.224 2075.75,629.892 C2076.53,628.935 2077.7,628.456 2079.26,628.456 L2080.7,628.456 L2080.7,627.401 L2063.68,627.401 L2063.68,628.456 L2065.11,628.456 C2065.8,628.456 2066.47,628.588 2067.14,628.852 C2067.8,629.115 2068.32,629.482 2068.69,629.95 C2068.84,630.126 2068.97,630.331 2069.05,630.566 C2069.14,630.8 2069.21,631.088 2069.24,631.43 C2069.28,631.772 2069.31,632.182 2069.32,632.66 C2069.33,633.139 2069.33,633.72 2069.33,634.403 L2069.33,660.068 C2069.33,662.528 2069.1,664.032 2068.63,664.579 C2068.24,665.087 2067.76,665.453 2067.19,665.678 C2066.63,665.902 2065.93,666.015 2065.11,666.015 L2063.68,666.015 L2063.68,667.128" class="Harmony"/>
<path d="M2392.43,667.128 L2409.45,667.128 L2409.45,666.015 L2408.01,666.015 C2407.66,666.015 2407.3,665.971 2406.93,665.883 C2406.56,665.795 2406.2,665.688 2405.86,665.561 C2405.52,665.434 2405.22,665.287 2404.97,665.121 C2404.71,664.955 2404.54,664.794 2404.44,664.638 C2404.22,664.286 2404.06,663.759 2403.94,663.056 C2403.82,662.353 2403.77,661.357 2403.77,660.068 L2403.77,634.403 C2403.77,633.212 2403.83,632.245 2403.97,631.503 C2404.11,630.761 2404.28,630.224 2404.5,629.892 C2405.28,628.935 2406.45,628.456 2408.01,628.456 L2409.45,628.456 L2409.45,627.401 L2392.43,627.401 L2392.43,628.456 L2393.86,628.456 C2394.55,628.456 2395.22,628.588 2395.88,628.852 C2396.55,629.115 2397.07,629.482 2397.44,629.95 C2397.59,630.126 2397.72,630.331 2397.8,630.566 C2397.89,630.8 2397.95,631.088 2397.99,631.43 C2398.03,631.772 2398.06,632.182 2398.07,632.66 C2398.08,633.139 2398.08,633.72 2398.08,634.403 L2398.08,660.068 C2398.08,662.528 2397.85,664.032 2397.38,664.579 C2396.99,665.087 2396.51,665.453 2395.94,665.678 C2395.38,665.902 2394.68,666.015 2393.86,666.015 L2392.43,666.015 L2392.43,667.128" class="Harmony"/>
<path d="M438.546,667.128 L455.567,667.128 L455.567,666.015 L454.132,666.015 C453.78,666.015 453.419,665.971 453.048,665.883 C452.677,665.795 452.32,665.688 451.978,665.561 C451.637,665.434 451.339,665.287 451.085,665.121 C450.831,664.955 450.655,664.794 450.557,664.638 C450.343,664.286 450.177,663.759 450.059,663.056 C449.942,662.353 449.884,661.357 449.884,660.068 L449.884,634.403 C449.884,633.212 449.952,632.245 450.089,631.503 C450.225,630.761 450.401,630.224 450.616,629.892 C451.397,628.935 452.569,628.456 454.132,628.456 L455.567,628.456 L455.567,627.401 L438.546,627.401 L438.546,628.456 L439.981,628.456 C440.665,628.456 441.339,628.588 442.003,628.852 C442.667,629.115 443.184,629.482 443.556,629.95 C443.712,630.126 443.834,630.331 443.922,630.566 C444.01,630.8 444.073,631.088 444.112,631.43 C444.151,631.772 444.176,632.182 444.185,632.66 C444.195,633.139 444.2,633.72 444.2,634.403 L444.2,660.068 C444.2,662.528 443.966,664.032 443.497,664.579 C443.106,665.087 442.628,665.453 442.061,665.678 C441.495,665.902 440.802,666.015 439.981,666.015 L438.546,666.015 L438.546,667.128" class="Harmony"/>
<path d="M0,-0.1 C0,2.7 2.3,5 5.2,5 C8.1,5 10.4,2.7 10.4,-0.1 C10.4,-2.9 8.1,-5.1 5.2,-5.1 C2.3,-5.1 0,-2.9 0,-0.1" transform="matrix(0.992001,0,0,0.992001,1971.71,175.6)" class="NoteDot"/>
<path d="M0,-0.1 C0,2.7 2.3,5 5.2,5 C8.1,5 10.4,2.7 10.4,-0.1 C10.4,-2.9 8.1,-5.1 5.2,-5.1 C2.3,-5.1 0,-2.9 0,-0.1" transform="matrix(0.992001,0,0,0.992001,867.627,225.2)" class="NoteDot"/>
<path d="M0,-50 C4.7,-46.9 6.6,-44.6 6.6,-39.6 C6.6,-36.5 3.3,-24 3.3,-19.5 C3.3,-10.5 6.9,-4.5 12,0 L12.3,-1.2 C8.2,-5.6 6.9,-11.4 6.9,-16.8 C6.9,-22.6 9.4,-32.7 9.4,-37.3 C9.4,-43.4 6.8,-46.8 1.8,-50 C6.8,-53.2 9.4,-56.6 9.4,-62.7 C9.4,-67.3 6.9,-77.4 6.9,-83.2 C6.9,-88.6 8.2,-94.3 12.3,-98.7 L12,-99.9 C6.9,-95.4 3.3,-89.5 3.3,-80.5 C3.3,-76 6.6,-63.5 6.6,-60.4 C6.6,-55.4 4.7,-53.1 0,-50" transform="matrix(3.596,0,0,3.596,123.5,547.601)" class="Bracket"/>
</svg>