<?xml version="1.0" encoding="UTF-8" standalone="no"?>
<svg width="101.6mm" height="50.8mm" viewBox="0 0 1440 720"
 xmlns="http://www.w3.org/2000/svg" xmlns:xlink="http://www.w3.org/1999/xlink" version="1.2" baseProfile="full">
<title>sfoh-ex-01-a</title>
<desc>Generated by MuseScore Studio 4.6.3</desc>
<polyline class="StaffLines" fill="none" stroke="#000000" stroke-width="2.26" stroke-linejoin="bevel" points="176.4,198.613 1353.6,198.613" />
<polyline class="StaffLines" fill="none" stroke="#000000" stroke-width="2.26" stroke-linejoin="bevel" points="176.4,223.413 1353.6,223.413" />
<polyline class="StaffLines" fill="none" stroke="#000000" stroke-width="2.26" stroke-linejoin="bevel" points="176.4,248.213 1353.6,248.213" />
<polyline class="StaffLines" fill="none" stroke="#000000" stroke-width="2.26" stroke-linejoin="bevel" points="176.4,273.013 1353.6,273.013" />
<polyline class="StaffLines" fill="none" stroke="#000000" stroke-width="2.26" stroke-linejoin="bevel" points="176.4,297.813 1353.6,297.813" />
<polyline class="StaffLines" fill="none" stroke="#000000" stroke-width="2.26" stroke-linejoin="bevel" points="176.4,432.8 1353.6,432.8" />
<polyline class="StaffLines" fill="none" stroke="#000000" stroke-width="2.26" stroke-linejoin="bevel" points="176.4,457.6 1353.6,457.6" />
<polyline class="StaffLines" fill="none" stroke="#000000" stroke-width="2.26" stroke-linejoin="bevel" points="176.4,482.4 1353.6,482.4" />
<polyline class="StaffLines" fill="none" stroke="#000000" stroke-width="2.26" stroke-linejoin="bevel" points="176.4,507.2 1353.6,507.2" />
<polyline class="StaffLines" fill="none" stroke="#000000" stroke-width="2.26" stroke-linejoin="bevel" points="176.4,532 1353.6,532" />
<polyline class="BarLine" fill="none" stroke="#000000" stroke-width="2.48" stroke-linejoin="bevel" points="177.64,197.484 177.64,432.8" />
<polyline class="BarLine" fill="none" stroke="#000000" stroke-width="2.48" stroke-linejoin="bevel" points="1337.48,197.484 1337.48,432.8" />
<polyline class="BarLine" fill="none" stroke="#000000" stroke-width="2.48" stroke-linejoin="bevel" points="1352.36,197.484 1352.36,432.8" />
<polyline class="BarLine" fill="none" stroke="#000000" stroke-width="2.48" stroke-linejoin="bevel" points="947.497,197.484 947.497,432.8" />
<polyline class="BarLine" fill="none" stroke="#000000" stroke-width="2.48" stroke-linejoin="bevel" points="177.64,431.671 177.64,533.128" />
<polyline class="BarLine" fill="none" stroke="#000000" stroke-width="2.48" stroke-linejoin="bevel" points="1337.48,431.671 1337.48,533.128" />
<polyline class="BarLine" fill="none" stroke="#000000" stroke-width="2.48" stroke-linejoin="bevel" points="1352.36,431.671 1352.36,533.128" />
<polyline class="BarLine" fill="none" stroke="#000000" stroke-width="2.48" stroke-linejoin="bevel" points="947.497,431.671 947.497,533.128" />
<path class="TieSegment" stroke="#000000" stroke-width="1.24" stroke-linecap="round" stroke-linejoin="round" fill-rule="evenodd" d="M454.044,163.893 C469.745,178.011 516.848,178.011 532.549,163.893 C516.848,186.551 469.745,186.551 454.044,163.893"/>
<path class="TieSegment" stroke="#000000" stroke-width="1.24" stroke-linecap="round" stroke-linejoin="round" fill-rule="evenodd" d="M454.044,106.457 C473.395,81.4657 531.449,81.4657 550.8,106.457 C531.449,91.2228 473.395,91.2228 454.044,106.457"/>
<polyline class="LedgerLine" fill="none" stroke="#000000" stroke-width="2.73" stroke-linejoin="bevel" points="625.382,124.213 669.325,124.213" />
<polyline class="LedgerLine" fill="none" stroke="#000000" stroke-width="2.73" stroke-linejoin="bevel" points="625.382,99.4125 669.325,99.4125" />
<polyline class="LedgerLine" fill="none" stroke="#000000" stroke-width="2.73" stroke-linejoin="bevel" points="429.593,173.813 473.535,173.813" />
<polyline class="LedgerLine" fill="none" stroke="#000000" stroke-width="2.73" stroke-linejoin="bevel" points="429.593,149.013 473.535,149.013" />
<polyline class="LedgerLine" fill="none" stroke="#000000" stroke-width="2.73" stroke-linejoin="bevel" points="429.593,124.213 473.535,124.213" />
<polyline class="LedgerLine" fill="none" stroke="#000000" stroke-width="2.73" stroke-linejoin="bevel" points="871.315,173.813 915.257,173.813" />
<polyline class="LedgerLine" fill="none" stroke="#000000" stroke-width="2.73" stroke-linejoin="bevel" points="871.315,149.013 915.257,149.013" />
<polyline class="LedgerLine" fill="none" stroke="#000000" stroke-width="2.73" stroke-linejoin="bevel" points="973.537,149.013 1018.47,149.013" />
<polyline class="LedgerLine" fill="none" stroke="#000000" stroke-width="2.73" stroke-linejoin="bevel" points="871.315,124.213 915.257,124.213" />
<polyline class="LedgerLine" fill="none" stroke="#000000" stroke-width="2.73" stroke-linejoin="bevel" points="973.537,173.813 1018.47,173.813" />
<polyline class="LedgerLine" fill="none" stroke="#000000" stroke-width="2.73" stroke-linejoin="bevel" points="777.241,173.813 821.184,173.813" />
<polyline class="LedgerLine" fill="none" stroke="#000000" stroke-width="2.73" stroke-linejoin="bevel" points="777.241,149.013 821.184,149.013" />
<polyline class="LedgerLine" fill="none" stroke="#000000" stroke-width="2.73" stroke-linejoin="bevel" points="777.241,124.213 821.184,124.213" />
<polyline class="LedgerLine" fill="none" stroke="#000000" stroke-width="2.73" stroke-linejoin="bevel" points="675.525,173.813 719.468,173.813" />
<polyline class="LedgerLine" fill="none" stroke="#000000" stroke-width="2.73" stroke-linejoin="bevel" points="531.309,124.213 575.252,124.213" />
<polyline class="LedgerLine" fill="none" stroke="#000000" stroke-width="2.73" stroke-linejoin="bevel" points="531.309,149.013 575.252,149.013" />
<polyline class="LedgerLine" fill="none" stroke="#000000" stroke-width="2.73" stroke-linejoin="bevel" points="531.309,173.813 575.252,173.813" />
<polyline class="LedgerLine" fill="none" stroke="#000000" stroke-width="2.73" stroke-linejoin="bevel" points="675.525,149.013 719.468,149.013" />
<polyline class="LedgerLine" fill="none" stroke="#000000" stroke-width="2.73" stroke-linejoin="bevel" points="1126.61,124.213 1170.55,124.213" />
<polyline class="LedgerLine" fill="none" stroke="#000000" stroke-width="2.73" stroke-linejoin="bevel" points="1126.61,149.013 1170.55,149.013" />
<polyline class="LedgerLine" fill="none" stroke="#000000" stroke-width="2.73" stroke-linejoin="bevel" points="675.525,124.213 719.468,124.213" />
<polyline class="LedgerLine" fill="none" stroke="#000000" stroke-width="2.73" stroke-linejoin="bevel" points="1126.61,173.813 1170.55,173.813" />
<polyline class="LedgerLine" fill="none" stroke="#000000" stroke-width="2.73" stroke-linejoin="bevel" points="675.525,99.4125 719.468,99.4125" />
<polyline class="LedgerLine" fill="none" stroke="#000000" stroke-width="2.73" stroke-linejoin="bevel" points="625.382,173.813 669.325,173.813" />
<polyline class="LedgerLine" fill="none" stroke="#000000" stroke-width="2.73" stroke-linejoin="bevel" points="625.382,149.013 669.325,149.013" />
<polyline class="LedgerLine" fill="none" stroke="#000000" stroke-width="2.73" stroke-linejoin="bevel" points="973.537,124.213 1018.47,124.213" />
<polyline class="LedgerLine" fill="none" stroke="#000000" stroke-width="2.73" stroke-linejoin="bevel" points="1126.61,358.4 1170.55,358.4" />
<polyline class="LedgerLine" fill="none" stroke="#000000" stroke-width="2.73" stroke-linejoin="bevel" points="777.241,358.4 821.184,358.4" />
<polyline class="LedgerLine" fill="none" stroke="#000000" stroke-width="2.73" stroke-linejoin="bevel" points="973.537,408 1018.47,408" />
<polyline class="LedgerLine" fill="none" stroke="#000000" stroke-width="2.73" stroke-linejoin="bevel" points="973.537,383.2 1018.47,383.2" />
<polyline class="LedgerLine" fill="none" stroke="#000000" stroke-width="2.73" stroke-linejoin="bevel" points="973.537,358.4 1018.47,358.4" />
<polyline class="LedgerLine" fill="none" stroke="#000000" stroke-width="2.73" stroke-linejoin="bevel" points="429.097,358.4 474.031,358.4" />
<polyline class="LedgerLine" fill="none" stroke="#000000" stroke-width="2.73" stroke-linejoin="bevel" points="429.097,383.2 474.031,383.2" />
<polyline class="LedgerLine" fill="none" stroke="#000000" stroke-width="2.73" stroke-linejoin="bevel" points="871.315,408 915.257,408" />
<polyline class="LedgerLine" fill="none" stroke="#000000" stroke-width="2.73" stroke-linejoin="bevel" points="871.315,383.2 915.257,383.2" />
<polyline class="LedgerLine" fill="none" stroke="#000000" stroke-width="2.73" stroke-linejoin="bevel" points="871.315,358.4 915.257,358.4" />
<polyline class="LedgerLine" fill="none" stroke="#000000" stroke-width="2.73" stroke-linejoin="bevel" points="429.097,408 474.031,408" />
<polyline class="LedgerLine" fill="none" stroke="#000000" stroke-width="2.73" stroke-linejoin="bevel" points="1126.61,383.2 1170.55,383.2" />
<polyline class="LedgerLine" fill="none" stroke="#000000" stroke-width="2.73" stroke-linejoin="bevel" points="1126.61,408 1170.55,408" />
<polyline class="LedgerLine" fill="none" stroke="#000000" stroke-width="2.73" stroke-linejoin="bevel" points="777.241,408 821.184,408" />
<polyline class="LedgerLine" fill="none" stroke="#000000" stroke-width="2.73" stroke-linejoin="bevel" points="777.241,383.2 821.184,383.2" />
<polyline class="Stem" fill="none" stroke="#000000" stroke-width="2.26" stroke-linejoin="bevel" points="1133.94,128.181 1133.94,248.213" />
<polyline class="Stem" fill="none" stroke="#000000" stroke-width="2.26" stroke-linejoin="bevel" points="682.853,90.9805 682.853,248.213" />
<polyline class="Stem" fill="none" stroke="#000000" stroke-width="2.26" stroke-linejoin="bevel" points="436.921,128.181 436.921,248.213" />
<polyline class="Stem" fill="none" stroke="#000000" stroke-width="2.26" stroke-linejoin="bevel" points="980.866,116.773 980.866,248.213" />
<polyline class="Stem" fill="none" stroke="#000000" stroke-width="2.26" stroke-linejoin="bevel" points="538.637,128.181 538.637,266.813" />
<polyline class="Stem" fill="none" stroke="#000000" stroke-width="2.26" stroke-linejoin="bevel" points="784.57,128.181 784.57,266.813" />
<polyline class="Stem" fill="none" stroke="#000000" stroke-width="2.26" stroke-linejoin="bevel" points="632.711,90.9805 632.711,266.813" />
<polyline class="Stem" fill="none" stroke="#000000" stroke-width="2.26" stroke-linejoin="bevel" points="878.643,115.781 878.643,266.813" />
<polyline class="Stem" fill="none" stroke="#000000" stroke-width="2.26" stroke-linejoin="bevel" points="1133.94,349.968 1133.94,482.4" />
<polyline class="Stem" fill="none" stroke="#000000" stroke-width="2.26" stroke-linejoin="bevel" points="784.57,349.968 784.57,501.036" />
<polyline class="Stem" fill="none" stroke="#000000" stroke-width="2.26" stroke-linejoin="bevel" points="980.866,350.96 980.866,482.4" />
<polyline class="Stem" fill="none" stroke="#000000" stroke-width="2.26" stroke-linejoin="bevel" points="878.643,349.968 878.643,504.063" />
<polyline class="Stem" fill="none" stroke="#000000" stroke-width="2.26" stroke-linejoin="bevel" points="436.425,350.96 436.425,482.4" />
<path class="Note" transform="matrix(0.992001,0,0,0.992001,681.725,149.013)" d="M0,4 C0,9.3 4.3,13.2 11.1,13.2 C20.6,13.2 31.8,5.6 31.8,-3.5 C31.8,-8.8 27.5,-12.6 20.6,-12.6 C11.4,-12.6 0,-5.5 0,4"/>
<path class="Note" transform="matrix(0.992001,0,0,0.992001,1132.81,124.213)" d="M0,4 C0,9.3 4.3,13.2 11.1,13.2 C20.6,13.2 31.8,5.6 31.8,-3.5 C31.8,-8.8 27.5,-12.6 20.6,-12.6 C11.4,-12.6 0,-5.5 0,4"/>
<path class="Note" transform="matrix(0.992001,0,0,0.992001,1132.81,149.013)" d="M0,4 C0,9.3 4.3,13.2 11.1,13.2 C20.6,13.2 31.8,5.6 31.8,-3.5 C31.8,-8.8 27.5,-12.6 20.6,-12.6 C11.4,-12.6 0,-5.5 0,4"/>
<path class="Note" transform="matrix(0.992001,0,0,0.992001,783.441,124.213)" d="M0,4 C0,9.3 4.3,13.2 11.1,13.2 C20.6,13.2 31.8,5.6 31.8,-3.5 C31.8,-8.8 27.5,-12.6 20.6,-12.6 C11.4,-12.6 0,-5.5 0,4"/>
<path class="Note" transform="matrix(0.992001,0,0,0.992001,631.582,149.013)" d="M0,4 C0,9.3 4.3,13.2 11.1,13.2 C20.6,13.2 31.8,5.6 31.8,-3.5 C31.8,-8.8 27.5,-12.6 20.6,-12.6 C11.4,-12.6 0,-5.5 0,4"/>
<path class="Note" transform="matrix(0.992001,0,0,0.992001,631.582,124.213)" d="M0,4 C0,9.3 4.3,13.2 11.1,13.2 C20.6,13.2 31.8,5.6 31.8,-3.5 C31.8,-8.8 27.5,-12.6 20.6,-12.6 C11.4,-12.6 0,-5.5 0,4"/>
<path class="Note" transform="matrix(0.992001,0,0,0.992001,631.582,87.0125)" d="M0,4 C0,9.3 4.3,13.2 11.1,13.2 C20.6,13.2 31.8,5.6 31.8,-3.5 C31.8,-8.8 27.5,-12.6 20.6,-12.6 C11.4,-12.6 0,-5.5 0,4"/>
<path class="Note" transform="matrix(0.992001,0,0,0.992001,783.441,149.013)" d="M0,4 C0,9.3 4.3,13.2 11.1,13.2 C20.6,13.2 31.8,5.6 31.8,-3.5 C31.8,-8.8 27.5,-12.6 20.6,-12.6 C11.4,-12.6 0,-5.5 0,4"/>
<path class="Note" transform="matrix(0.992001,0,0,0.992001,979.737,111.813)" d="M20.8,-13.2 C9.7,-13.2 0,-4.6 0,5 C0,13.1 10.6,13.4 12.9,13.4 C25,13.4 32.8,4 32.8,-4.9 C32.8,-11.4 25.9,-13.2 20.8,-13.2 M30.2,-5.7 C30.2,-1.6 23.9,2.4 16.2,6.3 C16.2,6.3 10.3,9.7 7.2,9.7 C4.9,9.7 2.8,8.6 2.8,6 C2.8,1.3 13.6,-4.2 17.7,-6.3 C21.2,-8 23.6,-9.3 25.7,-9.3 C28.4,-9.3 30.2,-7.8 30.2,-5.7"/>
<path class="Note" transform="matrix(0.992001,0,0,0.992001,979.737,149.013)" d="M20.8,-13.2 C9.7,-13.2 0,-4.6 0,5 C0,13.1 10.6,13.4 12.9,13.4 C25,13.4 32.8,4 32.8,-4.9 C32.8,-11.4 25.9,-13.2 20.8,-13.2 M30.2,-5.7 C30.2,-1.6 23.9,2.4 16.2,6.3 C16.2,6.3 10.3,9.7 7.2,9.7 C4.9,9.7 2.8,8.6 2.8,6 C2.8,1.3 13.6,-4.2 17.7,-6.3 C21.2,-8 23.6,-9.3 25.7,-9.3 C28.4,-9.3 30.2,-7.8 30.2,-5.7"/>
<path class="Note" transform="matrix(0.992001,0,0,0.992001,435.793,149.013)" d="M0,4 C0,9.3 4.3,13.2 11.1,13.2 C20.6,13.2 31.8,5.6 31.8,-3.5 C31.8,-8.8 27.5,-12.6 20.6,-12.6 C11.4,-12.6 0,-5.5 0,4"/>
<path class="Note" transform="matrix(0.992001,0,0,0.992001,877.515,149.013)" d="M0,4 C0,9.3 4.3,13.2 11.1,13.2 C20.6,13.2 31.8,5.6 31.8,-3.5 C31.8,-8.8 27.5,-12.6 20.6,-12.6 C11.4,-12.6 0,-5.5 0,4"/>
<path class="Note" transform="matrix(0.992001,0,0,0.992001,877.515,111.813)" d="M0,4 C0,9.3 4.3,13.2 11.1,13.2 C20.6,13.2 31.8,5.6 31.8,-3.5 C31.8,-8.8 27.5,-12.6 20.6,-12.6 C11.4,-12.6 0,-5.5 0,4"/>
<path class="Note" transform="matrix(0.992001,0,0,0.992001,537.509,124.213)" d="M0,4 C0,9.3 4.3,13.2 11.1,13.2 C20.6,13.2 31.8,5.6 31.8,-3.5 C31.8,-8.8 27.5,-12.6 20.6,-12.6 C11.4,-12.6 0,-5.5 0,4"/>
<path class="Note" transform="matrix(0.992001,0,0,0.992001,681.725,87.0125)" d="M0,4 C0,9.3 4.3,13.2 11.1,13.2 C20.6,13.2 31.8,5.6 31.8,-3.5 C31.8,-8.8 27.5,-12.6 20.6,-12.6 C11.4,-12.6 0,-5.5 0,4"/>
<path class="Note" transform="matrix(0.992001,0,0,0.992001,681.725,124.213)" d="M0,4 C0,9.3 4.3,13.2 11.1,13.2 C20.6,13.2 31.8,5.6 31.8,-3.5 C31.8,-8.8 27.5,-12.6 20.6,-12.6 C11.4,-12.6 0,-5.5 0,4"/>
<path class="Note" transform="matrix(0.992001,0,0,0.992001,435.793,124.213)" d="M0,4 C0,9.3 4.3,13.2 11.1,13.2 C20.6,13.2 31.8,5.6 31.8,-3.5 C31.8,-8.8 27.5,-12.6 20.6,-12.6 C11.4,-12.6 0,-5.5 0,4"/>
<path class="Note" transform="matrix(0.992001,0,0,0.992001,537.509,149.013)" d="M0,4 C0,9.3 4.3,13.2 11.1,13.2 C20.6,13.2 31.8,5.6 31.8,-3.5 C31.8,-8.8 27.5,-12.6 20.6,-12.6 C11.4,-12.6 0,-5.5 0,4"/>
<path class="Note" transform="matrix(0.992001,0,0,0.992001,435.297,346)" d="M20.8,-13.2 C9.7,-13.2 0,-4.6 0,5 C0,13.1 10.6,13.4 12.9,13.4 C25,13.4 32.8,4 32.8,-4.9 C32.8,-11.4 25.9,-13.2 20.8,-13.2 M30.2,-5.7 C30.2,-1.6 23.9,2.4 16.2,6.3 C16.2,6.3 10.3,9.7 7.2,9.7 C4.9,9.7 2.8,8.6 2.8,6 C2.8,1.3 13.6,-4.2 17.7,-6.3 C21.2,-8 23.6,-9.3 25.7,-9.3 C28.4,-9.3 30.2,-7.8 30.2,-5.7"/>
<path class="Note" transform="matrix(0.992001,0,0,0.992001,877.515,346)" d="M0,4 C0,9.3 4.3,13.2 11.1,13.2 C20.6,13.2 31.8,5.6 31.8,-3.5 C31.8,-8.8 27.5,-12.6 20.6,-12.6 C11.4,-12.6 0,-5.5 0,4"/>
<path class="Note" transform="matrix(0.992001,0,0,0.992001,877.515,370.8)" d="M0,4 C0,9.3 4.3,13.2 11.1,13.2 C20.6,13.2 31.8,5.6 31.8,-3.5 C31.8,-8.8 27.5,-12.6 20.6,-12.6 C11.4,-12.6 0,-5.5 0,4"/>
<path class="Note" transform="matrix(0.992001,0,0,0.992001,783.441,346)" d="M0,4 C0,9.3 4.3,13.2 11.1,13.2 C20.6,13.2 31.8,5.6 31.8,-3.5 C31.8,-8.8 27.5,-12.6 20.6,-12.6 C11.4,-12.6 0,-5.5 0,4"/>
<path class="Note" transform="matrix(0.992001,0,0,0.992001,979.737,370.8)" d="M20.8,-13.2 C9.7,-13.2 0,-4.6 0,5 C0,13.1 10.6,13.4 12.9,13.4 C25,13.4 32.8,4 32.8,-4.9 C32.8,-11.4 25.9,-13.2 20.8,-13.2 M30.2,-5.7 C30.2,-1.6 23.9,2.4 16.2,6.3 C16.2,6.3 10.3,9.7 7.2,9.7 C4.9,9.7 2.8,8.6 2.8,6 C2.8,1.3 13.6,-4.2 17.7,-6.3 C21.2,-8 23.6,-9.3 25.7,-9.3 C28.4,-9.3 30.2,-7.8 30.2,-5.7"/>
<path class="Note" transform="matrix(0.992001,0,0,0.992001,979.737,346)" d="M20.8,-13.2 C9.7,-13.2 0,-4.6 0,5 C0,13.1 10.6,13.4 12.9,13.4 C25,13.4 32.8,4 32.8,-4.9 C32.8,-11.4 25.9,-13.2 20.8,-13.2 M30.2,-5.7 C30.2,-1.6 23.9,2.4 16.2,6.3 C16.2,6.3 10.3,9.7 7.2,9.7 C4.9,9.7 2.8,8.6 2.8,6 C2.8,1.3 13.6,-4.2 17.7,-6.3 C21.2,-8 23.6,-9.3 25.7,-9.3 C28.4,-9.3 30.2,-7.8 30.2,-5.7"/>
<path class="Note" transform="matrix(0.992001,0,0,0.992001,1132.81,346)" d="M0,4 C0,9.3 4.3,13.2 11.1,13.2 C20.6,13.2 31.8,5.6 31.8,-3.5 C31.8,-8.8 27.5,-12.6 20.6,-12.6 C11.4,-12.6 0,-5.5 0,4"/>
<path class="Clef" transform="matrix(0.992001,0,0,0.992001,201.743,273.013)" d="M48.8,-101.5 C52.4,-101.5 54.8,-97.4 54.8,-91.9 C54.8,-81.9 43,-69.7 35,-63.4 C34.6,-65.9 34.5,-68.4 34.5,-71 C34.5,-85.8 40,-101.5 48.8,-101.5 M42.9,-14.5 C54.6,-14.3 60.2,-7.2 60.2,3.6 C60.2,11.1 56.1,18.9 48.6,21.1 L42.9,-14.5 M46.2,21.9 C43.5,22.6 40.8,22.9 38.2,22.9 C20.7,22.9 6.8,9.4 6.8,-5.9 C6.8,-21.4 23.1,-36.5 35.3,-45.5 L38.3,-27.1 C26.4,-24.6 20.5,-13.8 20.5,-6 C20.5,3.1 25.9,10.6 33.8,13.4 L34.8,12.3 C30.3,10.1 26.9,3.2 26.9,-1.2 C26.9,-5.4 30.1,-12.9 40.2,-14.3 L46.2,21.9 M46.7,25.2 C48.1,32.1 49.9,46.8 49.9,49.4 C49.9,59.5 42.4,66.4 33.8,66.4 C28.2,66.4 24.3,64.3 23,62.5 C30.8,60.3 34.1,55.7 34.1,51 C34.1,45.1 28.7,40.9 23.7,40.9 C15.9,40.9 12.8,47.7 12.8,53.7 C12.8,65.1 25.5,69 33.2,69 C46.7,69 52.5,58.7 52.5,50.2 C52.5,47.3 50.4,30.6 49.2,24.5 C60.4,20.7 68.3,9.4 68.3,-2.4 C68.3,-16.4 59.1,-27.7 43.6,-27.7 C42.7,-27.7 41.8,-27.7 40.9,-27.6 L37.6,-47 C44,-52.1 48.3,-56.8 51.8,-62.7 C56.1,-70 58.9,-77 58.9,-89.2 C58.9,-100.3 51.7,-117 47.3,-117 C41.4,-117 33.7,-102.6 32.2,-95.8 C31.1,-91 30.6,-85.2 30.6,-81.4 C30.6,-74.2 31.5,-68 32.5,-61.3 C16.9,-49.8 0,-33.7 0,-13.5 C0,11 18.3,26.1 38.7,26.1 C41.6,26.1 44.2,25.7 46.7,25.2"/>
<path class="Clef" transform="matrix(0.992001,0,0,0.992001,201.743,457.6)" d="M51.7,2.8 C51.7,-11.4 42,-25 24.8,-25 C8,-25 0,-13.6 0,-1.5 C0,5.3 4.9,11 11,11 C17.5,11 21.6,6 21.6,0.9 C21.6,-4.1 18.7,-9.1 13,-9.1 C8.9,-9.1 6.8,-7.1 5.9,-7.1 C5.1,-7.1 5.1,-8.3 5.1,-8.6 C5.1,-15.7 14.3,-22.1 22.3,-22.1 C31.5,-22.1 37.2,-12.6 37.2,2 C37.2,24.4 27.4,46.5 -4.3,57.1 L-3.6,58.6 C26.3,54.7 51.7,30.9 51.7,2.8 M55.5,-12.3 C55.5,-9.1 58,-6.9 61.1,-6.9 C64.3,-6.9 66.5,-9.4 66.5,-12.5 C66.5,-15.7 64,-17.7 60.9,-17.7 C57.7,-17.7 55.5,-15.4 55.5,-12.3 M55.4,12.9 C55.5,16.1 58,18.3 61.1,18.3 C64.3,18.3 66.5,15.8 66.5,12.7 C66.5,9.6 64,7.5 60.9,7.5 C57.8,7.5 55.4,9.9 55.4,12.9"/>
<path class="KeySig" transform="matrix(0.992001,0,0,0.992001,288.093,198.613)" d="M17,31.4 L19.9,31.4 L19.9,15 L23.8,13.8 L23.8,3.4 L19.9,4.6 L19.9,-10.2 L23.8,-11.5 L23.8,-21.9 L19.9,-20.6 L19.9,-34.4 L17,-34.4 L17,-19.7 L7.2,-16.5 L7.2,-31.9 L4.3,-31.9 L4.3,-15.6 L0,-14.2 L0,-3.8 L4.3,-5.2 L4.3,9.7 L0,11.1 L0,21.5 L4.3,20.1 L4.3,33.9 L7.2,33.9 L7.2,19.1 L17,16 L17,31.4 M7.2,-6.1 L17,-9.3 L17,5.6 L7.2,8.7 L7.2,-6.1 "/>
<path class="KeySig" transform="matrix(0.992001,0,0,0.992001,319.14,235.813)" d="M17,31.4 L19.9,31.4 L19.9,15 L23.8,13.8 L23.8,3.4 L19.9,4.6 L19.9,-10.2 L23.8,-11.5 L23.8,-21.9 L19.9,-20.6 L19.9,-34.4 L17,-34.4 L17,-19.7 L7.2,-16.5 L7.2,-31.9 L4.3,-31.9 L4.3,-15.6 L0,-14.2 L0,-3.8 L4.3,-5.2 L4.3,9.7 L0,11.1 L0,21.5 L4.3,20.1 L4.3,33.9 L7.2,33.9 L7.2,19.1 L17,16 L17,31.4 M7.2,-6.1 L17,-9.3 L17,5.6 L7.2,8.7 L7.2,-6.1 "/>
<path class="KeySig" transform="matrix(0.992001,0,0,0.992001,350.186,186.213)" d="M17,31.4 L19.9,31.4 L19.9,15 L23.8,13.8 L23.8,3.4 L19.9,4.6 L19.9,-10.2 L23.8,-11.5 L23.8,-21.9 L19.9,-20.6 L19.9,-34.4 L17,-34.4 L17,-19.7 L7.2,-16.5 L7.2,-31.9 L4.3,-31.9 L4.3,-15.6 L0,-14.2 L0,-3.8 L4.3,-5.2 L4.3,9.7 L0,11.1 L0,21.5 L4.3,20.1 L4.3,33.9 L7.2,33.9 L7.2,19.1 L17,16 L17,31.4 M7.2,-6.1 L17,-9.3 L17,5.6 L7.2,8.7 L7.2,-6.1 "/>
<path class="KeySig" transform="matrix(0.992001,0,0,0.992001,288.093,457.6)" d="M17,31.4 L19.9,31.4 L19.9,15 L23.8,13.8 L23.8,3.4 L19.9,4.6 L19.9,-10.2 L23.8,-11.5 L23.8,-21.9 L19.9,-20.6 L19.9,-34.4 L17,-34.4 L17,-19.7 L7.2,-16.5 L7.2,-31.9 L4.3,-31.9 L4.3,-15.6 L0,-14.2 L0,-3.8 L4.3,-5.2 L4.3,9.7 L0,11.1 L0,21.5 L4.3,20.1 L4.3,33.9 L7.2,33.9 L7.2,19.1 L17,16 L17,31.4 M7.2,-6.1 L17,-9.3 L17,5.6 L7.2,8.7 L7.2,-6.1 "/>
<path class="KeySig" transform="matrix(0.992001,0,0,0.992001,319.14,494.8)" d="M17,31.4 L19.9,31.4 L19.9,15 L23.8,13.8 L23.8,3.4 L19.9,4.6 L19.9,-10.2 L23.8,-11.5 L23.8,-21.9 L19.9,-20.6 L19.9,-34.4 L17,-34.4 L17,-19.7 L7.2,-16.5 L7.2,-31.9 L4.3,-31.9 L4.3,-15.6 L0,-14.2 L0,-3.8 L4.3,-5.2 L4.3,9.7 L0,11.1 L0,21.5 L4.3,20.1 L4.3,33.9 L7.2,33.9 L7.2,19.1 L17,16 L17,31.4 M7.2,-6.1 L17,-9.3 L17,5.6 L7.2,8.7 L7.2,-6.1 "/>
<path class="KeySig" transform="matrix(0.992001,0,0,0.992001,350.186,445.2)" d="M17,31.4 L19.9,31.4 L19.9,15 L23.8,13.8 L23.8,3.4 L19.9,4.6 L19.9,-10.2 L23.8,-11.5 L23.8,-21.9 L19.9,-20.6 L19.9,-34.4 L17,-34.4 L17,-19.7 L7.2,-16.5 L7.2,-31.9 L4.3,-31.9 L4.3,-15.6 L0,-14.2 L0,-3.8 L4.3,-5.2 L4.3,9.7 L0,11.1 L0,21.5 L4.3,20.1 L4.3,33.9 L7.2,33.9 L7.2,19.1 L17,16 L17,31.4 M7.2,-6.1 L17,-9.3 L17,5.6 L7.2,8.7 L7.2,-6.1 "/>
<path class="Beam" fill-rule="evenodd" d="M537.509,260.613 L633.839,260.613 L633.839,273.013 L537.509,273.013 L537.509,260.613 "/>
<path class="Beam" fill-rule="evenodd" d="M633.839,242.013 L606.559,242.013 L606.559,254.413 L633.839,254.413 L633.839,242.013 "/>
<path class="Beam" fill-rule="evenodd" d="M633.839,223.413 L606.559,223.413 L606.559,235.813 L633.839,235.813 L633.839,223.413 "/>
<path class="Beam" fill-rule="evenodd" d="M783.441,260.613 L879.771,260.613 L879.771,273.013 L783.441,273.013 L783.441,260.613 "/>
<path class="Beam" fill-rule="evenodd" d="M879.771,242.013 L852.491,242.013 L852.491,254.413 L879.771,254.413 L879.771,242.013 "/>
<path class="Beam" fill-rule="evenodd" d="M879.771,223.413 L852.491,223.413 L852.491,235.813 L879.771,235.813 L879.771,223.413 "/>
<path class="Beam" fill-rule="evenodd" d="M783.441,494.797 L879.771,497.897 L879.771,510.303 L783.441,507.203 L783.441,494.797 "/>
<path class="Beam" fill-rule="evenodd" d="M879.771,477.747 L852.491,476.869 L852.491,489.275 L879.771,490.153 L879.771,477.747 "/>
<path class="Beam" fill-rule="evenodd" d="M879.771,457.596 L852.491,456.719 L852.491,469.125 L879.771,470.003 L879.771,457.596 "/>
<path class="StaffText" d="M178.566,145.112 C178.566,146.382 179.03,147.383 179.957,148.115 C180.885,148.848 181.984,149.214 183.253,149.214 C184.799,149.214 186.297,148.856 187.745,148.14 C190.187,146.952 191.408,145.007 191.408,142.305 L191.408,138.765 C190.87,139.107 190.179,139.391 189.332,139.619 C188.486,139.847 187.656,140.01 186.842,140.108 L184.181,140.449 C182.586,140.661 181.39,140.995 180.592,141.45 C179.241,142.215 178.566,143.436 178.566,145.112 M189.21,136.226 C190.219,136.096 190.895,135.672 191.237,134.956 C191.432,134.566 191.53,134.004 191.53,133.272 C191.53,131.774 190.997,130.688 189.93,130.012 C188.864,129.337 187.339,128.999 185.353,128.999 C183.058,128.999 181.43,129.618 180.47,130.855 C179.933,131.538 179.583,132.555 179.42,133.906 L175.319,133.906 C175.4,130.684 176.446,128.442 178.456,127.18 C180.466,125.919 182.798,125.288 185.45,125.288 C188.527,125.288 191.025,125.874 192.946,127.046 C194.85,128.218 195.802,130.041 195.802,132.515 L195.802,147.578 C195.802,148.034 195.896,148.4 196.083,148.677 C196.27,148.954 196.665,149.092 197.267,149.092 C197.462,149.092 197.682,149.08 197.926,149.055 C198.17,149.031 198.431,148.994 198.707,148.945 L198.707,152.193 C198.024,152.388 197.503,152.51 197.145,152.559 C196.787,152.608 196.298,152.632 195.68,152.632 C194.166,152.632 193.068,152.095 192.384,151.021 C192.026,150.451 191.774,149.645 191.627,148.604 C190.732,149.776 189.446,150.793 187.77,151.655 C186.093,152.518 184.246,152.949 182.228,152.949 C179.803,152.949 177.821,152.213 176.283,150.74 C174.745,149.267 173.976,147.424 173.976,145.21 C173.976,142.785 174.733,140.905 176.246,139.57 C177.76,138.236 179.746,137.414 182.203,137.105 L189.21,136.226 M201.504,162.276 C204.092,157.23 205.76,153.552 206.509,151.24 C207.648,147.741 208.218,143.639 208.218,138.936 C208.218,134.232 207.559,129.927 206.241,126.021 C205.427,123.612 203.824,120.145 201.431,115.62 L204.385,115.62 C206.892,119.624 208.409,122.094 208.938,123.03 C209.467,123.966 210.041,125.256 210.659,126.9 C211.441,128.934 211.998,130.944 212.332,132.93 C212.666,134.916 212.832,136.828 212.832,138.667 C212.832,143.485 212.067,147.782 210.537,151.558 C209.577,153.983 207.583,157.555 204.556,162.276 L201.504,162.276 "/>
<path class="SystemText" d="M365.806,14.5201 L372.569,43.6949 L380.674,14.5201 L385.948,14.5201 L394.053,43.6949 L400.816,14.5201 L406.138,14.5201 L396.714,50.3844 L391.612,50.3844 L383.335,20.648 L375.01,50.3844 L369.908,50.3844 L360.533,14.5201 L365.806,14.5201 M411.581,43.4264 C411.581,44.6959 412.044,45.6969 412.972,46.4293 C413.9,47.1617 414.999,47.5279 416.268,47.5279 C417.814,47.5279 419.312,47.1699 420.76,46.4537 C423.202,45.2656 424.422,43.3206 424.422,40.6188 L424.422,37.0787 C423.885,37.4205 423.194,37.7053 422.347,37.9332 C421.501,38.1611 420.671,38.3238 419.857,38.4215 L417.196,38.7633 C415.601,38.9749 414.404,39.3085 413.607,39.7643 C412.256,40.5292 411.581,41.7499 411.581,43.4264 M422.225,34.5396 C423.234,34.4094 423.91,33.9863 424.251,33.2701 C424.447,32.8795 424.544,32.318 424.544,31.5855 C424.544,30.0882 424.011,29.0017 422.945,28.3263 C421.879,27.6508 420.353,27.3131 418.368,27.3131 C416.073,27.3131 414.445,27.9316 413.485,29.1686 C412.948,29.8521 412.598,30.8694 412.435,32.2203 L408.333,32.2203 C408.415,28.9977 409.461,26.7556 411.471,25.4942 C413.481,24.2328 415.812,23.6021 418.465,23.6021 C421.542,23.6021 424.04,24.1881 425.96,25.36 C427.865,26.5318 428.817,28.3548 428.817,30.8287 L428.817,45.8922 C428.817,46.3479 428.91,46.7141 429.098,46.9908 C429.285,47.2675 429.68,47.4059 430.282,47.4059 C430.477,47.4059 430.697,47.3937 430.941,47.3692 C431.185,47.3448 431.445,47.3082 431.722,47.2594 L431.722,50.5064 C431.039,50.7018 430.518,50.8238 430.16,50.8727 C429.802,50.9215 429.313,50.9459 428.695,50.9459 C427.181,50.9459 426.083,50.4088 425.399,49.3346 C425.041,48.7649 424.789,47.9592 424.642,46.9176 C423.747,48.0895 422.461,49.1067 420.785,49.9693 C419.108,50.832 417.261,51.2633 415.243,51.2633 C412.818,51.2633 410.836,50.5268 409.298,49.0538 C407.76,47.5808 406.991,45.7376 406.991,43.524 C406.991,41.0989 407.748,39.219 409.261,37.8844 C410.775,36.5497 412.761,35.7278 415.218,35.4186 L422.225,34.5396 M445.237,23.773 C447.288,23.773 449.078,24.2776 450.608,25.2867 C451.438,25.8564 452.284,26.6865 453.147,27.777 L453.147,24.4811 L457.2,24.4811 L457.2,48.2604 C457.2,51.5807 456.711,54.2011 455.735,56.1217 C453.912,59.6699 450.47,61.4439 445.408,61.4439 C442.592,61.4439 440.224,60.8132 438.303,59.5519 C436.383,58.2905 435.308,56.317 435.081,53.6314 L439.548,53.6314 C439.76,54.8033 440.183,55.7066 440.818,56.3414 C441.811,57.318 443.373,57.8063 445.505,57.8063 C448.875,57.8063 451.08,56.6181 452.122,54.2418 C452.74,52.8421 453.025,50.3437 452.976,46.7467 C452.097,48.0813 451.039,49.0742 449.802,49.7252 C448.565,50.3762 446.93,50.7018 444.895,50.7018 C442.063,50.7018 439.585,49.6967 437.461,47.6866 C435.337,45.6765 434.275,42.3521 434.275,37.7135 C434.275,33.3352 435.345,29.9173 437.485,27.4596 C439.626,25.0019 442.209,23.773 445.237,23.773 M453.147,37.2008 C453.147,33.9618 452.48,31.5611 451.145,29.9986 C449.81,28.4361 448.11,27.6549 446.042,27.6549 C442.95,27.6549 440.834,29.1035 439.695,32.0006 C439.093,33.5468 438.792,35.5732 438.792,38.0797 C438.792,41.0257 439.39,43.2677 440.586,44.8058 C441.782,46.3438 443.389,47.1129 445.408,47.1129 C448.565,47.1129 450.787,45.6887 452.073,42.8404 C452.789,41.2291 453.147,39.3492 453.147,37.2008 M463.805,24.2369 L467.98,24.2369 L467.98,27.9479 C469.217,26.4179 470.527,25.3193 471.911,24.652 C473.294,23.9846 474.832,23.651 476.525,23.651 C480.236,23.651 482.742,24.9449 484.044,27.5328 C484.761,28.9488 485.119,30.9752 485.119,33.6119 L485.119,50.3844 L480.651,50.3844 L480.651,33.9049 C480.651,32.3098 480.415,31.024 479.943,30.0475 C479.162,28.4199 477.746,27.6061 475.695,27.6061 C474.653,27.6061 473.799,27.7118 473.131,27.9234 C471.927,28.2815 470.869,28.9977 469.958,30.0719 C469.225,30.9345 468.749,31.8256 468.529,32.7452 C468.31,33.6648 468.2,34.9791 468.2,36.6881 L468.2,50.3844 L463.805,50.3844 L463.805,24.2369 M502.491,23.651 C504.346,23.651 506.145,24.0864 507.886,24.9571 C509.628,25.8279 510.954,26.955 511.866,28.3385 C512.745,29.6568 513.331,31.1949 513.624,32.9527 C513.884,34.1572 514.014,36.0777 514.014,38.7145 L494.849,38.7145 C494.931,41.3674 495.557,43.4955 496.729,45.0987 C497.901,46.7019 499.716,47.5035 502.173,47.5035 C504.468,47.5035 506.299,46.7467 507.667,45.233 C508.448,44.3541 509.001,43.3368 509.327,42.1813 L513.648,42.1813 C513.534,43.1415 513.156,44.2117 512.513,45.3917 C511.87,46.5717 511.15,47.5361 510.352,48.2848 C509.017,49.5868 507.365,50.4658 505.396,50.9215 C504.338,51.1819 503.142,51.3121 501.807,51.3121 C498.552,51.3121 495.793,50.128 493.531,47.7599 C491.268,45.3917 490.137,42.0755 490.137,37.8111 C490.137,33.6119 491.277,30.2021 493.555,27.5816 C495.834,24.9612 498.812,23.651 502.491,23.651 M509.498,35.2232 C509.319,33.3189 508.903,31.7971 508.252,30.6578 C507.048,28.5419 505.038,27.484 502.222,27.484 C500.204,27.484 498.511,28.2123 497.144,29.669 C495.777,31.1257 495.053,32.9771 494.971,35.2232 L509.498,35.2232 M519.521,24.2369 L523.696,24.2369 L523.696,28.7535 C524.038,27.8746 524.876,26.8045 526.21,25.5431 C527.545,24.2817 529.083,23.651 530.825,23.651 C530.906,23.651 531.044,23.6591 531.24,23.6754 C531.435,23.6917 531.769,23.7242 532.241,23.773 L532.241,28.4117 C531.98,28.3629 531.74,28.3303 531.521,28.3141 C531.301,28.2978 531.061,28.2896 530.8,28.2896 C528.587,28.2896 526.886,29.0017 525.698,30.4259 C524.51,31.85 523.916,33.4898 523.916,35.3453 L523.916,50.3844 L519.521,50.3844 L519.521,24.2369 M538.359,24.5787 L543.461,24.5787 L543.461,29.901 L538.359,29.901 L538.359,24.5787 M538.359,45.0621 L543.461,45.0621 L543.461,50.3844 L538.359,50.3844 L538.359,45.0621 "/>
<path class="SystemText" d="M555.516,14.5201 L560.375,14.5201 L560.375,46.1119 L578.539,46.1119 L578.539,50.3844 L555.516,50.3844 L555.516,14.5201 M593.103,47.5523 C596.016,47.5523 598.014,46.4496 599.097,44.2442 C600.179,42.0388 600.72,39.5852 600.72,36.8834 C600.72,34.442 600.33,32.4563 599.548,30.9264 C598.311,28.5175 596.179,27.3131 593.152,27.3131 C590.466,27.3131 588.513,28.3385 587.292,30.3893 C586.072,32.44 585.461,34.914 585.461,37.8111 C585.461,40.5943 586.072,42.9137 587.292,44.7691 C588.513,46.6246 590.45,47.5523 593.103,47.5523 M593.274,23.4801 C596.643,23.4801 599.491,24.6031 601.819,26.8492 C604.146,29.0953 605.31,32.3993 605.31,36.7613 C605.31,40.9768 604.285,44.4599 602.234,47.2105 C600.183,49.9612 597.001,51.3365 592.688,51.3365 C589.091,51.3365 586.235,50.1199 584.119,47.6866 C582.003,45.2534 580.945,41.9859 580.945,37.8844 C580.945,33.4898 582.06,29.9905 584.29,27.3863 C586.519,24.7822 589.514,23.4801 593.274,23.4801 M610.524,14.398 L614.918,14.398 L614.918,27.777 C615.96,26.4586 616.896,25.5309 617.726,24.9938 C619.142,24.066 620.908,23.6021 623.024,23.6021 C626.816,23.6021 629.388,24.9286 630.739,27.5816 C631.471,29.0302 631.837,31.0403 631.837,33.6119 L631.837,50.3844 L627.321,50.3844 L627.321,33.9049 C627.321,31.9843 627.077,30.5764 626.588,29.6813 C625.791,28.249 624.293,27.5328 622.096,27.5328 C620.273,27.5328 618.621,28.1594 617.14,29.4127 C615.659,30.666 614.918,33.0341 614.918,36.5172 L614.918,50.3844 L610.524,50.3844 L610.524,14.398 M649.209,23.651 C651.065,23.651 652.863,24.0864 654.605,24.9571 C656.347,25.8279 657.673,26.955 658.584,28.3385 C659.463,29.6568 660.049,31.1949 660.342,32.9527 C660.603,34.1572 660.733,36.0777 660.733,38.7145 L641.568,38.7145 C641.649,41.3674 642.276,43.4955 643.448,45.0987 C644.62,46.7019 646.434,47.5035 648.892,47.5035 C651.187,47.5035 653.018,46.7467 654.385,45.233 C655.167,44.3541 655.72,43.3368 656.045,42.1813 L660.367,42.1813 C660.253,43.1415 659.874,44.2117 659.231,45.3917 C658.589,46.5717 657.868,47.5361 657.071,48.2848 C655.736,49.5868 654.084,50.4658 652.115,50.9215 C651.057,51.1819 649.861,51.3121 648.526,51.3121 C645.271,51.3121 642.512,50.128 640.25,47.7599 C637.987,45.3917 636.856,42.0755 636.856,37.8111 C636.856,33.6119 637.995,30.2021 640.274,27.5816 C642.553,24.9612 645.531,23.651 649.209,23.651 M656.216,35.2232 C656.037,33.3189 655.622,31.7971 654.971,30.6578 C653.767,28.5419 651.757,27.484 648.941,27.484 C646.923,27.484 645.23,28.2123 643.863,29.669 C642.496,31.1257 641.771,32.9771 641.69,35.2232 L656.216,35.2232 M666.118,24.2369 L670.292,24.2369 L670.292,27.9479 C671.529,26.4179 672.84,25.3193 674.223,24.652 C675.607,23.9846 677.145,23.651 678.837,23.651 C682.548,23.651 685.055,24.9449 686.357,27.5328 C687.073,28.9488 687.431,30.9752 687.431,33.6119 L687.431,50.3844 L682.963,50.3844 L682.963,33.9049 C682.963,32.3098 682.727,31.024 682.255,30.0475 C681.474,28.4199 680.058,27.6061 678.007,27.6061 C676.966,27.6061 676.111,27.7118 675.444,27.9234 C674.239,28.2815 673.181,28.9977 672.27,30.0719 C671.538,30.9345 671.062,31.8256 670.842,32.7452 C670.622,33.6648 670.512,34.9791 670.512,36.6881 L670.512,50.3844 L666.118,50.3844 L666.118,24.2369 M703.143,23.773 C705.194,23.773 706.984,24.2776 708.514,25.2867 C709.344,25.8564 710.191,26.6865 711.053,27.777 L711.053,24.4811 L715.106,24.4811 L715.106,48.2604 C715.106,51.5807 714.618,54.2011 713.641,56.1217 C711.818,59.6699 708.376,61.4439 703.314,61.4439 C700.498,61.4439 698.13,60.8132 696.209,59.5519 C694.289,58.2905 693.215,56.317 692.987,53.6314 L697.455,53.6314 C697.666,54.8033 698.089,55.7066 698.724,56.3414 C699.717,57.318 701.279,57.8063 703.412,57.8063 C706.781,57.8063 708.986,56.6181 710.028,54.2418 C710.646,52.8421 710.931,50.3437 710.882,46.7467 C710.003,48.0813 708.945,49.0742 707.708,49.7252 C706.472,50.3762 704.836,50.7018 702.801,50.7018 C699.969,50.7018 697.491,49.6967 695.367,47.6866 C693.243,45.6765 692.181,42.3521 692.181,37.7135 C692.181,33.3352 693.251,29.9173 695.392,27.4596 C697.532,25.0019 700.116,23.773 703.143,23.773 M711.053,37.2008 C711.053,33.9618 710.386,31.5611 709.051,29.9986 C707.717,28.4361 706.016,27.6549 703.949,27.6549 C700.856,27.6549 698.74,29.1035 697.601,32.0006 C696.999,33.5468 696.698,35.5732 696.698,38.0797 C696.698,41.0257 697.296,43.2677 698.492,44.8058 C699.688,46.3438 701.296,47.1129 703.314,47.1129 C706.472,47.1129 708.693,45.6887 709.979,42.8404 C710.695,41.2291 711.053,39.3492 711.053,37.2008 M721.833,24.2369 L726.008,24.2369 L726.008,28.7535 C726.35,27.8746 727.188,26.8045 728.523,25.5431 C729.858,24.2817 731.396,23.651 733.137,23.651 C733.219,23.651 733.357,23.6591 733.552,23.6754 C733.748,23.6917 734.081,23.7242 734.553,23.773 L734.553,28.4117 C734.293,28.3629 734.053,28.3303 733.833,28.3141 C733.613,28.2978 733.373,28.2896 733.113,28.2896 C730.899,28.2896 729.198,29.0017 728.01,30.4259 C726.822,31.85 726.228,33.4898 726.228,35.3453 L726.228,50.3844 L721.833,50.3844 L721.833,24.2369 M738.352,24.359 L742.82,24.359 L742.82,50.3844 L738.352,50.3844 L738.352,24.359 M738.352,14.5201 L742.82,14.5201 L742.82,19.5006 L738.352,19.5006 L738.352,14.5201 M749.446,24.2369 L753.621,24.2369 L753.621,27.9479 C754.858,26.4179 756.168,25.3193 757.551,24.652 C758.935,23.9846 760.473,23.651 762.166,23.651 C765.876,23.651 768.383,24.9449 769.685,27.5328 C770.401,28.9488 770.759,30.9752 770.759,33.6119 L770.759,50.3844 L766.292,50.3844 L766.292,33.9049 C766.292,32.3098 766.056,31.024 765.583,30.0475 C764.802,28.4199 763.386,27.6061 761.335,27.6061 C760.294,27.6061 759.439,27.7118 758.772,27.9234 C757.568,28.2815 756.51,28.9977 755.598,30.0719 C754.866,30.9345 754.39,31.8256 754.17,32.7452 C753.95,33.6648 753.84,34.9791 753.84,36.6881 L753.84,50.3844 L749.446,50.3844 L749.446,24.2369 M778.17,55.4869 C779.293,55.2916 780.083,54.5022 780.539,53.1188 C780.783,52.3863 780.905,51.6783 780.905,50.9947 C780.905,50.8808 780.901,50.7791 780.893,50.6896 C780.884,50.6 780.864,50.4983 780.832,50.3844 L778.17,50.3844 L778.17,45.0621 L783.395,45.0621 L783.395,49.9938 C783.395,51.9306 783.004,53.6314 782.223,55.0963 C781.442,56.5611 780.091,57.4645 778.17,57.8063 L778.17,55.4869 "/>
<path class="SystemText" d="M797.183,14.5201 L813.321,14.5201 C816.511,14.5201 819.083,15.4194 821.036,17.2179 C822.989,19.0164 823.965,21.5432 823.965,24.7984 C823.965,27.5979 823.095,30.0353 821.353,32.1104 C819.611,34.1856 816.934,35.2232 813.321,35.2232 L802.042,35.2232 L802.042,50.3844 L797.183,50.3844 L797.183,14.5201 M819.058,24.8229 C819.058,22.1861 818.082,20.3958 816.128,19.4518 C815.054,18.9472 813.581,18.6949 811.709,18.6949 L802.042,18.6949 L802.042,31.1217 L811.709,31.1217 C813.89,31.1217 815.66,30.6578 817.02,29.7301 C818.379,28.8023 819.058,27.1666 819.058,24.8229 M829.599,24.2369 L833.774,24.2369 L833.774,28.7535 C834.116,27.8746 834.954,26.8045 836.289,25.5431 C837.623,24.2817 839.161,23.651 840.903,23.651 C840.984,23.651 841.123,23.6591 841.318,23.6754 C841.513,23.6917 841.847,23.7242 842.319,23.773 L842.319,28.4117 C842.058,28.3629 841.818,28.3303 841.599,28.3141 C841.379,28.2978 841.139,28.2896 840.878,28.2896 C838.665,28.2896 836.964,29.0017 835.776,30.4259 C834.588,31.85 833.994,33.4898 833.994,35.3453 L833.994,50.3844 L829.599,50.3844 L829.599,24.2369 M857.006,23.651 C858.862,23.651 860.66,24.0864 862.402,24.9571 C864.143,25.8279 865.47,26.955 866.381,28.3385 C867.26,29.6568 867.846,31.1949 868.139,32.9527 C868.4,34.1572 868.53,36.0777 868.53,38.7145 L849.365,38.7145 C849.446,41.3674 850.073,43.4955 851.245,45.0987 C852.417,46.7019 854.231,47.5035 856.689,47.5035 C858.984,47.5035 860.815,46.7467 862.182,45.233 C862.963,44.3541 863.517,43.3368 863.842,42.1813 L868.164,42.1813 C868.05,43.1415 867.671,44.2117 867.028,45.3917 C866.385,46.5717 865.665,47.5361 864.868,48.2848 C863.533,49.5868 861.881,50.4658 859.912,50.9215 C858.854,51.1819 857.657,51.3121 856.323,51.3121 C853.068,51.3121 850.309,50.128 848.046,47.7599 C845.784,45.3917 844.653,42.0755 844.653,37.8111 C844.653,33.6119 845.792,30.2021 848.071,27.5816 C850.349,24.9612 853.328,23.651 857.006,23.651 M864.013,35.2232 C863.834,33.3189 863.419,31.7971 862.768,30.6578 C861.564,28.5419 859.554,27.484 856.738,27.484 C854.72,27.484 853.027,28.2123 851.66,29.669 C850.292,31.1257 849.568,32.9771 849.487,35.2232 L864.013,35.2232 M874.037,14.5201 L878.431,14.5201 L878.431,50.3844 L874.037,50.3844 L874.037,14.5201 M889.403,24.2369 L889.403,41.5953 C889.403,42.9299 889.614,44.0204 890.038,44.8668 C890.819,46.4293 892.276,47.2105 894.408,47.2105 C897.468,47.2105 899.551,45.8434 900.658,43.109 C901.26,41.6441 901.561,39.634 901.561,37.0787 L901.561,24.2369 L905.956,24.2369 L905.956,50.3844 L901.805,50.3844 L901.854,46.527 C901.284,47.5198 900.576,48.358 899.73,49.0416 C898.054,50.4088 896.019,51.0924 893.626,51.0924 C889.899,51.0924 887.36,49.8473 886.009,47.357 C885.277,46.0224 884.911,44.2402 884.911,42.0104 L884.911,24.2369 L889.403,24.2369 M915.588,37.6158 C915.588,40.4153 916.182,42.759 917.371,44.6471 C918.559,46.5351 920.463,47.4791 923.083,47.4791 C925.118,47.4791 926.79,46.6043 928.101,44.8546 C929.411,43.1049 930.066,40.5943 930.066,37.3229 C930.066,34.0188 929.39,31.5733 928.04,29.9864 C926.689,28.3995 925.02,27.6061 923.035,27.6061 C920.821,27.6061 919.027,28.4524 917.651,30.1451 C916.276,31.8378 915.588,34.3281 915.588,37.6158 M922.205,23.773 C924.207,23.773 925.883,24.1962 927.234,25.0426 C928.015,25.5309 928.902,26.3854 929.895,27.6061 L929.895,14.398 L934.119,14.398 L934.119,50.3844 L930.164,50.3844 L930.164,46.7467 C929.138,48.358 927.926,49.5217 926.526,50.2379 C925.126,50.954 923.523,51.3121 921.716,51.3121 C918.803,51.3121 916.28,50.0873 914.148,47.6378 C912.016,45.1882 910.95,41.929 910.95,37.86 C910.95,34.0514 911.922,30.7514 913.867,27.9601 C915.812,25.1687 918.591,23.773 922.205,23.773 M951.491,23.651 C953.346,23.651 955.145,24.0864 956.886,24.9571 C958.628,25.8279 959.954,26.955 960.866,28.3385 C961.745,29.6568 962.331,31.1949 962.624,32.9527 C962.884,34.1572 963.014,36.0777 963.014,38.7145 L943.849,38.7145 C943.931,41.3674 944.557,43.4955 945.729,45.0987 C946.901,46.7019 948.716,47.5035 951.173,47.5035 C953.468,47.5035 955.299,46.7467 956.667,45.233 C957.448,44.3541 958.001,43.3368 958.327,42.1813 L962.648,42.1813 C962.534,43.1415 962.156,44.2117 961.513,45.3917 C960.87,46.5717 960.15,47.5361 959.352,48.2848 C958.017,49.5868 956.365,50.4658 954.396,50.9215 C953.338,51.1819 952.142,51.3121 950.807,51.3121 C947.552,51.3121 944.793,50.128 942.531,47.7599 C940.268,45.3917 939.137,42.0755 939.137,37.8111 C939.137,33.6119 940.277,30.2021 942.555,27.5816 C944.834,24.9612 947.812,23.651 951.491,23.651 M958.498,35.2232 C958.319,33.3189 957.903,31.7971 957.252,30.6578 C956.048,28.5419 954.038,27.484 951.222,27.484 C949.204,27.484 947.511,28.2123 946.144,29.669 C944.777,31.1257 944.053,32.9771 943.971,35.2232 L958.498,35.2232 "/>
<path class="RehearsalMark" fill="none" stroke="#000000" stroke-width="3.97" stroke-linecap="square" stroke-linejoin="miter" stroke-miterlimit="2" fill-rule="evenodd" d="M112.983,358.136 C112.983,375.917 98.5683,390.332 80.7867,390.332 C63.005,390.332 48.5901,375.917 48.5901,358.136 C48.5901,340.354 63.005,325.939 80.7867,325.939 C98.5683,325.939 112.983,340.354 112.983,358.136"/>
<path class="RehearsalMark" d="M74.2281,350.38 L74.2281,347.011 C77.4019,346.702 79.6154,346.185 80.8687,345.46 C82.122,344.736 83.0578,343.023 83.6763,340.321 L87.1431,340.321 L87.1431,375.136 L82.4556,375.136 L82.4556,350.38 L74.2281,350.38 "/>
<path class="Harmony" d="M904.634,580.128 L904.634,579.073 L892.417,579.073 L892.417,580.128 C893.139,580.245 893.73,580.377 894.189,580.524 C894.648,580.67 895.019,580.821 895.303,580.978 C895.586,581.134 895.805,581.29 895.962,581.446 C896.118,581.603 896.245,581.769 896.343,581.944 C896.655,582.472 896.694,583.185 896.46,584.083 C896.225,584.982 895.825,586.163 895.259,587.628 L885.884,610.714 L875.718,587.394 C875.054,585.87 874.638,584.645 874.472,583.717 C874.306,582.789 874.399,582.071 874.751,581.564 C875.005,581.153 875.449,580.836 876.084,580.611 C876.719,580.387 877.622,580.226 878.794,580.128 L878.794,579.073 L862.534,579.073 L862.534,580.128 C863.471,580.206 864.223,580.338 864.79,580.524 C865.356,580.709 865.864,580.978 866.313,581.329 C866.489,581.466 866.655,581.598 866.811,581.725 C866.968,581.852 867.143,582.047 867.339,582.311 C867.534,582.574 867.759,582.945 868.012,583.424 C868.266,583.902 868.569,584.571 868.921,585.431 L883.745,619.737 L884.858,619.737 L898.686,585.841 C899.526,583.849 900.454,582.384 901.47,581.446 C901.802,581.095 902.241,580.812 902.788,580.597 C903.335,580.382 903.95,580.226 904.634,580.128 M906.889,618.8 L923.911,618.8 L923.911,617.687 L922.475,617.687 C922.124,617.687 921.762,617.643 921.391,617.555 C921.02,617.467 920.664,617.359 920.322,617.233 C919.98,617.106 919.682,616.959 919.429,616.793 C919.175,616.627 918.999,616.466 918.901,616.31 C918.686,615.958 918.52,615.431 918.403,614.728 C918.286,614.024 918.227,613.028 918.227,611.739 L918.227,586.075 C918.227,584.884 918.296,583.917 918.432,583.175 C918.569,582.433 918.745,581.896 918.96,581.564 C919.741,580.607 920.913,580.128 922.475,580.128 L923.911,580.128 L923.911,579.073 L906.889,579.073 L906.889,580.128 L908.325,580.128 C909.009,580.128 909.682,580.26 910.346,580.524 C911.011,580.787 911.528,581.153 911.899,581.622 C912.055,581.798 912.178,582.003 912.265,582.237 C912.353,582.472 912.417,582.76 912.456,583.102 C912.495,583.443 912.519,583.854 912.529,584.332 C912.539,584.811 912.544,585.392 912.544,586.075 L912.544,611.739 C912.544,614.2 912.309,615.704 911.841,616.251 C911.45,616.759 910.971,617.125 910.405,617.35 C909.839,617.574 909.145,617.687 908.325,617.687 L906.889,617.687 L906.889,618.8 "/>
<path class="Harmony" d="M442.808,618.8 L459.83,618.8 L459.83,617.687 L458.394,617.687 C458.043,617.687 457.681,617.643 457.31,617.555 C456.939,617.467 456.583,617.359 456.241,617.233 C455.899,617.106 455.601,616.959 455.347,616.793 C455.093,616.627 454.918,616.466 454.82,616.31 C454.605,615.958 454.439,615.431 454.322,614.728 C454.205,614.024 454.146,613.028 454.146,611.739 L454.146,586.075 C454.146,584.884 454.214,583.917 454.351,583.175 C454.488,582.433 454.664,581.896 454.879,581.564 C455.66,580.607 456.832,580.128 458.394,580.128 L459.83,580.128 L459.83,579.073 L442.808,579.073 L442.808,580.128 L444.244,580.128 C444.927,580.128 445.601,580.26 446.265,580.524 C446.929,580.787 447.447,581.153 447.818,581.622 C447.974,581.798 448.096,582.003 448.184,582.237 C448.272,582.472 448.336,582.76 448.375,583.102 C448.414,583.443 448.438,583.854 448.448,584.332 C448.458,584.811 448.463,585.392 448.463,586.075 L448.463,611.739 C448.463,614.2 448.228,615.704 447.759,616.251 C447.369,616.759 446.89,617.125 446.324,617.35 C445.757,617.574 445.064,617.687 444.244,617.687 L442.808,617.687 L442.808,618.8 "/>
<path class="Harmony" d="M1139.82,618.8 L1156.84,618.8 L1156.84,617.687 L1155.41,617.687 C1155.06,617.687 1154.7,617.643 1154.32,617.555 C1153.95,617.467 1153.6,617.359 1153.26,617.233 C1152.91,617.106 1152.62,616.959 1152.36,616.793 C1152.11,616.627 1151.93,616.466 1151.83,616.31 C1151.62,615.958 1151.45,615.431 1151.34,614.728 C1151.22,614.024 1151.16,613.028 1151.16,611.739 L1151.16,586.075 C1151.16,584.884 1151.23,583.917 1151.37,583.175 C1151.5,582.433 1151.68,581.896 1151.89,581.564 C1152.67,580.607 1153.85,580.128 1155.41,580.128 L1156.84,580.128 L1156.84,579.073 L1139.82,579.073 L1139.82,580.128 L1141.26,580.128 C1141.94,580.128 1142.62,580.26 1143.28,580.524 C1143.94,580.787 1144.46,581.153 1144.83,581.622 C1144.99,581.798 1145.11,582.003 1145.2,582.237 C1145.29,582.472 1145.35,582.76 1145.39,583.102 C1145.43,583.443 1145.45,583.854 1145.46,584.332 C1145.47,584.811 1145.48,585.392 1145.48,586.075 L1145.48,611.739 C1145.48,614.2 1145.24,615.704 1144.77,616.251 C1144.38,616.759 1143.91,617.125 1143.34,617.35 C1142.77,617.574 1142.08,617.687 1141.26,617.687 L1139.82,617.687 L1139.82,618.8 "/>
<path class="NoteDot" transform="matrix(0.992001,0,0,0.992001,827.384,111.813)" d="M0,-0.1 C0,2.7 2.3,5 5.2,5 C8.1,5 10.4,2.7 10.4,-0.1 C10.4,-2.9 8.1,-5.1 5.2,-5.1 C2.3,-5.1 0,-2.9 0,-0.1"/>
<path class="NoteDot" transform="matrix(0.992001,0,0,0.992001,843.504,111.813)" d="M0,-0.1 C0,2.7 2.3,5 5.2,5 C8.1,5 10.4,2.7 10.4,-0.1 C10.4,-2.9 8.1,-5.1 5.2,-5.1 C2.3,-5.1 0,-2.9 0,-0.1"/>
<path class="NoteDot" transform="matrix(0.992001,0,0,0.992001,843.504,136.613)" d="M0,-0.1 C0,2.7 2.3,5 5.2,5 C8.1,5 10.4,2.7 10.4,-0.1 C10.4,-2.9 8.1,-5.1 5.2,-5.1 C2.3,-5.1 0,-2.9 0,-0.1"/>
<path class="NoteDot" transform="matrix(0.992001,0,0,0.992001,827.384,136.613)" d="M0,-0.1 C0,2.7 2.3,5 5.2,5 C8.1,5 10.4,2.7 10.4,-0.1 C10.4,-2.9 8.1,-5.1 5.2,-5.1 C2.3,-5.1 0,-2.9 0,-0.1"/>
<path class="NoteDot" transform="matrix(0.992001,0,0,0.992001,597.572,111.813)" d="M0,-0.1 C0,2.7 2.3,5 5.2,5 C8.1,5 10.4,2.7 10.4,-0.1 C10.4,-2.9 8.1,-5.1 5.2,-5.1 C2.3,-5.1 0,-2.9 0,-0.1"/>
<path class="NoteDot" transform="matrix(0.992001,0,0,0.992001,581.452,111.813)" d="M0,-0.1 C0,2.7 2.3,5 5.2,5 C8.1,5 10.4,2.7 10.4,-0.1 C10.4,-2.9 8.1,-5.1 5.2,-5.1 C2.3,-5.1 0,-2.9 0,-0.1"/>
<path class="NoteDot" transform="matrix(0.992001,0,0,0.992001,597.572,136.613)" d="M0,-0.1 C0,2.7 2.3,5 5.2,5 C8.1,5 10.4,2.7 10.4,-0.1 C10.4,-2.9 8.1,-5.1 5.2,-5.1 C2.3,-5.1 0,-2.9 0,-0.1"/>
<path class="NoteDot" transform="matrix(0.992001,0,0,0.992001,581.452,136.613)" d="M0,-0.1 C0,2.7 2.3,5 5.2,5 C8.1,5 10.4,2.7 10.4,-0.1 C10.4,-2.9 8.1,-5.1 5.2,-5.1 C2.3,-5.1 0,-2.9 0,-0.1"/>
<path class="NoteDot" transform="matrix(0.992001,0,0,0.992001,843.504,346)" d="M0,-0.1 C0,2.7 2.3,5 5.2,5 C8.1,5 10.4,2.7 10.4,-0.1 C10.4,-2.9 8.1,-5.1 5.2,-5.1 C2.3,-5.1 0,-2.9 0,-0.1"/>
<path class="NoteDot" transform="matrix(0.992001,0,0,0.992001,827.384,346)" d="M0,-0.1 C0,2.7 2.3,5 5.2,5 C8.1,5 10.4,2.7 10.4,-0.1 C10.4,-2.9 8.1,-5.1 5.2,-5.1 C2.3,-5.1 0,-2.9 0,-0.1"/>
<path class="NoteDot" transform="matrix(0.992001,0,0,0.992001,480.231,346)" d="M0,-0.1 C0,2.7 2.3,5 5.2,5 C8.1,5 10.4,2.7 10.4,-0.1 C10.4,-2.9 8.1,-5.1 5.2,-5.1 C2.3,-5.1 0,-2.9 0,-0.1"/>
<path class="Bracket" transform="matrix(3.596,0,0,3.33387,123.5,532)" d="M0,-50 C4.7,-46.9 6.6,-44.6 6.6,-39.6 C6.6,-36.5 3.3,-24 3.3,-19.5 C3.3,-10.5 6.9,-4.5 12,0 L12.3,-1.2 C8.2,-5.6 6.9,-11.4 6.9,-16.8 C6.9,-22.6 9.4,-32.7 9.4,-37.3 C9.4,-43.4 6.8,-46.8 1.8,-50 C6.8,-53.2 9.4,-56.6 9.4,-62.7 C9.4,-67.3 6.9,-77.4 6.9,-83.2 C6.9,-88.6 8.2,-94.3 12.3,-98.7 L12,-99.9 C6.9,-95.4 3.3,-89.5 3.3,-80.5 C3.3,-76 6.6,-63.5 6.6,-60.4 C6.6,-55.4 4.7,-53.1 0,-50"/>
</svg>
