<?xml version="1.0" encoding="utf-8"?>
<!-- Svg Vector Icons : http://www.onlinewebfonts.com/icon -->
<!DOCTYPE svg PUBLIC "-//W3C//DTD SVG 1.1//EN" "http://www.w3.org/Graphics/SVG/1.1/DTD/svg11.dtd">
<svg version="1.1" xmlns="http://www.w3.org/2000/svg" xmlns:xlink="http://www.w3.org/1999/xlink" x="0px" y="0px" viewBox="0 0 256 256" enable-background="new 0 0 256 256" xml:space="preserve">
<metadata> Svg Vector Icons : http://www.onlinewebfonts.com/icon </metadata>
<g><g><path fill="#000000" d="M246,128c0,2.3-0.8,4.3-2.5,5.9l-33.7,33.7c-1.7,1.7-3.6,2.5-5.9,2.5s-4.3-0.8-5.9-2.5c-1.7-1.7-2.5-3.6-2.5-5.9v-16.9H60.6v16.9c0,2.3-0.8,4.3-2.5,5.9c-1.7,1.7-3.6,2.5-5.9,2.5c-2.3,0-4.3-0.8-5.9-2.5l-33.7-33.7c-1.7-1.7-2.5-3.6-2.5-5.9s0.8-4.3,2.5-5.9l33.7-33.7c1.7-1.7,3.6-2.5,5.9-2.5c2.3,0,4.3,0.8,5.9,2.5c1.7,1.7,2.5,3.6,2.5,5.9v16.9h134.9V94.3c0-2.3,0.8-4.3,2.5-5.9c1.7-1.7,3.6-2.5,5.9-2.5s4.3,0.8,5.9,2.5l33.7,33.7C245.2,123.7,246,125.7,246,128z"/></g></g>
</svg>