<?xml version="1.0" encoding="utf-8"?>
<!-- Svg Vector Icons : http://www.onlinewebfonts.com/icon -->
<!DOCTYPE svg PUBLIC "-//W3C//DTD SVG 1.1//EN" "http://www.w3.org/Graphics/SVG/1.1/DTD/svg11.dtd">
<svg version="1.1" xmlns="http://www.w3.org/2000/svg" xmlns:xlink="http://www.w3.org/1999/xlink" x="0px" y="0px" viewBox="0 0 256 256" enable-background="new 0 0 256 256" xml:space="preserve">
<metadata> Svg Vector Icons : http://www.onlinewebfonts.com/icon </metadata>
<g><g><g><path fill="#000000" d="M115.4,10.6C99.7,12.1,82,18,68,26.3c-32.7,19.4-53.8,52.3-57.6,90.1c-0.8,7.5-0.4,22.7,0.7,29.8c3.2,20,11.8,39.4,24.3,55.4c3.6,4.7,14.2,15.2,18.9,18.9c17.7,14,39.4,22.8,61.8,25.1c8.2,0.8,23.8,0.4,31.4-1c20-3.5,36.6-10.8,53.1-23.3c5.3-4,16.6-15.4,20.6-20.6c10.3-13.7,17.3-27.9,21.2-43.2c2.3-9,3.1-15.3,3.4-25.6c0.9-28.1-7-52.9-24-75.6c-4.4-5.8-14.4-16.1-19.7-20.2C176.8,16.2,146.8,7.4,115.4,10.6z"/></g></g></g>
</svg>