<?xml version="1.0" encoding="utf-8"?>
<!-- Svg Vector Icons : http://www.onlinewebfonts.com/icon -->
<!DOCTYPE svg PUBLIC "-//W3C//DTD SVG 1.1//EN" "http://www.w3.org/Graphics/SVG/1.1/DTD/svg11.dtd">
<svg version="1.1" xmlns="http://www.w3.org/2000/svg" xmlns:xlink="http://www.w3.org/1999/xlink" x="0px" y="0px" viewBox="0 0 256 256" enable-background="new 0 0 256 256" xml:space="preserve">
<metadata> Svg Vector Icons : http://www.onlinewebfonts.com/icon </metadata>
<g><g><g><g><path fill="#000000" d="M240.7,45.5l-30.2-30.2c-7.1-7.1-18.7-7.1-25.8,0L128,72L71.3,15.3c-7.1-7.1-18.7-7.1-25.8,0L15.3,45.5c-7.1,7.1-7.1,18.7,0,25.8L72,128l-56.7,56.7c-7.1,7.1-7.1,18.7,0,25.8l30.1,30.1c7.1,7.1,18.7,7.1,25.8,0L128,184l56.7,56.7c7.1,7.1,18.7,7.1,25.8,0l30.1-30.1c7.1-7.1,7.1-18.7,0-25.8L184,128l56.7-56.7C247.8,64.2,247.8,52.6,240.7,45.5z"/></g></g><g></g><g></g><g></g><g></g><g></g><g></g><g></g><g></g><g></g><g></g><g></g><g></g><g></g><g></g><g></g></g></g>
</svg>