<?xml version="1.0" encoding="utf-8"?>
<!-- Svg Vector Icons : http://www.onlinewebfonts.com/icon -->
<!DOCTYPE svg PUBLIC "-//W3C//DTD SVG 1.1//EN" "http://www.w3.org/Graphics/SVG/1.1/DTD/svg11.dtd">
<svg version="1.1" xmlns="http://www.w3.org/2000/svg" xmlns:xlink="http://www.w3.org/1999/xlink" x="0px" y="0px" viewBox="0 0 256 256" enable-background="new 0 0 256 256" xml:space="preserve">
<metadata> Svg Vector Icons : http://www.onlinewebfonts.com/icon </metadata>
<g><g><g><path fill="#000000" d="M88.6,11.6l-1.8,1.6v114.7v114.7l1.7,1.7l1.7,1.7l21.5-0.1c24.6-0.1,26.2-0.2,34.3-4.2c11-5.4,18.6-14.5,21.9-26.6c1.7-6,1.7-14.8,0-20.9c-3.2-12.1-12.6-22.9-24.1-27.7c-14.1-5.9-31-3.1-42.3,7.1l-2.9,2.6V95.9c0-86.7,0.1-82.9-2.8-85C93.8,9.5,90.7,9.8,88.6,11.6z M137.2,176.8c6.1,1.9,12.3,6.8,16,12.6c0.8,1.2,2.1,4.2,2.9,6.5c1.3,3.8,1.4,5,1.2,9.9c-0.2,3.8-0.6,6.6-1.4,8.7c-3.1,8.5-9.7,15.1-18.4,18.2c-3.4,1.2-4.4,1.3-21.1,1.4l-17.6,0.2v-16.8c0-15.3,0.1-17.2,1.1-20.4c3.5-11.2,13.5-20,24.6-21.8C127.3,175,133.6,175.7,137.2,176.8z"/></g></g></g>
</svg>