<?xml version="1.0" encoding="utf-8"?>
<!-- Svg Vector Icons : http://www.onlinewebfonts.com/icon -->
<!DOCTYPE svg PUBLIC "-//W3C//DTD SVG 1.1//EN" "http://www.w3.org/Graphics/SVG/1.1/DTD/svg11.dtd">
<svg version="1.1" xmlns="http://www.w3.org/2000/svg" xmlns:xlink="http://www.w3.org/1999/xlink" x="0px" y="0px" viewBox="0 0 256 256" enable-background="new 0 0 256 256" xml:space="preserve">
<metadata> Svg Vector Icons : http://www.onlinewebfonts.com/icon </metadata>
<g><g><g><path fill="#000000" d="M158.6,11c-2.5,1.2-4.9,3.3-6.2,5.7l-1,1.9L151.3,95l-0.1,76.4l-3.1-1.1c-5.6-2-9.5-2.6-17-2.7c-7.5,0-11.1,0.5-17.4,2.6C92.5,177,78.8,196,81.8,214.1c3,17.8,19.3,30.5,40.5,31.8c23.6,1.4,46-13.2,51.4-33.4c0.8-3.1,0.9-7.1,0.9-98.6V18.5l-1.4-2.5C170.4,10.8,163.9,8.6,158.6,11z"/></g></g></g>
</svg>