<?xml version="1.0" encoding="utf-8"?>
<!-- Svg Vector Icons : http://www.onlinewebfonts.com/icon -->
<!DOCTYPE svg PUBLIC "-//W3C//DTD SVG 1.1//EN" "http://www.w3.org/Graphics/SVG/1.1/DTD/svg11.dtd">
<svg version="1.1" xmlns="http://www.w3.org/2000/svg" xmlns:xlink="http://www.w3.org/1999/xlink" x="0px" y="0px" viewBox="0 0 256 256" enable-background="new 0 0 256 256" xml:space="preserve">
<metadata> Svg Vector Icons : http://www.onlinewebfonts.com/icon </metadata>
<g><g><g><path fill="#000000" d="M187.2,46.5l-19.5,33.9l10.2,0.2l10.2,0.1V162v81.3h19.2h19.2V162V80.7h10c9.2,0,10-0.1,9.5-1.1c-0.7-2-38.3-66.9-38.8-66.9C206.9,12.7,198,27.9,187.2,46.5z"/><path fill="#000000" d="M110,70.6l-19.5,33.9l10.2,0.2l10.1,0.1v69.3v69.3H130h19.2v-69.3v-69.3l10.1-0.1l10.1-0.2l-19.5-33.9c-10.8-18.6-19.7-33.8-19.9-33.8C129.7,36.8,120.7,52,110,70.6z"/><path fill="#000000" d="M48.2,74c-2,3.3-38.2,66.1-38.2,66.4c0,0.2,4.5,0.3,9.9,0.3h9.9V192v51.3H49h19.2V192v-51.3l10.1-0.1l10.1-0.2l-18.7-32.5C59.2,90,50.4,74.8,49.9,74l-0.8-1.5L48.2,74z"/></g></g></g>
</svg>