<?xml version="1.0" encoding="utf-8"?>
<!-- Svg Vector Icons : http://www.onlinewebfonts.com/icon -->
<!DOCTYPE svg PUBLIC "-//W3C//DTD SVG 1.1//EN" "http://www.w3.org/Graphics/SVG/1.1/DTD/svg11.dtd">
<svg version="1.1" xmlns="http://www.w3.org/2000/svg" xmlns:xlink="http://www.w3.org/1999/xlink" x="0px" y="0px" viewBox="0 0 256 256" enable-background="new 0 0 256 256" xml:space="preserve">
<metadata> Svg Vector Icons : http://www.onlinewebfonts.com/icon </metadata>
<g><g><g><path fill="#000000" d="M54.9,22v12H128h73.1V22V10H128H54.9V22z"/><path fill="#000000" d="M54.9,58.5v12H128h73.1v-12v-12H128H54.9V58.5z"/><path fill="#000000" d="M54.9,95v12H128h73.1V95v-12H128H54.9V95z"/><path fill="#000000" d="M116,165.5c0,18.7-0.2,34-0.4,34c-0.3,0-6.6-6.2-14.2-13.7l-13.7-13.7l-8.4,8.4l-8.4,8.4l28.5,28.5L128,246l28.5-28.5l28.5-28.5l-8.4-8.4l-8.4-8.4l-13.7,13.7c-7.5,7.5-13.9,13.7-14.2,13.7c-0.2,0-0.4-15.3-0.4-34v-34h-12h-12V165.5z"/></g></g></g>
</svg>