<?xml version="1.0" encoding="utf-8"?>
<!-- Svg Vector Icons : http://www.onlinewebfonts.com/icon -->
<!DOCTYPE svg PUBLIC "-//W3C//DTD SVG 1.1//EN" "http://www.w3.org/Graphics/SVG/1.1/DTD/svg11.dtd">
<svg version="1.1" xmlns="http://www.w3.org/2000/svg" xmlns:xlink="http://www.w3.org/1999/xlink" x="0px" y="0px" viewBox="0 0 256 256" enable-background="new 0 0 256 256" xml:space="preserve">
<metadata> Svg Vector Icons : http://www.onlinewebfonts.com/icon </metadata>
<g><g><g><path fill="#000000" d="M98.7,11.8c-7.9,2.1-17.4,5.6-23.5,8.6c-6.1,3.1-14.8,8.3-14.5,8.8c0.1,0.3,2.4,4,5,8.3c2.7,4.3,4.8,8.1,4.8,8.4c0,0.3-1.6,1.7-3.5,3.1c-4.6,3.3-14.1,12.8-17.8,17.6l-2.9,3.8L38,65.5c-4.6-2.7-8.6-4.9-8.8-4.9c-0.8,0-6.2,9-9.3,15.4c-3.3,6.7-7.3,18.4-8.9,25.4l-0.9,4.1l3.9,1c2.1,0.6,6.5,1.7,9.8,2.4c4.3,1.1,5.9,1.8,5.8,2.4c-1.8,12.3-1.8,20.9,0,33c0.1,0.6-2.5,1.6-9.2,3.3c-5.1,1.3-9.4,2.6-9.6,2.8c-0.6,0.6,1.7,9.4,4.4,17.1c2.9,8.6,10.9,24.7,13.9,28.1c0.1,0.1,3.8-2.1,8.3-4.8c4.4-2.8,8.4-5.1,8.7-5.1c0.3,0,1.6,1.3,2.8,2.9c4,5.7,15.8,17.2,21.8,21.2c0.1,0.1-2.1,3.9-4.9,8.6c-2.8,4.6-5.1,8.6-5.1,8.8c0,0.6,7.9,5.3,14.2,8.4c6.8,3.4,16.3,6.9,24.2,8.9c2.8,0.7,5.5,1.4,6.1,1.6c0.9,0.3,1.4-1.4,3.4-9.4l2.4-9.8l4.1,0.5c5.3,0.6,21,0.6,26.6,0l4.4-0.6l2.1,9.1c1.1,5,2.3,9.4,2.5,9.8c0.7,1,15.3-3.1,23.6-6.6c6.9-2.9,16.9-8.3,19.8-10.6l1.8-1.4l-5-8.5l-5.1-8.6l2.6-2c1.4-1.1,4.6-3.8,7.1-5.9c3.9-3.4,6.1-5.9,13.6-15.1l1.3-1.5l8.3,5.1c4.6,2.8,8.4,5.1,8.5,5.1c0.6,0,5.8-8.8,8.9-15.1c3.3-6.8,7.5-18.7,9.3-26.1c1.1-4.5,2.1-3.9-10.1-6.9l-8.3-2l0.4-4.2c0.6-4.7,0.7-20.1,0.2-26.6l-0.3-4.3l9.2-2.3c5.1-1.2,9.3-2.4,9.5-2.6c0.9-1-4.7-19.1-8.6-27.6c-2.4-5.2-8.8-16.4-9.8-16.9c-0.3-0.2-4.4,1.9-9.1,4.8c-7.5,4.4-8.7,4.9-9.2,4c-2.8-5-15.9-18-23.6-23.3c-0.1-0.1,2-3.9,4.8-8.6c2.8-4.6,5.1-8.5,5.1-8.7c0-0.1-1.6-1.3-3.6-2.4c-12.1-7.4-20.4-10.8-38.9-16.3c-1.5-0.4-2.3-0.4-2.6,0.1c-0.3,0.4-1.4,4.8-2.5,9.8l-2.1,9.1l-4.4-0.5c-5.8-0.6-21.5-0.6-26.6,0l-4.1,0.6l-2.4-9.8c-1.3-5.4-2.6-9.8-2.8-9.7C105.4,9.9,102.3,10.8,98.7,11.8z M145.1,61.4c6.9,1.8,15.9,5.8,21.7,9.8c5.1,3.5,12.4,10.4,16.3,15.6c4.3,5.8,9.6,16.7,11.6,24.1c1.5,5.6,1.7,7.3,1.7,17.2c0,9.9-0.2,11.6-1.7,17.1c-4.3,15.9-14.8,30.9-28,39.8c-5.6,3.9-14.7,7.9-21.6,9.8c-5.5,1.5-7.2,1.7-17.1,1.7s-11.6-0.2-17.1-1.7c-15.9-4.3-30.9-14.8-39.8-28c-3.9-5.6-7.9-14.7-9.8-21.6c-1.5-5.5-1.7-7.2-1.7-17.1c0-9.8,0.2-11.6,1.7-17c7-26.2,28.1-45.8,54.7-50.8C123.6,58.8,137.3,59.4,145.1,61.4z"/><path fill="#000000" d="M122,104c-9.9,2.7-16.6,9.9-18.4,20.3c-1.4,7.3,1.4,15.8,7,21.3c5.5,5.6,14,8.4,21.3,7c11.1-2.1,18.7-9.6,20.8-20.8c1.4-7.2-1.4-15.8-6.9-21.2c-3.5-3.5-6.7-5.3-11.8-6.6C129.5,102.9,126.3,102.9,122,104z"/></g></g></g>
</svg>