<?xml version="1.0" encoding="utf-8"?>
<!-- Svg Vector Icons : http://www.onlinewebfonts.com/icon -->
<!DOCTYPE svg PUBLIC "-//W3C//DTD SVG 1.1//EN" "http://www.w3.org/Graphics/SVG/1.1/DTD/svg11.dtd">
<svg version="1.1" xmlns="http://www.w3.org/2000/svg" xmlns:xlink="http://www.w3.org/1999/xlink" x="0px" y="0px" viewBox="0 0 256 256" enable-background="new 0 0 256 256" xml:space="preserve">
<metadata> Svg Vector Icons : http://www.onlinewebfonts.com/icon </metadata>
<g><g><g><path fill="#000000" d="M160.9,10.9c-0.6,0.4-1.3,1.3-1.6,1.9c-0.4,0.7-0.5,10.1-0.5,31.8v30.7l-30.5,11.2c-16.8,6.2-30.6,11.2-30.8,11.2s-0.3-14.2-0.3-31.5c0-35.2,0.1-33.8-3.2-35.2c-2.1-0.9-4-0.5-5.5,1.1l-1.2,1.3l-0.2,34.2l-0.2,34.3l-29.6,10.9c-32.4,11.9-31.8,11.7-31.8,15.4c0,2.2,1.8,4.5,3.9,5c1.3,0.3,2.1,0,37.9-13.2l19.5-7.2l0.1,30.1c0.1,23.7,0,30.3-0.5,30.7c-0.3,0.3-13.8,5.4-29.9,11.3c-31.4,11.5-31.2,11.4-31.2,14.7c0,3.1,2.1,5.5,4.8,5.5c0.6,0,13.4-4.6,28.5-10.1c15.1-5.6,27.6-10.1,27.9-10.1c0.2,0,0.4,12.6,0.4,29.2v29.2l1.4,1.4c2.3,2.3,6.3,1.8,7.9-1c0.7-1.2,0.8-4.3,0.8-32.1v-30.7l30.5-11.2c16.7-6.2,30.6-11.2,30.8-11.2c0.2,0,0.3,14.2,0.3,31.5c0,35.1-0.1,33.8,3.2,35.2c2,0.9,4.3,0.3,5.7-1.3c0.9-1,0.9-2.6,1.2-35.3l0.2-34.3l21.9-8c12-4.5,25.3-9.3,29.4-10.8c8.6-3.2,10.1-4.2,10.1-7.3c0-2.8-2.1-5.1-4.6-5.1c-1.2,0-11.5,3.6-27.6,9.5c-14.2,5.2-26.6,9.8-27.5,10.2l-1.8,0.6v-30.5V82.4l29.9-11c32.1-11.8,31.7-11.7,31.7-15c0-3.1-2.1-5.4-4.9-5.4c-0.5,0-13.3,4.5-28.4,10.1c-15.1,5.5-27.6,10.1-27.9,10.1c-0.2,0-0.4-12.2-0.4-29.2V12.8l-1.4-1.4c-1.2-1.1-1.8-1.4-3.5-1.4C162.8,10,161.5,10.3,160.9,10.9z M158.8,116.6v30.5l-28.5,10.5c-15.7,5.8-29.6,10.9-30.8,11.4l-2.3,0.9v-30.5v-30.5l30.7-11.4c16.9-6.2,30.7-11.4,30.8-11.4C158.8,86.1,158.8,99.8,158.8,116.6z"/></g></g></g>
</svg>