<?xml version="1.0" encoding="utf-8"?>
<!-- Svg Vector Icons : http://www.onlinewebfonts.com/icon -->
<!DOCTYPE svg PUBLIC "-//W3C//DTD SVG 1.1//EN" "http://www.w3.org/Graphics/SVG/1.1/DTD/svg11.dtd">
<svg version="1.1" xmlns="http://www.w3.org/2000/svg" xmlns:xlink="http://www.w3.org/1999/xlink" x="0px" y="0px" viewBox="0 0 256 256" enable-background="new 0 0 256 256" xml:space="preserve">
<metadata> Svg Vector Icons : http://www.onlinewebfonts.com/icon </metadata>
<g><g><g><path fill="#000000" d="M19.9,10.4c-3.4,1.1-6.9,4-8.7,7.5c-0.9,1.7-0.9,5.5-1.1,109.6L10,235.2l1.1,2.5c1.5,3.2,3.8,5.5,7,7l2.5,1.2h75.8c75.1,0,75.8,0,78-1c2.7-1.2,5.6-3.9,7.1-6.6c0.9-1.7,1.1-3,1.2-8.7l0.2-6.8h-4.2h-4.2l-0.2,6.5c-0.1,6.1-0.2,6.5-1.3,7.4c-1.1,0.9-3.1,0.9-76.7,0.9H20.8l-1.2-1.2l-1.2-1.2V128c0-104.7,0-107.1,0.9-108.3l0.9-1.2h48.6h48.5l0.1,28.2l0.1,28.3l28.3,0.1l28.2,0.1l0.1,13.7l0.1,13.7h4.2h4.2l-0.1-18.9L182.6,65l-1.4-2.5c-1.9-3.4-48-49.5-51.2-51.1l-2.2-1.1l-53.3-0.1C45.1,10,20.6,10.2,19.9,10.4z M150.9,42.9c12.7,12.7,23.1,23.3,23.1,23.5s-10.8,0.3-23.9,0.3H126V42.8c0-22.7,0.1-23.9,0.9-23.5C127.4,19.5,138.1,30.1,150.9,42.9z"/><path fill="#000000" d="M79.9,118.4c-2.3,1.2-4.7,3.7-5.7,5.8c-0.9,1.9-0.9,4-0.9,38.4c0,29.8,0.1,36.7,0.7,38.1c1,2.4,3.7,5.3,6,6.3c1.9,0.9,5.6,0.9,79.7,0.9c74.5,0,77.9,0,79.8-0.9c2.4-1.1,5.5-4.5,6.1-6.9c0.3-1.1,0.5-15.5,0.5-37.7c0-39.6,0.1-37.9-3.1-41.2c-0.9-0.9-2.4-2.1-3.4-2.6c-1.8-0.9-4-0.9-80-0.9C89.3,117.6,81.2,117.7,79.9,118.4z M237.5,161.8c0.1,19.6,0,36-0.1,36.7l-0.2,1.1l-77.7-0.1l-77.6-0.1l-0.1-36c-0.1-19.8,0-36.3,0.1-36.7c0.1-0.5,16-0.6,77.9-0.5l77.7,0.1L237.5,161.8z"/><path fill="#000000" d="M109.7,140.1c-7.4,1.4-11.8,5.8-11.9,11.9c0,3.2,0.6,4.9,2.6,7c2.3,2.4,5.4,3.8,12.2,5.5c10.2,2.6,13.2,4.6,12.6,8.9c-0.5,4.1-3.7,6.4-9.5,6.8c-6.9,0.4-12.3-2.4-13.7-7.3c-0.6-2.3-0.6-2.3-3-2.4c-1.3-0.1-2.6,0-2.8,0.3c-0.7,0.7,0.5,5.3,2.2,7.8c3.1,4.7,8.2,6.9,15.9,6.9c3.9,0,5.5-0.2,7.7-1.1c5.7-2.2,8.9-6.6,8.9-12.1c0-3.2-0.8-5.2-3.2-7.7c-2.2-2.4-4.4-3.4-12.6-5.5c-10.1-2.7-11.3-3.3-11.7-6.8c-0.5-4.2,3.3-7,9.4-7.1c6.4,0,9.5,1.8,10.7,6.2c0.6,2.3,0.6,2.3,2.4,2c0.9-0.1,2.2-0.3,2.8-0.3c1,0,1.1-0.2,0.8-1.6c-0.9-4.7-4-8.5-8.4-10.2C118.7,140.3,112.1,139.6,109.7,140.1z"/><path fill="#000000" d="M194.7,140.3c-7.6,1.3-13.4,6.5-15.8,14.2c-2.1,6.8-1.7,13.7,1.2,19.7c5.8,12,22.2,15.1,35.3,6.6l3-2v-8.1v-8.1H209h-9.4v2.5v2.5h6.4h6.4v4.3v4.4l-2.3,1.2c-5.4,3-10.7,3.6-16,1.9c-4-1.2-6.8-3.6-8.6-7.3c-1.3-2.7-1.4-3.2-1.4-9.2c0-5.9,0.1-6.7,1.3-9.1c3-6.5,9.8-9.8,17.1-8.4c4.3,0.8,7,2.7,8.7,6.2l1.5,3l2.6-0.8l2.5-0.8l-1.2-2.9c-2.1-5.2-5.9-8.1-12-9.5C200.9,139.7,198.7,139.7,194.7,140.3z"/><path fill="#000000" d="M139.5,154.7c3,7.7,6.8,17.5,8.4,21.9l3.1,7.9h3.2h3.1l8.5-21.7l8.5-21.7l-2.7-0.1c-1.5-0.1-2.9,0-3.1,0.2c-0.2,0.3-10.6,27.9-14.1,37.7c-0.2,0.4-0.9-1.1-1.7-3.5c-0.8-2.3-3.9-11-6.8-19.3l-5.4-15.1l-3.2-0.1l-3.2-0.1L139.5,154.7z"/></g></g></g>
</svg>