<?xml version="1.0" encoding="utf-8"?>
<!-- Svg Vector Icons : http://www.onlinewebfonts.com/icon -->
<!DOCTYPE svg PUBLIC "-//W3C//DTD SVG 1.1//EN" "http://www.w3.org/Graphics/SVG/1.1/DTD/svg11.dtd">
<svg version="1.1" xmlns="http://www.w3.org/2000/svg" xmlns:xlink="http://www.w3.org/1999/xlink" x="0px" y="0px" viewBox="0 0 256 256" enable-background="new 0 0 256 256" xml:space="preserve">
<metadata> Svg Vector Icons : http://www.onlinewebfonts.com/icon </metadata>
<g><g><g><path fill="#000000" d="M57.1,21.6v11.6H128h70.9V21.6V10H128H57.1V21.6z"/><path fill="#000000" d="M57.1,57.1v11.6H128h70.9V57.1V45.5H128H57.1V57.1z"/><path fill="#000000" d="M57.1,92.5v11.6H128h70.9V92.5V80.9H128H57.1V92.5z"/><path fill="#000000" d="M100.1,151.2l-27.5,27.5l8.2,8.2l8.1,8.1l13.3-13.3c7.3-7.3,13.5-13.3,13.7-13.3c0.3,0,0.4,17.4,0.4,38.8V246H128h11.6v-38.8c0-21.3,0.2-38.8,0.4-38.8c0.2,0,6.4,6,13.7,13.3l13.3,13.3l8.1-8.1l8.2-8.2l-27.5-27.5c-15.2-15.2-27.7-27.6-27.9-27.6S115.3,136,100.1,151.2z"/></g></g></g>
</svg>